<?xml version="1.0" encoding="utf-8"?>
<!-- Generator: Adobe Illustrator 16.0.0, SVG Export Plug-In . SVG Version: 6.00 Build 0)  -->
<!DOCTYPE svg PUBLIC "-//W3C//DTD SVG 1.1//EN" "http://www.w3.org/Graphics/SVG/1.1/DTD/svg11.dtd">
<svg version="1.1" id="Layer_1" xmlns="http://www.w3.org/2000/svg" xmlns:xlink="http://www.w3.org/1999/xlink" x="0px" y="0px"
	 width="100px" height="700px" viewBox="-370.5 647.5 100 700" enable-background="new -370.5 647.5 100 700" xml:space="preserve">
<g id="Guides">
</g>
<g id="Layer_1_1_">
	<g>
		
			<linearGradient id="SVGID_1_" gradientUnits="userSpaceOnUse" x1="-370.3901" y1="629.4656" x2="-370.3901" y2="589.6769" gradientTransform="matrix(1 0 0 1 49.8896 87.7188)">
			<stop  offset="0" style="stop-color:#375899"/>
			<stop  offset="0.989" style="stop-color:#93B0E4"/>
		</linearGradient>
		<path fill="url(#SVGID_1_)" d="M-300.501,709.531c0,4.394-3.521,7.957-7.916,7.957l-24.083,0.043c-4.396,0-8-3.607-8-8.001v-24.04
			c0-4.396,3.562-7.958,7.958-7.958h24.083c4.396,0,7.957,3.562,7.957,7.958L-300.501,709.531L-300.501,709.531z"/>
		<g>
			
				<linearGradient id="SVGID_2_" gradientUnits="userSpaceOnUse" x1="-376.2139" y1="609.8123" x2="-364.5674" y2="609.8123" gradientTransform="matrix(1 0 0 1 49.8896 87.7188)">
				<stop  offset="0" style="stop-color:#EBE9E9"/>
				<stop  offset="1" style="stop-color:#F5F5F5"/>
			</linearGradient>
			<path fill="url(#SVGID_2_)" d="M-318.576,710.016h-5.166V697.53h-2.582v-4.305h2.582v-2.583c0-3.51,1.459-5.598,5.596-5.598
				h3.443v4.303h-2.148c-1.613,0-1.721,0.604-1.721,1.727l-0.004,2.152h3.898l-0.453,4.305h-3.445V710.016z"/>
		</g>
	</g>
	<rect x="-370.5" y="647.5" opacity="0.2" fill="#EB212E" enable-background="new    " width="1" height="1"/>
	<g>
		
			<linearGradient id="SVGID_3_" gradientUnits="userSpaceOnUse" x1="-370.3896" y1="929.5603" x2="-370.3896" y2="889.8908" gradientTransform="matrix(1 0 0 1 49.8896 87.7188)">
			<stop  offset="0" style="stop-color:#D7D7D7"/>
			<stop  offset="1" style="stop-color:#EAEAEA"/>
		</linearGradient>
		<path fill="url(#SVGID_3_)" d="M-300.5,1009.555c0,4.395-3.562,7.957-7.957,7.957h-24.086c-4.395,0-7.957-3.562-7.957-7.957
			v-24.084c0-4.396,3.562-7.959,7.957-7.959h24.086c4.395,0,7.957,3.562,7.957,7.959V1009.555z"/>
		<g>
			<g>
				<g>
					
						<linearGradient id="SVGID_5_" gradientUnits="userSpaceOnUse" x1="-370.2944" y1="907.616" x2="-370.2944" y2="921.792" gradientTransform="matrix(1 0 0 1 49.8896 87.7188)">
						<stop  offset="0" style="stop-color:#ED2E2C"/>
						<stop  offset="0.0056" style="stop-color:#ED2E2C"/>
						<stop  offset="0.5" style="stop-color:#ED3F3A"/>
						<stop  offset="0.9944" style="stop-color:#BE2627"/>
						<stop  offset="1" style="stop-color:#BE2627"/>
					</linearGradient>
					<path id="SVGID_4_" fill="url(#SVGID_5_)" d="M-320.407,995.4c-0.121,0-0.242,0-0.367,0c-2.336,0-4.645,0.047-6.891,0.145
						c-1.66,0-3.004,1.326-3.004,2.969c-0.102,1.297-0.148,2.596-0.141,3.893c-0.008,1.305,0.039,2.6,0.141,3.898
						c0,1.643,1.344,2.971,3.004,2.971c2.363,0.098,4.793,0.141,7.258,0.137c2.474,0.004,4.896-0.039,7.263-0.137
						c1.664,0,3.004-1.328,3.004-2.971c0.099-1.301,0.146-2.598,0.142-3.898c0.004-1.297-0.043-2.596-0.142-3.893
						c0-1.643-1.34-2.969-3.004-2.969c-2.25-0.098-4.551-0.145-6.892-0.145C-320.157,995.4-320.278,995.4-320.407,995.4"/>
				</g>
			</g>
			<g>
				<g>
					<polygon id="SVGID_7_" points="-324.305,984.453 -325.18,988.135 -325.274,988.135 -326.196,984.453 -327.629,984.453 
						-325.938,990.01 -325.938,993.658 -324.52,993.658 -324.52,989.842 -322.856,984.453 					"/>
				</g>
			</g>
			<g>
				<g>
					<path id="SVGID_9_" d="M-321.489,992.5c-0.094-0.102-0.137-0.244-0.137-0.434v-3.699c0-0.146,0.043-0.266,0.148-0.355
						c0.094-0.092,0.215-0.139,0.371-0.139c0.164,0,0.301,0.047,0.402,0.139c0.105,0.092,0.156,0.211,0.156,0.355v3.699
						c0,0.184-0.047,0.328-0.148,0.43c-0.101,0.104-0.238,0.154-0.41,0.154C-321.274,992.65-321.399,992.598-321.489,992.5
						 M-322.415,987.164c-0.336,0.312-0.512,0.73-0.512,1.26l0.008,3.52c0,0.578,0.16,1.035,0.488,1.377
						c0.336,0.342,0.777,0.516,1.328,0.516c0.574,0,1.023-0.172,1.352-0.498c0.323-0.33,0.492-0.791,0.492-1.369v-3.508
						c0-0.518-0.169-0.938-0.5-1.27c-0.332-0.332-0.762-0.492-1.285-0.492C-321.618,986.697-322.075,986.85-322.415,987.164"/>
				</g>
			</g>
			<g>
				<g>
					<path id="SVGID_11_" d="M-315.844,986.865v5.158c-0.125,0.145-0.25,0.27-0.391,0.363c-0.146,0.098-0.264,0.141-0.354,0.141
						c-0.125,0-0.203-0.031-0.264-0.104c-0.051-0.07-0.078-0.188-0.078-0.354v-5.205h-1.262v5.68c0,0.404,0.074,0.705,0.225,0.906
						c0.146,0.205,0.365,0.309,0.65,0.309c0.242,0,0.492-0.074,0.742-0.221c0.25-0.143,0.492-0.354,0.727-0.629v0.748h1.264v-6.793
						H-315.844z"/>
				</g>
			</g>
			<path fill="#FFFFFF" d="M-324.836,997.674h-4.359v1.336h1.469v7.871h1.422v-7.871h1.469L-324.836,997.674L-324.836,997.674z
				 M-322.512,1005.24c-0.117,0.148-0.246,0.271-0.387,0.365c-0.145,0.098-0.254,0.145-0.352,0.145
				c-0.121,0-0.203-0.033-0.258-0.107c-0.055-0.07-0.078-0.188-0.078-0.35v-5.205h-1.262v5.678c0,0.403,0.07,0.705,0.219,0.908
				c0.148,0.199,0.367,0.301,0.66,0.301c0.234,0,0.48-0.07,0.734-0.215c0.254-0.145,0.488-0.354,0.723-0.629v0.75h1.266v-6.793
				h-1.266L-322.512,1005.24L-322.512,1005.24z M-317.613,1000c-0.199,0-0.392,0.055-0.591,0.16
				c-0.185,0.109-0.366,0.271-0.53,0.477v-2.963h-1.278v9.207h1.278v-0.523c0.159,0.207,0.344,0.355,0.53,0.459
				c0.199,0.1,0.418,0.15,0.66,0.15c0.375,0,0.66-0.129,0.862-0.387c0.195-0.258,0.293-0.627,0.293-1.105v-3.771
				c0-0.555-0.108-0.977-0.315-1.266C-316.915,1000.146-317.219,1000-317.613,1000 M-317.688,1005.287
				c0,0.219-0.035,0.369-0.104,0.469c-0.078,0.094-0.189,0.143-0.35,0.143c-0.104,0-0.201-0.025-0.305-0.076
				c-0.094-0.047-0.195-0.125-0.293-0.234v-4.23c0.078-0.094,0.168-0.162,0.254-0.207c0.094-0.045,0.186-0.07,0.271-0.07
				c0.168,0,0.301,0.064,0.393,0.184c0.086,0.117,0.133,0.291,0.133,0.52V1005.287z M-311.719,1003.639v-1.729
				c0-0.645-0.156-1.139-0.469-1.479c-0.311-0.348-0.754-0.521-1.332-0.521c-0.562,0-1.023,0.188-1.379,0.557
				c-0.359,0.373-0.535,0.854-0.535,1.441v3.045c0,0.656,0.164,1.174,0.482,1.546c0.324,0.37,0.771,0.562,1.338,0.562
				c0.633,0,1.104-0.176,1.422-0.529c0.312-0.354,0.473-0.877,0.473-1.575v-0.513h-1.301v0.479c0,0.4-0.039,0.654-0.125,0.771
				c-0.082,0.115-0.229,0.176-0.438,0.176c-0.203,0-0.345-0.068-0.426-0.207c-0.082-0.137-0.125-0.383-0.125-0.74v-1.283H-311.719
				L-311.719,1003.639z M-314.133,1001.898c0-0.281,0.047-0.486,0.129-0.609c0.094-0.119,0.23-0.186,0.438-0.186
				c0.191,0,0.332,0.064,0.414,0.186c0.094,0.123,0.133,0.328,0.133,0.609v0.689h-1.111L-314.133,1001.898L-314.133,1001.898z"/>
		</g>
	</g>
	<g>
		
			<linearGradient id="SVGID_6_" gradientUnits="userSpaceOnUse" x1="-370.3896" y1="829.6667" x2="-370.3896" y2="789.6667" gradientTransform="matrix(1 0 0 1 49.8896 87.7188)">
			<stop  offset="0" style="stop-color:#DA1F22"/>
			<stop  offset="1" style="stop-color:#EE584A"/>
		</linearGradient>
		<path fill="url(#SVGID_6_)" d="M-340.51,909.511c0,4.418,3.582,8,8,8h24.02c4.418,0,8-3.582,8-8v-24c0-4.42-3.582-8-8-8h-24.02
			c-4.418,0-8,3.58-8,8V909.511z"/>
		
			<linearGradient id="SVGID_8_" gradientUnits="userSpaceOnUse" x1="-368.4971" y1="801.8142" x2="-350.3994" y2="801.8142" gradientTransform="matrix(1 0 0 1 49.8896 87.7188)">
			<stop  offset="0" style="stop-color:#EBE9E9"/>
			<stop  offset="1" style="stop-color:#F5F5F5"/>
		</linearGradient>
		<polygon fill="url(#SVGID_8_)" points="-308.094,880.597 -311.25,880.597 -311.25,887.957 -318.607,887.957 -318.607,891.046 
			-311.25,891.046 -311.25,898.469 -308.094,898.469 -308.094,891.046 -300.51,891.046 -300.51,887.957 -308.094,887.957 		"/>
		
			<linearGradient id="SVGID_10_" gradientUnits="userSpaceOnUse" x1="-379.1323" y1="829.7917" x2="-379.1323" y2="792.8787" gradientTransform="matrix(1 0 0 1 49.8896 87.7188)">
			<stop  offset="0" style="stop-color:#EBE9E9"/>
			<stop  offset="1" style="stop-color:#F5F5F5"/>
		</linearGradient>
		<path fill="url(#SVGID_10_)" d="M-323.973,905.863l-2.09-1.629c-0.635-0.523-1.508-1.223-1.508-2.504
			c0-1.283,0.873-2.104,1.627-2.855c2.438-1.918,4.705-3.961,4.705-8.27c0-3.936-2.127-6.145-3.551-7.379c0.484,0,3.555,0,3.555,0
			l3.26-2.629h-12.271c-3.033,0.057-6.666,0.516-9.977,3.252c-0.045,0.037-0.09,0.084-0.133,0.123
			c-0.098,0.5-0.156,1.012-0.156,1.539v13.096c1.574,1.252,3.666,2.188,6.211,2.188c0.578,0,1.213-0.061,1.854-0.115
			c-0.287,0.701-0.578,1.281-0.578,2.271c0,1.807,0.926,2.91,1.74,3.961c-2.17,0.146-6.58-0.205-9.227,1.75v0.85
			c0,0.732,0.131,1.434,0.316,2.107c1.178-1.246,2.717-1.875,3.453-2.146c2.441-0.812,5.576-0.934,6.098-0.934
			c0.578,0,0.865,0,1.33,0.062c4.412,3.146,7.58,4.768,7.611,7.742c0.006,0.535-0.139,0.902-0.221,1.166h3.393
			c0.33-0.807,0.443-1.924,0.443-2.979C-318.086,910.513-321.42,908.019-323.973,905.863z M-331.377,898.469
			c-4.992,0-7.041-5.771-7.041-9.67c0-1.518,0.15-3.088,1.141-4.311c0.93-1.166,2.553-1.924,4.066-1.924
			c4.809,0,7.242,6.521,7.242,10.719c0,0.84-0.424,2.48-1.518,3.73C-328.438,898.101-329.928,898.469-331.377,898.469z"/>
	</g>
	<g>
		
			<linearGradient id="SVGID_12_" gradientUnits="userSpaceOnUse" x1="-370.3901" y1="729.6707" x2="-370.3901" y2="689.6707" gradientTransform="matrix(1 0 0 1 49.8896 87.7188)">
			<stop  offset="0" style="stop-color:#1895BE"/>
			<stop  offset="1" style="stop-color:#5ECBE6"/>
		</linearGradient>
		<path fill="url(#SVGID_12_)" d="M-300.5,809.554c0,4.395-3.561,7.957-7.957,7.957h-24.085c-4.396,0-7.959-3.562-7.959-7.957
			V785.47c0-4.396,3.562-7.959,7.959-7.959h24.084c4.396,0,7.957,3.562,7.957,7.959L-300.5,809.554L-300.5,809.554z"/>
		
			<linearGradient id="SVGID_13_" gradientUnits="userSpaceOnUse" x1="-385.6445" y1="710.2908" x2="-355.0596" y2="710.2908" gradientTransform="matrix(1 0 0 1 49.8896 87.7188)">
			<stop  offset="0" style="stop-color:#EBE9E9"/>
			<stop  offset="1" style="stop-color:#F5F5F5"/>
		</linearGradient>
		<path fill="url(#SVGID_13_)" d="M-305.17,788.523c-1.127,0.504-2.334,0.838-3.604,0.992c1.295-0.777,2.293-2.01,2.756-3.475
			c-1.211,0.721-2.551,1.242-3.986,1.521c-1.137-1.215-2.768-1.98-4.572-1.98c-3.467,0-6.277,2.811-6.277,6.273
			c0,0.492,0.055,0.971,0.16,1.43c-5.215-0.262-9.838-2.758-12.934-6.555c-0.537,0.926-0.848,2.008-0.848,3.156
			c0,2.176,1.105,4.098,2.793,5.223c-1.033-0.035-1.998-0.316-2.846-0.785c-0.004,0.027-0.004,0.055-0.004,0.082
			c0,3.039,2.168,5.57,5.039,6.15c-0.529,0.143-1.08,0.219-1.654,0.219c-0.408,0-0.801-0.037-1.18-0.111
			c0.797,2.492,3.113,4.307,5.859,4.355c-2.141,1.684-4.848,2.688-7.793,2.688c-0.506,0-1.008-0.025-1.494-0.088
			c2.773,1.779,6.068,2.818,9.619,2.818c11.537,0,17.854-9.562,17.854-17.854c0-0.275-0.006-0.543-0.021-0.812
			C-307.077,790.89-306.012,789.781-305.17,788.523z"/>
	</g>
	<g>
		
			<linearGradient id="SVGID_14_" gradientUnits="userSpaceOnUse" x1="-370.3896" y1="1029.4451" x2="-370.3896" y2="989.8738" gradientTransform="matrix(1 0 0 1 49.8896 87.7188)">
			<stop  offset="0" style="stop-color:#005B90"/>
			<stop  offset="1" style="stop-color:#6DB7D6"/>
		</linearGradient>
		<path fill="url(#SVGID_14_)" d="M-300.5,1109.555c0,4.395-3.562,7.957-7.959,7.957h-24.084c-4.396,0-7.957-3.562-7.957-7.957
			v-24.084c0-4.396,3.561-7.959,7.957-7.959h24.084c4.396,0,7.959,3.562,7.959,7.959V1109.555z"/>
		<g>
			<g>
				
					<linearGradient id="SVGID_15_" gradientUnits="userSpaceOnUse" x1="-381.4668" y1="1008.822" x2="-376.2236" y2="1008.822" gradientTransform="matrix(1 0 0 1 49.8896 87.7188)">
					<stop  offset="0" style="stop-color:#EBE9E9"/>
					<stop  offset="1" style="stop-color:#F5F5F5"/>
				</linearGradient>
				<path fill="url(#SVGID_15_)" d="M-326.637,1106.938v-14.031h-4.666v14.031H-326.637L-326.637,1106.938z M-328.969,1090.992
					c1.617,0,2.635-1.08,2.635-2.426c-0.027-1.377-1.018-2.424-2.604-2.424c-1.598,0-2.639,1.047-2.639,2.424
					c0,1.346,1.016,2.426,2.574,2.426H-328.969L-328.969,1090.992z"/>
				
					<linearGradient id="SVGID_16_" gradientUnits="userSpaceOnUse" x1="-373.9487" y1="1012.0378" x2="-359.7119" y2="1012.0378" gradientTransform="matrix(1 0 0 1 49.8896 87.7188)">
					<stop  offset="0" style="stop-color:#EBE9E9"/>
					<stop  offset="1" style="stop-color:#F5F5F5"/>
				</linearGradient>
				<path fill="url(#SVGID_16_)" d="M-324.057,1106.938h4.661v-7.836c0-0.42,0.024-0.84,0.151-1.141
					c0.341-0.838,1.108-1.703,2.399-1.703c1.685,0,2.357,1.285,2.357,3.174v7.506h4.666v-8.047c0-4.311-2.306-6.316-5.371-6.316
					c-2.519,0-3.619,1.41-4.236,2.369h0.031v-2.037h-4.661C-324,1094.225-324.057,1106.938-324.057,1106.938L-324.057,1106.938z"/>
			</g>
		</g>
	</g>
	<g>
		
			<linearGradient id="SVGID_17_" gradientUnits="userSpaceOnUse" x1="-370.3896" y1="1229.5583" x2="-370.3896" y2="1189.661" gradientTransform="matrix(1 0 0 1 49.8896 87.7188)">
			<stop  offset="0" style="stop-color:#CA2027"/>
			<stop  offset="1" style="stop-color:#D65156"/>
		</linearGradient>
		<path fill="url(#SVGID_17_)" d="M-300.5,1309.555c0,4.395-3.562,7.957-7.959,7.957h-24.084c-4.396,0-7.957-3.562-7.957-7.957
			v-24.084c0-4.396,3.561-7.959,7.957-7.959h24.084c4.396,0,7.959,3.562,7.959,7.959V1309.555z"/>
		
			<linearGradient id="SVGID_18_" gradientUnits="userSpaceOnUse" x1="-380.9219" y1="1210.9919" x2="-359.7715" y2="1210.9919" gradientTransform="matrix(1 0 0 1 49.8896 87.7188)">
			<stop  offset="0" style="stop-color:#EBE9E9"/>
			<stop  offset="1" style="stop-color:#F5F5F5"/>
		</linearGradient>
		<path fill="url(#SVGID_18_)" d="M-319.816,1285.052c-7.456,0-11.216,5.348-11.216,9.803c0,2.699,1.023,5.1,3.215,5.994
			c0.359,0.146,0.68,0.006,0.789-0.396c0.068-0.271,0.242-0.969,0.314-1.258c0.104-0.395,0.062-0.531-0.225-0.875
			c-0.627-0.744-1.031-1.709-1.031-3.078c0-3.961,2.961-7.512,7.725-7.512c4.205,0,6.527,2.574,6.527,6.012
			c0,4.523-2.007,8.34-4.982,8.34c-1.635,0-2.863-1.354-2.469-3.02c0.469-1.988,1.39-4.131,1.39-5.566
			c0-1.283-0.696-2.357-2.12-2.357c-1.676,0-3.025,1.734-3.025,4.062c0,1.482,0.502,2.479,0.502,2.479s-1.725,7.281-2.021,8.553
			c-0.6,2.537-0.088,5.65-0.051,5.963c0.025,0.188,0.27,0.23,0.379,0.09c0.148-0.197,2.148-2.67,2.83-5.133
			c0.191-0.698,1.107-4.312,1.107-4.312c0.543,1.037,2.139,1.955,3.827,1.955c5.049,0,8.47-4.6,8.47-10.75
			C-309.883,1289.387-313.82,1285.052-319.816,1285.052z"/>
	</g>
	<g>
		
			<linearGradient id="SVGID_19_" gradientUnits="userSpaceOnUse" x1="-370.3901" y1="1129.6707" x2="-370.3901" y2="1089.6707" gradientTransform="matrix(1 0 0 1 49.8896 87.7188)">
			<stop  offset="0" style="stop-color:#1AB7EA"/>
			<stop  offset="1" style="stop-color:#4BC6EE"/>
		</linearGradient>
		<path fill="url(#SVGID_19_)" d="M-300.5,1209.555c0,4.395-3.562,7.957-7.959,7.957h-24.083c-4.396,0-7.959-3.562-7.959-7.957
			v-24.084c0-4.396,3.562-7.959,7.959-7.959h24.082c4.396,0,7.959,3.562,7.959,7.959L-300.5,1209.555L-300.5,1209.555z"/>
		
			<linearGradient id="SVGID_20_" gradientUnits="userSpaceOnUse" x1="-385.3916" y1="1109.8884" x2="-356.8096" y2="1109.8884" gradientTransform="matrix(1 0 0 1 49.8896 87.7188)">
			<stop  offset="0" style="stop-color:#EBE9E9"/>
			<stop  offset="1" style="stop-color:#F5F5F5"/>
		</linearGradient>
		<path fill="url(#SVGID_20_)" d="M-306.934,1190.967c-0.129,2.775-2.07,6.588-5.83,11.422c-3.879,5.047-7.172,7.574-9.861,7.574
			c-1.662,0-3.076-1.535-4.23-4.613c-0.766-2.82-1.537-5.637-2.305-8.457c-0.852-3.076-1.771-4.613-2.752-4.613
			c-0.219,0-0.963,0.451-2.242,1.35l-1.348-1.734c1.414-1.238,2.805-2.477,4.17-3.717c1.881-1.623,3.297-2.479,4.242-2.568
			c2.217-0.213,3.588,1.312,4.105,4.561c0.555,3.514,0.938,5.697,1.152,6.555c0.643,2.908,1.342,4.367,2.117,4.367
			c0.598,0,1.498-0.945,2.692-2.836c1.201-1.895,1.842-3.326,1.926-4.314c0.17-1.631-0.475-2.451-1.926-2.451
			c-0.685,0-1.39,0.16-2.115,0.473c1.406-4.602,4.089-6.832,8.046-6.705C-308.15,1185.332-306.766,1187.238-306.934,1190.967z"/>
	</g>
</g>
<rect x="-271.479" y="1346.5" opacity="0.2" fill="#EB212E" enable-background="new    " width="1" height="1"/>
</svg>
