<?xml version="1.0" encoding="utf-8"?>
<!-- Generator: Adobe Illustrator 16.0.0, SVG Export Plug-In . SVG Version: 6.00 Build 0)  -->
<!DOCTYPE svg PUBLIC "-//W3C//DTD SVG 1.1//EN" "http://www.w3.org/Graphics/SVG/1.1/DTD/svg11.dtd">
<svg version="1.1" id="Layer_1" xmlns="http://www.w3.org/2000/svg" xmlns:xlink="http://www.w3.org/1999/xlink" x="0px" y="0px"
	 width="100px" height="700px" viewBox="-370.5 647.5 100 700" enable-background="new -370.5 647.5 100 700" xml:space="preserve">
<g id="Guides">
</g>
<g id="Layer_1_1_">
	<g>
		
			<linearGradient id="SVGID_1_" gradientUnits="userSpaceOnUse" x1="-345.4458" y1="-36.8293" x2="-345.4458" y2="26.5503" gradientTransform="matrix(1 0 0 -1 24.9448 691.3589)">
			<stop  offset="0" style="stop-color:#375899"/>
			<stop  offset="0.989" style="stop-color:#93B0E4"/>
		</linearGradient>
		<path fill="url(#SVGID_1_)" d="M-317.419,717.532h-8.27v-19.998h-4.141v-6.895h4.141v-4.142c0-5.621,2.332-8.967,8.96-8.967h5.517
			v6.896h-3.442c-2.589,0-2.755,0.965-2.755,2.758l-0.01,3.455h6.248l-0.728,6.895h-5.521V717.532z"/>
	</g>
	
		<linearGradient id="SVGID_2_" gradientUnits="userSpaceOnUse" x1="-345.4458" y1="-131.5261" x2="-345.4458" y2="-79.6177" gradientTransform="matrix(1 0 0 -1 24.9448 691.3589)">
		<stop  offset="0" style="stop-color:#1895BE"/>
		<stop  offset="1" style="stop-color:#5ECBE6"/>
	</linearGradient>
	<path fill="url(#SVGID_2_)" d="M-300.5,785.104c-1.475,0.653-3.051,1.094-4.715,1.293c1.693-1.017,3-2.625,3.607-4.539
		c-1.588,0.938-3.338,1.625-5.215,1.988c-1.488-1.593-3.619-2.586-5.979-2.586c-4.535,0-8.211,3.668-8.211,8.206
		c0,0.634,0.07,1.263,0.211,1.865c-6.822-0.342-12.867-3.606-16.918-8.576c-0.701,1.214-1.109,2.625-1.109,4.13
		c0,2.844,1.449,5.358,3.654,6.827c-1.352-0.041-2.611-0.409-3.719-1.022c-0.01,0.033-0.01,0.067-0.01,0.104
		c0,3.978,2.836,7.291,6.59,8.045c-0.689,0.189-1.41,0.289-2.158,0.289c-0.535,0-1.051-0.051-1.547-0.146
		c1.043,3.258,4.072,5.631,7.666,5.697c-2.801,2.202-6.34,3.514-10.193,3.514c-0.66,0-1.318-0.041-1.955-0.115
		c3.627,2.328,7.939,3.688,12.582,3.688c15.09,0,23.349-12.506,23.349-23.349c0-0.354-0.007-0.711-0.025-1.062
		C-302.994,788.198-301.602,786.749-300.5,785.104z"/>
	<g>
		
			<linearGradient id="SVGID_3_" gradientUnits="userSpaceOnUse" x1="-345.4453" y1="-226.0261" x2="-345.4453" y2="-186.0261" gradientTransform="matrix(1 0 0 -1 24.9448 691.3589)">
			<stop  offset="0" style="stop-color:#DA1F22"/>
			<stop  offset="1" style="stop-color:#EE584A"/>
		</linearGradient>
		<path fill="url(#SVGID_3_)" d="M-340.51,909.512c0,4.418,3.582,8,8,8h24.02c4.418,0,8-3.582,8-8v-24c0-4.418-3.582-8-8-8h-24.02
			c-4.418,0-8,3.582-8,8V909.512z"/>
		
			<linearGradient id="SVGID_4_" gradientUnits="userSpaceOnUse" x1="-343.5522" y1="-198.175" x2="-325.4546" y2="-198.175" gradientTransform="matrix(1 0 0 -1 24.9448 691.3589)">
			<stop  offset="0" style="stop-color:#EBE9E9"/>
			<stop  offset="1" style="stop-color:#F5F5F5"/>
		</linearGradient>
		<polygon fill="url(#SVGID_4_)" points="-308.094,880.598 -311.25,880.598 -311.25,887.956 -318.607,887.956 -318.607,891.047 
			-311.25,891.047 -311.25,898.469 -308.094,898.469 -308.094,891.047 -300.51,891.047 -300.51,887.956 -308.094,887.956 		"/>
		
			<linearGradient id="SVGID_5_" gradientUnits="userSpaceOnUse" x1="-354.188" y1="-226.1541" x2="-354.188" y2="-189.239" gradientTransform="matrix(1 0 0 -1 24.9448 691.3589)">
			<stop  offset="0" style="stop-color:#EBE9E9"/>
			<stop  offset="1" style="stop-color:#F5F5F5"/>
		</linearGradient>
		<path fill="url(#SVGID_5_)" d="M-317.975,880.598h-12.271c-3.033,0.057-6.666,0.514-9.977,3.252
			c-0.098,0.082-0.191,0.176-0.289,0.268v14.49c1.574,1.25,3.666,2.188,6.211,2.188c0.578,0,1.213-0.059,1.854-0.116
			c-0.287,0.702-0.578,1.284-0.578,2.272c0,1.81,0.926,2.91,1.74,3.961c-2.17,0.148-6.58-0.203-9.227,1.75v3.271
			c1.199-1.48,2.969-2.164,3.77-2.457c2.441-0.812,5.576-0.933,6.098-0.933c0.578,0,0.865,0,1.33,0.062
			c4.412,3.145,7.58,4.766,7.611,7.742c0.006,0.534-0.139,0.901-0.221,1.166h3.394c0.329-0.808,0.442-1.925,0.442-2.979
			c0-4.02-3.334-6.516-5.887-8.672l-2.09-1.629c-0.635-0.523-1.508-1.223-1.508-2.504s0.873-2.101,1.627-2.854
			c2.438-1.918,4.705-3.963,4.705-8.271c0-3.933-2.127-6.142-3.551-7.377c0.484,0,3.555,0,3.555,0L-317.975,880.598z
			 M-327.486,897.014c-0.951,1.086-2.441,1.455-3.891,1.455c-4.992,0-7.041-5.771-7.041-9.671c0-1.516,0.15-3.086,1.141-4.309
			c0.93-1.168,2.553-1.924,4.066-1.924c4.809,0,7.242,6.521,7.242,10.717C-325.969,894.124-326.393,895.764-327.486,897.014z"/>
	</g>
	<g>
		<g>
			
				<linearGradient id="SVGID_6_" gradientUnits="userSpaceOnUse" x1="-360.7158" y1="-443.2542" x2="-360.7158" y2="-371.6766" gradientTransform="matrix(1 0 0 -1 24.9448 691.3589)">
				<stop  offset="0" style="stop-color:#005B90"/>
				<stop  offset="1" style="stop-color:#6DB7D6"/>
			</linearGradient>
			<path fill="url(#SVGID_6_)" d="M-331.507,1116.632v-25.804h-8.584v25.804H-331.507L-331.507,1116.632z M-335.796,1087.311
				c2.994,0,4.844-1.986,4.844-4.463c-0.043-2.531-1.85-4.455-4.795-4.455c-2.924,0-4.842,1.924-4.842,4.455
				c0,2.477,1.859,4.463,4.732,4.463H-335.796L-335.796,1087.311z"/>
			
				<linearGradient id="SVGID_7_" gradientUnits="userSpaceOnUse" x1="-338.4458" y1="-443.2542" x2="-338.4458" y2="-371.6813" gradientTransform="matrix(1 0 0 -1 24.9448 691.3589)">
				<stop  offset="0" style="stop-color:#005B90"/>
				<stop  offset="1" style="stop-color:#6DB7D6"/>
			</linearGradient>
			<path fill="url(#SVGID_7_)" d="M-326.589,1116.632h8.58v-14.41c0-0.769,0.057-1.541,0.286-2.088
				c0.607-1.541,2.021-3.138,4.396-3.138c3.1,0,4.332,2.369,4.332,5.836v13.8h8.582v-14.793c0-7.923-4.221-11.611-9.873-11.611
				c-4.623,0-6.658,2.588-7.781,4.35h0.058v-3.944h-8.58V1116.632L-326.589,1116.632z"/>
		</g>
	</g>
	<g>
		<path fill="#CA2027" d="M-320.502,1277.512c-11.047,0-19.998,8.955-19.998,19.998c0,8.188,4.918,15.227,11.965,18.317
			c-0.057-1.396-0.01-3.071,0.348-4.592c0.387-1.625,2.576-10.899,2.576-10.899s-0.641-1.275-0.641-3.16
			c0-2.965,1.723-5.179,3.861-5.179c1.82,0,2.706,1.361,2.706,3c0,1.828-1.172,4.566-1.773,7.099
			c-0.494,2.123,1.061,3.852,3.154,3.852c3.787,0,6.344-4.864,6.344-10.631c0-4.381-2.959-7.662-8.318-7.662
			c-6.078,0-9.85,4.523-9.85,9.578c0,1.738,0.506,2.967,1.318,3.922c0.363,0.435,0.416,0.611,0.275,1.113
			c-0.09,0.367-0.307,1.25-0.4,1.604c-0.133,0.505-0.537,0.688-0.996,0.498c-2.795-1.141-4.1-4.2-4.1-7.639
			c0-5.68,4.797-12.492,14.3-12.492c7.635,0,12.653,5.525,12.653,11.453c0,7.844-4.356,13.709-10.787,13.709
			c-2.158,0-4.188-1.168-4.881-2.498c0,0-1.168,4.613-1.406,5.5c-0.43,1.543-1.264,3.082-2.021,4.285
			c1.803,0.531,3.703,0.822,5.672,0.822c11.053,0,20.002-8.955,20.002-20.002C-300.5,1286.468-309.449,1277.512-320.502,1277.512z"
			/>
	</g>
	<path fill="#1AB7EA" d="M-300.52,1188.227c-0.183,3.885-2.896,9.219-8.16,15.984c-5.43,7.062-10.037,10.598-13.801,10.598
		c-2.324,0-4.303-2.148-5.918-6.455c-1.074-3.943-2.152-7.889-3.227-11.838c-1.193-4.301-2.479-6.449-3.852-6.449
		c-0.309,0-1.35,0.629-3.137,1.883l-1.885-2.423c1.979-1.74,3.926-3.477,5.838-5.209c2.631-2.271,4.609-3.471,5.932-3.59
		c3.104-0.303,5.021,1.83,5.748,6.377c0.777,4.918,1.312,7.977,1.613,9.17c0.898,4.074,1.879,6.115,2.961,6.115
		c0.838,0,2.096-1.324,3.771-3.974c1.68-2.645,2.578-4.651,2.691-6.036c0.239-2.279-0.66-3.429-2.691-3.429
		c-0.957,0-1.945,0.224-2.961,0.652c1.967-6.43,5.719-9.555,11.258-9.383C-302.225,1180.344-300.285,1183.012-300.52,1188.227z"/>
	<g>
		
			<linearGradient id="SVGID_8_" gradientUnits="userSpaceOnUse" x1="-345.4448" y1="-303.5764" x2="-345.4448" y2="-326.1076" gradientTransform="matrix(1 0 0 -1 24.9448 691.3589)">
			<stop  offset="0" style="stop-color:#ED2E2C"/>
			<stop  offset="0.0056" style="stop-color:#ED2E2C"/>
			<stop  offset="0.5" style="stop-color:#ED3F3A"/>
			<stop  offset="0.9944" style="stop-color:#BE2627"/>
			<stop  offset="1" style="stop-color:#BE2627"/>
		</linearGradient>
		<path fill="url(#SVGID_8_)" d="M-320.502,995.057c-0.191,0-0.391,0-0.586,0c-3.758,0-7.441,0.074-11.051,0.225
			c-2.656,0-4.809,2.129-4.809,4.758c-0.164,2.085-0.238,4.166-0.23,6.246c-0.008,2.082,0.066,4.164,0.23,6.248
			c0,2.627,2.152,4.761,4.809,4.761c3.793,0.157,7.688,0.225,11.637,0.219c3.961,0.006,7.844-0.062,11.641-0.219
			c2.664,0,4.816-2.134,4.816-4.761c0.16-2.084,0.23-4.166,0.223-6.248c0.008-2.08-0.062-4.161-0.223-6.246
			c0-2.629-2.152-4.758-4.816-4.758c-3.604-0.149-7.297-0.225-11.051-0.225C-320.1,995.057-320.303,995.057-320.502,995.057"/>
		<g>
			<g>
				<polygon id="SVGID_9_" fill="#231F20" points="-326.752,977.512 -328.162,983.404 -328.303,983.404 -329.787,977.512 
					-332.08,977.512 -329.369,986.412 -329.369,992.264 -327.096,992.264 -327.096,986.145 -324.428,977.512 				"/>
			</g>
		</g>
		<g>
			<g>
				<path id="SVGID_11_" fill="#231F20" d="M-322.232,990.41c-0.152-0.166-0.219-0.395-0.219-0.69v-5.935
					c0-0.237,0.074-0.426,0.223-0.575c0.16-0.144,0.367-0.218,0.605-0.218c0.266,0,0.484,0.074,0.645,0.218
					c0.168,0.149,0.254,0.338,0.254,0.575v5.935c0,0.289-0.074,0.516-0.254,0.684c-0.152,0.164-0.375,0.248-0.645,0.248
					C-321.889,990.65-322.092,990.568-322.232,990.41 M-323.721,981.855c-0.555,0.5-0.816,1.17-0.816,2.012v5.644
					c0,0.928,0.262,1.664,0.793,2.209c0.531,0.545,1.242,0.824,2.129,0.824c0.922,0,1.641-0.271,2.168-0.8
					c0.52-0.532,0.785-1.26,0.785-2.192v-5.623c0-0.826-0.266-1.506-0.801-2.033c-0.535-0.525-1.219-0.787-2.059-0.787
					C-322.443,981.107-323.17,981.352-323.721,981.855"/>
			</g>
		</g>
		<g>
			<g>
				<path id="SVGID_13_" fill="#231F20" d="M-313.197,981.38v8.264c-0.191,0.236-0.391,0.432-0.617,0.584
					c-0.233,0.156-0.426,0.229-0.562,0.229c-0.203,0-0.328-0.055-0.418-0.176c-0.082-0.11-0.125-0.299-0.125-0.555v-8.348h-2.031
					v9.1c0,0.65,0.125,1.131,0.359,1.451c0.241,0.326,0.59,0.492,1.055,0.492c0.384,0,0.781-0.117,1.185-0.351
					c0.395-0.229,0.789-0.571,1.156-1.01v1.201h2.03v-10.885h-2.032V981.38z"/>
			</g>
		</g>
		<path fill="#FFFFFF" d="M-327.6,998.697h-6.996v2.14h2.359v12.616h2.277v-12.616h2.36V998.697z M-323.877,1010.83
			c-0.188,0.234-0.398,0.431-0.617,0.582c-0.234,0.154-0.422,0.229-0.566,0.229c-0.191,0-0.32-0.053-0.414-0.172
			c-0.086-0.117-0.125-0.301-0.125-0.56v-8.34h-2.023v9.094c0,0.648,0.117,1.136,0.352,1.461c0.234,0.32,0.59,0.484,1.059,0.484
			c0.379,0,0.77-0.113,1.18-0.348c0.406-0.23,0.781-0.566,1.156-1.012v1.202h2.023v-10.882h-2.023v8.26H-323.877z M-316.033,1002.43
			c-0.309,0-0.625,0.088-0.934,0.258c-0.293,0.176-0.594,0.428-0.867,0.758v-4.748h-2.047v14.756h2.047v-0.838
			c0.273,0.334,0.562,0.574,0.863,0.732c0.312,0.164,0.66,0.242,1.062,0.242c0.599,0,1.052-0.207,1.38-0.617
			c0.315-0.41,0.473-1.004,0.473-1.777v-6.037c0-0.889-0.176-1.567-0.508-2.028C-314.904,1002.664-315.389,1002.43-316.033,1002.43
			 M-316.143,1010.902c0,0.348-0.06,0.594-0.176,0.748c-0.117,0.15-0.31,0.228-0.548,0.228c-0.168,0-0.323-0.035-0.483-0.121
			c-0.152-0.072-0.316-0.201-0.484-0.377v-6.779c0.145-0.15,0.285-0.264,0.418-0.334c0.156-0.07,0.285-0.109,0.43-0.109
			c0.281,0,0.488,0.101,0.629,0.289c0.142,0.193,0.215,0.465,0.215,0.838V1010.902L-316.143,1010.902z M-306.576,1008.264v-2.771
			c0-1.03-0.254-1.828-0.75-2.373c-0.496-0.549-1.219-0.827-2.137-0.827c-0.898,0-1.637,0.299-2.215,0.896
			c-0.574,0.592-0.855,1.363-0.855,2.305v4.888c0,1.047,0.258,1.871,0.781,2.469c0.516,0.598,1.234,0.897,2.137,0.897
			c1.004,0,1.766-0.28,2.281-0.848c0.5-0.562,0.758-1.406,0.758-2.52v-0.816h-2.086v0.758c0,0.642-0.062,1.056-0.199,1.24
			c-0.129,0.186-0.371,0.279-0.703,0.279c-0.324,0-0.547-0.109-0.68-0.332c-0.141-0.22-0.207-0.613-0.207-1.188v-2.057
			L-306.576,1008.264L-306.576,1008.264z M-310.451,1005.473c0-0.457,0.074-0.783,0.215-0.978c0.148-0.198,0.363-0.297,0.691-0.297
			c0.312,0,0.539,0.099,0.668,0.297c0.152,0.193,0.215,0.521,0.215,0.978v1.104h-1.789V1005.473z"/>
	</g>
</g>
<rect x="-370.5" y="647.5" opacity="0.2" fill="#EB212E" enable-background="new    " width="1" height="1"/>
<rect x="-271.5" y="1346.5" opacity="0.2" fill="#EB212E" enable-background="new    " width="1" height="1"/>
</svg>
