<?xml version="1.0" standalone="no"?>
<!DOCTYPE svg PUBLIC "-//W3C//DTD SVG 1.1//EN" "http://www.w3.org/Graphics/SVG/1.1/DTD/svg11.dtd" >
<svg xmlns="http://www.w3.org/2000/svg">
<metadata>Generated by IcoMoon</metadata>
<defs>
<font id="Parlyph" horiz-adv-x="512">
<font-face units-per-em="512" ascent="471.04" descent="-40.96" />
<missing-glyph horiz-adv-x="512" />
<glyph unicode="&#x20;" d="" horiz-adv-x="256" />
<glyph unicode="&#x30;" d="M162.409 217.356c-2.927 2.363-4.845 5.93-4.845 9.922v79.282c0 7.233 5.879 12.881 13.131 12.881 7.040 0 13.131-5.767 13.131-12.881v-73.481l70.542-70.542c5.252-5.252 5.085-13.399-0.042-18.526-4.977-4.978-13.422-5.147-18.526-0.043l-73.388 73.388zM113.778 388.503v95.053h113.778v-95.033c-17.786 6.282-36.924 9.7-56.861 9.7-19.958 0-39.115-3.425-56.916-9.719v0zM113.778 66.553v-94.997h113.778v94.978c-17.786-6.282-36.924-9.7-56.861-9.7-19.958 0-39.115 3.425-56.916 9.719v0zM170.695 83.094c79.769 0 144.434 64.665 144.434 144.433s-64.665 144.434-144.434 144.434c-79.769 0-144.434-64.665-144.434-144.434s64.665-144.433 144.434-144.433z" horiz-adv-x="342" />
<glyph unicode="&#x31;" d="M30.107 104.832c-21.16-21.16-21.198-51.209 0-72.407s51.248-21.16 72.407 0l181.019 181.019c21.16 21.16 21.199 51.209 0 72.407-0.18 0.18-181.019 181.82-181.019 181.82-21.16 21.16-51.209 21.199-72.407 0s-21.16-51.248 0-72.407c0 0 95.726-95.726 143.589-143.589 0.522-0.522 1.191-0.939 1.996-1.258l-145.584-145.584z" horiz-adv-x="307" />
<glyph unicode="&#x32;" d="M276.894 104.832c21.16-21.16 21.199-51.209 0-72.407s-51.248-21.16-72.407 0l-181.019 181.019c-21.16 21.16-21.198 51.209 0 72.407 0.18 0.18 181.019 181.82 181.019 181.82 21.16 21.16 51.209 21.199 72.407 0s21.16-51.248 0-72.407c0 0-95.726-95.726-143.589-143.589-0.522-0.522-1.191-0.939-1.996-1.258l145.585-145.584z" horiz-adv-x="307" />
<glyph unicode="&#x33;" d="M385.45 257.735h-329.558c-16.611 0-28.445-11.804-28.445-28.445 0-16.668 11.833-28.444 28.445-28.444h332.999l-53.93-53.93c-11.776-11.776-11.776-28.445 0-40.221s28.445-11.776 40.221 0l100.551 100.551c11.776 11.747 11.776 28.444 0 40.22-0.114 0.085-100.551 101.035-100.551 101.035-11.776 11.719-28.445 11.776-40.221 0s-11.776-28.502 0-40.249c-0.029-0.029 25.827-25.856 50.489-50.518v0 0z" />
<glyph unicode="&#x34;" d="M126.549 257.735h329.558c16.611 0 28.445-11.804 28.445-28.445 0-16.668-11.833-28.444-28.445-28.444h-332.999l53.93-53.93c11.776-11.776 11.776-28.445 0-40.221s-28.445-11.776-40.221 0l-100.551 100.551c-11.776 11.747-11.776 28.444 0 40.22 0.114 0.085 100.551 101.035 100.551 101.035 11.776 11.719 28.445 11.776 40.221 0s11.776-28.502 0-40.249c0.029-0.029-25.827-25.856-50.489-50.518v0 0z" />
<glyph unicode="&#x35;" d="M255.971 483.556c-141.369 0-255.971-114.631-255.971-256s114.603-256 255.971-256c141.426 0 256.029 114.659 256.029 256s-114.603 256-256.029 256zM369.778 199.111h-85.334v-85.334c0-16.611-11.776-28.445-28.445-28.445-16.64 0-28.445 11.833-28.445 28.445v85.334h-85.334c-16.612 0-28.445 11.776-28.445 28.444s11.833 28.445 28.445 28.445h85.334v85.333c0 16.612 11.804 28.445 28.445 28.445 16.668 0 28.445-11.833 28.445-28.445v-85.333h85.334c16.611 0 28.445-11.776 28.445-28.445s-11.833-28.444-28.445-28.444z" />
<glyph unicode="&#x36;" d="M255.971 483.556c-141.369 0-255.971-114.631-255.971-256 0-141.398 114.603-256 255.971-256 141.426 0 256.029 114.603 256.029 256 0 141.369-114.603 256-256.029 256zM369.778 199.111h-227.555c-16.612 0-28.445 11.776-28.445 28.444 0 16.64 11.833 28.445 28.445 28.445h227.555c16.611 0 28.445-11.805 28.445-28.445 0-16.668-11.833-28.444-28.445-28.444z" />
<glyph unicode="&#x37;" d="M255.971 483.556c-141.369 0-255.971-114.631-255.971-256s114.603-256 255.971-256c141.426 0 256.029 114.659 256.029 256s-114.603 256-256.029 256zM356.551 287.915l-60.33-60.359 60.331-60.331c11.748-11.748 11.805-28.445 0-40.221-11.776-11.776-28.473-11.748-40.221 0l-60.331 60.331-60.331-60.331c-11.776-11.776-28.445-11.805-40.249 0-11.776 11.776-11.748 28.473 0 40.221l60.359 60.331-60.359 60.359c-11.748 11.748-11.776 28.445 0 40.249 11.804 11.776 28.473 11.747 40.249 0l60.331-60.359 60.331 60.359c11.748 11.747 28.445 11.776 40.221 0 11.805-11.805 11.748-28.502 0-40.249z" />
<glyph unicode="&#x38;" d="M144 483.556c-78.535 0-142.222-63.801-142.222-141.938v-228.096c0-78.393 63.829-141.966 142.222-141.966 78.564 0 142.222 63.829 142.222 141.938v228.124c0 78.393-63.829 141.938-142.222 141.938zM144 312.889c-15.702 0-28.445 12.743-28.445 28.445s12.743 28.445 28.445 28.445c15.73 0 28.445-12.743 28.445-28.445s-12.714-28.445-28.445-28.445z" horiz-adv-x="285" />
<glyph unicode="&#x39;" d="M256 483.556h-227.555c-15.73 0-28.445-12.715-28.445-28.445v-455.111c0-15.73 12.714-28.445 28.445-28.445h227.555c15.73 0 28.445 12.714 28.445 28.445v455.111c0 15.73-12.714 28.445-28.445 28.445v0zM142.222 0c-15.73 0-28.445 12.714-28.445 28.445s12.715 28.445 28.445 28.445c15.73 0 28.445-12.714 28.445-28.445s-12.714-28.445-28.445-28.445v0zM28.445 426.667h227.555v-341.334h-227.555v341.334z" horiz-adv-x="285" />
<glyph unicode="&#x61;" d="M482.848 483.556c0 0-107.457 0-161.185-53.728-66.731-66.731-188.049-188.050-188.049-188.050h-107.457v-80.593h53.728v-80.593h80.593v-53.728h80.593v107.457c0 0 121.453 121.453 188.049 188.049 53.728 53.728 53.728 161.185 53.728 161.185zM348.526 322.37c-14.856 0-26.865 12.008-26.865 26.864s12.008 26.864 26.865 26.864c14.829 0 26.865-12.008 26.865-26.864s-12.035-26.864-26.865-26.864zM53.020 107.457l-53.728-26.865v-80.593h80.593l26.864 53.728h-53.728z" horiz-adv-x="487" />
<glyph unicode="&#x62;" d="M0 483.556v-512l113.778 100.3 113.778-100.3v512h-227.555z" horiz-adv-x="228" />
<glyph unicode="&#x63;" d="M512 227.556c0 30.123-29.469 56.234-72.761 69.575 1.65 14.563 2.816 29.298 2.816 44.202 0 13.682-1.337 85.333-221.013 85.333-122.055 0-221.042-34.588-221.042-85.333 0-170.666 118.329-312.889 193.422-312.889h55.239c49.834 0 105.842 48.754 144.726 121.117 66.958 5.462 118.613 38.144 118.613 77.994zM27.648 341.334c0 31.403 86.585 56.889 193.394 56.889 106.78 0 193.366-25.486 193.366-56.889 0-31.431-86.585-56.889-193.365-56.889-106.809 0-193.394 25.458-193.394 56.889zM405.276 173.625c13.881 30.72 24.576 64.739 30.748 100.522 29.127-10.183 48.356-27.193 48.356-46.592 0-25.6-33.479-46.962-79.104-53.93z" />
<glyph unicode="&#x64;" d="M509.497 256h-168.163v28.444h162.816c-2.361 9.785-5.262 19.229-8.562 28.445h-239.588v28.444h227.527c-4.892 9.899-10.183 19.428-16.156 28.445h-154.482v28.444h132.693c-9.017 10.24-18.688 19.826-29.184 28.445h-188.843v28.445h145.636c-35.101 18.261-74.923 28.445-117.191 28.445-138.041 0-250.339-107.606-256-256h512c-0.37 9.671-1.252 19.143-2.503 28.444v0zM170.667 284.445c-31.403 0-56.889 25.458-56.889 56.889 0 31.403 25.486 56.889 56.889 56.889s56.889-25.486 56.889-56.889c0-31.431-25.486-56.889-56.889-56.889v0zM284.445 199.111h-281.344c20.707-133.49 125.895-227.555 252.899-227.555 41.614 0 80.839 10.183 115.541 28.445h-200.875v28.445h243.684c10.439 8.618 20.053 18.204 29.099 28.445h-244.338v28.445h266.154c6.002 9.017 11.406 18.546 16.356 28.445h-111.844v28.445h124.217c3.413 9.216 6.486 18.659 8.988 28.445h-218.538v28.445z" />
<glyph unicode="&#x65;" d="M568.318 426.667h-454.542l227.555-227.555zM597.332 85.334v312.889l-142.222-140.003zM85.332 398.222v-312.889l142.222 170.666zM341.332 142.222l-99.555 99.555-156.445-184.889h512l-156.445 184.889z" horiz-adv-x="709" />
<glyph unicode="&#x66;" d="M256 485.063c-141.398 0-256-114.603-256-256 0-141.426 114.603-256 256-256s256 114.574 256 256c0 141.398-114.603 256-256 256zM334.706 229.063h-50.489v-170.666h-75.69v170.666h-37.859v58.88h37.859v35.271c0 48.014 21.362 76.516 82.005 76.516h50.404v-58.852h-31.459c-23.694 0-25.173-8.163-25.173-23.524l-0.086-29.411h57.117l-6.627-58.88z" />
<glyph unicode="&#x67;" d="M0 307.556c0-150.59 199.111-336 199.111-336s199.111 184.889 199.111 336c0 97.2-89.147 176-199.111 176s-199.111-78.8-199.111-176zM199.111 256c-47.132 0-85.334 38.201-85.334 85.333s38.201 85.334 85.334 85.334c47.147 0 85.334-38.201 85.334-85.334s-38.186-85.333-85.334-85.333v0z" horiz-adv-x="398" />
<glyph unicode="&#x68;" d="M0 227.556c0-141.376 114.592-256 256-256 141.376 0 256 114.624 256 256s-114.624 256-256 256c-141.408 0-256-114.624-256-256v0 0zM64.613 226.638c-9.468 0-25.27 23.889-26.314 33.225-1.078 9.37 7.345 52.961 8.389 60.237 1.078 7.277 12.635 17.643 10.546 9.337s13.679 25.949 20.014 30.102c6.3 4.153 31.571 22.859 35.782 39.471s36.861 14.519 53.707 18.673c16.847 4.153 96.532-5.714 95.454-20.234-1.045-14.553-64.658-10.3-82.347-11.064-13.747-0.632-17.453-18.672-18.094-28.906-1.347-21.563-39.185-25.019-14.219-37.312 10.714-5.316-26.854-18.406-36.322-23.59s-28.707-2.425-36.086-9.702c-7.345-7.276 26.517-17.941 24.225-27.012-3.066-12.094-30.526-2.060-30.526-2.060s5.256-31.165-4.212-31.165v0 0zM225.255 67.881c-17.343-5.575-48.023 7.661-74.021 38.395-28.987 34.311-29.51 3.577-41.061 25.935s23.626 23.252 13.030 42.807c-17.65 32.642-29.448 15.829-13.461 68.92 8.409 27.962 12.629 9.36 25.536-1.311 9.149-7.601-37.519-30.197-2.864-29.273 38.998 1.073 19.622 5.783 35.085 7.303 19.252 1.878 39.767-15.68 35.085-19.972-4.713-4.293-11.982 11-11.982-45.817s31.451 6.022 25.69-20.986c-5.791-27.007 15.556-17.2 1.109-33.029-14.447-15.858 26.46-26.978 7.855-32.969v0 0zM337.385 34.924c-14.195-3.213-57.538 21.648-38.37 25.188 0 0 32.257-8.959 47.349 2.533 21.724 16.529 10.464-23.309-8.979-27.721v0 0zM472.451 177.326c-10.041-17.502-2.55 7.601-22.728 10.483-20.178 2.851 14.657 12.506-5.521 29.732-20.178 17.257 11.428 30.59-30.928 31.571-42.389 0.95-10.783-40.307-10.783-40.307l-5.714-35.31 3.034-19.157-1.001-9.594c0 0-2.26-11.77-12.462-22.774-59.628-64.307-56.981 24.49-68.248 26.606-22.115 4.168 10.46 33.012-15.141 46.958-17.433 9.471-14.302 15.019-12.72 16.675-3.067-2.881-24.051-22.375-16.529-9.012 8.071 14.345-35.319-9.594-41.388 0.95-1.388 17.134 48.2 54.835 27.893 61.426 0 0-54.399 23.264-16.723 36.904 14.366 5.211 23.147 15.663 23.147 15.663l12.106 12.445c0 0 0 15.326 9.072 23.939s-31.283 6.712-17.143 22.038c14.108 15.326 35.318 8.613 48.426 8.613s32.284-10.544 52.462-9.564c20.178 0.95 0 9.564 48.426-11.494 14.947-6.498 26.312-15.449 43.389-54.621 24.213-55.54 28.41-56.552 16.142-90.974-5.262-14.804 13.269-5.732-7.070-41.195v0 0z" />
<glyph unicode="&#x69;" d="M347.904 227.214c-0.114-48.668-40.932-87.978-91.193-87.865-50.233 0.114-90.851 39.68-90.738 88.348 0 8.732 1.394 17.124 3.811 25.060l-26.794 0.085-0.313-123.591c0-6.4 5.177-11.606 11.577-11.662l203.804-0.512c6.372 0 11.634 5.177 11.634 11.52l0.341 123.648-25.742 0.057c2.361-7.964 3.641-16.356 3.613-25.088zM257.337 486.030c-141.398 0.341-256.284-113.948-256.654-255.346s113.948-256.313 255.346-256.626c141.369-0.426 256.284 113.92 256.626 255.317 0.427 141.369-113.948 256.284-255.317 256.654zM402.745 120.889c-0.057-20.622-17.038-37.433-37.661-37.433l-217.486 0.598c-20.679 0.057-37.518 16.981-37.462 37.603l0.54 217.458c0.057 20.679 16.981 37.518 37.689 37.462l217.486-0.569c20.622-0.057 37.49-16.953 37.462-37.632l-0.569-217.486zM356.921 343.552l-33.109 0.057c-7.197 0.029-13.17-5.888-13.198-13.141l-0.086-31.517c-0.029-7.253 5.945-13.198 13.142-13.198l33.109-0.086c7.197-0.029 13.17 5.917 13.198 13.142l0.086 31.516c0.029 7.254-5.945 13.198-13.142 13.226zM256.817 173.708c-32.471 0.084-58.728 25.649-58.647 57.098s26.471 56.878 58.942 56.793c32.471-0.084 58.728-25.649 58.647-57.098s-26.471-56.877-58.942-56.793z" />
<glyph unicode="&#x6a;" d="M425.358 340.025c-6.542 64.541-60.416 115.086-126.692 115.086-49.351 0-91.677-28.217-113.038-69.149-12.772 7.623-27.506 12.26-43.406 12.26-47.132 0-85.334-38.23-85.334-85.333 0-1.735 0.426-3.357 0.512-5.063-33.337-11.634-57.401-43.008-57.401-80.27 0-47.104 38.201-85.333 85.333-85.333 0 0 54.186 0 118.442 0v92.302c0 27.534 22.442 49.92 50.005 49.92h4.494c27.591 0 50.005-22.386 50.005-49.92v-92.302c56.974 0 102.855 0 104.163 0 54.983 0 99.555 44.572 99.555 99.555 0 50.546-37.831 91.847-86.642 98.247zM155.25 62.038l72.618-72.221c1.707-1.764 15.132-18.262 28.188-18.262 13.027 0 26.454 16.469 28.132 18.262l72.618 72.221c7.851 7.794 7.851 20.509 0 28.33l-5.262 5.177c-7.822 7.879-20.565 7.879-28.445 0l-43.264-43.065v182.044c0 11.89-9.671 21.476-21.561 21.476h-4.494c-11.89 0-21.561-9.586-21.561-21.476v-182.044l-43.292 43.065c-7.822 7.879-20.594 7.879-28.445 0l-5.262-5.177c-7.851-7.851-7.851-20.537 0.029-28.331z" />
<glyph unicode="&#x6b;" d="M13.473-25.414c-9.695 0.031-13.473 9.294-13.473 13.034v401.224c0 3.836 3.296 15.464 13.473 15.378s13.473-11.59 13.473-15.144v-401.515c0-3.651-3.778-13.007-13.473-12.977zM270.242 405.38c0 0-10.709-187.397-71.385-189.278h205.038l-40.853 94.639 69.022 94.639h-161.821zM54.64 432.921v-173.358h146.567c32.337 0 56.589 172.631 27.846 172.631l-174.413 0.727zM13.473 459.141c-7.441 0-13.473-6.25-13.473-13.474v0c0-7.441 6.25-13.474 13.473-13.474v0c7.441 0 13.473 6.25 13.473 13.474v0c0 7.442-6.25 13.474-13.473 13.474v0z" horiz-adv-x="431" />
<glyph unicode="&#x6c;" d="M39.938 184.145c-35.731 62.976-48.057 99.548-34.667 161.938 13.427 62.428 54.257 96.988 54.257 96.988s35.144 38.765 108.88 40.484c127.259 0 160.789-81.774 160.789-81.774s33.163 83.859 163.65 80.86c73.663-1.683 108.88-40.484 108.88-40.484s39.913-33.646 53.266-96.073c13.463-62.391 1.137-98.962-34.557-161.938-35.804-62.903-260.865-198.363-260.865-198.363s-26.156-32-58.805 0c0 0-225.133 135.46-260.828 198.363z" horiz-adv-x="695" />
<glyph unicode="&#x6d;" d="M268.651-27.385c-148.372 0-268.651 119.394-268.651 266.675 0 109.159 76.055 203 170.667 244.265-21.85-39.978-28.445-65.099-28.445-113.778 0-155.945 98.9-298.666 256-298.666 24.010 0 59.981 8.662 82.254 14.222-49.168-62.471-125.772-112.719-211.825-112.719z" horiz-adv-x="484" />
<glyph unicode="&#x6e;" d="M133.779 37.009l-95.273 95.273 288.996 288.996c0.039 0.039 24.229 24.229 24.229 24.229 27.050 27.050 70.142 27.486 96.451 1.178 26.493-26.493 25.782-69.492-1.178-96.451l-24.11-24.11c-0.039-0.039-289.115-289.114-289.115-289.114zM133.78 37.009l-95.273 95.274-28.582-123.856 123.856 28.582zM305.272 399.048l95.274-95.274 19.055 19.054-95.274 95.274-19.055-19.055zM131.133 81.999c-13.154 13.154-32.816 14.82-44.99 2.647l47.636-47.637c12.174 12.174 10.508 31.836-2.647 44.99zM86.142 84.646c13.447 13.447 10.508 31.836-2.647 44.99s-31.544 16.094-44.99 2.647l47.636-47.637zM324.326 379.993l-233.819-233.818 19.055-19.055 233.819 233.818-19.055 19.055zM362.435 341.884l-233.819-233.818 19.054-19.055 233.819 233.818-19.055 19.054z" />
<glyph unicode="&#x6f;" d="M225.778 369.806c0 62.805-50.944 113.75-113.778 113.75s-113.778-50.944-113.778-113.75c0-52.992 36.267-97.536 85.334-110.166v-259.498l26.823-28.587 57.344 55.637-27.278 28.445 27.278 29.81-27.278 27.506v29.212l27.278 28.587-27.278 28.729v60.16c49.066 12.63 85.333 57.173 85.333 110.166zM112 369.806c-23.552 0-42.666 19.086-42.666 42.666 0 23.552 19.115 42.638 42.666 42.638s42.666-19.086 42.666-42.638c0-23.581-19.114-42.666-42.666-42.666z" horiz-adv-x="228" />
<glyph unicode="&#x70;" d="M256 483.556c-141.398 0-256-114.603-256-256s114.603-256 256-256 256 114.603 256 256-114.603 256-256 256zM281.543 151.524c-20.452 0-39.766 11.463-46.336 24.434 0 0-11.094-45.17-13.454-53.93-8.22-30.777-32.455-61.611-34.275-64.142-1.28-1.735-4.238-1.223-4.551 1.138-0.455 3.897-6.627 42.781 0.654 74.496 3.555 15.901 24.434 106.866 24.434 106.866s-6.059 12.544-6.059 31.033c0 29.013 16.327 50.716 36.608 50.716 17.266 0 25.629-13.369 25.629-29.383 0-17.948-11.094-44.743-16.754-69.575-4.779-20.793 10.098-37.774 29.867-37.774 36.039 0 60.274 47.701 60.274 104.22 0 43.008-28.046 75.15-78.962 75.15-57.685 0-93.497-44.345-93.497-93.895 0-17.095 4.893-29.098 12.459-38.457 3.442-4.295 3.982-6.002 2.702-10.923-0.825-3.641-2.958-12.288-3.811-15.73-1.309-5.006-5.206-6.741-9.529-4.95-26.51 11.207-38.941 41.216-38.941 74.951 0 55.666 45.511 122.454 135.766 122.454 72.618 0 120.234-54.13 120.234-112.27 0-76.942-41.387-134.429-102.457-134.429z" />
<glyph unicode="&#x71;" d="M512 227.556c0-141.398-114.631-256-256-256-141.398 0-256 114.603-256 256s114.603 256 256 256c141.369 0 256-114.603 256-256zM304.156 164.011c0 0 28.899 20.736 27.676 55.466 14.649 6.115 17.863 15.246 19.058 34.133s5.86 34.133-5.746 33.536c0 0 2.93 33.337 4.125 52.85 1.223 19.513-33.081 76.003-87.95 76.003h-9.671c-54.841 0-89.344-56.49-88.121-76.003 1.251-19.513 3.555-53.248 3.555-53.248-11.606 0.598-8.163-14.45-6.94-33.337 1.195-18.887-2.589-27.904 12.004-34.019-1.223-34.73 18.233-55.381 18.233-55.381v-49.38c0 0-56.178-29.838-73.216-37.774-15.844-7.339-23.638-2.702-39.538-6.77 43.492-48.128 107.378-78.421 177.38-78.421 69.916 0 133.234 30.208 176.726 78.222-16.327 4.438-29.696-0.483-45.71 6.969-17.095 7.936-81.863 37.774-81.863 37.774v49.38z" />
<glyph unicode="&#x72;" d="M155.534 455.14h28.445v28.416h-28.445v-28.416zM52.508 398.222h32.029v32.029h-32.029v-32.029zM251.591 398.222h32.029v32.029h-32.029v-32.029zM217.827 323.641h37.661l28.16 32.37h-72.988l16.1 42.212h-113.778l16.099-42.212h-72.989l29.184-32.37h36.438v-32.029h96.114v32.029zM262.969 291.613h-45.142v-32.057h-96.114v32.057h-43.35c-46.934-30.35-78.365-82.489-78.365-142.535 0-94.236 76.402-170.667 170.667-170.667 94.237 0 170.666 76.43 170.666 170.667 0 60.075-31.431 112.185-78.365 142.535v0zM169.87 0c-70.656 0-128 57.315-128 128 0 70.656 57.344 128 128 128 70.713 0 128-57.344 128-128 0-70.685-57.287-128-128-128v0z" horiz-adv-x="342" />
<glyph unicode="&#x73;" d="M512.198 369.778h-85.533v56.604c0 15.872-12.714 28.729-28.445 28.729h-227.328c-15.844 0-28.672-12.601-28.672-28.729v-56.604h-85.532c-15.587 0-28.245-12.601-28.245-28.445v-113.778h512v113.778c0 15.73-12.658 28.445-28.245 28.445zM199.025 426.667h170.838c15.474 0 28.359-12.714 28.359-28.445v-56.889h-227.555v56.889c0 15.815 12.686 28.445 28.359 28.445zM341.333 170.951c0-16.128-12.857-28.729-28.729-28.729h-56.349c-16.1 0-28.701 12.857-28.701 28.729v28.16h-199.111v-170.582c0-15.758 12.658-28.53 28.245-28.53h455.51c15.587 0 28.245 12.459 28.245 28.53v170.582h-199.111v-28.16z" horiz-adv-x="576" />
<glyph unicode="&#x74;" d="M256 483.556c-141.398 0-256-114.603-256-256s114.603-256 256-256 256 114.603 256 256-114.603 256-256 256zM391.709 302.507c0.199-3.214 0.256-6.486 0.256-9.785 0-99.641-70.514-214.5-199.339-214.5-39.538 0-76.374 12.487-107.293 33.877 5.433-0.683 11.122-1.081 16.64-1.081 32.882 0 63.118 12.060 87.011 32.313-30.691 0.598-56.49 22.386-65.422 52.338 4.266-0.882 8.704-1.365 13.198-1.365 6.343 0 12.516 0.938 18.432 2.702-32.029 6.884-56.178 37.404-56.178 73.87v1.024c9.444-5.689 20.252-9.046 31.659-9.5-18.688 13.511-31.118 36.665-31.118 62.748 0 13.824 3.555 26.795 9.501 37.945 34.503-45.625 86.158-75.606 144.356-78.791-1.166 5.49-1.707 11.264-1.707 17.18 0 41.614 31.317 75.406 69.888 75.406 20.252 0 38.486-9.13 51.115-23.837 16.043 3.413 31.005 9.7 44.515 18.346-5.205-17.607-16.298-32.426-30.748-41.728 14.166 1.764 27.62 5.86 40.192 11.833-9.358-15.161-21.276-28.387-34.958-38.997z" />
<glyph unicode="&#x75;" d="M256 143.73c-47.132 0-85.334 38.23-85.334 85.333s38.201 85.333 85.334 85.333 85.334-38.229 85.334-85.333-38.201-85.333-85.334-85.333zM256 342.841c-141.369 0-256-113.778-256-113.778s114.631-113.778 256-113.778c141.398 0 256 113.778 256 113.778s-114.603 113.778-256 113.778zM312.889 229.063c0-31.402-25.458-56.889-56.861-56.889-31.431 0-56.917 25.486-56.917 56.889 0 31.459 25.486 56.889 56.917 56.889 7.651 0 21.533-4.182 21.533-4.182l-21.533-52.708c0 0 42.781 37.66 45.113 34.674 7.367-9.586 11.748-21.618 11.748-34.674z" />
<glyph unicode="&#x76;" d="M580.266 415.289c17.067 0 34.134-17.067 34.134-34.134v-375.104c0-17.429-17.067-34.496-34.134-34.496h-546.134c-17.067 0-34.133 17.067-34.133 34.133v375.466c0 15.888 17.067 34.134 34.133 34.134h170.667c0 0-0.005 17.067 0 34.134s17.066 34.133 34.133 34.133c0 0 119.466 0 136.534 0s34.133-17.067 34.079-32.676c-0.054-15.61 0.054-35.591 0.054-35.591h170.667zM443.733 210.489c0 75.406-61.128 136.533-136.534 136.533s-136.534-61.128-136.534-136.533c0-75.406 61.128-136.534 136.534-136.534s136.534 61.128 136.534 136.534zM375.466 210.489c0 37.702-30.564 68.267-68.267 68.267s-68.267-30.564-68.267-68.267c0-37.702 30.564-68.267 68.267-68.267s68.267 30.564 68.267 68.267zM547.319 312.304c18.848 0.329 33.861 15.875 33.533 34.724s-15.875 33.862-34.724 33.533c-18.849-0.329-33.861-15.875-33.533-34.724s15.875-33.862 34.724-33.532v0 0z" horiz-adv-x="615" />
<glyph unicode="&#x77;" d="M425.358 340.025c-6.542 64.541-60.416 115.086-126.692 115.086-49.351 0-91.677-28.217-113.038-69.149-12.772 7.623-27.506 12.26-43.406 12.26-47.132 0-85.334-38.23-85.334-85.333 0-1.735 0.426-3.357 0.512-5.063-33.337-11.634-57.401-43.008-57.401-80.27 0-47.104 38.201-85.333 85.333-85.333 0 0 14.165 0 36.438 0-0.569 2.986-0.882 6.087-0.882 9.188 0 12.971 5.091 25.145 14.279 34.276l72.618 72.221c15.36 17.408 31.773 26.538 48.185 26.538 24.633 0 42.724-20.31 48.697-26.966l72.163-71.765c9.188-9.13 14.279-21.305 14.279-34.276 0-3.129-0.341-6.201-0.91-9.188 13.454 0 21.703 0 22.243 0 54.983 0 99.555 44.572 99.555 99.555 0 50.517-37.831 91.819-86.642 98.218zM356.75 165.518l-72.618 72.22c-1.707 1.763-15.132 18.262-28.189 18.262-13.028 0-26.453-16.47-28.131-18.262l-72.618-72.22c-7.851-7.794-7.851-20.509 0-28.331l5.262-5.177c7.822-7.879 20.565-7.879 28.445 0l43.264 43.065v-182.045c0-11.89 9.671-21.476 21.561-21.476h4.494c11.89 0 21.561 9.586 21.561 21.476v182.044l43.293-43.065c7.822-7.879 20.594-7.879 28.445 0l5.262 5.177c7.851 7.851 7.851 20.537-0.029 28.33z" />
<glyph unicode="&#x78;" d="M90.353 61.909v421.647h-90.353v-512h481.882v240.941h-331.294v-90.353h271.059v-60.236h-331.294zM150.588 393.203v-150.588h90.353v150.588h-90.353zM271.059 393.203v-150.588h90.353v150.588h-90.353zM391.529 483.556v-240.941h90.353v240.941h-90.353z" horiz-adv-x="482" />
<glyph unicode="&#x79;" d="M255.971 483.556c-141.369 0-255.971-114.603-255.971-256 0-141.369 114.603-256 255.971-256 141.426 0 256.029 114.631 256.029 256 0 141.398-114.603 256-256.029 256zM199.111 113.778v227.555l170.667-113.778-170.667-113.778z" />
<glyph unicode="&#x7a;" d="M437.019 408.575c-11.108 11.108-29.017 11.21-40.206 0.021l-20.155-20.155c-11.096-11.097-11.164-29.020 0.021-40.205 11.108-11.109 29.017-11.21 40.205-0.021l20.155 20.155c11.096 11.096 11.164 29.020-0.021 40.205v0zM135.321 106.876c-11.108 11.108-29.017 11.21-40.206 0.021l-20.155-20.155c-11.096-11.096-11.165-29.020 0.021-40.206 11.108-11.108 29.016-11.21 40.206-0.021l20.155 20.155c11.096 11.096 11.165 29.020-0.021 40.206v0zM74.981 408.575c-11.108-11.108-11.21-29.017-0.021-40.206l20.155-20.155c11.097-11.096 29.020-11.164 40.205 0.021 11.108 11.108 11.21 29.017 0.021 40.205l-20.155 20.155c-11.097 11.096-29.020 11.165-40.206-0.021v0zM376.68 106.876c-11.108-11.108-11.21-29.017-0.021-40.205l20.155-20.155c11.096-11.096 29.020-11.164 40.206 0.021 11.108 11.108 11.21 29.017 0.021 40.205l-20.155 20.155c-11.096 11.096-29.020 11.164-40.206-0.021v0zM0 227.556c0-15.709 12.591-28.444 28.415-28.444h28.504c15.693 0 28.415 12.625 28.415 28.444 0 15.709-12.591 28.445-28.415 28.445h-28.504c-15.693 0-28.415-12.626-28.415-28.445v0zM426.666 227.556c0-15.709 12.591-28.444 28.415-28.444h28.504c15.693 0 28.415 12.625 28.415 28.444 0 15.709-12.591 28.445-28.415 28.445h-28.504c-15.693 0-28.415-12.626-28.415-28.445v0zM256 85.334c78.547 0 142.222 63.675 142.222 142.222s-63.675 142.222-142.222 142.222c-78.547 0-142.222-63.675-142.222-142.222s63.675-142.222 142.222-142.222v0zM256 483.556c-15.709 0-28.445-12.591-28.445-28.415v-28.504c0-15.693 12.625-28.415 28.445-28.415 15.709 0 28.445 12.591 28.445 28.415v28.504c0 15.693-12.625 28.415-28.445 28.415v0 0zM256 56.889c-15.709 0-28.445-12.591-28.445-28.415v-28.504c0-15.693 12.625-28.415 28.445-28.415 15.709 0 28.445 12.591 28.445 28.415v28.504c0 15.693-12.625 28.415-28.445 28.415v0 0z" />
</font>
</defs>
</svg>
