<?xml version="1.0" encoding="UTF-8" standalone="no"?>
<svg width="24px" height="22px" viewBox="0 0 24 22" version="1.1" xmlns="http://www.w3.org/2000/svg" xmlns:xlink="http://www.w3.org/1999/xlink" xmlns:sketch="http://www.bohemiancoding.com/sketch/ns">
    <!-- Generator: Sketch 3.3.3 (12072) - http://www.bohemiancoding.com/sketch -->
    <title>Rectangle 591 + Rectangle 586</title>
    <desc>Created with Sketch.</desc>
    <defs></defs>
    <g id="Page-1" stroke="none" stroke-width="1" fill="none" fill-rule="evenodd" sketch:type="MSPage">
        <g id="Rectangle-591-+-Rectangle-586" sketch:type="MSLayerGroup" transform="translate(3.000000, 2.000000)">
            <path d="M16,3 L16,13 L18,13 L18,16 L11,16 L11,13 L13,13 L13,3 L11,3 L11,0 L18,0 L18,3 L16,3 Z M0,3 L12,3 L12,7 L0,7 L0,3 Z M4,7 L8,7 L8,15 L4,15 L4,7 Z" id="Rectangle-591" fill="#FFFFFF" sketch:type="MSShapeGroup"></path>
            <path d="M1,4 L11,4 L11,6 L1,6 L1,4 Z M5,6 L7,6 L7,14 L5,14 L5,6 Z M12,1 L17,1 L17,2 L12,2 L12,1 Z M12,14 L17,14 L17,15 L12,15 L12,14 Z M14,2 L15,2 L15,14 L14,14 L14,2 Z" id="Rectangle-586" fill="#000000" sketch:type="MSShapeGroup"></path>
        </g>
    </g>
</svg>