<?xml version="1.0" encoding="utf-8"?>
<!-- Generator: Adobe Illustrator 16.0.0, SVG Export Plug-In . SVG Version: 6.00 Build 0)  -->
<!DOCTYPE svg PUBLIC "-//W3C//DTD SVG 1.1//EN" "http://www.w3.org/Graphics/SVG/1.1/DTD/svg11.dtd">
<svg version="1.1" xmlns="http://www.w3.org/2000/svg" xmlns:xlink="http://www.w3.org/1999/xlink" x="0px" y="0px" width="144px"
	 height="1512px" viewBox="0 0 144 1512" enable-background="new 0 0 144 1512" xml:space="preserve">
<g id="Layer_1">
</g>
<g id="Layer_2">
	<circle fill-rule="evenodd" clip-rule="evenodd" fill="#1FCD8F" cx="28.5" cy="7.5" r="2.5"/>
	<circle fill-rule="evenodd" clip-rule="evenodd" fill="#1FCD8F" cx="28.5" cy="79.5" r="2.5"/>
	<circle fill-rule="evenodd" clip-rule="evenodd" fill="#1FCD8F" cx="7.5" cy="93.5" r="2.5"/>
	<circle fill-rule="evenodd" clip-rule="evenodd" fill="#1FCD8F" cx="28.5" cy="151.5" r="2.5"/>
	<circle fill-rule="evenodd" clip-rule="evenodd" fill="#1FCD8F" cx="7.5" cy="165.5" r="2.5"/>
	<circle fill-rule="evenodd" clip-rule="evenodd" fill="#1FCD8F" cx="14.5" cy="201.5" r="2.5"/>
	<circle fill-rule="evenodd" clip-rule="evenodd" fill="#1FCD8F" cx="28.5" cy="223.5" r="2.5"/>
	<circle fill-rule="evenodd" clip-rule="evenodd" fill="#1FCD8F" cx="7.5" cy="237.5" r="2.5"/>
	<circle fill-rule="evenodd" clip-rule="evenodd" fill="#1FCD8F" cx="49.5" cy="280.5" r="2.5"/>
	<circle fill-rule="evenodd" clip-rule="evenodd" fill="#1FCD8F" cx="14.5" cy="273.5" r="2.5"/>
	<circle fill-rule="evenodd" clip-rule="evenodd" fill="#1FCD8F" cx="28.5" cy="295.5" r="2.5"/>
	<circle fill-rule="evenodd" clip-rule="evenodd" fill="#1FCD8F" cx="7.5" cy="309.5" r="2.5"/>
	<circle fill-rule="evenodd" clip-rule="evenodd" fill="#1FCD8F" cx="64.5" cy="336.5" r="2.5"/>
	<circle fill-rule="evenodd" clip-rule="evenodd" fill="#1FCD8F" cx="49.5" cy="352.5" r="2.5"/>
	<circle fill-rule="evenodd" clip-rule="evenodd" fill="#1FCD8F" cx="14.5" cy="345.5" r="2.5"/>
	<circle fill-rule="evenodd" clip-rule="evenodd" fill="#1FCD8F" cx="28.5" cy="367.5" r="2.5"/>
	<circle fill-rule="evenodd" clip-rule="evenodd" fill="#1FCD8F" cx="7.5" cy="381.5" r="2.5"/>
	<circle fill-rule="evenodd" clip-rule="evenodd" fill="#1FCD8F" cx="62.5" cy="383.5" r="2.5"/>
	<circle fill-rule="evenodd" clip-rule="evenodd" fill="#1FCD8F" cx="64.5" cy="408.5" r="2.5"/>
	<circle fill-rule="evenodd" clip-rule="evenodd" fill="#1FCD8F" cx="49.5" cy="424.5" r="2.5"/>
	<circle fill-rule="evenodd" clip-rule="evenodd" fill="#1FCD8F" cx="14.5" cy="417.5" r="2.5"/>
	<circle fill-rule="evenodd" clip-rule="evenodd" fill="#1FCD8F" cx="28.5" cy="439.5" r="2.5"/>
	<circle fill-rule="evenodd" clip-rule="evenodd" fill="#1FCD8F" cx="7.5" cy="453.5" r="2.5"/>
	<circle fill-rule="evenodd" clip-rule="evenodd" fill="#1FCD8F" cx="48.5" cy="443.5" r="2.5"/>
	<circle fill-rule="evenodd" clip-rule="evenodd" fill="#1FCD8F" cx="62.5" cy="455.5" r="2.5"/>
	<circle fill-rule="evenodd" clip-rule="evenodd" fill="#1FCD8F" cx="64.5" cy="480.5" r="2.5"/>
	<circle fill-rule="evenodd" clip-rule="evenodd" fill="#1FCD8F" cx="49.5" cy="496.5" r="2.5"/>
	<circle fill-rule="evenodd" clip-rule="evenodd" fill="#1FCD8F" cx="14.5" cy="489.5" r="2.5"/>
	<line fill="none" stroke="#1FCD8F" stroke-width="2" stroke-miterlimit="10" x1="29" y1="511" x2="7" y2="526"/>
	<circle fill-rule="evenodd" clip-rule="evenodd" fill="#1FCD8F" cx="28.5" cy="511.5" r="2.5"/>
	<circle fill-rule="evenodd" clip-rule="evenodd" fill="#1FCD8F" cx="7.5" cy="525.5" r="2.5"/>
	<circle fill-rule="evenodd" clip-rule="evenodd" fill="#1FCD8F" cx="48.5" cy="515.5" r="2.5"/>
	<circle fill-rule="evenodd" clip-rule="evenodd" fill="#1FCD8F" cx="62.5" cy="527.5" r="2.5"/>
	<circle fill-rule="evenodd" clip-rule="evenodd" fill="#1FCD8F" cx="64.5" cy="552.5" r="2.5"/>
	<circle fill-rule="evenodd" clip-rule="evenodd" fill="#1FCD8F" cx="49.5" cy="568.5" r="2.5"/>
	<circle fill-rule="evenodd" clip-rule="evenodd" fill="#1FCD8F" cx="14.5" cy="561.5" r="2.5"/>
	<line fill="none" stroke="#1FCD8F" stroke-width="2" stroke-miterlimit="10" x1="29" y1="583" x2="7" y2="598"/>
	<line fill="none" stroke="#1FCD8F" stroke-width="2" stroke-miterlimit="10" x1="7" y1="596" x2="15" y2="635"/>
	<circle fill-rule="evenodd" clip-rule="evenodd" fill="#1FCD8F" cx="28.5" cy="583.5" r="2.5"/>
	<circle fill-rule="evenodd" clip-rule="evenodd" fill="#1FCD8F" cx="7.5" cy="597.5" r="2.5"/>
	<circle fill-rule="evenodd" clip-rule="evenodd" fill="#1FCD8F" cx="48.5" cy="587.5" r="2.5"/>
	<circle fill-rule="evenodd" clip-rule="evenodd" fill="#1FCD8F" cx="62.5" cy="599.5" r="2.5"/>
	<circle fill-rule="evenodd" clip-rule="evenodd" fill="#1FCD8F" cx="64.5" cy="624.5" r="2.5"/>
	<circle fill-rule="evenodd" clip-rule="evenodd" fill="#1FCD8F" cx="49.5" cy="640.5" r="2.5"/>
	<circle fill-rule="evenodd" clip-rule="evenodd" fill="#1FCD8F" cx="14.5" cy="633.5" r="2.5"/>
	<line fill="none" stroke="#1FCD8F" stroke-width="2" stroke-miterlimit="10" x1="29" y1="655" x2="7" y2="670"/>
	<line fill="none" stroke="#1FCD8F" stroke-width="2" stroke-miterlimit="10" x1="7" y1="668" x2="15" y2="707"/>
	<line fill="none" stroke="#1FCD8F" stroke-width="2" stroke-miterlimit="10" x1="15" y1="706" x2="50" y2="713"/>
	<circle fill-rule="evenodd" clip-rule="evenodd" fill="#1FCD8F" cx="28.5" cy="655.5" r="2.5"/>
	<circle fill-rule="evenodd" clip-rule="evenodd" fill="#1FCD8F" cx="7.5" cy="669.5" r="2.5"/>
	<circle fill-rule="evenodd" clip-rule="evenodd" fill="#1FCD8F" cx="48.5" cy="659.5" r="2.5"/>
	<circle fill-rule="evenodd" clip-rule="evenodd" fill="#1FCD8F" cx="62.5" cy="671.5" r="2.5"/>
	<circle fill-rule="evenodd" clip-rule="evenodd" fill="#1FCD8F" cx="64.5" cy="696.5" r="2.5"/>
	<circle fill-rule="evenodd" clip-rule="evenodd" fill="#1FCD8F" cx="49.5" cy="712.5" r="2.5"/>
	<circle fill-rule="evenodd" clip-rule="evenodd" fill="#1FCD8F" cx="14.5" cy="705.5" r="2.5"/>
	<line fill="none" stroke="#1FCD8F" stroke-width="2" stroke-miterlimit="10" x1="29" y1="727" x2="7" y2="742"/>
	<line fill="none" stroke="#1FCD8F" stroke-width="2" stroke-miterlimit="10" x1="7" y1="740" x2="15" y2="779"/>
	<line fill="none" stroke="#1FCD8F" stroke-width="2" stroke-miterlimit="10" x1="15" y1="778" x2="50" y2="785"/>
	<line fill="none" stroke="#1FCD8F" stroke-width="2" stroke-miterlimit="10" x1="50" y1="785" x2="65" y2="768"/>
	<circle fill-rule="evenodd" clip-rule="evenodd" fill="#1FCD8F" cx="28.5" cy="727.5" r="2.5"/>
	<circle fill-rule="evenodd" clip-rule="evenodd" fill="#1FCD8F" cx="7.5" cy="741.5" r="2.5"/>
	<circle fill-rule="evenodd" clip-rule="evenodd" fill="#1FCD8F" cx="48.5" cy="731.5" r="2.5"/>
	<circle fill-rule="evenodd" clip-rule="evenodd" fill="#1FCD8F" cx="62.5" cy="743.5" r="2.5"/>
	<circle fill-rule="evenodd" clip-rule="evenodd" fill="#1FCD8F" cx="64.5" cy="768.5" r="2.5"/>
	<circle fill-rule="evenodd" clip-rule="evenodd" fill="#1FCD8F" cx="49.5" cy="784.5" r="2.5"/>
	<circle fill-rule="evenodd" clip-rule="evenodd" fill="#1FCD8F" cx="14.5" cy="777.5" r="2.5"/>
	<line fill="none" stroke="#1FCD8F" stroke-width="2" stroke-miterlimit="10" x1="29" y1="799" x2="7" y2="814"/>
	<line fill="none" stroke="#1FCD8F" stroke-width="2" stroke-miterlimit="10" x1="7" y1="812" x2="15" y2="851"/>
	<line fill="none" stroke="#1FCD8F" stroke-width="2" stroke-miterlimit="10" x1="15" y1="850" x2="50" y2="857"/>
	<line fill="none" stroke="#1FCD8F" stroke-width="2" stroke-miterlimit="10" x1="50" y1="857" x2="65" y2="840"/>
	<line fill="none" stroke="#1FCD8F" stroke-width="2" stroke-miterlimit="10" x1="65" y1="842" x2="62" y2="814"/>
	<circle fill-rule="evenodd" clip-rule="evenodd" fill="#1FCD8F" cx="28.5" cy="799.5" r="2.5"/>
	<circle fill-rule="evenodd" clip-rule="evenodd" fill="#1FCD8F" cx="7.5" cy="813.5" r="2.5"/>
	<circle fill-rule="evenodd" clip-rule="evenodd" fill="#1FCD8F" cx="48.5" cy="803.5" r="2.5"/>
	<circle fill-rule="evenodd" clip-rule="evenodd" fill="#1FCD8F" cx="62.5" cy="815.5" r="2.5"/>
	<circle fill-rule="evenodd" clip-rule="evenodd" fill="#1FCD8F" cx="64.5" cy="840.5" r="2.5"/>
	<circle fill-rule="evenodd" clip-rule="evenodd" fill="#1FCD8F" cx="49.5" cy="856.5" r="2.5"/>
	<circle fill-rule="evenodd" clip-rule="evenodd" fill="#1FCD8F" cx="14.5" cy="849.5" r="2.5"/>
	<line fill="none" stroke="#1FCD8F" stroke-width="2" stroke-miterlimit="10" x1="29" y1="871" x2="7" y2="886"/>
	<line fill="none" stroke="#1FCD8F" stroke-width="2" stroke-miterlimit="10" x1="7" y1="884" x2="15" y2="923"/>
	<line fill="none" stroke="#1FCD8F" stroke-width="2" stroke-miterlimit="10" x1="15" y1="922" x2="50" y2="929"/>
	<line fill="none" stroke="#1FCD8F" stroke-width="2" stroke-miterlimit="10" x1="50" y1="929" x2="65" y2="912"/>
	<line fill="none" stroke="#1FCD8F" stroke-width="2" stroke-miterlimit="10" x1="65" y1="914" x2="62" y2="886"/>
	<line fill="none" stroke="#1FCD8F" stroke-width="2" stroke-miterlimit="10" x1="63" y1="888" x2="48" y2="875"/>
	<circle fill-rule="evenodd" clip-rule="evenodd" fill="#1FCD8F" cx="28.5" cy="871.5" r="2.5"/>
	<circle fill-rule="evenodd" clip-rule="evenodd" fill="#1FCD8F" cx="7.5" cy="885.5" r="2.5"/>
	<circle fill-rule="evenodd" clip-rule="evenodd" fill="#1FCD8F" cx="48.5" cy="875.5" r="2.5"/>
	<circle fill-rule="evenodd" clip-rule="evenodd" fill="#1FCD8F" cx="62.5" cy="887.5" r="2.5"/>
	<circle fill-rule="evenodd" clip-rule="evenodd" fill="#1FCD8F" cx="64.5" cy="912.5" r="2.5"/>
	<circle fill-rule="evenodd" clip-rule="evenodd" fill="#1FCD8F" cx="49.5" cy="928.5" r="2.5"/>
	<circle fill-rule="evenodd" clip-rule="evenodd" fill="#1FCD8F" cx="14.5" cy="921.5" r="2.5"/>
	<line fill="none" stroke="#1FCD8F" stroke-width="2" stroke-miterlimit="10" x1="29" y1="943" x2="7" y2="958"/>
	<line fill="none" stroke="#1FCD8F" stroke-width="2" stroke-miterlimit="10" x1="7" y1="956" x2="15" y2="995"/>
	<line fill="none" stroke="#1FCD8F" stroke-width="2" stroke-miterlimit="10" x1="15" y1="994" x2="50" y2="1001"/>
	<line fill="none" stroke="#1FCD8F" stroke-width="2" stroke-miterlimit="10" x1="50" y1="1001" x2="65" y2="984"/>
	<line fill="none" stroke="#1FCD8F" stroke-width="2" stroke-miterlimit="10" x1="65" y1="986" x2="62" y2="958"/>
	<line fill="none" stroke="#1FCD8F" stroke-width="2" stroke-miterlimit="10" x1="63" y1="960" x2="48" y2="947"/>
	<line fill="none" stroke="#1FCD8F" stroke-width="2" stroke-miterlimit="10" x1="50" y1="948" x2="27" y2="943"/>
	<circle fill-rule="evenodd" clip-rule="evenodd" fill="#1FCD8F" cx="28.5" cy="943.5" r="2.5"/>
	<circle fill-rule="evenodd" clip-rule="evenodd" fill="#1FCD8F" cx="7.5" cy="957.5" r="2.5"/>
	<circle fill-rule="evenodd" clip-rule="evenodd" fill="#1FCD8F" cx="48.5" cy="947.5" r="2.5"/>
	<circle fill-rule="evenodd" clip-rule="evenodd" fill="#1FCD8F" cx="62.5" cy="959.5" r="2.5"/>
	<circle fill-rule="evenodd" clip-rule="evenodd" fill="#1FCD8F" cx="64.5" cy="984.5" r="2.5"/>
	<circle fill-rule="evenodd" clip-rule="evenodd" fill="#1FCD8F" cx="49.5" cy="1000.5" r="2.5"/>
	<circle fill-rule="evenodd" clip-rule="evenodd" fill="#1FCD8F" cx="14.5" cy="993.5" r="2.5"/>
	<line fill="none" stroke="#1FCD8F" stroke-width="2" stroke-miterlimit="10" x1="101" y1="7" x2="79" y2="22"/>
	<line fill="none" stroke="#1FCD8F" stroke-width="2" stroke-miterlimit="10" x1="79" y1="20" x2="87" y2="59"/>
	<line fill="none" stroke="#1FCD8F" stroke-width="2" stroke-miterlimit="10" x1="87" y1="58" x2="122" y2="65"/>
	<line fill="none" stroke="#1FCD8F" stroke-width="2" stroke-miterlimit="10" x1="122" y1="65" x2="137" y2="48"/>
	<line fill="none" stroke="#1FCD8F" stroke-width="2" stroke-miterlimit="10" x1="137" y1="50" x2="134" y2="22"/>
	<line fill="none" stroke="#1FCD8F" stroke-width="2" stroke-miterlimit="10" x1="135" y1="24" x2="120" y2="11"/>
	<line fill="none" stroke="#1FCD8F" stroke-width="2" stroke-miterlimit="10" x1="122" y1="12" x2="99" y2="7"/>
	<circle fill-rule="evenodd" clip-rule="evenodd" fill="#1FCD8F" cx="100.5" cy="7.5" r="2.5"/>
	<circle fill-rule="evenodd" clip-rule="evenodd" fill="#1FCD8F" cx="79.5" cy="21.5" r="2.5"/>
	<circle fill-rule="evenodd" clip-rule="evenodd" fill="#1FCD8F" cx="120.5" cy="11.5" r="2.5"/>
	<circle fill-rule="evenodd" clip-rule="evenodd" fill="#1FCD8F" cx="134.5" cy="23.5" r="2.5"/>
	<circle fill-rule="evenodd" clip-rule="evenodd" fill="#1FCD8F" cx="136.5" cy="48.5" r="2.5"/>
	<circle fill-rule="evenodd" clip-rule="evenodd" fill="#1FCD8F" cx="121.5" cy="64.5" r="2.5"/>
	<circle fill-rule="evenodd" clip-rule="evenodd" fill="#1FCD8F" cx="86.5" cy="57.5" r="2.5"/>
	<line fill="none" stroke="#1FCD8F" stroke-width="2" stroke-miterlimit="10" x1="101" y1="79" x2="79" y2="94"/>
	<line fill="none" stroke="#1FCD8F" stroke-width="2" stroke-miterlimit="10" x1="79" y1="92" x2="87" y2="131"/>
	<line fill="none" stroke="#1FCD8F" stroke-width="2" stroke-miterlimit="10" x1="87" y1="130" x2="122" y2="137"/>
	<line fill="none" stroke="#1FCD8F" stroke-width="2" stroke-miterlimit="10" x1="122" y1="137" x2="137" y2="120"/>
	<line fill="none" stroke="#1FCD8F" stroke-width="2" stroke-miterlimit="10" x1="137" y1="122" x2="134" y2="94"/>
	<line fill="none" stroke="#1FCD8F" stroke-width="2" stroke-miterlimit="10" x1="135" y1="96" x2="120" y2="83"/>
	<line fill="none" stroke="#1FCD8F" stroke-width="2" stroke-miterlimit="10" x1="122" y1="84" x2="99" y2="79"/>
	<circle fill-rule="evenodd" clip-rule="evenodd" fill="#1FCD8F" cx="100.5" cy="79.5" r="2.5"/>
	<circle fill-rule="evenodd" clip-rule="evenodd" fill="#1FCD8F" cx="79.5" cy="93.5" r="2.5"/>
	<circle fill-rule="evenodd" clip-rule="evenodd" fill="#1FCD8F" cx="120.5" cy="83.5" r="2.5"/>
	<circle fill-rule="evenodd" clip-rule="evenodd" fill="#1FCD8F" cx="134.5" cy="95.5" r="2.5"/>
	<circle fill-rule="evenodd" clip-rule="evenodd" fill="#1FCD8F" cx="136.5" cy="120.5" r="2.5"/>
	<circle fill-rule="evenodd" clip-rule="evenodd" fill="#1FCD8F" cx="121.5" cy="136.5" r="2.5"/>
	<circle fill-rule="evenodd" clip-rule="evenodd" fill="#1FCD8F" cx="86.5" cy="129.5" r="2.5"/>
	<line fill="none" stroke="#1FCD8F" stroke-width="2" stroke-miterlimit="10" x1="101" y1="151" x2="79" y2="166"/>
	<line fill="none" stroke="#1FCD8F" stroke-width="2" stroke-miterlimit="10" x1="79" y1="164" x2="87" y2="203"/>
	<line fill="none" stroke="#1FCD8F" stroke-width="2" stroke-miterlimit="10" x1="87" y1="202" x2="122" y2="209"/>
	<line fill="none" stroke="#1FCD8F" stroke-width="2" stroke-miterlimit="10" x1="122" y1="209" x2="137" y2="192"/>
	<line fill="none" stroke="#1FCD8F" stroke-width="2" stroke-miterlimit="10" x1="137" y1="194" x2="134" y2="166"/>
	<line fill="none" stroke="#1FCD8F" stroke-width="2" stroke-miterlimit="10" x1="135" y1="168" x2="120" y2="155"/>
	<line fill="none" stroke="#1FCD8F" stroke-width="2" stroke-miterlimit="10" x1="122" y1="156" x2="99" y2="151"/>
	<circle fill-rule="evenodd" clip-rule="evenodd" fill="#1FCD8F" cx="100.5" cy="151.5" r="2.5"/>
	<circle fill-rule="evenodd" clip-rule="evenodd" fill="#1FCD8F" cx="79.5" cy="165.5" r="2.5"/>
	<circle fill-rule="evenodd" clip-rule="evenodd" fill="#1FCD8F" cx="120.5" cy="155.5" r="2.5"/>
	<circle fill-rule="evenodd" clip-rule="evenodd" fill="#1FCD8F" cx="134.5" cy="167.5" r="2.5"/>
	<circle fill-rule="evenodd" clip-rule="evenodd" fill="#1FCD8F" cx="136.5" cy="192.5" r="2.5"/>
	<circle fill-rule="evenodd" clip-rule="evenodd" fill="#1FCD8F" cx="121.5" cy="208.5" r="2.5"/>
	<circle fill-rule="evenodd" clip-rule="evenodd" fill="#1FCD8F" cx="86.5" cy="201.5" r="2.5"/>
	<line fill="none" stroke="#1FCD8F" stroke-width="2" stroke-miterlimit="10" x1="101" y1="223" x2="79" y2="238"/>
	<line fill="none" stroke="#1FCD8F" stroke-width="2" stroke-miterlimit="10" x1="79" y1="236" x2="87" y2="275"/>
	<line fill="none" stroke="#1FCD8F" stroke-width="2" stroke-miterlimit="10" x1="87" y1="274" x2="122" y2="281"/>
	<line fill="none" stroke="#1FCD8F" stroke-width="2" stroke-miterlimit="10" x1="122" y1="281" x2="137" y2="264"/>
	<line fill="none" stroke="#1FCD8F" stroke-width="2" stroke-miterlimit="10" x1="137" y1="266" x2="134" y2="238"/>
	<line fill="none" stroke="#1FCD8F" stroke-width="2" stroke-miterlimit="10" x1="135" y1="240" x2="120" y2="227"/>
	<line fill="none" stroke="#1FCD8F" stroke-width="2" stroke-miterlimit="10" x1="122" y1="228" x2="99" y2="223"/>
	<circle fill-rule="evenodd" clip-rule="evenodd" fill="#1FCD8F" cx="100.5" cy="223.5" r="2.5"/>
	<circle fill-rule="evenodd" clip-rule="evenodd" fill="#1FCD8F" cx="79.5" cy="237.5" r="2.5"/>
	<circle fill-rule="evenodd" clip-rule="evenodd" fill="#1FCD8F" cx="120.5" cy="227.5" r="2.5"/>
	<circle fill-rule="evenodd" clip-rule="evenodd" fill="#1FCD8F" cx="134.5" cy="239.5" r="2.5"/>
	<circle fill-rule="evenodd" clip-rule="evenodd" fill="#1FCD8F" cx="136.5" cy="264.5" r="2.5"/>
	<circle fill-rule="evenodd" clip-rule="evenodd" fill="#1FCD8F" cx="121.5" cy="280.5" r="2.5"/>
	<circle fill-rule="evenodd" clip-rule="evenodd" fill="#1FCD8F" cx="86.5" cy="273.5" r="2.5"/>
	<line fill="none" stroke="#1FCD8F" stroke-width="2" stroke-miterlimit="10" x1="101" y1="295" x2="79" y2="310"/>
	<line fill="none" stroke="#1FCD8F" stroke-width="2" stroke-miterlimit="10" x1="79" y1="308" x2="87" y2="347"/>
	<line fill="none" stroke="#1FCD8F" stroke-width="2" stroke-miterlimit="10" x1="87" y1="346" x2="122" y2="353"/>
	<line fill="none" stroke="#1FCD8F" stroke-width="2" stroke-miterlimit="10" x1="122" y1="353" x2="137" y2="336"/>
	<line fill="none" stroke="#1FCD8F" stroke-width="2" stroke-miterlimit="10" x1="137" y1="338" x2="134" y2="310"/>
	<line fill="none" stroke="#1FCD8F" stroke-width="2" stroke-miterlimit="10" x1="135" y1="312" x2="120" y2="299"/>
	<line fill="none" stroke="#1FCD8F" stroke-width="2" stroke-miterlimit="10" x1="122" y1="300" x2="99" y2="295"/>
	<circle fill-rule="evenodd" clip-rule="evenodd" fill="#1FCD8F" cx="100.5" cy="295.5" r="2.5"/>
	<circle fill-rule="evenodd" clip-rule="evenodd" fill="#1FCD8F" cx="79.5" cy="309.5" r="2.5"/>
	<circle fill-rule="evenodd" clip-rule="evenodd" fill="#1FCD8F" cx="120.5" cy="299.5" r="2.5"/>
	<circle fill-rule="evenodd" clip-rule="evenodd" fill="#1FCD8F" cx="134.5" cy="311.5" r="2.5"/>
	<circle fill-rule="evenodd" clip-rule="evenodd" fill="#1FCD8F" cx="136.5" cy="336.5" r="2.5"/>
	<circle fill-rule="evenodd" clip-rule="evenodd" fill="#1FCD8F" cx="121.5" cy="352.5" r="2.5"/>
	<circle fill-rule="evenodd" clip-rule="evenodd" fill="#1FCD8F" cx="86.5" cy="345.5" r="2.5"/>
	<line fill="none" stroke="#1FCD8F" stroke-width="2" stroke-miterlimit="10" x1="101" y1="367" x2="79" y2="382"/>
	<line fill="none" stroke="#1FCD8F" stroke-width="2" stroke-miterlimit="10" x1="79" y1="380" x2="87" y2="419"/>
	<line fill="none" stroke="#1FCD8F" stroke-width="2" stroke-miterlimit="10" x1="87" y1="418" x2="122" y2="425"/>
	<line fill="none" stroke="#1FCD8F" stroke-width="2" stroke-miterlimit="10" x1="122" y1="425" x2="137" y2="408"/>
	<line fill="none" stroke="#1FCD8F" stroke-width="2" stroke-miterlimit="10" x1="137" y1="410" x2="134" y2="382"/>
	<line fill="none" stroke="#1FCD8F" stroke-width="2" stroke-miterlimit="10" x1="135" y1="384" x2="120" y2="371"/>
	<line fill="none" stroke="#1FCD8F" stroke-width="2" stroke-miterlimit="10" x1="122" y1="372" x2="99" y2="367"/>
	<circle fill-rule="evenodd" clip-rule="evenodd" fill="#1FCD8F" cx="100.5" cy="367.5" r="2.5"/>
	<circle fill-rule="evenodd" clip-rule="evenodd" fill="#1FCD8F" cx="79.5" cy="381.5" r="2.5"/>
	<circle fill-rule="evenodd" clip-rule="evenodd" fill="#1FCD8F" cx="120.5" cy="371.5" r="2.5"/>
	<circle fill-rule="evenodd" clip-rule="evenodd" fill="#1FCD8F" cx="134.5" cy="383.5" r="2.5"/>
	<circle fill-rule="evenodd" clip-rule="evenodd" fill="#1FCD8F" cx="136.5" cy="408.5" r="2.5"/>
	<circle fill-rule="evenodd" clip-rule="evenodd" fill="#1FCD8F" cx="121.5" cy="424.5" r="2.5"/>
	<circle fill-rule="evenodd" clip-rule="evenodd" fill="#1FCD8F" cx="86.5" cy="417.5" r="2.5"/>
	<path fill-rule="evenodd" clip-rule="evenodd" fill="#1FCD8F" d="M137.605,478.269l-2.19-20.447
		c0.927-0.365,1.585-1.264,1.585-2.321c0-1.381-1.119-2.5-2.5-2.5c-0.404,0-0.78,0.104-1.117,0.274l-10.489-9.091
		c0.062-0.219,0.106-0.445,0.106-0.684c0-1.381-1.119-2.5-2.5-2.5c-0.898,0-1.68,0.478-2.12,1.189l-15.484-3.366
		c-0.297-1.05-1.251-1.823-2.396-1.823c-1.381,0-2.5,1.119-2.5,2.5c0,0.107,0.019,0.21,0.031,0.313l-17.088,11.65
		C80.535,451.174,80.039,451,79.5,451c-1.381,0-2.5,1.119-2.5,2.5c0,1.127,0.75,2.068,1.775,2.381l6.456,31.476
		C84.498,487.792,84,488.584,84,489.5c0,1.381,1.119,2.5,2.5,2.5c0.688,0,1.311-0.278,1.763-0.728l30.929,6.186
		c0.376,0.905,1.268,1.542,2.309,1.542c1.381,0,2.5-1.119,2.5-2.5c0-0.078-0.016-0.152-0.023-0.229l11.812-13.386
		c0.227,0.067,0.463,0.115,0.712,0.115c1.381,0,2.5-1.119,2.5-2.5C139,479.519,138.429,478.678,137.605,478.269z M134,480.5
		c0,0.394,0.1,0.761,0.261,1.092l-11.34,12.854c-0.404-0.279-0.893-0.445-1.421-0.445c-0.996,0-1.849,0.587-2.251,1.43
		l-30.262-6.053c-0.053-1.071-0.775-1.957-1.762-2.258l-6.457-31.476C81.503,455.208,82,454.416,82,453.5
		c0-0.107-0.019-0.209-0.031-0.313l17.088-11.651c0.408,0.29,0.904,0.465,1.443,0.465c0.898,0,1.68-0.478,2.12-1.189l15.484,3.366
		c0.297,1.05,1.251,1.823,2.396,1.823c0.403,0,0.779-0.104,1.117-0.274l10.489,9.091c-0.062,0.219-0.106,0.445-0.106,0.684
		c0,0.981,0.571,1.822,1.395,2.231l2.19,20.447C134.658,478.544,134,479.443,134,480.5z"/>
	<path opacity="0.9" fill-rule="evenodd" clip-rule="evenodd" fill="#1FCD8F" d="M137.605,550.269l-2.19-20.447
		c0.927-0.365,1.585-1.264,1.585-2.321c0-1.381-1.119-2.5-2.5-2.5c-0.404,0-0.78,0.104-1.117,0.274l-10.489-9.091
		c0.062-0.219,0.106-0.445,0.106-0.684c0-1.381-1.119-2.5-2.5-2.5c-0.898,0-1.68,0.478-2.12,1.189l-15.484-3.366
		c-0.297-1.05-1.251-1.823-2.396-1.823c-1.381,0-2.5,1.119-2.5,2.5c0,0.107,0.019,0.21,0.031,0.313l-17.088,11.65
		C80.535,523.174,80.039,523,79.5,523c-1.381,0-2.5,1.119-2.5,2.5c0,1.127,0.75,2.068,1.775,2.381l6.456,31.476
		C84.498,559.792,84,560.584,84,561.5c0,1.381,1.119,2.5,2.5,2.5c0.688,0,1.311-0.278,1.763-0.728l30.929,6.186
		c0.376,0.905,1.268,1.542,2.309,1.542c1.381,0,2.5-1.119,2.5-2.5c0-0.078-0.016-0.152-0.023-0.229l11.812-13.386
		c0.227,0.067,0.463,0.115,0.712,0.115c1.381,0,2.5-1.119,2.5-2.5C139,551.519,138.429,550.678,137.605,550.269z M134,552.5
		c0,0.394,0.1,0.761,0.261,1.092l-11.34,12.854c-0.404-0.279-0.893-0.445-1.421-0.445c-0.996,0-1.849,0.587-2.251,1.43
		l-30.262-6.053c-0.053-1.071-0.775-1.957-1.762-2.258l-6.457-31.476C81.503,527.208,82,526.416,82,525.5
		c0-0.107-0.019-0.209-0.031-0.313l17.088-11.651c0.408,0.29,0.904,0.465,1.443,0.465c0.898,0,1.68-0.478,2.12-1.189l15.484,3.366
		c0.297,1.05,1.251,1.823,2.396,1.823c0.403,0,0.779-0.104,1.117-0.274l10.489,9.091c-0.062,0.219-0.106,0.445-0.106,0.684
		c0,0.981,0.571,1.822,1.395,2.231l2.19,20.447C134.658,550.544,134,551.443,134,552.5z"/>
	<path opacity="0.8" fill-rule="evenodd" clip-rule="evenodd" fill="#1FCD8F" d="M137.605,622.269l-2.19-20.447
		c0.927-0.365,1.585-1.264,1.585-2.321c0-1.381-1.119-2.5-2.5-2.5c-0.404,0-0.78,0.104-1.117,0.274l-10.489-9.091
		c0.062-0.219,0.106-0.445,0.106-0.684c0-1.381-1.119-2.5-2.5-2.5c-0.898,0-1.68,0.478-2.12,1.189l-15.484-3.366
		c-0.297-1.05-1.251-1.823-2.396-1.823c-1.381,0-2.5,1.119-2.5,2.5c0,0.107,0.019,0.21,0.031,0.313l-17.088,11.65
		C80.535,595.174,80.039,595,79.5,595c-1.381,0-2.5,1.119-2.5,2.5c0,1.127,0.75,2.068,1.775,2.381l6.456,31.476
		C84.498,631.792,84,632.584,84,633.5c0,1.381,1.119,2.5,2.5,2.5c0.688,0,1.311-0.278,1.763-0.728l30.929,6.186
		c0.376,0.905,1.268,1.542,2.309,1.542c1.381,0,2.5-1.119,2.5-2.5c0-0.078-0.016-0.152-0.023-0.229l11.812-13.386
		c0.227,0.067,0.463,0.115,0.712,0.115c1.381,0,2.5-1.119,2.5-2.5C139,623.519,138.429,622.678,137.605,622.269z M134,624.5
		c0,0.394,0.1,0.761,0.261,1.092l-11.34,12.854c-0.404-0.279-0.893-0.445-1.421-0.445c-0.996,0-1.849,0.587-2.251,1.43
		l-30.262-6.053c-0.053-1.071-0.775-1.957-1.762-2.258l-6.457-31.476C81.503,599.208,82,598.416,82,597.5
		c0-0.107-0.019-0.209-0.031-0.313l17.088-11.651c0.408,0.29,0.904,0.465,1.443,0.465c0.898,0,1.68-0.478,2.12-1.189l15.484,3.366
		c0.297,1.05,1.251,1.823,2.396,1.823c0.403,0,0.779-0.104,1.117-0.274l10.489,9.091c-0.062,0.219-0.106,0.445-0.106,0.684
		c0,0.981,0.571,1.822,1.395,2.231l2.19,20.447C134.658,622.544,134,623.443,134,624.5z"/>
	<path opacity="0.65" fill-rule="evenodd" clip-rule="evenodd" fill="#1FCD8F" d="M137.605,694.269l-2.19-20.447
		c0.927-0.365,1.585-1.264,1.585-2.321c0-1.381-1.119-2.5-2.5-2.5c-0.404,0-0.78,0.104-1.117,0.274l-10.489-9.091
		c0.062-0.219,0.106-0.445,0.106-0.684c0-1.381-1.119-2.5-2.5-2.5c-0.898,0-1.68,0.478-2.12,1.189l-15.484-3.366
		c-0.297-1.05-1.251-1.823-2.396-1.823c-1.381,0-2.5,1.119-2.5,2.5c0,0.107,0.019,0.21,0.031,0.313l-17.088,11.65
		C80.535,667.174,80.039,667,79.5,667c-1.381,0-2.5,1.119-2.5,2.5c0,1.127,0.75,2.068,1.775,2.381l6.456,31.476
		C84.498,703.792,84,704.584,84,705.5c0,1.381,1.119,2.5,2.5,2.5c0.688,0,1.311-0.278,1.763-0.728l30.929,6.186
		c0.376,0.905,1.268,1.542,2.309,1.542c1.381,0,2.5-1.119,2.5-2.5c0-0.078-0.016-0.152-0.023-0.229l11.812-13.386
		c0.227,0.067,0.463,0.115,0.712,0.115c1.381,0,2.5-1.119,2.5-2.5C139,695.519,138.429,694.678,137.605,694.269z M134,696.5
		c0,0.394,0.1,0.761,0.261,1.092l-11.34,12.854c-0.404-0.279-0.893-0.445-1.421-0.445c-0.996,0-1.849,0.587-2.251,1.43
		l-30.262-6.053c-0.053-1.071-0.775-1.957-1.762-2.258l-6.457-31.476C81.503,671.208,82,670.416,82,669.5
		c0-0.107-0.019-0.209-0.031-0.313l17.088-11.651c0.408,0.29,0.904,0.465,1.443,0.465c0.898,0,1.68-0.478,2.12-1.189l15.484,3.366
		c0.297,1.05,1.251,1.823,2.396,1.823c0.403,0,0.779-0.104,1.117-0.274l10.489,9.091c-0.062,0.219-0.106,0.445-0.106,0.684
		c0,0.981,0.571,1.822,1.395,2.231l2.19,20.447C134.658,694.544,134,695.443,134,696.5z"/>
	<path opacity="0.45" fill-rule="evenodd" clip-rule="evenodd" fill="#1FCD8F" d="M137.605,766.269l-2.19-20.447
		c0.927-0.365,1.585-1.264,1.585-2.321c0-1.381-1.119-2.5-2.5-2.5c-0.404,0-0.78,0.104-1.117,0.274l-10.489-9.091
		c0.062-0.219,0.106-0.445,0.106-0.684c0-1.381-1.119-2.5-2.5-2.5c-0.898,0-1.68,0.478-2.12,1.189l-15.484-3.366
		c-0.297-1.05-1.251-1.823-2.396-1.823c-1.381,0-2.5,1.119-2.5,2.5c0,0.107,0.019,0.21,0.031,0.313l-17.088,11.65
		C80.535,739.174,80.039,739,79.5,739c-1.381,0-2.5,1.119-2.5,2.5c0,1.127,0.75,2.068,1.775,2.381l6.456,31.476
		C84.498,775.792,84,776.584,84,777.5c0,1.381,1.119,2.5,2.5,2.5c0.688,0,1.311-0.278,1.763-0.728l30.929,6.186
		c0.376,0.905,1.268,1.542,2.309,1.542c1.381,0,2.5-1.119,2.5-2.5c0-0.078-0.016-0.152-0.023-0.229l11.812-13.386
		c0.227,0.067,0.463,0.115,0.712,0.115c1.381,0,2.5-1.119,2.5-2.5C139,767.519,138.429,766.678,137.605,766.269z M134,768.5
		c0,0.394,0.1,0.761,0.261,1.092l-11.34,12.854c-0.404-0.279-0.893-0.445-1.421-0.445c-0.996,0-1.849,0.587-2.251,1.43
		l-30.262-6.053c-0.053-1.071-0.775-1.957-1.762-2.258l-6.457-31.476C81.503,743.208,82,742.416,82,741.5
		c0-0.107-0.019-0.209-0.031-0.313l17.088-11.651c0.408,0.29,0.904,0.465,1.443,0.465c0.898,0,1.68-0.478,2.12-1.189l15.484,3.366
		c0.297,1.05,1.251,1.823,2.396,1.823c0.403,0,0.779-0.104,1.117-0.274l10.489,9.091c-0.062,0.219-0.106,0.445-0.106,0.684
		c0,0.981,0.571,1.822,1.395,2.231l2.19,20.447C134.658,766.544,134,767.443,134,768.5z"/>
	<path opacity="0.2" fill-rule="evenodd" clip-rule="evenodd" fill="#1FCD8F" d="M137.605,838.269l-2.19-20.447
		c0.927-0.365,1.585-1.264,1.585-2.321c0-1.381-1.119-2.5-2.5-2.5c-0.404,0-0.78,0.104-1.117,0.274l-10.489-9.091
		c0.062-0.219,0.106-0.445,0.106-0.684c0-1.381-1.119-2.5-2.5-2.5c-0.898,0-1.68,0.478-2.12,1.189l-15.484-3.366
		c-0.297-1.05-1.251-1.823-2.396-1.823c-1.381,0-2.5,1.119-2.5,2.5c0,0.107,0.019,0.21,0.031,0.313l-17.088,11.65
		C80.535,811.174,80.039,811,79.5,811c-1.381,0-2.5,1.119-2.5,2.5c0,1.127,0.75,2.068,1.775,2.381l6.456,31.476
		C84.498,847.792,84,848.584,84,849.5c0,1.381,1.119,2.5,2.5,2.5c0.688,0,1.311-0.278,1.763-0.728l30.929,6.186
		c0.376,0.905,1.268,1.542,2.309,1.542c1.381,0,2.5-1.119,2.5-2.5c0-0.078-0.016-0.152-0.023-0.229l11.812-13.386
		c0.227,0.067,0.463,0.115,0.712,0.115c1.381,0,2.5-1.119,2.5-2.5C139,839.519,138.429,838.678,137.605,838.269z M134,840.5
		c0,0.394,0.1,0.761,0.261,1.092l-11.34,12.854c-0.404-0.279-0.893-0.445-1.421-0.445c-0.996,0-1.849,0.587-2.251,1.43
		l-30.262-6.053c-0.053-1.071-0.775-1.957-1.762-2.258l-6.457-31.476C81.503,815.208,82,814.416,82,813.5
		c0-0.107-0.019-0.209-0.031-0.313l17.088-11.651c0.408,0.29,0.904,0.465,1.443,0.465c0.898,0,1.68-0.478,2.12-1.189l15.484,3.366
		c0.297,1.05,1.251,1.823,2.396,1.823c0.403,0,0.779-0.104,1.117-0.274l10.489,9.091c-0.062,0.219-0.106,0.445-0.106,0.684
		c0,0.981,0.571,1.822,1.395,2.231l2.19,20.447C134.658,838.544,134,839.443,134,840.5z"/>
	<line fill="none" stroke="#1FCD8F" stroke-width="2" stroke-miterlimit="10" x1="7" y1="1028" x2="15" y2="1067"/>
	<line fill="none" stroke="#1FCD8F" stroke-width="2" stroke-miterlimit="10" x1="15" y1="1066" x2="50" y2="1073"/>
	<line fill="none" stroke="#1FCD8F" stroke-width="2" stroke-miterlimit="10" x1="50" y1="1073" x2="65" y2="1056"/>
	<line fill="none" stroke="#1FCD8F" stroke-width="2" stroke-miterlimit="10" x1="65" y1="1058" x2="62" y2="1030"/>
	<line fill="none" stroke="#1FCD8F" stroke-width="2" stroke-miterlimit="10" x1="63" y1="1032" x2="48" y2="1019"/>
	<line fill="none" stroke="#1FCD8F" stroke-width="2" stroke-miterlimit="10" x1="50" y1="1020" x2="27" y2="1015"/>
	<circle fill-rule="evenodd" clip-rule="evenodd" fill="#1FCD8F" cx="28.5" cy="1015.5" r="2.5"/>
	<circle fill-rule="evenodd" clip-rule="evenodd" fill="#1FCD8F" cx="7.5" cy="1029.5" r="2.5"/>
	<circle fill-rule="evenodd" clip-rule="evenodd" fill="#1FCD8F" cx="48.5" cy="1019.5" r="2.5"/>
	<circle fill-rule="evenodd" clip-rule="evenodd" fill="#1FCD8F" cx="62.5" cy="1031.5" r="2.5"/>
	<circle fill-rule="evenodd" clip-rule="evenodd" fill="#1FCD8F" cx="64.5" cy="1056.5" r="2.5"/>
	<circle fill-rule="evenodd" clip-rule="evenodd" fill="#1FCD8F" cx="49.5" cy="1072.5" r="2.5"/>
	<circle fill-rule="evenodd" clip-rule="evenodd" fill="#1FCD8F" cx="14.5" cy="1065.5" r="2.5"/>
	<line fill="none" stroke="#1FCD8F" stroke-width="2" stroke-miterlimit="10" x1="15" y1="1138" x2="50" y2="1145"/>
	<line fill="none" stroke="#1FCD8F" stroke-width="2" stroke-miterlimit="10" x1="50" y1="1145" x2="65" y2="1128"/>
	<line fill="none" stroke="#1FCD8F" stroke-width="2" stroke-miterlimit="10" x1="65" y1="1130" x2="62" y2="1102"/>
	<line fill="none" stroke="#1FCD8F" stroke-width="2" stroke-miterlimit="10" x1="63" y1="1104" x2="48" y2="1091"/>
	<line fill="none" stroke="#1FCD8F" stroke-width="2" stroke-miterlimit="10" x1="50" y1="1092" x2="27" y2="1087"/>
	<circle fill-rule="evenodd" clip-rule="evenodd" fill="#1FCD8F" cx="28.5" cy="1087.5" r="2.5"/>
	<circle fill-rule="evenodd" clip-rule="evenodd" fill="#1FCD8F" cx="48.5" cy="1091.5" r="2.5"/>
	<circle fill-rule="evenodd" clip-rule="evenodd" fill="#1FCD8F" cx="62.5" cy="1103.5" r="2.5"/>
	<circle fill-rule="evenodd" clip-rule="evenodd" fill="#1FCD8F" cx="64.5" cy="1128.5" r="2.5"/>
	<circle fill-rule="evenodd" clip-rule="evenodd" fill="#1FCD8F" cx="49.5" cy="1144.5" r="2.5"/>
	<circle fill-rule="evenodd" clip-rule="evenodd" fill="#1FCD8F" cx="14.5" cy="1137.5" r="2.5"/>
	<line fill="none" stroke="#1FCD8F" stroke-width="2" stroke-miterlimit="10" x1="50" y1="1217" x2="65" y2="1200"/>
	<line fill="none" stroke="#1FCD8F" stroke-width="2" stroke-miterlimit="10" x1="65" y1="1202" x2="62" y2="1174"/>
	<line fill="none" stroke="#1FCD8F" stroke-width="2" stroke-miterlimit="10" x1="63" y1="1176" x2="48" y2="1163"/>
	<line fill="none" stroke="#1FCD8F" stroke-width="2" stroke-miterlimit="10" x1="50" y1="1164" x2="27" y2="1159"/>
	<circle fill-rule="evenodd" clip-rule="evenodd" fill="#1FCD8F" cx="28.5" cy="1159.5" r="2.5"/>
	<circle fill-rule="evenodd" clip-rule="evenodd" fill="#1FCD8F" cx="48.5" cy="1163.5" r="2.5"/>
	<circle fill-rule="evenodd" clip-rule="evenodd" fill="#1FCD8F" cx="62.5" cy="1175.5" r="2.5"/>
	<circle fill-rule="evenodd" clip-rule="evenodd" fill="#1FCD8F" cx="64.5" cy="1200.5" r="2.5"/>
	<circle fill-rule="evenodd" clip-rule="evenodd" fill="#1FCD8F" cx="49.5" cy="1216.5" r="2.5"/>
	<line fill="none" stroke="#1FCD8F" stroke-width="2" stroke-miterlimit="10" x1="65" y1="1274" x2="62" y2="1246"/>
	<line fill="none" stroke="#1FCD8F" stroke-width="2" stroke-miterlimit="10" x1="63" y1="1248" x2="48" y2="1235"/>
	<line fill="none" stroke="#1FCD8F" stroke-width="2" stroke-miterlimit="10" x1="50" y1="1236" x2="27" y2="1231"/>
	<circle fill-rule="evenodd" clip-rule="evenodd" fill="#1FCD8F" cx="28.5" cy="1231.5" r="2.5"/>
	<circle fill-rule="evenodd" clip-rule="evenodd" fill="#1FCD8F" cx="48.5" cy="1235.5" r="2.5"/>
	<circle fill-rule="evenodd" clip-rule="evenodd" fill="#1FCD8F" cx="62.5" cy="1247.5" r="2.5"/>
	<circle fill-rule="evenodd" clip-rule="evenodd" fill="#1FCD8F" cx="64.5" cy="1272.5" r="2.5"/>
	<line fill="none" stroke="#1FCD8F" stroke-width="2" stroke-miterlimit="10" x1="63" y1="1320" x2="48" y2="1307"/>
	<line fill="none" stroke="#1FCD8F" stroke-width="2" stroke-miterlimit="10" x1="50" y1="1308" x2="27" y2="1303"/>
	<circle fill-rule="evenodd" clip-rule="evenodd" fill="#1FCD8F" cx="28.5" cy="1303.5" r="2.5"/>
	<circle fill-rule="evenodd" clip-rule="evenodd" fill="#1FCD8F" cx="48.5" cy="1307.5" r="2.5"/>
	<circle fill-rule="evenodd" clip-rule="evenodd" fill="#1FCD8F" cx="62.5" cy="1319.5" r="2.5"/>
	<line fill="none" stroke="#1FCD8F" stroke-width="2" stroke-miterlimit="10" x1="50" y1="1380" x2="27" y2="1375"/>
	<circle fill-rule="evenodd" clip-rule="evenodd" fill="#1FCD8F" cx="28.5" cy="1375.5" r="2.5"/>
	<circle fill-rule="evenodd" clip-rule="evenodd" fill="#1FCD8F" cx="48.5" cy="1379.5" r="2.5"/>
	<circle fill-rule="evenodd" clip-rule="evenodd" fill="#1FCD8F" cx="28.5" cy="1447.5" r="2.5"/>
	<path opacity="0.05" fill-rule="evenodd" clip-rule="evenodd" fill="#BFE1FF" d="M85.251,24.5l-8.25,8.25l26.124,26.125L143,16.25
		L134.75,8l-31.625,33L85.251,24.5z"/>
	<path opacity="0.15" fill-rule="evenodd" clip-rule="evenodd" fill="#BFE1FF" d="M88.133,98.265L81,105.397l22.586,22.587
		l34.474-36.852L130.927,84l-27.341,28.53L88.133,98.265z"/>
	<path opacity="0.3" fill-rule="evenodd" clip-rule="evenodd" fill="#BFE1FF" d="M89.448,171.885l-6.508,6.508L103.547,199
		L135,165.378l-6.508-6.508l-24.945,26.03L89.448,171.885z"/>
	<path opacity="0.6" fill-rule="evenodd" clip-rule="evenodd" fill="#BFE1FF" d="M92.093,247.611l-5.559,5.559l17.601,17.601
		L131,242.054l-5.559-5.559l-21.307,22.233L92.093,247.611z"/>
	<path opacity="0.8" fill-rule="evenodd" clip-rule="evenodd" fill="#BFE1FF" d="M94.843,321.049l-4.309,4.309L104.176,339
		L125,316.741l-4.309-4.309l-16.516,17.233L94.843,321.049z"/>
	<path fill-rule="evenodd" clip-rule="evenodd" fill="#BFE1FF" d="M96.343,394.616l-3.809,3.809l12.059,12.059L123,390.809
		L119.191,387l-14.599,15.233L96.343,394.616z"/>
	<path fill-rule="evenodd" clip-rule="evenodd" fill="#BFE1FF" d="M97.484,466.484L94,469.969L105.031,481l16.84-17.999
		l-3.484-3.484l-13.355,13.937L97.484,466.484z"/>
	<path fill-rule="evenodd" clip-rule="evenodd" fill="#BFE1FF" d="M99.431,539.187l-2.836,2.836l8.978,8.978l13.704-14.647
		l-2.836-2.836l-10.868,11.342L99.431,539.187z"/>
	<path fill-rule="evenodd" clip-rule="evenodd" fill="#BFE1FF" d="M99.431,611.187l-2.836,2.836l8.978,8.978l13.704-14.647
		l-2.836-2.836l-10.868,11.342L99.431,611.187z"/>
	<path opacity="0.8" fill-rule="evenodd" clip-rule="evenodd" fill="#BFE1FF" d="M99.431,683.187l-2.836,2.836l8.978,8.978
		l13.704-14.647l-2.836-2.836l-10.868,11.342L99.431,683.187z"/>
	<path opacity="0.6" fill-rule="evenodd" clip-rule="evenodd" fill="#BFE1FF" d="M99.431,755.187l-2.836,2.836l8.978,8.978
		l13.704-14.647l-2.836-2.836l-10.868,11.342L99.431,755.187z"/>
	<path opacity="0.3" fill-rule="evenodd" clip-rule="evenodd" fill="#BFE1FF" d="M99.431,827.187l-2.836,2.836l8.978,8.978
		l13.704-14.647l-2.836-2.836l-10.868,11.342L99.431,827.187z"/>
	<rect opacity="0.01" fill-rule="evenodd" clip-rule="evenodd" fill="#BFE1FF" width="1.008" height="1.008"/>
	<rect x="143" y="1511" opacity="0.01" fill-rule="evenodd" clip-rule="evenodd" fill="#BFE1FF" width="1.008" height="1.008"/>
</g>
<g id="Layer_3" display="none">
	<g display="inline">
		<rect x="72" opacity="0.3" fill="#FCEE21" width="72" height="5"/>
		<rect x="72" y="67" opacity="0.3" fill="#FCEE21" width="72" height="5"/>
		<rect x="72" y="5" opacity="0.3" fill="#ED1C24" width="72" height="62"/>
	</g>
</g>
</svg>
