<?xml version="1.0" encoding="UTF-8" standalone="no"?>
<svg width="595px" height="415px" viewBox="0 0 595 415" version="1.1" xmlns="http://www.w3.org/2000/svg" xmlns:xlink="http://www.w3.org/1999/xlink">
    <!-- Generator: Sketch 39.1 (31720) - http://www.bohemiancoding.com/sketch -->
    <title>uf-admin-sprite</title>
    <desc>Created with Sketch.</desc>
    <defs>
        <radialGradient cx="50%" cy="50%" fx="50%" fy="50%" r="52.733429%" id="radialGradient-1">
            <stop stop-color="#19BEFF" offset="0%"></stop>
            <stop stop-color="#18A7E0" offset="100%"></stop>
        </radialGradient>
        <polygon id="path-2" points="0 0.703696169 0 271.5377 261.3878 271.5377 261.3878 0.703696169 0 0.703696169"></polygon>
        <polygon id="path-4" points="109.7893 0.341 0.935296063 0.341 0.935296063 118.2844 109.7893 118.2844 109.7893 0.341"></polygon>
    </defs>
    <g id="Page-1" stroke="none" stroke-width="1" fill="none" fill-rule="evenodd">
        <g id="uf-admin-sprite">
            <g id="uf-logo-final" opacity="0.699999988" transform="translate(10.000000, 10.000000)">
                <path d="M67.951,5.31 C67.951,4.125 69.378,3.961 70.298,3.961 C70.462,3.961 70.611,3.968 70.732,3.981 L71.048,0.082 C71.048,0.082 70.483,0 69.65,0 C67.411,0 63.287,0.62 63.287,5.177 L63.287,5.499 L61.591,5.499 L61.591,9.135 L63.287,9.135 L63.287,19.375 L67.951,19.375 L67.951,9.135 L70.609,9.135 L70.609,5.499 L67.951,5.499 L67.951,5.31 Z M81.296,5.308 C81.262,5.302 81.018,5.254 80.773,5.254 C78.694,5.254 76.941,6.821 76.348,8.706 L76.098,5.499 L71.875,5.499 L71.875,19.375 L76.537,19.375 L76.537,14.12 C76.537,13.368 76.616,12.748 76.779,12.234 C77.452,10.159 79.26,9.808 80.364,9.808 C80.587,9.808 80.781,9.821 80.935,9.835 L81.296,5.308 Z M31.001,5.499 L35.663,5.499 L35.663,13.637 C35.663,14.93 36.174,15.469 37.143,15.469 C39.137,15.469 40.08,13.718 40.08,11.641 L40.08,5.499 L44.743,5.499 L44.743,19.375 L40.44,19.375 L40.268,17.302 C39.512,18.782 37.79,19.701 35.931,19.701 C33.179,19.701 31.001,18.406 31.001,14.498 L31.001,5.499 Z M97.942,5.499 L102.25,5.499 L102.421,7.57 C103.064,6.498 104.385,5.177 106.84,5.177 C109.642,5.177 111.824,6.469 111.824,10.376 L111.824,19.375 L107.162,19.375 L107.162,11.239 C107.162,9.944 106.649,9.404 105.629,9.404 C104.173,9.404 103.282,10.213 102.877,11.401 C102.689,11.938 102.609,12.56 102.609,13.23 L102.609,19.375 L97.942,19.375 L97.942,5.499 Z M122,15.267 C121.896,15.272 121.75,15.279 121.57,15.279 C120.681,15.279 119.091,15.062 119.091,13.503 L119.091,9.135 L121.71,9.135 L122,5.527 L122,5.499 L119.091,5.499 L119.091,1.94 L114.849,1.94 L114.563,5.499 L112.65,5.499 L112.65,9.135 L114.431,9.135 L114.431,14.12 C114.431,18.782 118.716,19.375 120.924,19.375 C121.405,19.375 121.786,19.345 122,19.32 L122,15.267 Z M89.223,5.177 C93.614,5.177 97.119,8.11 97.119,12.476 C97.119,16.818 93.614,19.701 89.253,19.701 C84.886,19.701 81.38,16.818 81.38,12.476 C81.38,8.11 84.886,5.177 89.223,5.177 Z M89.253,15.82 C90.946,15.82 92.404,14.554 92.404,12.476 C92.404,10.376 90.946,9.058 89.253,9.058 C87.552,9.058 86.095,10.376 86.095,12.476 C86.095,14.554 87.552,15.82 89.253,15.82 Z M46.806,5.499 L50.883,5.499 L51.009,7.085 C51.009,7.085 52.274,5.177 55.217,5.177 C58.989,5.177 61.466,8.139 61.466,12.449 C61.466,16.841 58.691,19.701 55.001,19.701 C52.736,19.701 51.471,18.38 51.471,18.38 L51.471,19.567 L51.471,24.875 L46.806,24.875 L46.806,5.499 Z M54.05,15.847 C55.51,15.847 56.778,14.66 56.778,12.531 C56.778,10.457 55.674,9.106 54.05,9.106 C52.657,9.106 51.331,10.132 51.331,12.531 C51.331,14.201 52.222,15.847 54.05,15.847 Z" id="Combined-Shape" fill="#848484"></path>
                <polyline id="Fill-8" fill="#BABABA" points="13.498 0.683 9.159 4.697 14.648 5.286 19.579 8.6 19.121 2.943 16.232 1.003 13.498 0.683"></polyline>
                <polyline id="Fill-9" fill="#BABABA" points="5.251 8.314 0.493 12.713 0.389 14.062 4.66 16.141 5.251 8.314"></polyline>
                <polyline id="Fill-10" fill="#BABABA" points="24.487 14.062 12.493 19.951 17.545 22.408 24.875 18.863 24.487 14.062"></polyline>
                <polyline id="Fill-11" fill="#848484" points="23.841 6.114 19.121 2.943 20.191 16.17 24.487 14.062 23.841 6.114"></polyline>
                <polyline id="Fill-12" fill="#848484" points="7.635 0 1.025 6.114 0.493 12.713 13.498 0.683 7.635 0"></polyline>
                <polyline id="Fill-13" fill="#848484" points="0 18.863 12.436 24.875 17.545 22.408 0.389 14.062 0 18.863"></polyline>
            </g>
            <g id="uf-logo-grey" opacity="0.900000036" transform="translate(10.000000, 85.000000)" fill="#FFFFFF">
                <polyline id="Fill-1" fill-opacity="0.699999988" points="10.008 0.923225806 6.96948387 3.73470968 10.8133548 4.1463871 14.2664516 6.46780645 13.9459355 2.50548387 11.9223871 1.14851613 10.008 0.923225806"></polyline>
                <polyline id="Fill-2" fill-opacity="0.699999988" points="4.23290323 6.26748387 0.90116129 9.3483871 0.828 10.2925161 3.81890323 11.7476129 4.23290323 6.26748387"></polyline>
                <polyline id="Fill-3" fill-opacity="0.699999988" points="17.703871 10.2925161 9.30425806 14.4162581 12.8415484 16.1372903 17.9750323 13.6550323 17.703871 10.2925161"></polyline>
                <polyline id="Fill-4" points="17.2515484 4.72645161 13.9459355 2.50548387 14.6955484 11.7690968 17.703871 10.2925161 17.2515484 4.72645161"></polyline>
                <polyline id="Fill-5" points="5.90225806 0.445354839 1.27393548 4.72645161 0.90116129 9.3483871 10.008 0.923225806 5.90225806 0.445354839"></polyline>
                <polyline id="Fill-6" points="0.555677419 13.6550323 9.26477419 17.8647097 12.8415484 16.1372903 0.828 10.2925161 0.555677419 13.6550323"></polyline>
            </g>
            <path d="M10,161 C10,165.418286 13.5817143,169 18,169 C22.4182857,169 26,165.418286 26,161 C26,156.581714 22.4182857,153 18,153 C13.5817143,153 10,156.581714 10,161 Z M17,165.001 C17,165.553285 17.4438648,166.001 18,166.001 C18.5522847,166.001 19,165.557135 19,165.001 C19,164.448715 18.5561352,164.001 18,164.001 C17.4477153,164.001 17,164.444865 17,165.001 Z M19,163 L17,163 C17,160 19.331,160.562 19.331,158.875 C19.331,158.017 19,157.679 18,157.679 C16.516,157.679 16.557,159 16.557,159 L14.643,159 C14.643,158 15.5,156 18,156 C20.297,156 21.357,157.266 21.357,159 C21.357,160.999 19,161 19,163 Z" id="Page-1" fill="url(#radialGradient-1)"></path>
            <path d="M115,90.9985023 C115,90.4470447 115.444631,90 116.000872,90 L129.999128,90 C130.551894,90 131,90.4474894 131,90.9985023 L131,102.001498 C131,102.552955 130.555369,103 129.999128,103 L116.000872,103 C115.448106,103 115,102.552511 115,102.001498 L115,90.9985023 L115,90.9985023 Z M117,92 L129,92 L129,101 L117,101 L117,92 L117,92 Z M119,90 L127,90 L127,92 L119,92 L119,90 L119,90 Z M123,85 C123.552285,85 124,85.4463114 124,85.9975446 L124,94 L122,94 L122,85.9975446 C122,85.446616 122.443865,85 123,85 Z M119,94 L127,94 L123,99 L119,94 Z" id="Combined-Shape" fill="#FFFFFF"></path>
            <path d="M123,169 C127.970563,169 132,164.970563 132,160 C132,155.029437 127.970563,151 123,151 C118.029437,151 114,155.029437 114,160 C114,164.970563 118.029437,169 123,169 Z M123,167.25 C127.004064,167.25 130.25,164.004064 130.25,160 C130.25,155.995936 127.004064,152.75 123,152.75 C118.995936,152.75 115.75,155.995936 115.75,160 C115.75,164.004064 118.995936,167.25 123,167.25 Z M122,159.990778 C122,159.443586 122.443865,159 123,159 C123.552285,159 124,159.450975 124,159.990778 L124,164.009222 C124,164.556414 123.556135,165 123,165 C122.447715,165 122,164.549025 122,164.009222 L122,159.990778 Z M123,157.75 C123.690356,157.75 124.25,157.190356 124.25,156.5 C124.25,155.809644 123.690356,155.25 123,155.25 C122.309644,155.25 121.75,155.809644 121.75,156.5 C121.75,157.190356 122.309644,157.75 123,157.75 Z" id="Combined-Shape" fill="#FFFFFF"></path>
            <g id="DEVMAN" transform="translate(202.000000, 0.000000)">
                <g id="Page-1">
                    <path d="M5.2098,264.9477 C5.2098,264.9477 -14.3392,165.7647 36.7768,118.9437 C80.7388,77.6447 192.4658,138.0447 192.4658,138.0447 L162.0688,153.2347 L5.2098,264.9477 Z" id="Fill-1" fill="#FFD000"></path>
                    <g id="Group-5" transform="translate(0.000000, 108.659000)">
                        <mask id="mask-3" fill="white">
                            <use xlink:href="#path-2"></use>
                        </mask>
                        <g id="Clip-4"></g>
                        <path d="M5.2098,156.2887 C5.2098,156.2887 -24.4432,-32.8683 115.1708,5.9557 C188.8618,15.8337 237.4148,57.1057 237.4148,57.1057 L261.3878,271.5377 L-0.0002,188.5517 L5.2098,156.2887 Z" id="Fill-3" fill="#6D5932" mask="url(#mask-3)"></path>
                    </g>
                    <path d="M254.2718,189.8794 C253.8968,190.7204 271.0018,207.1724 277.1708,243.1094 C283.3398,279.0474 288.9478,285.2164 284.1808,288.0204 C279.4138,290.8244 270.9038,282.4124 265.6248,282.4124 C260.3468,282.4124 236.5218,284.0944 217.4498,270.6354 C198.3778,257.1754 254.2718,189.8794 254.2718,189.8794" id="Fill-6" fill="#008ABE"></path>
                    <path d="M224.173,170.9006 C238.879,169.0296 239.889,163.8946 254.744,177.4476 C269.6,191.0006 270.861,228.7626 229.572,243.1096 C188.283,257.4566 224.173,170.9006 224.173,170.9006" id="Fill-8" fill="#008ABE"></path>
                    <path d="M273.4033,215.7022 C272.1183,213.1902 266.3703,210.6982 265.7603,207.9452 C264.9923,204.4792 264.4133,202.5562 264.4123,199.0412 C264.4113,195.5312 263.7563,192.2802 262.4533,189.0302 C260.1123,180.2232 246.2623,165.7642 237.6113,165.7652 C233.8463,165.7652 255.6143,187.7332 256.0233,189.4352 C257.2953,194.7252 255.7063,199.7852 254.6343,204.9462 C253.5573,210.1332 251.5633,215.0902 250.5373,220.2852 C250.0863,222.5652 249.9023,224.3182 251.1343,226.3812 C252.5053,228.6782 254.3333,230.6582 255.7143,232.9622 C257.2743,235.5662 257.7133,238.3732 258.2543,241.3112 C258.6913,243.6762 258.7753,246.1702 260.0013,248.2962 C260.2553,248.7372 260.9053,248.8422 261.1733,248.3372 C261.5913,247.5482 261.6773,246.4992 261.9153,245.6462 C262.3253,244.1742 262.7943,242.8772 263.5843,241.5672 C264.2833,240.4082 265.0033,239.2762 265.6383,238.1052 C266.5373,237.3262 267.4023,236.3612 268.1013,235.6802 C270.7893,233.0612 271.8863,229.4192 271.2563,225.7222 C270.7693,222.8592 278.8843,222.6782 277.5623,220.0922 C277.5233,220.0162 273.4423,215.7782 273.4033,215.7022" id="Fill-10" fill="#00AEEF"></path>
                    <path d="M257.441,189.8794 C255.707,187.1034 253.985,185.5154 253.772,186.5294 C252.528,192.4474 254.434,198.8454 253.942,204.8804 C253.436,211.0754 253.169,217.2544 251.546,223.2904 C250.033,228.9154 247.649,234.5554 244.901,239.6934 C241.797,245.4974 237.833,250.2604 236.09,256.7434 C235.11,260.3924 244.611,267.3004 246.759,263.6484 C253.278,252.5674 255.859,237.8464 258.891,225.1534 C261.75,213.1824 264.442,201.0904 257.441,189.8794" id="Fill-12" fill="#008ABE"></path>
                    <path d="M239.0798,163.3689 L229.5628,173.1799 L207.0628,139.6179 L212.0478,136.1329 C192.7928,117.3709 187.8038,115.1509 166.0818,106.3229 C166.0818,106.3229 141.8708,114.3549 121.6018,110.2989 C117.6258,111.6239 113.9908,113.3339 111.0268,115.5349 C67.6588,102.0089 65.1268,153.8509 69.4008,169.7879 C73.6738,185.7249 46.3898,233.1219 96.5568,308.2239 C129.5178,362.2859 134.2628,363.2529 134.2628,363.2529 L223.4838,342.5479 C223.4838,342.5479 224.4888,311.7219 225.6678,295.8319 C226.8468,279.9419 228.1668,288.7049 243.4668,256.9499 C258.1358,226.5069 273.2138,200.9689 239.0798,163.3689" id="Fill-14" fill="#00AEEF"></path>
                    <path d="M328.2809,138.4498 C328.2809,138.4498 329.0799,130.0248 330.2769,123.1648 C331.4749,116.3048 333.0979,113.3438 337.2029,114.6958 C341.3079,116.0478 346.2929,126.2608 342.1119,141.9408 C337.9309,157.6218 328.2809,138.4498 328.2809,138.4498" id="Fill-16" fill="#252525"></path>
                    <g id="Group-20" transform="translate(314.000000, 100.659000)" fill="#2E2E2E">
                        <path d="M2.8685,64.414 C0.6975,57.532 -2.7705,50.901 4.1095,40.023 C10.9905,29.146 18.8465,32.245 29.7145,39.38 C37.3575,36.265 42.7535,36.108 42.7535,36.108 C42.7535,36.108 47.7445,27.408 51.7625,23.693 C49.7495,15.154 50.4955,9.53 52.2515,9.43 C54.0065,9.33 59.4965,16.201 59.4965,16.201 C59.4965,16.201 60.3635,5.064 61.4895,1.907 C62.6155,-1.25 67.3025,0.395 68.7785,9.463 C68.9175,10.417 68.9455,12.193 68.9455,12.193 C68.9455,12.193 68.8985,10.144 71.2245,8.628 C73.5515,7.113 75.9405,19.267 75.9405,19.267 C75.9405,19.267 79.3585,21.501 78.7865,33.486 C78.4225,38.381 72.4375,49.472 72.4375,49.472 C72.4375,49.472 70.7415,55.201 61.5305,58.357 C52.3195,61.513 32.7085,65.104 25.5885,66.504 C18.4685,67.905 15.8905,74.338 15.8905,74.338 L2.8685,64.414 Z" id="Fill-18"></path>
                    </g>
                    <path d="M352.0003,147.0211 C352.0003,147.0211 346.9493,141.9621 342.7173,139.3911 C334.2033,133.8011 327.0733,130.8021 321.1143,136.8581 C325.6803,134.4301 330.9113,133.9831 336.9573,137.5791 C342.4303,140.8341 352.0003,147.0211 352.0003,147.0211" id="Fill-21" fill="#373737"></path>
                    <path d="M357.4027,138.4926 C357.4027,138.4926 361.5547,137.7476 363.8637,139.7776 C365.3537,140.4106 369.1327,141.3976 370.6787,143.5386 C374.9797,144.7306 377.0287,147.8956 377.0287,147.8956 C377.0287,147.8956 371.8887,144.7676 370.1757,144.3766 C366.5267,141.9936 363.0127,140.8386 363.0127,140.8386 C363.0127,140.8386 358.1477,138.5296 357.4027,138.4926" id="Fill-23" fill="#1C1C1C"></path>
                    <path d="M371.1584,129.0525 C366.3734,134.9575 364.5614,141.4595 364.5614,141.4595 C364.5614,141.4595 365.1304,142.6745 365.7994,142.0965 C367.0014,136.3855 368.2254,135.4205 372.2394,129.3615 C372.5864,125.3475 375.1794,118.5425 375.1794,118.5425 C375.1794,118.5425 374.5874,117.8025 373.7324,116.8135 C373.6694,117.3625 372.3544,125.0385 371.1584,129.0525" id="Fill-25" fill="#1C1C1C"></path>
                    <path d="M384.602,113.6721 C384.592,113.4291 384.58,113.1581 384.562,112.8851 C381.773,118.8361 383.392,122.9551 383.392,122.9551 C383.392,122.9551 380.806,126.8531 379.842,130.2871 C377.951,133.4131 372.934,143.6791 372.934,143.6791 L380.937,131.2421 C380.937,131.2421 381.077,129.4381 384.048,123.5341 C383.392,118.2721 384.627,114.5341 384.627,114.5341 C384.627,114.5341 384.583,114.1651 384.602,113.6721" id="Fill-27" fill="#1C1C1C"></path>
                    <path d="M277.9329,254.4223 C263.4349,249.2503 262.4569,234.2713 264.7939,222.4663 C258.5669,233.4583 255.6229,243.3333 256.8769,252.6893 C258.4539,264.4663 276.3629,285.9773 277.1709,286.9103 C277.9789,287.8423 297.5229,295.9983 300.6979,286.9103 C306.8789,278.9713 310.6209,269.4633 314.0459,256.4553 C304.9009,260.0693 291.9459,259.4213 277.9329,254.4223" id="Fill-29" fill="#00AEEF"></path>
                    <path d="M326.7526,160.998 C326.7526,160.998 322.9046,147.501 314.0456,157.918 C310.7786,161.76 285.9666,191.939 273.7756,208.712 C270.2946,213.501 267.2836,218.072 264.7946,222.466 C262.4576,234.271 263.4346,249.25 277.9326,254.422 C291.9456,259.421 304.9006,260.069 314.0466,256.456 C317.7546,242.375 321.0936,224.192 326.7526,199.413 C337.6396,151.745 326.7526,160.998 326.7526,160.998" id="Fill-31" fill="#2E2E2E"></path>
                    <path d="M229.0479,277.2483 C227.2099,275.9993 225.5769,274.5133 223.7479,273.2653 C221.6689,271.8463 219.3939,270.9333 216.9959,270.2063 C206.4329,267.0063 195.3199,266.5373 184.3709,267.1093 C173.1949,267.6923 161.8299,269.2373 150.6919,267.4563 C145.1109,266.5643 139.4849,265.7493 133.9339,264.6843 C129.8689,263.9043 125.8559,263.0583 121.7339,262.5893 C120.8849,262.4923 119.8209,262.3833 118.6629,262.3253 C116.1299,262.1993 113.7799,260.9803 112.1639,259.0263 C109.7439,256.1003 106.4509,251.8553 105.0149,248.8193 C102.4909,243.4783 99.6229,237.8923 99.2269,231.8993 C98.8489,226.1843 99.1499,220.4463 100.8679,214.9603 C102.6059,209.4063 105.2219,204.2263 107.6109,198.9383 C112.1789,188.8253 114.3579,177.6273 113.3549,166.5443 C113.1399,164.1573 112.8669,161.7693 112.5509,159.3933 C112.5979,159.2123 112.6619,158.9653 112.7089,158.7843 C113.1499,158.3063 113.1839,157.5693 112.8069,156.9463 C112.5569,156.5333 112.1469,156.2543 111.7289,155.9813 C111.5919,155.7233 111.4349,155.4763 111.2369,155.2563 C111.0999,155.1033 110.9189,155.2853 110.9719,155.4413 C110.8869,155.3673 110.8049,155.2893 110.7309,155.2053 C109.5699,153.8903 109.1499,152.2733 108.2029,150.8663 C106.0619,147.6843 101.8179,145.8393 98.1209,145.4553 C93.5169,144.9773 88.3699,146.2663 83.9839,147.5353 C79.0269,148.9693 74.2369,151.0423 69.8069,153.6903 C69.1759,154.0683 68.5539,154.4613 67.9369,154.8633 C67.8339,160.8763 68.4459,166.2283 69.4009,169.7883 C73.6739,185.7253 46.3899,233.1213 96.5569,308.2243 C129.5179,362.2853 134.2629,363.2533 134.2629,363.2533 L174.2479,353.9743 C171.1389,349.0633 167.7859,344.2953 164.5709,339.4643 C161.3279,334.5893 158.2239,329.6043 155.6499,324.3383 C152.8629,318.6353 150.9739,312.5783 149.2069,306.4973 C147.5319,300.7363 146.0069,294.9363 144.1789,289.2203 C143.4309,286.8823 142.6689,284.5183 142.2869,282.0863 C143.4759,282.0503 144.6659,282.0103 145.8559,281.9863 C148.7879,281.9273 151.7629,282.1893 154.6859,281.9363 C159.2989,281.5353 163.9379,281.3803 168.4999,280.5783 C174.2419,279.5683 180.0109,278.7283 185.7789,277.8753 C192.4719,276.8873 198.7209,275.1103 205.5129,276.3313 C211.0459,277.3263 216.0409,280.0733 220.4839,283.3783 C222.5209,284.8943 224.6749,286.5013 226.6269,288.1783 C227.3949,284.9263 228.6749,283.2903 231.3429,279.1403 C230.6679,278.4603 229.9239,277.8433 229.0479,277.2483" id="Fill-33" fill="#008ABE"></path>
                    <path d="M122.3788,120.8377 C115.1598,111.0487 86.1758,98.8397 60.6578,113.4207 C60.6578,113.4207 42.4538,122.1527 32.2488,151.8867 C27.9748,159.9317 4.3418,211.5187 14.2728,243.1097 C24.2028,274.7007 47.5018,258.1787 53.9388,252.9457 C60.3768,247.7127 91.7068,234.3777 96.3578,204.4457 C100.8828,204.4457 155.1878,161.8177 122.3788,120.8377" id="Fill-35" fill="#00AEEF"></path>
                    <path d="M69.7298,353.7334 C69.7298,353.7334 78.8328,350.7444 84.1778,354.7914 C89.5228,358.8384 98.0538,365.7894 102.3928,368.3824 C106.7318,370.9754 111.2298,371.3884 107.6668,375.6644 C104.1028,379.9394 89.3428,375.6644 89.3428,375.6644 C89.3428,375.6644 95.1978,384.0904 104.5678,391.4924 C116.0868,396.3464 114.3028,392.3634 118.5388,395.9144 C122.7738,399.4654 114.8098,402.6024 112.0768,404.4724 C109.3438,406.3424 106.8108,404.4724 106.8108,404.4724 L110.3028,406.5054 C110.3028,406.5054 113.5688,410.6864 104.3878,411.2954 C95.2078,411.9044 93.4498,411.2954 93.4498,411.2954 C93.4498,411.2954 92.4498,413.6974 89.0448,414.5134 C85.6388,415.3304 80.5548,412.4424 80.5548,412.4424 C80.5548,412.4424 78.7508,414.3924 74.5458,411.1944 C70.3408,407.9964 60.9448,402.5364 56.6418,390.1674 C52.3388,377.7974 57.7208,371.4084 47.4728,360.1904 C37.2238,348.9714 52.5098,345.7344 52.5098,345.7344 L69.7298,353.7334 Z" id="Fill-37" fill="#2E2E2E"></path>
                    <path d="M61.5406,264.9477 C60.3126,257.1877 58.1436,250.3927 54.5316,245.7507 C40.5116,227.7337 12.7046,236.4277 12.7046,236.4277 C13.4256,245.7377 11.0596,247.7907 12.4736,263.6597 C23.1516,257.0567 42.0036,250.0517 61.5406,264.9477" id="Fill-39" fill="#00AEEF"></path>
                    <path d="M60.1397,371.5796 C70.2337,377.1876 72.8227,362.1046 72.3577,358.9616 C71.8927,355.8186 60.2297,341.3626 60.5497,327.7806 C60.7877,317.6966 65.0797,287.3086 61.5407,264.9476 C42.0037,250.0516 23.1517,257.0566 12.4737,263.6606 C13.0797,270.4646 14.3787,279.8056 16.9157,293.3516 C25.3697,338.4926 50.0457,365.9716 60.1397,371.5796" id="Fill-41" fill="#2E2E2E"></path>
                    <path d="M308.2466,265.4547 C309.1066,262.8837 309.6836,260.2297 310.4096,257.6187 C301.6166,259.8357 290.1786,258.7907 277.9326,254.4227 C277.3026,254.1977 276.7076,253.9477 276.1276,253.6867 C275.4556,254.7757 274.8016,255.8397 274.1446,256.8287 C272.1906,259.7767 270.9066,262.9697 269.1846,266.0327 C268.6456,266.9917 268.1306,267.9607 267.6256,268.9347 C266.9546,269.7687 266.3236,270.6427 265.7606,271.5537 C271.0226,279.5527 276.7226,286.3927 277.1706,286.9097 C277.7636,287.5937 288.4436,292.1617 295.3436,290.9547 C295.4186,290.8537 295.4936,290.7537 295.5716,290.6577 C297.4706,288.3237 298.9786,285.9747 300.3576,283.2927 C303.3566,277.4577 306.1606,271.6947 308.2466,265.4547" id="Fill-43" fill="#008ABE"></path>
                    <path d="M364.4845,141.2646 C364.2665,141.2466 364.0455,141.2436 363.8245,141.2416 C362.3605,140.3066 360.6945,139.5876 359.2475,139.1456 C356.8325,136.9716 353.4955,137.6026 350.6755,138.9806 C349.9245,139.3476 349.2435,139.8906 348.5575,140.3586 C346.9845,140.6686 345.6265,141.0056 344.1565,140.5996 C343.4785,140.2186 342.8075,139.7816 342.0755,139.5436 C341.8805,138.7236 341.4225,137.9696 340.6405,137.4486 C340.2475,137.1876 339.8365,136.9946 339.4175,136.8266 C340.8835,135.9116 341.7355,133.9946 342.1965,131.8556 C342.7165,130.6476 342.8085,129.3266 342.7735,127.9856 C343.2085,125.3686 342.8855,122.5756 341.8185,121.0536 C341.1595,120.1126 340.1255,119.8736 339.1445,120.0886 C338.3525,118.6596 336.3125,118.5636 335.0135,119.5426 C334.2805,119.7646 333.6405,120.3466 333.3415,121.3066 C332.5145,123.7976 331.2055,125.9416 331.4335,128.6636 C331.4785,129.1926 331.5895,129.6986 331.7355,130.1876 C331.6975,131.8756 331.9845,133.4766 332.7155,134.7446 C330.5945,134.3926 328.4795,134.4176 326.7335,135.1856 C326.5835,135.2516 326.4455,135.3296 326.3075,135.4086 C323.3335,136.7446 321.4925,139.8406 324.4785,142.9406 C325.0705,143.5556 325.7155,144.0776 326.3955,144.5306 C327.3895,145.5746 328.6965,146.4256 329.8235,146.9016 C333.6095,148.5006 339.2315,149.6256 343.4995,148.3156 C344.2905,148.8806 344.9125,149.5936 345.7015,150.4806 C346.6315,151.5256 347.2365,152.0586 348.6425,152.4676 C353.3015,153.8236 362.3105,153.6156 365.8945,149.9216 C367.6755,148.0856 367.9005,146.3556 367.2505,144.8256 C367.4925,143.1776 366.1785,141.4066 364.4845,141.2646 Z" id="Fill-45" fill-opacity="0.2" fill="#00CE8D"></path>
                    <path d="M366.154233,129.3646 C365.799233,128.8466 365.316233,128.5276 364.758233,128.4186 C363.937233,127.7966 362.820233,127.6886 361.936233,128.6746 C361.419233,129.2496 361.084233,129.8676 360.737233,130.5166 C360.564233,130.7506 360.385233,130.9796 360.226233,131.2236 C359.788233,131.8966 359.458233,132.6596 359.182233,133.4096 C358.670233,134.8026 359.718233,136.5066 361.065233,136.8586 C362.029233,137.6996 363.132233,137.6586 364.155233,136.8456 C364.865233,136.2826 365.142233,135.1056 365.382233,134.2546 C365.600233,133.4766 365.912233,132.7886 366.234233,132.0476 C366.622233,131.1546 366.741233,130.2216 366.154233,129.3646" id="Fill-47" fill-opacity="0.2" fill="#00CE8D"></path>
                    <path d="M377.4268,123.5862 C377.5678,121.2222 374.1088,120.4502 373.5068,122.8692 C373.2758,123.7992 373.1658,124.7222 373.1748,125.6522 C372.8718,126.8732 372.3688,128.0222 372.0988,129.3172 C371.9898,129.8402 371.8658,130.3262 371.7228,130.7892 C371.1068,130.6362 370.4208,130.7762 369.8098,131.3852 C368.5238,132.6652 367.4278,134.7412 367.0498,136.5052 C367.0328,136.5842 367.0298,136.6652 367.0198,136.7462 C366.9988,136.8252 366.9678,136.9022 366.9528,136.9832 C366.7368,138.1362 366.9548,139.3712 367.9898,140.0772 C368.9818,140.7552 370.1568,140.5012 371.0198,139.7602 L371.0318,139.7482 C371.3798,139.6632 371.7118,139.4752 371.9918,139.1532 C372.7348,138.2982 373.8408,136.3122 373.8028,135.1442 C373.7928,134.8182 373.7238,134.5272 373.6328,134.2532 C374.3068,133.0842 374.9008,131.8412 375.4318,130.7032 C376.4728,128.4722 377.2798,126.0522 377.4268,123.5862" id="Fill-49" fill-opacity="0.2" fill="#00CE8D"></path>
                    <path d="M384.6891,117.8538 C384.2171,119.5398 384.1641,121.0828 383.5761,122.7248 C383.0711,124.1328 383.0591,125.0488 383.0191,126.5818 C382.9211,130.3938 380.4361,133.9448 379.0971,137.5498 C378.8601,137.4968 378.6161,137.4928 378.3901,137.5668 C377.3751,137.8988 376.5101,138.9138 376.0731,140.0648 C375.9891,140.2078 375.8921,140.3418 375.8161,140.4898 C375.5821,140.9478 375.3431,141.3748 375.1491,141.8198 C374.9201,142.1298 374.8141,142.5178 374.8131,142.9198 C374.8091,142.9418 374.8011,142.9618 374.7981,142.9838 C374.8021,142.9818 374.8071,142.9788 374.8111,142.9768 C374.8361,144.1378 375.7201,145.3578 376.9881,144.9308 C377.3371,144.8128 377.6091,144.6338 377.8581,144.4308 C378.7491,144.6548 379.6841,144.2688 380.1731,143.4278 C380.5311,142.8128 380.9521,142.2398 381.1361,141.5418 C381.3481,140.7398 381.1221,139.9508 380.6701,139.3818 C380.6111,139.3028 380.5471,139.2268 380.4781,139.1548 C380.4561,139.0188 380.4201,138.8798 380.3771,138.7398 C380.3881,138.7198 380.4051,138.7098 380.4161,138.6878 C381.8471,135.6878 384.8951,132.7448 385.1941,129.3198 C385.3371,127.6848 384.5811,125.8478 384.9541,124.2088 C385.1571,123.3148 385.8701,122.4308 386.1021,121.4878 C386.3691,120.4008 386.0841,119.4998 386.3321,118.4098 C386.5881,117.2868 385.0191,116.6748 384.6891,117.8538" id="Fill-51" fill-opacity="0.2" fill="#00CE8D"></path>
                    <polygon id="Fill-53" fill="#00CE8D" points="367.9056 68.8747 362.4446 65.2057 358.1076 64.6997 346.5316 75.4087 358.2066 76.6627 368.9436 83.8807"></polygon>
                    <polygon id="Fill-55" fill="#FFFFFF" points="368.9435 83.8804 371.3965 85.5294 370.1715 70.3974 367.9055 68.8744"></polygon>
                    <polygon id="Fill-57" fill="#00CE8D" points="368.5774 121.1972 385.5664 112.9872 384.5234 100.1412 355.0444 114.6142"></polygon>
                    <polygon id="Fill-59" fill="#FFFFFF" points="355.0443 114.6146 352.4383 115.8946 365.9513 122.4666 368.5773 121.1976"></polygon>
                    <polygon id="Fill-61" fill="#00CE8D" points="321.9901 98.2633 331.6761 103.1623 332.8091 88.1313"></polygon>
                    <polygon id="Fill-63" fill="#00CE8D" points="339.4452 62.5221 321.7612 78.8801 320.3442 96.5311 355.1272 64.3521"></polygon>
                    <polygon id="Fill-65" fill="#00CE8D" points="319.0212 112.9876 352.2932 129.0656 365.9512 122.4666 320.0552 100.1416"></polygon>
                    <polygon id="Fill-67" fill="#FFFFFF" points="373.035 105.782 384.523 100.142 384.318 97.609 372.83 103.248"></polygon>
                    <polygon id="Fill-69" fill="#00CE8D" points="384.3177 97.6093 382.7997 78.8803 370.1717 70.3973 372.8297 103.2483"></polygon>
                    <polygon id="Fill-71" fill="#FFFFFF" points="355.1273 64.3516 343.5233 75.0856 346.5323 75.4086 358.1073 64.6996"></polygon>
                    <polygon id="Fill-73" fill="#FFFFFF" points="320.0604 100.0704 332.8094 88.1314 333.0634 84.7624 320.3444 96.5314"></polygon>
                    <polygon id="Fill-75" fill="#FFFFFF" points="320.2752 97.3959 320.0552 100.1419 331.4852 105.7019 331.6762 103.1619"></polygon>
                    <path d="M55.9877,203.1732 C55.9287,203.1732 55.9257,203.2722 55.9847,203.2722 C56.0427,203.2722 56.0467,203.1732 55.9877,203.1732" id="Fill-77" fill="#008ABE"></path>
                    <path d="M48.4205,168.3778 C48.4205,168.0338 71.0325,187.7668 91.5725,174.9968 C112.1125,162.2278 110.3145,157.1008 112.7085,158.7848 C115.1035,160.4678 105.0745,185.6278 84.8405,191.7858 C63.7275,197.5918 66.8245,182.3998 50.5845,206.3588 C47.3645,208.1488 57.9465,188.7918 61.5405,183.8668 C49.8285,177.1828 48.4205,168.3778 48.4205,168.3778" id="Fill-79" fill="#008ABE"></path>
                    <path d="M234.4003,158.4441 C226.6613,150.6641 220.4223,144.3771 215.1853,139.2101 C215.4693,139.9151 215.7673,140.6761 216.0693,141.4711 C219.4393,146.2711 224.6683,159.9491 208.7563,189.8791 C185.5883,162.8281 168.0413,138.3421 157.6893,123.0491 L130.3863,108.0441 C127.3663,108.6311 124.3993,109.3691 121.6023,110.3011 C132.4503,122.8101 164.5903,159.3351 202.5743,197.4531 C216.0913,211.0861 217.9003,198.5771 217.9003,198.5771 C217.9003,198.5771 234.5843,178.9781 239.0803,163.3691 C237.6093,161.7491 236.0573,160.1101 234.4003,158.4441" id="Fill-81" fill="#FFF200"></path>
                    <path d="M216.0692,141.471 C217.2412,144.56 218.2262,147.039 218.7192,149.857 C219.5362,154.516 212.4302,155.044 208.7522,154.464 C207.5432,154.274 206.7272,154.085 206.7272,154.085 L200.6532,153.971 C197.5992,153.936 193.2902,152.371 188.6212,149.857 C178.3012,144.298 166.2232,134.09 162.0682,125.455 L157.6902,123.049 C168.0412,138.342 185.5892,162.828 208.7572,189.879 C224.6692,159.949 219.4392,146.272 216.0692,141.471" id="Fill-83" fill="#ECC19C"></path>
                    <path d="M208.7843,136.7151 L214.1723,139.3451 C214.1723,139.3451 215.0313,139.9811 216.0773,141.4711 C215.7753,140.6761 215.4893,139.9151 215.2053,139.2101 C212.8773,136.9141 210.7843,134.8371 208.7843,132.9511 L208.7843,136.7151 Z" id="Fill-85" fill="#BB906D"></path>
                    <path d="M147.0514,106.6877 L162.8064,114.3557 L156.6954,105.9507 C149.7034,105.8817 139.7824,106.2167 130.3864,108.0437 L157.6894,123.0487 C150.7584,112.8087 147.0514,106.6877 147.0514,106.6877" id="Fill-87" fill="#FFD000"></path>
                    <path d="M218.9439,150.9776 C219.0069,146.2256 217.5419,144.0556 216.0689,141.4706 C215.0229,139.9816 214.1569,139.3446 214.1569,139.3446 L208.7529,136.7156 L162.8069,114.3556 L188.6219,149.8566 C193.2899,152.3716 197.5999,153.9356 200.6529,153.9706 L206.7269,154.0846 C206.7269,154.0846 207.5429,154.2736 208.7529,154.4646 C212.4309,155.0436 218.8809,155.7076 218.9439,150.9776" id="Fill-89" fill="#BB906D"></path>
                    <path d="M188.6214,149.8566 L162.8064,114.3556 L147.0514,106.6876 C147.0514,106.6876 150.7584,112.8086 157.6894,123.0496 L162.0684,125.4556 C166.2234,134.0896 178.3014,144.2976 188.6214,149.8566" id="Fill-91" fill="#BB906D"></path>
                    <path d="M156.5373,118.9434 C156.5373,118.9434 171.8333,139.5704 201.2543,143.2744 C211.4753,144.5614 218.9443,138.5774 218.9443,138.5774 C218.9443,138.5774 237.4863,146.8024 244.9683,136.3034 C252.4493,125.8034 238.8083,109.1884 238.8083,109.1884 C238.8083,109.1884 244.8743,91.6104 244.9043,70.9624 C241.2173,73.5104 237.7093,75.4894 237.7093,75.4894 L231.0833,60.4174 L209.4863,74.1144 L183.8693,45.1184 L156.5373,118.9434 Z" id="Fill-93" fill="#ECC19C"></path>
                    <polygon id="Fill-95" fill="#DFB28B" points="173.5543 37.3678 209.3943 75.4888 231.0833 60.4178"></polygon>
                    <polygon id="Fill-97" fill="#DFB28B" points="232.4503 65.9781 236.6903 76.2351 244.9043 70.9621 231.0153 58.5781"></polygon>
                    <path d="M183.8689,45.1186 L156.5369,118.9436 C156.5369,118.9436 156.8899,119.4166 157.5779,120.2216 C162.4829,104.9996 168.5849,94.4416 179.8509,87.0616 C180.6799,63.8246 184.2919,52.7856 186.5089,48.1066 L183.8689,45.1186 Z" id="Fill-99" fill="#DFB28B"></path>
                    <path d="M213.6358,87.3546 C213.6358,87.3546 219.0048,96.9006 224.8358,98.8836 C230.6668,100.8676 236.4508,98.2006 236.1728,94.8716 C235.8948,91.5436 230.2988,30.0466 227.7328,25.2906 C229.2448,42.1046 233.9538,83.8306 232.9668,88.1316 C231.9798,92.4316 213.6358,87.3546 213.6358,87.3546" id="Fill-101" fill="#BB906D"></path>
                    <g id="Group-105" transform="translate(134.000000, 0.659000)">
                        <mask id="mask-5" fill="white">
                            <use xlink:href="#path-4"></use>
                        </mask>
                        <g id="Clip-104"></g>
                        <path d="M22.5373,118.2844 C22.5373,118.2844 30.2803,92.1564 45.2773,86.2284 C45.3393,75.7584 43.1313,40.3244 63.3153,28.8304 C73.7643,23.5934 103.5623,34.4364 109.7893,43.3444 C108.5843,32.6204 109.3193,12.5694 84.6953,2.8684 C60.0723,-6.8326 45.9073,13.3104 34.6263,30.7014 C23.3463,48.0934 0.9433,103.3754 0.9353,104.5514 C0.9273,105.7284 13.1143,115.0384 22.5373,118.2844" id="Fill-103" fill="#00AEEF" mask="url(#mask-5)"></path>
                    </g>
                    <path d="M209.4863,74.1139 L184.2843,45.5879 C186.9723,38.8969 191.0693,33.0459 197.3153,29.4899 C203.7303,26.2739 217.4343,29.1239 228.5033,33.8609 L230.9033,60.5319 L209.4863,74.1139 Z" id="Fill-106" fill="#1C1C1C"></path>
                    <path d="M230.86447,60.5161259 C220.163878,67.1666057 209.4863,74.1139 209.4863,74.1139 L184.2843,45.5879 C186.9723,38.8969 191.0693,33.0459 197.3153,29.4899 C203.7303,26.2739 218.930998,29.7629998 229.999998,34.4999998 L232.377802,60.1219933 C232.377802,60.1219933 241.565061,53.8656462 230.86447,60.5161259 Z" id="Fill-108" fill="#1C1C1C"></path>
                    <path d="M245.1444,45.7682 L246.2714,70.2852 L237.7094,75.4892 L233.5274,65.9782 C233.138392,62.1177486 231.191962,56.0818603 230.758224,52.2035022 C229.933146,44.8258906 230.576068,39.8312501 229.7004,34.3852 C236.1364,37.2702 241.5244,40.7632 243.7894,44.0032 C244.2084,44.4492 244.6644,45.0512 245.1444,45.7682 Z" id="Fill-110" fill="#1C1C1C"></path>
                    <path d="M227.7326,25.2904 C228.3586,26.9464 229.0256,30.1934 229.6996,34.3854 C229.3046,34.2084 228.9066,34.0334 228.5036,33.8614 L227.7326,25.2904 Z" id="Fill-112" fill="#008ABE"></path>
                    <path d="M230.9029,60.532 L228.5039,33.861 C228.9059,34.034 229.3049,34.208 229.6999,34.386 C231.0359,42.694 232.3989,54.775 233.5279,65.978 L231.0829,60.418 L230.9029,60.532 Z" id="Fill-114" fill="#5A5A5A"></path>
                    <path d="M218.9439,138.5774 C218.9439,138.5774 222.4459,130.4464 219.7549,128.4184 C222.0279,128.0394 224.6389,128.3234 223.9849,128.9234 C222.2859,130.4814 222.6079,131.8394 218.9439,138.5774" id="Fill-116" fill="#DFB28B"></path>
                    <path d="M160.0493,49.9833 C160.0493,49.9833 164.7013,53.5943 163.2433,62.6363 C161.8153,71.4903 156.0703,75.9023 153.4783,75.3953 C150.8873,74.8873 149.9683,69.4973 153.3243,61.8033 C156.6793,54.1093 160.0493,49.9833 160.0493,49.9833" id="Fill-118" fill="#008ABE"></path>
                    <path d="M162.0166,56.6059 C162.7426,49.8239 155.7116,39.1079 147.9986,47.0829 C140.2846,55.0569 145.4986,69.9279 152.9586,70.7269 C160.4186,71.5259 162.0166,56.6059 162.0166,56.6059" id="Fill-120" fill="#ECC19C"></path>
                    <polygon id="Fill-122" fill="#F1F1F2" points="220.5713 56.3486 212.9903 61.1866 198.2173 48.5386"></polygon>
                    <polygon id="Fill-124" fill="#F1F1F2" points="233.0119 57.799 236.2789 65.764 243.8859 61.789"></polygon>
                    <path d="M202.5189,102.5635 C201.9249,103.1405 199.9569,105.5425 200.0159,105.9605 C200.0759,106.3775 211.3379,107.2465 218.0719,109.4935 C224.8049,111.7405 230.5689,112.8725 232.6329,110.8465 C232.9689,110.2505 232.5449,109.6905 231.8929,110.2385 C231.2409,110.7865 230.5259,111.6805 225.2819,110.4295 C220.0379,109.1775 216.3179,107.4475 210.6829,106.6755 C205.0469,105.9025 201.8619,105.3855 201.8619,105.3855 C201.8619,105.3855 203.3959,101.7105 202.5189,102.5635" id="Fill-126" fill="#8F6750"></path>
                    <path d="M213.5349,113.8259 C213.8989,114.6279 218.1309,114.8339 220.0379,114.5679 C221.9449,114.3029 224.7779,116.1369 224.6129,116.4419 C224.4479,116.7459 221.4549,115.8489 218.7019,115.5049 C215.9499,115.1609 211.6829,115.2339 213.5349,113.8259" id="Fill-128" fill="#BB906D"></path>
                    <path d="M217.0854,236.2665 C217.8434,236.2515 218.5724,236.0265 219.2404,235.6345 C219.9084,235.2415 220.5164,234.6825 221.0344,233.9955 C221.5514,233.3085 221.9784,232.4955 222.2864,231.5955 C222.5934,230.6965 222.7814,229.7095 222.8184,228.6755 L223.7964,201.2705 L220.0664,204.6515 L219.2104,228.7145 C219.1964,229.0655 219.1324,229.4005 219.0264,229.7055 C218.9214,230.0105 218.7764,230.2865 218.6004,230.5185 C218.4244,230.7505 218.2174,230.9395 217.9914,231.0705 C217.7644,231.2025 217.5184,231.2775 217.2614,231.2805 C217.0034,231.2845 216.7604,231.2165 216.5414,231.0905 C216.3224,230.9645 216.1284,230.7805 215.9674,230.5525 C215.8064,230.3235 215.6794,230.0505 215.5964,229.7465 C215.5124,229.4415 215.4724,229.1065 215.4844,228.7535 L215.9414,215.9325 C215.9784,214.8865 215.8584,213.8885 215.6104,212.9795 C215.3614,212.0695 214.9834,211.2475 214.5044,210.5545 C214.0244,209.8605 213.4434,209.2955 212.7884,208.9015 C212.1334,208.5065 211.4034,208.2825 210.6294,208.2715 C209.8534,208.2595 209.1054,208.4635 208.4174,208.8405 C207.7284,209.2195 207.0994,209.7725 206.5634,210.4605 C206.0274,211.1495 205.5834,211.9715 205.2654,212.8885 C204.9464,213.8045 204.7524,214.8135 204.7164,215.8745 L204.2734,228.8725 C204.2614,229.2305 204.1954,229.5715 204.0874,229.8825 C203.9794,230.1935 203.8284,230.4735 203.6464,230.7105 C203.4634,230.9465 203.2494,231.1395 203.0144,231.2735 C202.7794,231.4075 202.5234,231.4835 202.2574,231.4875 C201.9894,231.4905 201.7374,231.4215 201.5104,231.2935 C201.2824,231.1655 201.0804,230.9785 200.9134,230.7455 C200.7454,230.5125 200.6134,230.2345 200.5264,229.9245 C200.4384,229.6145 200.3964,229.2725 200.4084,228.9135 L200.8544,215.8545 C200.8904,214.7885 200.7634,213.7725 200.5034,212.8455 C200.2434,211.9185 199.8494,211.0815 199.3504,210.3755 C198.8514,209.6685 198.2474,209.0925 197.5674,208.6915 C196.8864,208.2885 196.1284,208.0605 195.3244,208.0485 C194.5204,208.0365 193.7454,208.2435 193.0334,208.6285 C192.3194,209.0135 191.6674,209.5775 191.1124,210.2785 C190.5564,210.9795 190.0974,211.8175 189.7684,212.7515 C189.4384,213.6845 189.2394,214.7135 189.2044,215.7935 L188.2774,244.2755 L192.2754,240.6115 L193.0914,215.8145 C193.1034,215.4505 193.1704,215.1045 193.2814,214.7905 C193.3924,214.4755 193.5464,214.1935 193.7334,213.9565 C193.9204,213.7205 194.1404,213.5295 194.3804,213.3985 C194.6214,213.2675 194.8824,213.1955 195.1544,213.1975 C195.4274,213.2005 195.6844,213.2755 195.9154,213.4105 C196.1464,213.5455 196.3514,213.7385 196.5214,213.9775 C196.6904,214.2155 196.8244,214.4995 196.9134,214.8135 C197.0024,215.1275 197.0454,215.4725 197.0334,215.8345 L196.5894,228.9545 C196.5544,230.0215 196.6824,231.0365 196.9444,231.9565 C197.2064,232.8755 197.6024,233.7005 198.1014,234.3895 C198.6004,235.0775 199.2014,235.6295 199.8764,236.0055 C200.5494,236.3815 201.2964,236.5805 202.0854,236.5655 C202.8714,236.5495 203.6274,236.3205 204.3194,235.9205 C205.0114,235.5205 205.6404,234.9505 206.1764,234.2505 C206.7114,233.5515 207.1534,232.7235 207.4704,231.8065 C207.7874,230.8905 207.9794,229.8855 208.0154,228.8325 L208.4614,215.8945 C208.4734,215.5375 208.5394,215.1975 208.6464,214.8885 C208.7534,214.5805 208.9034,214.3035 209.0834,214.0705 C209.2644,213.8385 209.4764,213.6505 209.7084,213.5225 C209.9404,213.3935 210.1924,213.3235 210.4544,213.3255 C210.7174,213.3275 210.9644,213.4025 211.1874,213.5345 C211.4094,213.6665 211.6064,213.8565 211.7694,214.0905 C211.9324,214.3245 212.0614,214.6025 212.1464,214.9115 C212.2304,215.2195 212.2714,215.5585 212.2594,215.9135 L211.8044,228.7925 C211.7674,229.8405 211.8894,230.8365 212.1404,231.7405 C212.3914,232.6425 212.7704,233.4525 213.2504,234.1285 C213.7294,234.8045 214.3074,235.3465 214.9574,235.7165 C215.6054,236.0855 216.3244,236.2815 217.0854,236.2665 M208.2124,189.3945 C211.9794,189.5365 215.5044,190.5895 218.6544,192.3625 C221.7784,194.1215 224.5374,196.5915 226.8054,199.5885 C229.0574,202.5665 230.8294,206.0715 231.9944,209.9315 C233.1554,213.7765 233.7184,217.9835 233.5554,222.3905 C233.3924,226.7935 232.5204,230.9945 231.0794,234.8305 C229.6354,238.6765 227.6144,242.1685 225.1554,245.1355 C222.6844,248.1185 219.7634,250.5785 216.5324,252.3365 C213.2774,254.1065 209.7014,255.1675 205.9484,255.3285 C202.1624,255.4905 198.5524,254.7215 195.2694,253.1805 C191.9574,251.6275 188.9814,249.2915 186.4954,246.3415 C183.9924,243.3705 181.9924,239.7845 180.6514,235.7615 C179.3044,231.7215 178.6274,227.2525 178.7764,222.5455 C178.9244,217.8345 179.8854,213.3485 181.4924,209.2825 C183.0944,205.2275 185.3344,201.6025 188.0414,198.5925 C190.7334,195.5985 193.8814,193.2195 197.3174,191.6295 C200.7254,190.0515 204.4114,189.2515 208.2124,189.3945" id="Fill-130" fill="#2E2E2E"></path>
                    <path d="M223.7967,201.2704 L222.8127,228.6754 C222.7767,229.7094 222.5907,230.6964 222.2837,231.5954 C221.9767,232.4954 221.5497,233.3084 221.0327,233.9954 C220.5157,234.6824 219.9077,235.2424 219.2407,235.6344 C218.5717,236.0264 217.8437,236.2514 217.0857,236.2664 C216.3247,236.2814 215.6057,236.0854 214.9577,235.7164 C214.3077,235.3464 213.7287,234.8044 213.2497,234.1284 C212.7707,233.4524 212.3907,232.6424 212.1407,231.7404 C211.8897,230.8364 211.7677,229.8404 211.8047,228.7924 L212.2587,215.9134 C212.2717,215.5584 212.2307,215.2194 212.1457,214.9114 C212.0617,214.6024 211.9327,214.3244 211.7697,214.0904 C211.6067,213.8564 211.4097,213.6664 211.1867,213.5344 C210.9647,213.4024 210.7167,213.3274 210.4537,213.3254 C210.1927,213.3234 209.9407,213.3934 209.7087,213.5224 C209.4767,213.6514 209.2647,213.8384 209.0837,214.0704 C208.9037,214.3034 208.7537,214.5804 208.6467,214.8884 C208.5387,215.1974 208.4737,215.5374 208.4617,215.8944 L208.0157,228.8324 C207.9797,229.8854 207.7867,230.8904 207.4707,231.8064 C207.1537,232.7234 206.7117,233.5514 206.1767,234.2504 C205.6407,234.9504 205.0117,235.5204 204.3197,235.9204 C203.6267,236.3204 202.8717,236.5494 202.0857,236.5654 C201.2957,236.5804 200.5497,236.3814 199.8757,236.0054 C199.2017,235.6294 198.5997,235.0774 198.1017,234.3894 C197.6027,233.7004 197.2067,232.8754 196.9447,231.9564 C196.6827,231.0364 196.5537,230.0214 196.5897,228.9544 L197.0327,215.8344 C197.0447,215.4724 197.0017,215.1274 196.9137,214.8134 C196.8247,214.4994 196.6907,214.2154 196.5217,213.9774 C196.3517,213.7384 196.1467,213.5454 195.9157,213.4104 C195.6837,213.2754 195.4267,213.2004 195.1537,213.1974 C194.8827,213.1954 194.6207,213.2674 194.3807,213.3984 C194.1397,213.5294 193.9207,213.7204 193.7337,213.9564 C193.5467,214.1934 193.3927,214.4754 193.2817,214.7904 C193.1707,215.1044 193.1037,215.4504 193.0917,215.8144 L192.2747,240.6114 L188.2777,244.2754 L189.2047,215.7944 C189.2397,214.7134 189.4387,213.6854 189.7677,212.7514 C190.0977,211.8174 190.5567,210.9794 191.1127,210.2784 C191.6677,209.5774 192.3187,209.0134 193.0327,208.6284 C193.7457,208.2434 194.5207,208.0364 195.3247,208.0484 C196.1287,208.0604 196.8857,208.2884 197.5677,208.6914 C198.2477,209.0924 198.8517,209.6684 199.3507,210.3754 C199.8497,211.0814 200.2437,211.9184 200.5037,212.8464 C200.7637,213.7724 200.8907,214.7884 200.8547,215.8544 L200.4077,228.9134 C200.3957,229.2724 200.4387,229.6144 200.5257,229.9244 C200.6137,230.2344 200.7457,230.5124 200.9127,230.7454 C201.0807,230.9784 201.2827,231.1654 201.5097,231.2934 C201.7377,231.4214 201.9897,231.4904 202.2577,231.4874 C202.5237,231.4834 202.7797,231.4074 203.0147,231.2734 C203.2497,231.1394 203.4637,230.9464 203.6467,230.7104 C203.8287,230.4734 203.9797,230.1934 204.0877,229.8824 C204.1957,229.5714 204.2617,229.2304 204.2737,228.8724 L204.7167,215.8744 C204.7527,214.8134 204.9457,213.8044 205.2647,212.8884 C205.5837,211.9714 206.0267,211.1494 206.5637,210.4604 C207.0997,209.7724 207.7287,209.2194 208.4167,208.8414 C209.1047,208.4634 209.8527,208.2594 210.6287,208.2714 C211.4037,208.2824 212.1327,208.5064 212.7887,208.9014 C213.4437,209.2954 214.0247,209.8604 214.5037,210.5544 C214.9827,211.2474 215.3607,212.0694 215.6097,212.9794 C215.8587,213.8884 215.9787,214.8864 215.9417,215.9324 L215.4847,228.7534 C215.4717,229.1064 215.5127,229.4414 215.5957,229.7464 C215.6797,230.0504 215.8067,230.3234 215.9677,230.5524 C216.1287,230.7804 216.3227,230.9644 216.5417,231.0904 C216.7607,231.2164 217.0037,231.2844 217.2617,231.2804 C217.5187,231.2774 217.7647,231.2024 217.9917,231.0714 C218.2177,230.9394 218.4237,230.7504 218.5997,230.5184 C218.7747,230.2864 218.9197,230.0104 219.0247,229.7054 C219.1287,229.4004 219.1917,229.0654 219.2047,228.7144 L220.0667,204.6514 L223.7967,201.2704 Z" id="Fill-132" fill="#FFF200"></path>
                    <path d="M205.9484,255.328 C209.7014,255.167 213.2774,254.107 216.5324,252.336 C219.7634,250.579 222.6844,248.119 225.1554,245.136 C227.6144,242.169 229.6354,238.677 231.0794,234.831 C232.5204,230.994 233.3924,226.793 233.5554,222.39 C233.7184,217.983 233.1554,213.776 231.9944,209.932 C230.8294,206.071 229.0574,202.566 226.8054,199.588 C224.5374,196.591 221.7784,194.122 218.6544,192.363 C215.5044,190.59 211.9794,189.536 208.2124,189.395 C204.4114,189.252 200.7254,190.051 197.3174,191.629 C193.8814,193.22 190.7344,195.599 188.0414,198.592 C185.3344,201.603 183.0944,205.227 181.4924,209.283 C179.8854,213.349 178.9244,217.834 178.7764,222.545 C178.6274,227.252 179.3044,231.721 180.6514,235.761 C181.9924,239.784 183.9924,243.371 186.4954,246.341 C188.9814,249.291 191.9574,251.627 195.2694,253.181 C198.5524,254.721 202.1624,255.49 205.9484,255.328 M208.4134,183.536 C212.8444,183.734 216.9834,185.002 220.6754,187.112 C224.3324,189.202 227.5564,192.12 230.2024,195.651 C232.8284,199.154 234.8904,203.27 236.2444,207.795 C237.5924,212.298 238.2434,217.222 238.0514,222.377 C237.8584,227.527 236.8404,232.442 235.1614,236.932 C233.4774,241.437 231.1214,245.531 228.2534,249.017 C225.3664,252.524 221.9524,255.426 218.1724,257.509 C214.3584,259.61 210.1614,260.884 205.7504,261.104 C201.2924,261.327 197.0364,260.452 193.1584,258.665 C189.2424,256.86 185.7164,254.126 182.7684,250.662 C179.7954,247.169 177.4164,242.941 175.8194,238.191 C174.2134,233.417 173.4044,228.13 173.5774,222.56 C173.7504,216.983 174.8904,211.675 176.7994,206.866 C178.7024,202.072 181.3614,197.794 184.5744,194.248 C187.7664,190.725 191.4944,187.936 195.5594,186.083 C199.5864,184.248 203.9354,183.335 208.4134,183.536" id="Fill-134" fill="#FFD000"></path>
                </g>
            </g>
        </g>
    </g>
</svg>