<?xml version="1.0" encoding="UTF-8" standalone="no"?>
<svg width="142px" height="179px" viewBox="0 0 142 179" version="1.1" xmlns="http://www.w3.org/2000/svg" xmlns:xlink="http://www.w3.org/1999/xlink">
    <!-- Generator: Sketch 3.6.1 (26313) - http://www.bohemiancoding.com/sketch -->
    <title>uf-admin-sprite</title>
    <desc>Created with Sketch.</desc>
    <defs>
        <radialGradient cx="50%" cy="50%" fx="50%" fy="50%" r="52.733429%" id="radialGradient-1">
            <stop stop-color="#19BEFF" offset="0%"></stop>
            <stop stop-color="#18A7E0" offset="100%"></stop>
        </radialGradient>
    </defs>
    <g id="Page-1" stroke="none" stroke-width="1" fill="none" fill-rule="evenodd">
        <g id="uf-admin-sprite">
            <g id="uf-logo-final" opacity="0.699999988" transform="translate(10.000000, 10.000000)">
                <path d="M67.951,5.31 C67.951,4.125 69.378,3.961 70.298,3.961 C70.462,3.961 70.611,3.968 70.732,3.981 L71.048,0.082 C71.048,0.082 70.483,0 69.65,0 C67.411,0 63.287,0.62 63.287,5.177 L63.287,5.499 L61.591,5.499 L61.591,9.135 L63.287,9.135 L63.287,19.375 L67.951,19.375 L67.951,9.135 L70.609,9.135 L70.609,5.499 L67.951,5.499 L67.951,5.31 Z M81.296,5.308 C81.262,5.302 81.018,5.254 80.773,5.254 C78.694,5.254 76.941,6.821 76.348,8.706 L76.098,5.499 L71.875,5.499 L71.875,19.375 L76.537,19.375 L76.537,14.12 C76.537,13.368 76.616,12.748 76.779,12.234 C77.452,10.159 79.26,9.808 80.364,9.808 C80.587,9.808 80.781,9.821 80.935,9.835 L81.296,5.308 Z M31.001,5.499 L35.663,5.499 L35.663,13.637 C35.663,14.93 36.174,15.469 37.143,15.469 C39.137,15.469 40.08,13.718 40.08,11.641 L40.08,5.499 L44.743,5.499 L44.743,19.375 L40.44,19.375 L40.268,17.302 C39.512,18.782 37.79,19.701 35.931,19.701 C33.179,19.701 31.001,18.406 31.001,14.498 L31.001,5.499 Z M97.942,5.499 L102.25,5.499 L102.421,7.57 C103.064,6.498 104.385,5.177 106.84,5.177 C109.642,5.177 111.824,6.469 111.824,10.376 L111.824,19.375 L107.162,19.375 L107.162,11.239 C107.162,9.944 106.649,9.404 105.629,9.404 C104.173,9.404 103.282,10.213 102.877,11.401 C102.689,11.938 102.609,12.56 102.609,13.23 L102.609,19.375 L97.942,19.375 L97.942,5.499 Z M122,15.267 C121.896,15.272 121.75,15.279 121.57,15.279 C120.681,15.279 119.091,15.062 119.091,13.503 L119.091,9.135 L121.71,9.135 L122,5.527 L122,5.499 L119.091,5.499 L119.091,1.94 L114.849,1.94 L114.563,5.499 L112.65,5.499 L112.65,9.135 L114.431,9.135 L114.431,14.12 C114.431,18.782 118.716,19.375 120.924,19.375 C121.405,19.375 121.786,19.345 122,19.32 L122,15.267 Z M89.223,5.177 C93.614,5.177 97.119,8.11 97.119,12.476 C97.119,16.818 93.614,19.701 89.253,19.701 C84.886,19.701 81.38,16.818 81.38,12.476 C81.38,8.11 84.886,5.177 89.223,5.177 Z M89.253,15.82 C90.946,15.82 92.404,14.554 92.404,12.476 C92.404,10.376 90.946,9.058 89.253,9.058 C87.552,9.058 86.095,10.376 86.095,12.476 C86.095,14.554 87.552,15.82 89.253,15.82 Z M46.806,5.499 L50.883,5.499 L51.009,7.085 C51.009,7.085 52.274,5.177 55.217,5.177 C58.989,5.177 61.466,8.139 61.466,12.449 C61.466,16.841 58.691,19.701 55.001,19.701 C52.736,19.701 51.471,18.38 51.471,18.38 L51.471,19.567 L51.471,24.875 L46.806,24.875 L46.806,5.499 Z M54.05,15.847 C55.51,15.847 56.778,14.66 56.778,12.531 C56.778,10.457 55.674,9.106 54.05,9.106 C52.657,9.106 51.331,10.132 51.331,12.531 C51.331,14.201 52.222,15.847 54.05,15.847 Z" id="Combined-Shape" fill="#848484"></path>
                <path d="M13.498,0.683 L9.159,4.697 L14.648,5.286 L19.579,8.6 L19.121,2.943 L16.232,1.003 L13.498,0.683" id="Fill-8" fill="#BABABA"></path>
                <path d="M5.251,8.314 L0.493,12.713 L0.389,14.062 L4.66,16.141 L5.251,8.314" id="Fill-9" fill="#BABABA"></path>
                <path d="M24.487,14.062 L12.493,19.951 L17.545,22.408 L24.875,18.863 L24.487,14.062" id="Fill-10" fill="#BABABA"></path>
                <path d="M23.841,6.114 L19.121,2.943 L20.191,16.17 L24.487,14.062 L23.841,6.114" id="Fill-11" fill="#848484"></path>
                <path d="M7.635,0 L1.025,6.114 L0.493,12.713 L13.498,0.683 L7.635,0" id="Fill-12" fill="#848484"></path>
                <path d="M0,18.863 L12.436,24.875 L17.545,22.408 L0.389,14.062 L0,18.863" id="Fill-13" fill="#848484"></path>
            </g>
            <g id="uf-logo-grey" opacity="0.900000036" transform="translate(10.000000, 85.000000)" fill="#FFFFFF">
                <path d="M10.008,0.923225806 L6.96948387,3.73470968 L10.8133548,4.1463871 L14.2664516,6.46780645 L13.9459355,2.50548387 L11.9223871,1.14851613 L10.008,0.923225806" id="Fill-1" fill-opacity="0.699999988"></path>
                <path d="M4.23290323,6.26748387 L0.90116129,9.3483871 L0.828,10.2925161 L3.81890323,11.7476129 L4.23290323,6.26748387" id="Fill-2" fill-opacity="0.699999988"></path>
                <path d="M17.703871,10.2925161 L9.30425806,14.4162581 L12.8415484,16.1372903 L17.9750323,13.6550323 L17.703871,10.2925161" id="Fill-3" fill-opacity="0.699999988"></path>
                <path d="M17.2515484,4.72645161 L13.9459355,2.50548387 L14.6955484,11.7690968 L17.703871,10.2925161 L17.2515484,4.72645161" id="Fill-4"></path>
                <path d="M5.90225806,0.445354839 L1.27393548,4.72645161 L0.90116129,9.3483871 L10.008,0.923225806 L5.90225806,0.445354839" id="Fill-5"></path>
                <path d="M0.555677419,13.6550323 L9.26477419,17.8647097 L12.8415484,16.1372903 L0.828,10.2925161 L0.555677419,13.6550323" id="Fill-6"></path>
            </g>
            <path d="M10,161 C10,165.418286 13.5817143,169 18,169 C22.4182857,169 26,165.418286 26,161 C26,156.581714 22.4182857,153 18,153 C13.5817143,153 10,156.581714 10,161 Z M17,165.001 C17,165.553285 17.4438648,166.001 18,166.001 C18.5522847,166.001 19,165.557135 19,165.001 C19,164.448715 18.5561352,164.001 18,164.001 C17.4477153,164.001 17,164.444865 17,165.001 Z M19,163 L17,163 C17,160 19.331,160.562 19.331,158.875 C19.331,158.017 19,157.679 18,157.679 C16.516,157.679 16.557,159 16.557,159 L14.643,159 C14.643,158 15.5,156 18,156 C20.297,156 21.357,157.266 21.357,159 C21.357,160.999 19,161 19,163 Z" id="Page-1" fill="url(#radialGradient-1)"></path>
        </g>
    </g>
</svg>