<svg width="920" height="930" viewBox="0 0 920 930" xmlns="http://www.w3.org/2000/svg" xmlns:xlink="http://www.w3.org/1999/xlink">
  <defs>
    <path d="M10.5 9.62132034v1.37214886C10.5 12.3803758 11.622212 13.5 13.0065308 13.5h7.9869384C22.3803758 13.5 23.5 12.377788 23.5 10.9934692V3.00653076C23.5 1.61962422 22.377788.5 20.9934692.5h-7.9869384C11.6196242.5 10.5 1.62221205 10.5 3.00653076v1.3721489L7.87867966 7 10.5 9.62132034zm-.5.0355339L7.2218254 6.87867967 10 4.10050507V3.00335123C10 1.34464613 11.3423789 0 13.0033512 0h7.9932976C22.6553538 0 24 1.34237885 24 3.00335124v7.99329756C24 12.6553538 22.6576211 14 20.9966488 14h-7.9932976C11.3446462 14 10 12.6576211 10 10.9966488V9.65685425z" id="a"/>
    <mask id="d" x="0" y="0" width="16.7781746" height="14" fill="#fff">
      <use xlink:href="#a"/>
    </mask>
    <path d="M9 3.027c2.086.231 3.742 1.888 3.972 3.973H11l3 3 3-3h-2.019C14.738 3.808 12.191 1.261 9 1.019v2.008z" id="e"/>
    <path d="M3.019 11.019C3.262 14.21 5.809 16.758 9 17v-2.008c-2.086-.232-3.742-1.888-3.972-3.973H7l-3-3-3 3h2.019z" id="f"/>
    <path d="M9 3.027c2.086.231 3.742 1.888 3.972 3.973H11l3 3 3-3h-2.019C14.738 3.808 12.191 1.261 9 1.019v2.008z" id="g"/>
    <path d="M3.019 11.019C3.262 14.21 5.809 16.758 9 17v-2.008c-2.086-.232-3.742-1.888-3.972-3.973H7l-3-3-3 3h2.019z" id="h"/>
    <path id="b" d="M34 188h10v2H34z"/>
    <mask id="i" x="0" y="0" width="10" height="2" fill="#fff">
      <use xlink:href="#b"/>
    </mask>
    <path id="j" d="M13.9996 0H0v13.9998h13.9996V0z"/>
    <path d="M9.563 0c.518.894.843 1.913.919 3h.018c.828 0 1.5.671 1.5 1.5 0 .828-.672 1.5-1.5 1.5-.151 0-.298-.022-.435-.064-.354.953-.91 1.809-1.615 2.513L12 12H2l1.5-1.5c-1.275 0-2.471-.341-3.5-.936v2.431C0 13.102.897 14 2.006 14h9.988C13.102 14 14 13.103 14 11.995V2.006C14 .898 13.103 0 11.994 0H9.563z" id="l"/>
    <path id="m" d="M3.00005 5H6V0H.0001v5h2.99995z"/>
    <path d="M2.007 0C.902 0 0 .894 0 1.997v5.006C0 8.104.9 9 2.007 9h7.985C11.097 9 12 8.106 12 7.003V1.997C12 .895 11.101 0 9.992 0H2.007zM11 1L6 7 1 1l5 3 5-3z" id="o"/>
    <path id="q" d="M0 12h8V0H0z"/>
    <path id="c" d="M0 0h12v12H0z"/>
    <mask id="s" x="0" y="0" width="12" height="12" fill="#fff">
      <use xlink:href="#c"/>
    </mask>
    <path d="M6 6l4-3-4-3v6zM1 7h2c0-1.657 1.343-3 3-3V2C3.239 2 1 4.238 1 7zm8 0h2V6H9v1zm0 0c0 1.656-1.343 3-3 3v2c2.761 0 5-2.238 5-5H9zM.999 8.001H3V7H.999v1.001zm0 0L3 7 .999 8.001zM2 11l4 3V8l-4 3z" id="t"/>
    <path d="M1 2.5V4h.25H0v2c0 1 1 2 1.999 2H5c.999 0 2-1 2-2V4H5.75 6V2.5C6 1.119 4.88 0 3.5 0 2.119 0 1 1.119 1 2.5zm1 0C2 1.672 2.672 1 3.5 1 4.329 1 5 1.672 5 2.5V4H2V2.5z" id="v"/>
    <path d="M6 6l4-3-4-3v6zM1 7h2c0-1.657 1.343-3 3-3V2C3.239 2 1 4.239 1 7zm8 0h2V6H9v1zm0 0c0 1.657-1.343 3-3 3v2c2.761 0 5-2.239 5-5H9zM.999 8H3V7H.999v1zm0 0L3 7 .999 8zM2 11l4 3V8l-4 3z" id="x"/>
    <path d="M1 2.5V4h.25H0v2c0 1 1 2 1.999 2H5c.999 0 2-1 2-2V4H2V2.5C2 1.671 2.672 1 3.5 1c.653 0 1.208.418 1.415 1H5.95C5.718.859 4.709 0 3.5 0 2.119 0 1 1.12 1 2.5z" id="z"/>
    <path id="B" d="M0 881h130V0H0z"/>
  </defs>
  <g fill="none" fill-rule="evenodd">
    <path fill="#72848D" d="M40 0h200v16H40zm220 0h200v16H260zm220 0h200v16H480zm220 0h200v16H700z"/>
    <text font-family="Courier" font-size="11" fill="#FFF" transform="translate(40)">
      <tspan x="10.1887207" y="10">sidebar element icons</tspan>
    </text>
    <text font-family="Courier" font-size="11" fill="#FFF" transform="translate(40)">
      <tspan x="230" y="10">element ui icons</tspan>
    </text>
    <text font-family="Courier" font-size="11" fill="#FFF" transform="translate(40)">
      <tspan x="450" y="10">miscellaneous</tspan>
    </text>
    <text font-family="Courier" font-size="11" fill="#FFF" transform="translate(40)">
      <tspan x="670" y="10">image / gallery / slider</tspan>
    </text>
    <path d="M57.0024 46c1 0 .998.987.998.987l-.002 2.78c0 .319-.215.432-.449.432-.235 0-.468-.113-.49-.432-.118-1.415-1.016-2.621-2.562-2.697l-1.497-.083s.015 7.541 0 8.016c0 .999 1.003 2.011 2.417 2.205.195.027.292.207.292.396 0 .188-.096.396-.292.396h-6.811c-.196 0-.294-.189-.294-.376 0-.189.099-.373.313-.416 1.374-.194 2.371-1.206 2.371-2.205.002-.455.003-8.003.003-8.003l-1.494.052c-1.661.056-2.407 1.224-2.562 2.715-.019.245-.256.432-.49.432-.234 0-.449-.095-.449-.396L46.0004 47s0-1 1-1h10.002z" fill="#212121"/>
    <path d="M61 43h1v-1h-1v1zm0 19h1v-1h-1v1zm-1-1H44v-1h-1V44h1v-1h16v1h1v16h-1v1zm-18 1h1v-1h-1v1zm0-19h1v-1h-1v1zm21 1v-3h-3v1H44v-1h-3v3h1v16h-1v3h3v-1h16v1h3v-3h-1V44h1zm-2 33h1v-1h-1v1zm0 19h1v-1h-1v1zm-1-1H44v-1h-1V78h1v-1h16v1h1v16h-1v1zm-18 1h1v-1h-1v1zm0-19h1v-1h-1v1zm21 1v-3h-3v1H44v-1h-3v3h1v16h-1v3h3v-1h16v1h3v-3h-1V78h1z" fill="#909090"/>
    <path fill="#212121" d="M56 87l-2 3-4-6-6 9 16.001.001M55 81c0 1.104.896 2 2 2 1.105 0 2-.896 2-2 0-1.105-.895-2-2-2-1.104 0-2 .895-2 2"/>
    <path d="M44 118c0-3.314 2.686-6 6-6s6 2.686 6 6c0 3.313-2.686 6-6 6s-6-2.687-6-6m18 10l-4.721-4.721C58.356 121.795 59 119.975 59 118c0-4.971-4.029-9-9-9s-9 4.029-9 9 4.029 9 9 9c1.975 0 3.795-.644 5.279-1.721L60 130s1 1 2 0 0-2 0-2" fill="#909090"/>
    <path d="M48.7319 121.7753c.401.135.822.225 1.268.225 2.209 0 4-1.791 4-4 0-.447-.09-.868-.224-1.268-.631 2.471-2.572 4.413-5.044 5.043" fill="#212121"/>
    <g transform="translate(40 147)">
      <path d="M4 4l1-2H3S1 2 1 4.001v1L0 5v2l1 .001V12h2V7h2V5l-2 .001V4h1" fill="#212121"/>
      <use stroke="#979797" mask="url(#d)" stroke-width="2" fill="#D8D8D8" xlink:href="#a"/>
    </g>
    <path d="M46 183.999h15V183H46v.999zM46 186h15v-.999H46V186zm0 1.999h15V187H46v.999zm0 2h15V189H46v.999zM46 192h9v-.999h-9V192z" fill="#212121"/>
    <path fill="#909090" d="M42 195h2v-15h-2m-2 46h23v-5H40"/>
    <path d="M40 213.9998v16h23v-16H40zm17 7.001h4.999v-3H57v3zm-6 0h5v-3h-5v3zm-10 0h9v-3h-9v3zm16 3.999h4.999v-3H57v3zm-6 0h5v-3h-5v3zm-10 0h9v-3h-9v3zm16 4.001h4.999v-3H57v3zm-6 0h5v-3h-5v3zm-10 0h9v-3h-9v3z" fill="#212121"/>
    <path d="M44 248h15.999S63 247.999 63 250.999v10C63 264 59.999 264 59.999 264H44s-3 0-3-3v-10.001C41 248 44 248 44 248" fill="#909090"/>
    <path d="M50 255h1v-1c0-1-2-1-3-1-3 0-3 1-3 3s0 3 3 3 3-1 3-3h-3v1h2c0 1 0 1-2 1s-2 0-2-2 0-2 2-2 2 0 2 1m6 3c-2 0-2-.667-2-2s0-2 2-2 2 .667 2 2 0 2-2 2m0-5c-3 0-3 1-3 3s0 3 3 3 3-1 3-3 0-3-3-3m-14 44h20v-14H42v14zm17-11h2v-2h-2v2zm-4 0h2.001v-2H55v2zm-4 0h2v-2h-2v2zm-4 0h2v-2h-2v2zm-4 0h2v-2h-2v2zm16 10h2v-2h-2v2zm-4 0h2.001v-2H55v2zm-4 0h2v-2h-2v2zm-4 0h2v-2h-2v2zm-4 0h2v-2h-2v2z" fill="#212121"/>
    <path fill="#909090" d="M43 293h2v-6h-2m16 6h2v-6h-2m-12 6h10v-6H47"/>
    <path fill="#212121" d="M50 288v4l4-2"/>
    <path fill="#909090" d="M41 326.9999l6 8h16l-6-8"/>
    <path d="M52 323c-1.657 0-3-1.343-3-3s1.343-3 3-3 3 1.343 3 3-1.343 3-3 3m0-10c-4 0-7 3-7 7 0 5 7 12 7 12s7-7 7-12c0-4-3-7-7-7" fill="#212121"/>
    <path d="M44 351.00585866v9.98828264C44 361.5514374 44.44630695 362 44.9950893 362h14.0098214C59.5536259 362 60 361.5511217 60 360.9941413v-9.98828264C60 350.4485626 59.553693 350 59.0049107 350H44.9950893C44.4463741 350 44 350.44887827 44 351.00585866zm-1 0C43 349.8980535 43.8926228 349 44.9950893 349h14.0098214C60.1067681 349 61 349.89706013 61 351.00585866v9.98828264C61 362.1019465 60.1073772 363 59.0049107 363H44.9950893C43.8932319 363 43 362.1029399 43 360.9941413v-9.98828264zM47.5 367c-.82842712 0-1.5-.6715729-1.5-1.5s.67157288-1.5 1.5-1.5 1.5.6715729 1.5 1.5-.67157288 1.5-1.5 1.5zm5-.5c-.55228475 0-1-.4477153-1-1s.44771525-1 1-1c.5522847 0 1 .4477153 1 1s-.4477153 1-1 1zm4.5 0c-.5522847 0-1-.4477153-1-1s.4477153-1 1-1 1 .4477153 1 1-.4477153 1-1 1z" fill="#909090" fill-rule="nonzero"/>
    <path d="M55 353.5c0-.82875.672-1.5 1.5-1.5.82875 0 1.5.67125 1.5 1.5 0 .828-.67125 1.5-1.5 1.5-.828 0-1.5-.672-1.5-1.5zm0 2.5l3 4H46l4-6 3 4 2-2zm3 29h1v14H44v-14h14zm-13 13h13v-12H45v12zm9-1h-8l4-7 2.537 4.439L54 392l3 5h-3zm1.5-7c-.828 0-1.5-.672-1.5-1.5s.672-1.5 1.5-1.5 1.5.672 1.5 1.5-.672 1.5-1.5 1.5z" fill="#212121"/>
    <path d="M60 391.0918c.58.207 1 .756 1 1.408 0 .653-.42 1.201-1 1.408v-2.816zM62 389h1v14H48v-3h1v2h13v-12h-2v-1h2zm-2 10.333L61 401H50l.57-1H60v-.667zM43 394v1h-2v-14h15v3h-1v-2H42v12h1zm10.9082-10h-2.816c.207-.581.755-1 1.408-1 .652 0 1.201.419 1.408 1z" fill="#909090"/>
    <path d="M52 427c0 2.001-3 2-3 2s-3 .001-3-2c-4.684.915-5 3-5 4 .001 2 3 2 3 2h10s3 0 3-2c0-1-.318-3.085-5-4m0-5c0 2.209-.791 5-3 5s-3-2.791-3-5 .791-3 3-3 3 .791 3 3" fill="#212121"/>
    <path fill="#909090" d="M57 424l3 3 3-3m-21 41h20v-4H42m0 9h20v-4H42"/>
    <path fill="#212121" d="M43 456h18v-1H43m0 3h18v-1H43m0 3h14v-1H43m13 3l2 2 2-2m-4 5l2 2 2-2"/>
    <path d="M42 454h20v-4H42v4zm16-3l2 2h-4l2-2zm-1 38.0005v-.001H47v.001c-.552 0-1 .448-1 .999 0 .553.448 1 1 1h9.998c.001 0 .001.001.002.001.552 0 1-.448 1-1s-.448-1-1-1m0 4v-.001H47v.001c-.552 0-1 .448-1 .999 0 .553.448 1 1 1h9.998c.001 0 .001.001.002.001.552 0 1-.448 1-1s-.448-1-1-1m0 4v-.001H47v.001c-.552 0-1 .448-1 .999 0 .553.448 1 1 1h9.998c.001 0 .001.001.002.001.552 0 1-.448 1-1s-.448-1-1-1" fill="#909090"/>
    <path d="M61 501c0 1.105-.895 2-2 2H45c-1.105 0-2-.895-2-2v-14c0-1.105.895-2 2-2h14c1.105 0 2 .895 2 2v14zm-2-17H45c-1.657 0-3 1.343-3 3v14c0 1.657 1.343 3 3 3h14c1.657 0 3-1.343 3-3v-14c0-1.657-1.343-3-3-3z" fill="#212121"/>
    <path d="M55.229 526.0537c-.11-.561-.229-.991-.229-.991-.406-1.782.157-4.063-1.5-4.063s.594 4.25-2.5 4.875l-.009.023c-.619.171-.991.64-.991 1.752v4.906c0 2.762 2.239 2.5 5 2.5 2.762 0 5-.738 5-3.5v-3.25c0-2.694-2.103-2.274-4.771-2.252" fill="#909090"/>
    <path d="M47 534.0625c-.552 0-1-.448-1-1s.448-1 1-1 1 .448 1 1-.448 1-1 1zm2-7c0-.552-.448-1-1-1h-3c-.552 0-1 .448-1 1v7c0 .552.448 1 1 1h3c.552 0 1-.448 1-1v-7zM45.70802378 559H40l.5 1h3.6348237c.12715024-.1331163.27499933-.25048345.4421808-.34700572L45.7080238 559zm-2.0877845 2H41l.5 1h2.18098856c-.10654577-.32911708-.1239182-.67318058-.06074927-1zm.5866174 2H42l.5 1h2.28420696l-.57735027-1z" fill="#212121"/>
    <path d="M57.2523306 553.73623087c-.3794944-.02558656-.7696972.05691736-1.122831.26079927l-10.40259274 6.00593972c-.35290353.20374895-.61966375.50038064-.78742797.84196462l9.4887243 2.21724332.5.8660254-3.0648861-.722492-1.3919631 7.4369594c.4203764.0566386.8610912-.0196534 1.2555529-.2473959l10.4025927-6.0059397c.3941764-.2275779.680882-.5710347.8422065-.9635797l-7.1367562-2.51306736-.9067467 3.01551526-.5-.8660254 2.8241274-9.32594693zm.6887996.17205393c.3731731.1673796.6994384.44992385.9195414.83115338l3.9914698 6.9134285c.1963453.3400801.2824488.7134156.2695121 1.07823263l-7.0834673-2.4943027 1.902944-6.3285118zm-13.1971701 7.61916546c-.04160426.40650513.03988108.8302025.260305 1.21198792l3.9914698 6.91342852c.19607356.3396093.47639453.6009049.79907393.7722367l1.38155097-7.3813301-6.4323997-1.51632304zM42 593.0001h13v-2.001H42m0 8.0007v2.001h5.25l.5-2.001m5.25 2.0003h9v-2h-9m-11-3.9999v2h8l2-2m5.25-.0001l-1.5 2H62v-2m-20 10h4v-2h-4" fill="#909090"/>
    <path d="M56.9326 593.923l-4.388 4.433-1.131-1.084 4.299-4.347 1.22.998zm-9.336 8.575l-.556-.68 1.998-4.438 1.377.656-.599 1.785 1.82-.575.887 1.34-4.927 1.912zm.759-5.498l-3.356 7.451 8.094-3.237 6.477-6.455-4.571-4.374-6.644 6.615zm12.551-4.571l-3.614-3.456s1.207-.473 2.707 1.027c1.5 1.5.907 2.429.907 2.429zm.23-3.538c-1.262-1.206-3.33-1.185-4.617.048l-.176.168 4.571 4.372.175-.166c1.288-1.233 1.31-3.213.047-4.422zM42 628.0005s0-3 3-3 3 3 3 3h-6zM47 623c0 1.105-.895 2-2 2s-2-.895-2-2c0-1.104.895-2 2-2s2 .896 2 2zm-5 14.0005s0-3 3-3 3 3 3 3h-6zM47 632c0 1.105-.895 2-2 2s-2-.895-2-2c0-1.104.895-2 2-2s2 .896 2 2z" fill="#212121"/>
    <path d="M52 623.0005h8v-1h-8v1zm0 2h8v-1h-8v1zm0 2h5v-1h-5v1zm8-6c1.105 0 2 .895 2 2v3c0 1.104-.895 2-2 2h-8c-1.104 0-2-.896-2-2v-3c.001-1-1.999-2-1.999-2H60zm0 9c1.105 0 2 .895 2 2v5c0 1.105-.895 2-2 2h-8c-1.104 0-2-.895-2-2v-5c0-1-1.999-2-1.999-2H60zm-8 2h8v-1h-8v1zm0 2h8v-1h-8v1zm0 2h8v-1h-8v1zm0 2h5v-1h-5v1zM51 655h2v2h-2v-2zm0 16h2v2h-2v-2zm-8-8h2v2h-2v-2zm0-4h2v2h-2v-2zm0-3c0-.55228475.44386482-1 1-1h1v2h-2v-1zm16 3h2v2h-2v-2zm0-4h1c.5522847 0 1 .44386482 1 1v1h-2v-2zm-16 12h2v2h-2v-2zm0 4h2v2h-1c-.55228475 0-1-.4438648-1-1v-1zm12 0h2v2h-2v-2zm4 0h2v1c0 .5522847-.4438648 1-1 1h-1v-2zm-12-16h2v2h-2v-2zm12 12h2v2h-2v-2zm-12 4h2v2h-2v-2zm12-8h2v2h-2v-2zm-4-8h2v2h-2v-2z" fill="#909090"/>
    <path fill="#212121" d="M48 660l2.001 4 2-4L54 664l2.001-4H58l-4 8-1.999-4-2 4L46 660m6 32c-9 0-10 1-10 7s1 7 10 7 10-1 10-7-1-7-10-7"/>
    <path d="M49 701v-6l8 3-8 3zm3-10c-9 0-10 1-10 7s1 7 10 7 10-1 10-7-1-7-10-7z" fill="#909090"/>
    <path d="M59 724h-3c-3 0-3 3-3 3v2h9v-2c0-3-3-3-3-3z" fill="#212121"/>
    <path d="M51 736h9v-1h-9v1zm-2-1h-1c0-1-1-1-1-1v2c0 1 1 1 1 1v1h-3v-1c1 0 1-1 1-1v-2c-1 0-1 1-1 1h-1v-2h5v2zm3-5v-3c0-3-3-3-3-3h-4c-3 0-3 3-3 3v13h20v-10H52z" fill="#909090"/>
    <path fill="#212121" d="M41 766v1l5 5 2-2-4-3v-1l4-3-2-2m10.0003 2.0003l4 3v1l-4 2.999 2 2.001 4.999-5v-1l-4.999-5.001"/>
    <path fill="#909090" d="M53.9996 757.9999l-5.999 15v2h1.999l6.001-15v-2"/>
    <g transform="translate(261 41)">
      <path fill="#FFF" d="M12.332 4.00049l-3.333 3.332-3.332-3.332L4 5.66649l3.333 3.333L4 12.33149l1.667 1.667 3.332-3.333 3.333 3.333 1.666-1.667-3.333-3.332 3.333-3.333M8.9991 41.3325c-1.288 0-2.333-1.045-2.333-2.333 0-1.289 1.045-2.333 2.333-2.333 1.289 0 2.333 1.044 2.333 2.333 0 1.288-1.044 2.333-2.333 2.333zm7-1.556v-1.555l-2.528-.505c-.099-.34-.24-.66-.409-.963l1.437-2.153-1.101-1.1-2.157 1.438c-.301-.167-.619-.307-.957-.404l-.507-2.535h-1.555l-.507 2.535c-.345.099-.671.242-.977.414l-2.099-1.4-1.09 1.091 1.397 2.095c-.174.308-.318.635-.418.982l-2.528.505v1.555l2.527.506c.099.34.24.66.409.963l-1.436 2.153 1.1 1.099 2.157-1.438c.302.167.62.307.958.404l.507 2.535h1.555l.507-2.535c.345-.099.67-.242.977-.413l2.098 1.399 1.091-1.09-1.397-2.095c.174-.308.318-.636.418-.982l2.528-.506zM14 71h-1v-4c0-1.999-2-2-2-2H8v2.001L11 67v7s0 1 1 1 1-1 1-1v-1h1s1 0 1-1-1-1-1-1zm-7-7s-.001-1-1-1c-1 0-1 1-1 1v1h-.999S3 64.999 3 66s1 1 1 1h1v4s0 2 2 2h3v-2H7v-7zm1 29v4.999H3v2h5V105h2v-5.001h4.999v-2H10V93"/>
      <path d="M2 128.99809l3-3 1 1-2 2 2 2.001-1 1-3-3.001zm9.9999-1.9998l1-1 3.001 3-3.001 3-1-.999 2-2.001-2-2zm-1.9998-2.9979l1 1-2.999 8.998-1-1 2.999-8.998z" fill="#1FCD8F"/>
      <path d="M10 158v-4H8v4H4v2h4v4h2v-4h4v-2h-4zm-10 1c0-4.971 4.028-9 9-9 4.971 0 9 4.028 9 9 0 4.971-4.028 9-9 9-4.971 0-9-4.028-9-9zm6 21H3v3H0v3h3v6s0 3 3 3h5v-3H6v-12zm9 12v-6s0-3-3-3H7v3h5v12h3v-3h3v-3h-3z" fill="#5E7285"/>
      <path d="M3.5815 215H.0005v2h3.061c.088-.699.265-1.369.52-2zm10.419 10.419V228h-2v-2.062c.698-.087 1.369-.264 2-.519zm-14-1.419l2-2 7 6h-9v-4z" fill="#8FA7BF"/>
      <path d="M11 211c-3.866 0-7 3.134-7 7s3.134 7 7 7 7-3.134 7-7-3.134-7-7-7zm3 5l-2 2 2 2v1h-1l-2-2-2 2H8v-1l2-2-2-2v-1h1l2 2 2-2h1v1z" fill="#5E7285"/>
      <path d="M33 11c-1.1045695 0-2-.8954305-2-2s.8954305-2 2-2 2 .8954305 2 2-.8954305 2-2 2zm12 0c-1.1045695 0-2-.8954305-2-2s.8954305-2 2-2 2 .8954305 2 2-.8954305 2-2 2zm-6 0c-1.1045695 0-2-.8954305-2-2s.8954305-2 2-2 2 .8954305 2 2-.8954305 2-2 2z" fill="#212121"/>
      <path d="M33 41c-1.1045695 0-2-.8954305-2-2s.8954305-2 2-2 2 .8954305 2 2-.8954305 2-2 2zm12 0c-1.1045695 0-2-.8954305-2-2s.8954305-2 2-2 2 .8954305 2 2-.8954305 2-2 2zm-6 0c-1.1045695 0-2-.8954305-2-2s.8954305-2 2-2 2 .8954305 2 2-.8954305 2-2 2z" fill="#FFF"/>
      <g fill="#212121">
        <path fill-opacity=".5" d="M61 2h16v14H61z"/>
        <path d="M61 6h16v6H61z"/>
      </g>
      <g fill="#FFF">
        <path fill-opacity=".5" d="M61 32h16v14H61z"/>
        <path d="M61 36h16v6H61z"/>
      </g>
      <path d="M97.0098067 4.4117715c.0506122-.0219838.1016592-.0431547.1531245-.06349622L98 1h2l.837069 3.34827528c.051465.0203415.102512.0415124.153124.06349622l2.959554-1.77573253 1.414214 1.41421356-1.775732 2.9595542c.021983.05061217.043154.10165914.063496.15312445L107 8v2l-3.348275.8370688c-.020342.0514653-.041513.1025123-.063496.1531245l1.775732 2.9595542-1.414214 1.4142135-2.959554-1.7757325c-.050612.0219838-.101659.0431547-.153124.0634962L100 17h-2l-.8370688-3.3482753c-.0514653-.0203415-.1025123-.0415124-.1531245-.0634962l-2.9595542 1.7757325-1.4142135-1.4142135 1.7757325-2.9595542c-.0219838-.0506122-.0431547-.1016592-.0634962-.1531245L91 10V8l3.3482753-.83706882c.0203415-.0514653.0415124-.10251228.0634962-.15312444l-1.7757325-2.9595542 1.4142135-1.41421357 2.9595542 1.77573253zM99 12c1.656854 0 3-1.3431458 3-3 0-1.65685425-1.343146-3-3-3-1.6568542 0-3 1.34314575-3 3 0 1.6568542 1.3431458 3 3 3z" fill="#212121"/>
      <path d="M97.0098067 34.4117715c.0506122-.0219838.1016592-.0431547.1531245-.0634962L98 31h2l.837069 3.3482753c.051465.0203415.102512.0415124.153124.0634962l2.959554-1.7757325 1.414214 1.4142135-1.775732 2.9595542c.021983.0506122.043154.1016592.063496.1531245L107 38v2l-3.348275.8370688c-.020342.0514653-.041513.1025123-.063496.1531245l1.775732 2.9595542-1.414214 1.4142135-2.959554-1.7757325c-.050612.0219838-.101659.0431547-.153124.0634962L100 47h-2l-.8370688-3.3482753c-.0514653-.0203415-.1025123-.0415124-.1531245-.0634962l-2.9595542 1.7757325-1.4142135-1.4142135 1.7757325-2.9595542c-.0219838-.0506122-.0431547-.1016592-.0634962-.1531245L91 40v-2l3.3482753-.8370688c.0203415-.0514653.0415124-.1025123.0634962-.1531245l-1.7757325-2.9595542 1.4142135-1.4142135 2.9595542 1.7757325zM99 42c1.656854 0 3-1.3431458 3-3s-1.343146-3-3-3c-1.6568542 0-3 1.3431458-3 3s1.3431458 3 3 3z" fill="#FFF"/>
      <path d="M131.328141 9.8642475c1.334467.3563704 2.81733.01109697 3.864247-1.03582038 1.562097-1.56209716 1.562097-4.09475708 0-5.65685424-1.562097-1.56209717-4.094757-1.56209717-5.656854 0-1.046917 1.04691734-1.392191 2.5297803-1.03582 3.8642475l2.450033-2.45003394c.781049-.7810486 2.047379-.7810486 2.828428 0 .781048.78104858.781048 2.04737854 0 2.82842712l-2.450034 2.45003394zm-1.463894 1.4638932c.356371 1.3344671.011097 2.8173301-1.03582 3.8642475-1.562097 1.5620971-4.094757 1.5620971-5.656854 0-1.562097-1.5620972-1.562097-4.0947571 0-5.6568543 1.046917-1.04691734 2.52978-1.3921908 3.864247-1.03582037l-2.450034 2.45003397c-.781048.7810486-.781048 2.0473785 0 2.8284271.781049.7810486 2.047379.7810486 2.828428 0l2.450033-2.4500339zm.376322-4.61896257c.391669-.39166827 1.023038-.3953183 1.416285-.00207135.390525.3905243.397478 1.01673565-.002071 1.4162849l-3.531391 3.53139122c-.391669.3916683-1.023038.3953183-1.416285.0020713-.390525-.3905242-.397478-1.0167356.002071-1.4162849l3.531391-3.53139117z" fill="#212121"/>
      <path d="M131.328141 39.8642475c1.334467.3563704 2.81733.011097 3.864247-1.0358204 1.562097-1.5620971 1.562097-4.0947571 0-5.6568542-1.562097-1.5620972-4.094757-1.5620972-5.656854 0-1.046917 1.0469173-1.392191 2.5297803-1.03582 3.8642475l2.450033-2.450034c.781049-.7810485 2.047379-.7810485 2.828428 0 .781048.7810486.781048 2.0473786 0 2.8284272l-2.450034 2.4500339zm-1.463894 1.4638932c.356371 1.3344671.011097 2.8173301-1.03582 3.8642475-1.562097 1.5620971-4.094757 1.5620971-5.656854 0-1.562097-1.5620972-1.562097-4.0947571 0-5.6568543 1.046917-1.0469173 2.52978-1.3921908 3.864247-1.0358204l-2.450034 2.450034c-.781048.7810486-.781048 2.0473785 0 2.8284271.781049.7810486 2.047379.7810486 2.828428 0l2.450033-2.4500339zm.376322-4.6189626c.391669-.3916682 1.023038-.3953183 1.416285-.0020713.390525.3905243.397478 1.0167356-.002071 1.4162849l-3.531391 3.5313912c-.391669.3916683-1.023038.3953183-1.416285.0020713-.390525-.3905242-.397478-1.0167356.002071-1.4162849l3.531391-3.5313912z" fill="#FFF"/>
      <g transform="translate(150)">
        <path fill="#212121" d="M0 7h6.999V0H0m11 18h7v-6.999h-7"/>
        <use fill="#909090" xlink:href="#e"/>
        <use fill="#909090" xlink:href="#f"/>
      </g>
      <g transform="translate(150 30)" fill="#FFF">
        <path d="M0 7h6.999V0H0m11 18h7v-6.999h-7"/>
        <use fill-opacity=".5" xlink:href="#g"/>
        <use fill-opacity=".5" xlink:href="#h"/>
      </g>
      <path d="M182 12l4-3v6l-4-3zm-1-2.999V8h2v1.001h-2zM189 8h2c0 2.762-2.239 5-5 5v-2c1.657 0 3-1.344 3-3zm0 0V7h2.001v1H189zm-8 0c0-2.762 2.239-5 5-5v2c-1.657 0-3 1.343-3 3h-2zm5-1V1l4 3-4 3z" fill="#909090"/>
      <path d="M191.2499 13h-1.25v2c0 1 1 2 1.999 2h3.001c.999 0 2-1 2-2v-2h-5v-1.5c0-.828.672-1.5 1.5-1.5.653 0 1.209.417 1.415 1h1.035c-.231-1.141-1.24-2-2.45-2-1.381 0-2.5 1.119-2.5 2.5V13h.25z" fill="#212121"/>
      <path d="M185.10001812 37C185.03443026 37.32310994 185 37.65753416 185 38c0 2.76142375 2.23857625 5 5 5 .34246584 0 .67689006-.0344303 1-.1000181V45h-8v-8h2.10001812zM184 42v2h2v-2h-2zm6 0c-2.209139 0-4-1.790861-4-4s1.790861-4 4-4 4 1.790861 4 4-1.790861 4-4 4z" fill="#A4A4A4"/>
      <path d="M181 35h2v2h-2v-2zm10 10h2v2h-2v-2zm-7-13h2v2h-2v-2zm10 0h2v2h-2v-2zm0 10h2v2h-2v-2zm-13 3h2v2h-2v-2zm-46 60.2V92.8l2-.8v-1l-2.5 1-2.5-1v1l2 .8v12.4l-2 .8v1l2.5-1 2.5 1v-1l-2-.8z" fill="#212121"/>
      <path d="M121 95v4h1s0-3 2-3h1v6c0 2-2 2-2 2v1l3-.5 3 .5v-1s-2 0-2-2v-6h1c2 0 2 3 2 3h1v-4l-5 .25-5-.25zm60-18h16V61h-16v16zm-1 1h18V60h-18v18z" fill="#909090"/>
      <path fill="#212121" d="M191 68l2.5-2.5L195 67l1-5-5 1 1.5 1.5L190 67m-3-4l-5-1 1 5 1.5-1.5L187 68l1-1-2.5-2.5M187 70l-2.5 2.5L183 71l-1 5 5-1-1.5-1.5L188 71m5.5 1.5L191 70l-1 1 2.5 2.5L191 75l5 1-1-5m-96 36c-4.418278 0-8-3.581722-8-8s3.581722-8 8-8 8 3.581722 8 8-3.581722 8-8 8zm3.00297-9h-6.0059399C95.4530363 98 95 98.4477153 95 99c0 .5561352.4463856 1 .9970301 1h6.0059399c.543994 0 .99703-.4477153.99703-1 0-.5561352-.446386-1-.99703-1zM70 100h2.0029699C72.5469637 100 73 99.5522847 73 99c0-.5561352-.4463856-1-.9970301-1H70v-2.0029699C70 95.4530363 69.5522847 95 69 95c-.5561352 0-1 .4463856-1 .9970301V98h-2.0029699C65.4530363 98 65 98.4477153 65 99c0 .5561352.4463856 1 .9970301 1H68v2.00297c0 .543994.4477153.99703 1 .99703.5561352 0 1-.446386 1-.99703V100zm-1 7c-4.418278 0-8-3.581722-8-8s3.581722-8 8-8 8 3.581722 8 8-3.581722 8-8 8z"/>
      <g transform="translate(154 94)">
        <circle fill="#212121" cx="5.5" cy="5.5" r="5.5"/>
        <path fill="#FFF" d="M3 5h5v1H3z"/>
      </g>
      <path d="M152 122h4v14h-4v-14zm5 0h4v14h-4v-14zm5 0h4v14h-4v-14zm19.99810135-30C180.89458045 92 180 92.89706013 180 94.00585866v9.98828264C180 105.1019465 180.88670635 106 181.99810135 106h4.0037973C187.10541955 106 188 105.1029399 188 103.9941413v-9.98828264C188 92.8980535 187.11329365 92 186.00189865 92h-4.0037973zM181 93v9h6v-9h-6zm3 12c-.55228475 0-1-.4477153-1-1s.44771525-1 1-1 1 .4477153 1 1-.44771525 1-1 1zm5-7h6.9941413C197.1029399 98 198 98.89458045 198 99.99810135v4.00379725C198 105.1132936 197.1019465 106 195.9941413 106H189v-1h8v-6h-8v-1zm4-6v1.5c3 0 4 2.5 4 2.5l-.5.5s-1-2-3.5-2V96l-4-2 4-2z" fill="#212121"/>
      <path d="M70 130h3v-2h-3v-3h-2v3h-3v2h3v3h2v-3zm-1 7c-4.418278 0-8-3.581722-8-8s3.581722-8 8-8 8 3.581722 8 8-3.581722 8-8 8z" fill="#1691FB"/>
      <path d="M70 160h6v-2h-6v-6h-2v6h-6v2h6v6h2v-6z" fill="#FFF"/>
      <path d="M43 129v-3c0-2.209-1.791-4-4-4-2.21 0-4 1.791-4 4v3h-1v6c0 1.104.896 2 2 2h6c1.104 0 2-.896 2-2v-6h-1zm-4-5c1.103 0 2 .896 2 2v3h-4v-3c0-1.104.896-2 2-2zm1 9.722V135c0 .552-.448 1-1 1-.554 0-1-.448-1-1v-1.277c-.597-.346-1-.984-1-1.723 0-1.105.895-2 2-2 1.103 0 2 .895 2 2 0 .738-.405 1.376-1 1.722z" fill="#212121"/>
      <path d="M38 158h-4v2h4v4h2v-4h4v-2h-4v-4h-2v4z" fill="#909090"/>
      <use stroke="#212121" mask="url(#i)" stroke-width="2" fill="#D8D8D8" xlink:href="#b"/>
      <path d="M69 182c3.8659932 0 7 3.134007 7 7s-3.1340068 7-7 7-7-3.134007-7-7 3.1340068-7 7-7zm2 10v-6l-5 3 5 3zm-2 34c-3.8659932 0-7-3.134007-7-7s3.1340068-7 7-7 7 3.134007 7 7-3.1340068 7-7 7zm-2-10v6l5-3-5-3z" fill="#87969B"/>
      <path d="M37 99v-3c0-1.105.895-2 2-2 1.104 0 2 .895 2 2v1h2v-1c0-2.209-1.791-4-4-4s-4 1.791-4 4v3h-1v6c0 1 1 2 1.999 2H42c.999 0 2-1 2-2v-6h-7zm3 4.723V105c0 .552-.448 1-1 1s-1-.448-1-1v-1.277c-.595-.347-1-.985-1-1.723 0-1.105.895-2 2-2 1.104 0 2 .895 2 2 0 .738-.405 1.376-1 1.723z" fill="#A4A4A4"/>
      <path d="M156 61v14c-2 0-3-1-3-3V61h3zm6 16V63c2 0 3 1 3 3v11h-3zm-11-14h2v3h-2v-3zm16 9v3h-2v-3h2zm-5-9v3h-4v-3h4zm-6 9h4v3h-4v-3z" fill="#212121"/>
      <g transform="translate(123 63)">
        <mask id="k" fill="#fff">
          <use xlink:href="#j"/>
        </mask>
        <path d="M10.0646 5.9358c-.354.953-.91 1.809-1.615 2.514l3.55 3.55h-10l1.5-1.5c-1.275 0-2.47-.341-3.5-.936v2.43c0 1.108.898 2.006 2.006 2.006h9.989c1.107 0 2.005-.897 2.005-2.006v-9.988c0-1.108-.897-2.006-2.005-2.006h-2.431c.517.894.842 1.913.919 3h.017c.829 0 1.5.672 1.5 1.5 0 .829-.671 1.5-1.5 1.5-.151 0-.297-.022-.435-.064" fill="#7C98B4" mask="url(#k)"/>
      </g>
      <use fill="#909090" xlink:href="#l" transform="translate(123 63)"/>
      <path d="M126.4957 70.3755v1.146l-2.292-2.063 2.292-2.062v1.375c1.266 0 2.292-1.026 2.292-2.292 0-.25-.04-.491-.115-.716l1.325-.993c.252.516.394 1.096.394 1.709 0 2.152-1.744 3.896-3.896 3.896m-3.901-3.876c0-2.152 1.744-3.896 3.896-3.896v-1.146l2.291 2.063-2.291 2.062v-1.375c-1.266 0-2.292 1.026-2.292 2.292 0 .25.04.491.114.716l-1.324.993c-.252-.516-.394-1.096-.394-1.709m3.905-5.5c-3.037 0-5.5 2.463-5.5 5.5 0 3.038 2.463 5.5 5.5 5.5 3.038 0 5.5-2.462 5.5-5.5 0-3.037-2.462-5.5-5.5-5.5" fill="#212121"/>
      <path fill="#222" fill-rule="nonzero" d="M99.134 70.6163197l.32471.287069.3329445-.287069 2.1339995-1.863L101.268 68l-2.134 1.863h.5947296L97.6576545 68 97 68.7533197"/>
      <path fill="#222" d="M72 66l-4.001 4.001-1.999-2-1 1L68.004 72 73 67"/>
      <path d="M38 68h2.5c1.3807119 0 2.5 1.1192881 2.5 2.5S41.8807119 73 40.5 73h-4.0092222C35.9509752 73 35.5 73.4477153 35.5 74c0 .5561352.4435864 1 .990778 1h4.018444c.0026285 0 .0052548-.0000106.007879-.0000318C42.9945169 74.9907514 45 72.9795786 45 70.5c0-2.4852814-2.0147186-4.5-4.5-4.5H38v-3l-5 4 5 4v-3z" fill="#212121"/>
      <path d="M33.9981 224h-3.996c-.553 0-1.002-.449-1.002-1.002v-2.996c0-.553.449-1.002 1.002-1.002h3.996c.553 0 1.002.449 1.002 1.002v2.996c0 .553-.449 1.002-1.002 1.002m7 0h-3.996c-.553 0-1.002-.449-1.002-1.002v-2.996c0-.553.449-1.002 1.002-1.002h3.996c.553 0 1.002.449 1.002 1.002v2.996c0 .553-.449 1.002-1.002 1.002m0-6h-3.996c-.553 0-1.002-.449-1.002-1.002v-2.996c0-.553.449-1.002 1.002-1.002h3.996c.553 0 1.002.449 1.002 1.002v2.996c0 .553-.449 1.002-1.002 1.002" fill="#8FA7BF"/>
      <g transform="translate(43 219)">
        <mask id="n" fill="#fff">
          <use xlink:href="#m"/>
        </mask>
        <path d="M4.9981 5h-3.996c-.553 0-1.002-.449-1.002-1.002V1.002C.0001.449.4491 0 1.0021 0h3.996c.553 0 1.002.449 1.002 1.002v2.996c0 .553-.449 1.002-1.002 1.002" fill="#8FA7BF" mask="url(#n)"/>
      </g>
      <path d="M125 245.992017c0-1.100161.886706-1.992017 1.998101-1.992017h4.003798C132.10542 244 133 244.900176 133 245.992017v7.015966C133 254.108144 132.113294 255 131.001899 255h-4.003798C125.89458 255 125 254.099824 125 253.007983v-7.015966zm1-.001239v4.018444c0 .539803.443586.990778.990778.990778h4.018444c.539803 0 .990778-.443586.990778-.990778v-4.018444c0-.539803-.443586-.990778-.990778-.990778h-4.018444c-.539803 0-.990778.443586-.990778.990778zM129 254c.552285 0 1-.447715 1-1s-.447715-1-1-1-1 .447715-1 1 .447715 1 1 1zm0-10.5c0-.276142.214035-.5.504684-.5h.990632c.278729 0 .504684.231934.504684.5v.5h-2v-.5z" fill="#212121"/>
      <g transform="translate(93 245)">
        <mask id="p" fill="#fff">
          <use xlink:href="#o"/>
        </mask>
        <path fill="#212121" mask="url(#p)" d="M-5 14h22V-5H-5"/>
      </g>
      <path d="M67.252 246.015c0-.969.785-1.754 1.754-1.754s1.754.785 1.754 1.754-.785 1.754-1.754 1.754-1.754-.785-1.754-1.754zM74 248.998c0 2-2.278 3.554-4 4v-4.181c1.163-.413 2-1.512 2-2.817 0-1.656-1.342-3-3-3s-3 1.344-3 3c0 1.305.837 2.404 2 2.817v4.181c-1.722-.446-4-2-4-4h-1c0 3 2.686 5.999 6 5.999 3.313 0 6-2.999 6-5.999h-1z" fill="#212121"/>
      <g fill="#212121">
        <path d="M43.9989 243.0003l-4.999 4.999 1-3.999h-2v5.999h6v-2l-4 1 5-4.999v-1"/>
        <path d="M41 253h-6v-6h1v-2c-1.657 0-3 1.343-3 3v4c0 1.657 1.343 3 3 3h4c1.657 0 3-1.343 3-3h-2v1z"/>
      </g>
      <g fill="#212121">
        <path d="M9.0003 243.0003v2l4-1-5 4.999v1h1.001l4.998-4.999-.999 3.999h1.999v-5.999"/>
        <path d="M11 253H5v-6h2v-2H6c-1.657 0-3 1.343-3 3v4c0 1.657 1.343 3 3 3h4c1.657 0 3-1.343 3-3v-1h-2v2z"/>
      </g>
      <g fill="#212121">
        <path d="M155 251v3.503c0 .274.222.497.497.497H158v-2.495c0-.279.226-.505.504-.505h.992c.278 0 .504.226.504.505V255h2.503c.274 0 .497-.223.497-.497V251l-4-4-4 4z"/>
        <path d="M159 244l-6 6 1 1 5-5 5 5 1-1"/>
      </g>
      <g transform="translate(185 243)">
        <path d="M4 7c-1.085 0-2.027-.582-2.555-1.446C1.9 5.831 2.429 6 3 6c1.656 0 3-1.343 3-3 0-.571-.168-1.1-.445-1.554C6.418 1.973 7 2.915 7 4c0 1.657-1.344 3-3 3zm0-7C1.791 0 0 1.791 0 4s1.791 4 4 4 4-1.791 4-4-1.791-4-4-4z" fill="#212121"/>
        <mask id="r" fill="#fff">
          <use xlink:href="#q"/>
        </mask>
        <path fill="#212121" mask="url(#r)" d="M2 10h4V9H2m1 3h2v-1H3"/>
      </g>
      <path d="M186.968033 282.446181C187.563546 282.798071 188.258191 283 189 283c2.209139 0 4-1.790861 4-4 0-.741809-.201929-1.436454-.553819-2.031967l-5.478148 5.478148zm-1.414214-1.414214l5.478148-5.478148C190.436454 275.201929 189.741809 275 189 275c-2.209139 0-4 1.790861-4 4 0 .741809.201929 1.436454.553819 2.031967zM189 285c-3.313708 0-6-2.686292-6-6s2.686292-6 6-6 6 2.686292 6 6-2.686292 6-6 6zm.722222 27.124741c-2.485281 0-4.5-2.042643-4.5-4.56237 0-2.519728 2.014719-4.562371 4.5-4.562371 2.485282 0 4.5 2.042643 4.5 4.562371 0 2.519727-2.014718 4.56237-4.5 4.56237zm0-1.52079c1.656854 0 3-1.361762 3-3.04158 0-1.679819-1.343146-3.041581-3-3.041581s-3 1.361762-3 3.041581c0 1.679818 1.343146 3.04158 3 3.04158zm-5 3.396049s-1 .5-1.5 0 0-1.5 0-1.5 2-2.5 3-1.5-1.5 3-1.5 3z" fill="#212121"/>
      <path fill="#909090" d="M60 300h18v12H60z"/>
      <path d="M63 317v-3h-1v-1h3v1h-1v3h1v1h-3v-1h1zm-2-4h1v2h-1v-2zm4 0h1v2h-1v-2zm2 2h10v1H67v-1z" fill="#212121"/>
      <g fill="#7AA5CC">
        <path d="M72.4639 338.3984l-2.496-.193-.956-2.272-.959 2.272-2.496.193 1.905 1.596-.584 2.39 2.134-1.285 2.134 1.285-.585-2.39"/>
        <path d="M62 347h14v-15H62v15zm1-.999h12V333H63v13.001z"/>
      </g>
      <path fill="#B6D6F2" d="M59 358.9999v7l2-2 5 5v-3h3l-5-5 2-2m34.0004 0l2 2-5.001 5h3.001v3l5-5 1.999 2v-7m-6.999 27.9999h-3.001l5.001 5-2 2h6.999v-7l-1.999 2-5-5m-39.0006 4.9998l-2-2v7h7l-1.999-1.999 4.999-5.001h-3v-2.999"/>
      <path d="M93 375c-1.104 0-2-.896-2-2 0-1.105.896-2 2-2 1.105 0 2 .895 2 2 0 1.104-.895 2-2 2zm-2 7l-3-3 2-2 5 5h-4zm-6 0H71l9-9 9 9h-4zm-17 3h30v-17H68v17zm61.000925-.9993c-1.5-1.5 0-3 0-3l12-12s1.5-1.5 3 0 0 3 0 3l-12 12s-1.5 1.5-3 0zm22.6563-22.6577c3.124 3.124 3.125 8.188 0 11.313-.521.52-2.479 2.48-3 3-2.021 2.021-4.852 2.726-7.445 2.134l2.939-2.94c.873-.206 1.704-.634 2.385-1.315l3-3c1.953-1.953 1.953-5.119 0-7.071s-5.118-1.953-7.071 0l-3 3c-.682.682-1.111 1.515-1.317 2.389l-2.937 2.938c-.594-2.595.11-5.427 2.131-7.449.521-.52 2.482-2.48 3.002-2.999 3.123-3.124 8.189-3.124 11.313 0zm-16.8056 22.8071l2.938-2.939c.594 2.594-.111 5.425-2.132 7.446-.521.52-2.48 2.48-3 3-3.125 3.125-8.191 3.124-11.315 0-3.123-3.123-3.124-8.19 0-11.315.521-.52 2.482-2.479 3.001-2.999 2.021-2.021 4.853-2.726 7.447-2.132l-2.937 2.937c-.874.206-1.707.635-2.389 1.316l-3 3c-1.953 1.954-1.953 5.119 0 7.072 1.952 1.953 5.118 1.953 7.072 0l3-3c.68-.681 1.109-1.513 1.315-2.386z" fill="#284259"/>
      <path d="M92 347h14v-15H92v15zm1-.999h12V333H93v13.001zm31 .999h10v-15h-10v15zm1-.999h8V333h-8v13.001zM152 345h14v-11h-14v11zm1-1h12v-9h-12v9z" fill="#7AA5CC"/>
      <path d="M189 346c-3.865993 0-7-3.134007-7-7s3.134007-7 7-7 7 3.134007 7 7-3.134007 7-7 7zm0-1c3.313708 0 6-2.686292 6-6s-2.686292-6-6-6-6 2.686292-6 6 2.686292 6 6 6zm-.5-10.002301c0-.274872.231934-.497699.5-.497699.276142 0 .5.214844.5.497699V339.5h-1v-4.502301zm1 3.502301h2.504611c.273596 0 .495389.231934.495389.5 0 .276142-.215753.5-.495389.5H189.5v-1zM184 364v.990631c0 .566016.447715 1.009369 1 1.009369.556135 0 1-.45191 1-1.009369V364h1v1.5c0 .828427-.678545 1.5-1.500833 1.5h-.998334C183.671946 367 183 366.334203 183 365.5V364h1v-.990631c0-.557459.443865-1.009369 1-1.009369.552285 0 1 .443353 1 1.009369V364h10v12h-14v-12h2zm-1 4v7h12v-7h-12zm8-4v1.5c0 .834203.671946 1.5 1.500833 1.5h.998334c.822288 0 1.500833-.671573 1.500833-1.5V364h-4zm1-.990631c0-.557459.443865-1.009369 1-1.009369.552285 0 1 .443353 1 1.009369v1.981262C194 365.54809 193.556135 366 193 366c-.552285 0-1-.443353-1-1.009369v-1.981262zM90 306h18v12H90z" fill="#909090"/>
      <path d="M93 304v-3h-1v-1h3v1h-1v3h1v1h-3v-1h1zm-2-4h1v2h-1v-2zm4 0h1v2h-1v-2zm2 2h10v1H97v-1z" fill="#212121"/>
      <path fill="#909090" d="M0 300h5v18H0z"/>
      <path d="M8 308v-3H7v-1h3v1H9v3h1v1H7v-1h1zm-2-4h1v2H6v-2zm4 0h1v2h-1v-2zm2 3h6v1h-6v-1zm0-2h6v1h-6v-1zm-6 5h12v1H6v-1zm0 2h12v1H6v-1zm0 2h7v1H6v-1z" fill="#212121"/>
      <g opacity=".90000004" fill="#212121">
        <path d="M8 337c-1.104 0-2 .896-2 2s.896 2 2 2c1.105 0 2-.896 2-2s-.895-2-2-2"/>
        <path d="M11 336v-3H4v12h10v-9h-3zm1 8l-2.445-2.445C9.1 341.832 8.571 342 8 342c-1.656 0-3-1.343-3-3s1.344-3 3-3 3 1.343 3 3c0 .571-.168 1.1-.445 1.555L13 343l-1 1z"/>
      </g>
      <g opacity=".90000004" transform="translate(3 363)">
        <use stroke="#212121" mask="url(#s)" stroke-width="2" xlink:href="#c"/>
        <path fill="#212121" d="M2 10l5-5 3 3v2"/>
        <circle fill="#212121" cx="3.5" cy="3.5" r="1.5"/>
      </g>
      <path d="M9 393v2s5 0 5 5c0 0 0 5-5 5s-5-5-5-5h2s0 3 3 3c0 0 3 0 3-3s-3-3-3-3v2l-4-3 4-3zm0 30v2s-5 0-5 5c0 0 0 5 5 5s5-5 5-5h-2s0 3-3 3c0 0-3 0-3-3s3-3 3-3v2l4-3-4-3z" fill="#212121"/>
      <path fill="#909090" d="M43 300h5v18h-5z"/>
      <path d="M32 308v-3h-1v-1h3v1h-1v3h1v1h-3v-1h1zm-2-4h1v2h-1v-2zm4 0h1v2h-1v-2zm2 3h6v1h-6v-1zm0-2h6v1h-6v-1zm-6 5h12v1H30v-1zm0 2h12v1H30v-1zm0 2h7v1h-7v-1zm3-39h-1v1h3v-1h-1v-3h1v-1h-3v1h1v3zm-3-5h18v18H30v-18zm1 7v10h16v-10H31zm0-6v2h1v-2h-1zm4 0v2h1v-2h-1zm2 2v1h10v-1H37zm26 13h-1v1h3v-1h-1v-3h1v-1h-3v1h1v3zm-3-16h18v18H60v-18zm1 1v10h16v-10H61zm0 11v2h1v-2h-1zm4 0v2h1v-2h-1zm2 2v1h10v-1H67zm26-9h-1v1h3v-1h-1v-3h1v-1h-3v1h1v3zm-3-5h18v18H90v-18zm1 1v2h1v-2h-1zm4 0v2h1v-2h-1zm2 2v1h10v-1H97zm26 7h-1v1h3v-1h-1v-3h1v-1h-3v1h1v3zm-3-10h18v18h-18v-18zm1 6v2h1v-2h-1zm4 0v2h1v-2h-1zm2 2v1h10v-1h-10zm26 8h-1v1h3v-1h-1v-3h1v-1h-3v1h1v3zm-3-16h18v18h-18v-18zm1 12v2h1v-2h-1zm4 0v2h1v-2h-1zm2 2v1h10v-1h-10z" fill="#212121"/>
      <path d="M6 273H3c-2 0-2 3-2 3H0v-6h16v6h-.408c-.198-.119-.401-.227-.611-.326-.066-.775-.391-2.674-1.983-2.674H10v2.294c-1.691.503-3.11 1.631-4 3.114V273zm-.6191 11.2632c.213.623.509 1.207.879 1.737h-3.26v-1.003c1.232.001 1.953-.337 2.381-.734z" fill="#909090"/>
      <path d="M12 286c-.849 0-1.633-.269-2.28-.72l5.56-5.56c.451.647.72 1.431.72 2.28 0 2.209-1.791 4-4 4m0-8c.849 0 1.633.269 2.28.72l-5.56 5.56c-.451-.647-.72-1.431-.72-2.28 0-2.209 1.791-4 4-4m0-2c-3.314 0-6 2.686-6 6s2.686 6 6 6c3.313 0 6-2.686 6-6s-2.687-6-6-6" fill="#212121"/>
      <path d="M43.0646 338.9358c-.354.953-.91 1.809-1.615 2.514l3.55 3.55h-10l1.5-1.5c-1.275 0-2.47-.341-3.5-.936v2.43c0 1.108.898 2.006 2.006 2.006h9.989c1.107 0 2.005-.897 2.005-2.006v-9.988c0-1.108-.897-2.006-2.005-2.006h-2.431c.517.894.842 1.913.919 3h.017c.829 0 1.5.672 1.5 1.5 0 .829-.671 1.5-1.5 1.5-.151 0-.297-.022-.435-.064" fill="#7C98B4"/>
      <path d="M36.4957 340.3755v1.146l-2.292-2.063 2.292-2.062v1.375c1.266 0 2.292-1.026 2.292-2.292 0-.25-.04-.491-.115-.716l1.325-.993c.252.516.394 1.096.394 1.709 0 2.152-1.744 3.896-3.896 3.896m-3.901-3.876c0-2.152 1.744-3.896 3.896-3.896v-1.146l2.291 2.063-2.291 2.062v-1.375c-1.266 0-2.292 1.026-2.292 2.292 0 .25.04.491.114.716l-1.324.993c-.252-.516-.394-1.096-.394-1.709m3.905-5.5c-3.037 0-5.5 2.463-5.5 5.5 0 3.038 2.463 5.5 5.5 5.5 3.038 0 5.5-2.462 5.5-5.5 0-3.037-2.462-5.5-5.5-5.5M32 404h14v-10H32v10zm-1 1h16v-12H31v12z" fill="#24394F"/>
      <path d="M41.5 398c-.828 0-1.5-.672-1.5-1.5s.672-1.5 1.5-1.5 1.5.672 1.5 1.5-.672 1.5-1.5 1.5zm-6.5 5l3-5 3 5h-6zm-1 1h10v-10H34v10zm8.9991-36.0356c-1.105 0-2-.895-2-2s.895-2 2-2c1.104 0 2 .895 2 2s-.896 2-2 2zm-9.999 6.036l5-7 5.062 7h-10.062zm-1 2h14v-14h-14v14zM43 427c-1.105 0-2-.895-2-2s.895-2 2-2 2 .895 2 2-.895 2-2 2zm-10 7l5-7 5 7H33zm-1 3h14v-16H32v16z" fill="#7C98B4"/>
      <path d="M32 434h14v-10H32v10zm-1 1h16v-12H31v12z" fill="#24394F"/>
      <path d="M59 437h20v-5H59m1-1h11v-1H60m-1-2h20v-5H59m1-1h13v-1H60" fill="#7AA5CC"/>
      <path d="M71 464v1h-4v-1h-8s0 2 2 2h16c2 0 2-2 2-2h-8zm5-2H62v-8c0-1 1-1 1-1h12s1 0 1 1v8zm1-8s0-2-2-2H63c-2 0-2 2-2 2v9h16v-9z" fill="#7C9DBF"/>
      <path d="M67 461h-4v-6s-.002-1 .999-1H67v7z" fill="#00CF8B"/>
      <path d="M101 464v1h-4v-1h-8s0 2 2 2h16c2 0 2-2 2-2h-8zm5-2H92v-8c0-1 1-1 1-1h12s1 0 1 1v8zm1-8s0-2-2-2H93c-2 0-2 2-2 2v9h16v-9z" fill="#7C9DBF"/>
      <path d="M101 461h4v-6s.002-1-.999-1H101v7z" fill="#00CF8B"/>
      <path d="M131 464v1h-4v-1h-8s0 2 2 2h16c2 0 2-2 2-2h-8zm5-2h-14v-8c0-1 1-1 1-1h12s1 0 1 1v8zm1-8s0-2-2-2h-12c-2 0-2 2-2 2v9h16v-9z" fill="#7C9DBF"/>
      <path d="M135 458h-12v-3.001s0-.999 1-.999h10c1 0 1 .999 1 .999V458z" fill="#00CF8B"/>
      <path d="M161 464v1h-4v-1h-8s0 2 2 2h16c2 0 2-2 2-2h-8zm5-2h-14v-8c0-1 1-1 1-1h12s1 0 1 1v8zm1-8s0-2-2-2h-12c-2 0-2 2-2 2v9h16v-9z" fill="#7C9DBF"/>
      <path d="M165 461h-12v-6.001s0-.999 1-.999h10c1 0 1 .999 1 .999V461z" fill="#00CF8B"/>
      <path fill="#7AA5CC" d="M89 436h20v-5H89m0-4h20v-5H89"/>
      <path fill="#F2F9FF" d="M90 425h13.001v-1H90m0 10h11v-1H90"/>
      <path d="M127 436h12v-5h-12m0-4h12v-5h-12m-8 2h7v-1h-7m3 3h4v-1h-4m-3 8h7v-1h-7m3 3h4v-1h-4" fill="#7AA5CC"/>
      <path d="M32 487c-1.105 0-2 .895-2 2s.895 2 2 2 2-.895 2-2-.895-2-2-2m7 0c-1.105 0-2 .895-2 2s.895 2 2 2 2-.895 2-2-.895-2-2-2m7 0c-1.105 0-2 .895-2 2s.895 2 2 2 2-.895 2-2-.895-2-2-2" fill="#1F1F1F"/>
      <path d="M32 457c-1.105 0-2 .895-2 2s.895 2 2 2 2-.895 2-2-.895-2-2-2m7 0c-1.105 0-2 .895-2 2s.895 2 2 2 2-.895 2-2-.895-2-2-2m7 0c-1.105 0-2 .895-2 2s.895 2 2 2 2-.895 2-2-.895-2-2-2" fill="#7C98B4"/>
      <path d="M32 518c-1.105 0-2 .895-2 2s.895 2 2 2 2-.895 2-2-.895-2-2-2m7 0c-1.105 0-2 .895-2 2s.895 2 2 2 2-.895 2-2-.895-2-2-2m7 0c-1.105 0-2 .895-2 2s.895 2 2 2 2-.895 2-2-.895-2-2-2" fill="#FFF"/>
      <g transform="translate(0 481)">
        <mask id="u" fill="#fff">
          <use xlink:href="#t"/>
        </mask>
        <path fill="#C8D2DB" mask="url(#u)" d="M-4 19h20V-5H-4"/>
      </g>
      <path d="M15.7501 493h1.25v2c0 1-1.001 2-2 2h-3.001c-.999 0-1.999-1-1.999-2v-2h1.25-.25v-1.5c0-1.381 1.119-2.5 2.5-2.5s2.5 1.119 2.5 2.5v1.5h-.25zm-.75-1.5c0-.828-.672-1.5-1.5-1.5-.829 0-1.5.672-1.5 1.5v1.5h3v-1.5z" fill="#D45F60"/>
      <g transform="translate(10 489)">
        <mask id="w" fill="#fff">
          <use xlink:href="#v"/>
        </mask>
        <path fill="#D45F60" mask="url(#w)" d="M-5 13h17V-5H-5"/>
      </g>
      <path d="M6 513c-2.761 0-5 2.239-5 5h2c0-1.657 1.343-3 3-3v-2zm4 1l-4 3v-6l4 3zm-9 5h2v-1H1v1zm5 4c2.761 0 5-2.239 5-5H9c0 1.657-1.343 3-3 3v2zm0 2l-4-3 4-3v6zm3-7h2v-1H9v1z" fill="#9CB1C5"/>
      <g transform="translate(0 511)">
        <mask id="y" fill="#fff">
          <use xlink:href="#x"/>
        </mask>
        <path fill="#9CB1C5" mask="url(#y)" d="M-4 19h20V-5H-4"/>
      </g>
      <path d="M11.2499 523h-1.25v2c0 1 1 2 1.999 2h3.001c.999 0 2-1 2-2v-2h-5v-1.5c0-.828.672-1.5 1.5-1.5.653 0 1.209.417 1.415 1h1.035c-.231-1.141-1.24-2-2.45-2-1.381 0-2.5 1.119-2.5 2.5v1.5h.25z" fill="#54B2FF"/>
      <g transform="translate(10 519)">
        <mask id="A" fill="#fff">
          <use xlink:href="#z"/>
        </mask>
        <path fill="#54B2FF" mask="url(#A)" d="M-5 13h17V-5H-5"/>
      </g>
      <path d="M12.9995 580l-2 3-4-6-6 9 16 .001m-3-10.001c1.104 0 2-.896 2-2s-.896-2-2-2-2 .896-2 2 .896 2 2 2M2.5533 612.1168c-1.628-1.075-2.553-2.523-2.553-4.117 0-3.314 1-6 8-6s10 2.686 10 6-2 6-8 6c-1.49 0-2.857-.165-4.069-.465l-4.931 2.465 1.553-3.883zm37.6391-39.4097h-1.414l-7.778 7.778 5.657 5.657 1.414-1.414-4.95-4.95 7.071-7.071zm-5.657 7.071l7.778-7.778h5.657v5.657l-7.778 7.778-5.657-5.657zm11.314-4.243c.39-.39.39-1.023 0-1.414-.391-.39-1.024-.39-1.414 0-.391.391-.391 1.024 0 1.414.39.391 1.023.391 1.414 0zM34 545h2v-2h-6v2h2v4h2v-4zm3 1h11v-1H37v1zm0 3h11v-1H37v1zm-7 3h18v-1H30v1zm0 3h14v-1H30v1zm-14 1c0-5-3-5-7-5s-7 0-7 5h14zm-7-7c2.209 0 4-1.791 4-4s-1.791-4-4-4-4 1.791-4 4 1.791 4 4 4zm31 62c0-.6.4-1 1-1h5c.6 0 1 .4 1 1v5c0 .6-.4 1-1 1h-5c-.6 0-1-.4-1-1v-5zm-2-3v8c0 .6-.4 1-1 1h-5c-.6 0-1-.5-1-1v-13c0-1.1.9-2 2-2h13c.6 0 1 .4 1 1v5c0 .6-.4 1-1 1h-8zm-1 0v-1h9v-5H33c-.5 0-1 .4-1 1v13h5v-8z" fill="#1FCD8F"/>
    </g>
    <path d="M497.0004 48.998l3 3.001h-2.08c-.486 3.392-3.395 6-6.92 6-2.445 0-4.595-1.255-5.847-3.154l1.472-1.472c.847 1.558 2.477 2.626 4.375 2.626 2.419 0 4.435-1.717 4.898-4h-1.898l3-3.001zm-10.8994 1.001H488l-3 3-3-3h2.08C484.566 46.608 487.475 44 491 44c2.445 0 4.594 1.255 5.846 3.154l-1.472 1.471C494.528 47.068 492.897 46 491 46c-2.419 0-4.435 1.717-4.899 3.999z" fill="#212121"/>
    <path fill="#000" d="M521 50h-1v1l2 2h1l2-2v-1h-1l-1.5811388 1.58113883M521 85l1.4188612 1.5811388L524 85h1v1l-2 2h-1l-2-2v-1h1zm3-4l-1.4188612-1.5811388L521 81h-1v-1l2-2h1l2 2v1h-1z"/>
    <path d="M493.0017 88.9997l-3.001 3v-2.08c-3.392-.486-6-3.395-6-6.92 0-2.445 1.255-4.595 3.154-5.847l1.472 1.472c-1.558.847-2.626 2.477-2.626 4.375 0 2.419 1.717 4.435 4 4.898v-1.898l3.001 3zm-1.001-10.8994v1.899l-3-3 3-3v2.08c3.391.486 5.999 3.395 5.999 6.92 0 2.445-1.255 4.594-3.154 5.846l-1.471-1.472c1.557-.846 2.625-2.477 2.625-4.374 0-2.419-1.717-4.435-3.999-4.899zm.5834584 41.9092318c-3.54337145 0-6.41584157-2.9122829-6.41584157-6.5047659 0-3.592483 2.87247012-6.5047659 6.41584157-6.5047659C496.1275299 107 499 109.9122829 499 113.5047659c0 3.592483-2.8724701 6.5047659-6.4158416 6.5047659zm0-2.1682553c2.3622477 0 4.2772277-1.9415219 4.2772277-4.3365106 0-2.3949887-1.91498-4.3365106-4.2772277-4.3365106-2.3622476 0-4.2772277 1.9415219-4.2772277 4.3365106 0 2.3949887 1.9149801 4.3365106 4.2772277 4.3365106zm-7.12871286 4.8418918s-1.42574257.7128713-2.13861386 0c-.71287128-.7128713 0-2.1386138 0-2.1386138s2.85148515-3.5643565 4.27722773-2.1386139-2.1386138 4.2772277-2.1386138 4.2772277zM484 147c0-3.867 3.134-7 7-7s7 3.133 7 7c0 3.866-3.134 7-7 7s-7-3.134-7-7zm7 4l.8348703-5.009222c.0911986-.547192-.2782235-.990778-.8442392-.990778h-1.9812622C488.45190985 145 488 145.453186 488 146h2l-.83487034 5.009222c-.0911986.547192.27822352.990778.84423924.990778h1.9812622C492.5480902 152 493 151.546814 493 151h-2zm.25-7c.6903559 0 1.25-.5596441 1.25-1.25s-.5596441-1.25-1.25-1.25-1.25.5596441-1.25 1.25.5596441 1.25 1.25 1.25z" fill="#212121"/>
    <path d="M524 210v-2.00297c0-.543994-.4477153-.99703-1-.99703-.5561352 0-1 .446386-1 .99703V210h-2.0029699c-.5439938 0-.9970301.447715-.9970301 1 0 .556135.4463856 1 .9970301 1H522v2.00297c0 .543994.4477153.99703 1 .99703.5561352 0 1-.446386 1-.99703V212h2.0029699c.5439938 0 .9970301-.447715.9970301-1 0-.556135-.4463856-1-.9970301-1H524z" fill="#909090"/>
    <path d="M524 242v-2.00297c0-.543994-.4477153-.99703-1-.99703-.5561352 0-1 .446386-1 .99703V242h-2.0029699c-.5439938 0-.9970301.447715-.9970301 1 0 .556135.4463856 1 .9970301 1H522v2.00297c0 .543994.4477153.99703 1 .99703.5561352 0 1-.446386 1-.99703V244h2.0029699c.5439938 0 .9970301-.447715.9970301-1 0-.556135-.4463856-1-.9970301-1H524zm-1.394043 33.443848L521 273.827148 521.8164062 273l1.6166993 1.605957L525.0712891 273l.8217773.805664-1.6381836 1.638184 1.6166992 1.627441-.8002929.816406-1.6381836-1.616699-1.6166993 1.605957-.805664-.816406" fill="#FFF"/>
    <path d="M527.5 179c.8284271 0 1.5-.67157288 1.5-1.5s-.6715729-1.5-1.5-1.5-1.5.67157288-1.5 1.5.6715729 1.5 1.5 1.5zm-8.17955453 1.93922043L518 183.25v.7523136c0 .551007.45576096.9976864 1.0024733.9976864h9.9950534C529.5511774 185 530 184.5487213 530 183.9910126V183.75l-3-3.75-2 3-2.76795043-3.45993804c-.79072572.73079968-1.79644337 1.2323688-2.9116041 1.39915847zM523.4002904 173h5.590232C530.652611 173 532 174.34237885 532 176.00335124v7.99329756C532 185.6553538 530.6633689 187 528.9905224 187h-9.98104478C517.34738902 187 516 185.6576211 516 183.9966488v-3.5963584c.31679294.16194298.65136.29406908 1 .3926771v3.2036813C517 185.1039796 517.8983166 186 519.00947762 186h9.98104478C530.1072714 186 531 185.1068834 531 183.9966488v-7.99329756C531 174.8960204 530.1016834 174 528.9905224 174h-5.1975549c-.09860802-.34864-.23073412-.68320706-.3926771-1z" fill="#909090" fill-rule="nonzero"/>
    <path d="M519 175v-1.50230122C519 173.21484375 518.77614237 173 518.5 173c-.2680664 0-.5.22282734-.5.49769878V175h-1.50230122c-.28285503 0-.49769878.22385763-.49769878.5 0 .2680664.22282734.5.49769878.5H518v1.50230122c0 .28285503.22385763.49769878.5.49769878.2680664 0 .5-.22282734.5-.49769878V176h1.50230122c.28285503 0 .49769878-.22385763.49769878-.5 0-.2680664-.22282734-.5-.49769878-.5H519zm-.5 5c-2.48528137 0-4.5-2.01471863-4.5-4.5s2.01471863-4.5 4.5-4.5 4.5 2.01471863 4.5 4.5-2.01471863 4.5-4.5 4.5z" fill="#212121"/>
    <g transform="translate(515 140)">
      <circle fill="#1691FB" cx="7.5" cy="7.5" r="7.5"/>
      <path fill="#FFF" opacity=".90000004" d="M4 7l3 3 4-4-1-1-3 3-2-2"/>
    </g>
    <path d="M491 172c-3.866 0-7 3.134-7 7s3.134 7 7 7 7-3.134 7-7-3.134-7-7-7" fill="#CD1F1F"/>
    <path fill="#FFF" d="M494 177l-2 2 2 2v1h-1l-2-2-2 2h-1v-1l2-2-2-2v-1h1l2 2 2-2h1"/>
    <path d="M490.9996005 214c-1.36099996 0-1.45399996-4.963-1.45399996-5.516 0-.552.454-1.484 1.45399996-1.484 1 0 1.439.932 1.439 1.484 0 .553-.079 5.516-1.439 5.516m0 4c-.966 0-1.74999996-.784-1.74999996-1.749 0-.967.78399996-1.751 1.74999996-1.751.967 0 1.75.784 1.75 1.751 0 .965-.783 1.749-1.75 1.749m0-14c-2.39999996 0-6.77099996 9.984-7.73699996 11.984-.968 2.001.982 3.016 1.934 3.016h11.60599996c.966 0 2.901-1.015 1.933-3.016-.967-2-5.337-11.984-7.736-11.984" fill="#D45F60"/>
    <path d="M487.75 241.25c-.828 0-1.5-.671-1.5-1.5s.672-1.5 1.5-1.5 1.5.671 1.5 1.5-.672 1.5-1.5 1.5m9.5 1.875c-1-1.001-7-7.125-7-7.125H484v6.25s6.125 6.001 7.125 7c1 .999 2.062 1.001 3.062 0s2.032-2.063 3.032-3.063c1-.999 1.031-2.061.031-3.062" fill="#262626"/>
    <path fill="#F2B530" d="M496 266.0003v13.999h-14v6.001h19.999v-20"/>
    <path d="M492 309h-2c0-3 2.331-2.438 2.331-4.125 0-.858-.331-1.196-1.331-1.196-1.484 0-1.443 1.321-1.443 1.321h-1.914c0-1 .857-3 3.357-3 2.297 0 3.357 1.266 3.357 3 0 1.999-2.357 2-2.357 4zm-2 3.001h2v-2h-2v2zM491 300c-3.866 0-7 3.134-7 7s3.134 7 7 7 7-3.134 7-7-3.134-7-7-7z" fill="#212121"/>
    <path d="M523 312c-2.7614237 0-5-2.238576-5-5s2.2385763-5 5-5 5 2.238576 5 5-2.2385763 5-5 5zm-1-7.501228v3.502456c0 .281728.2238576.498772.5.498772h.5v-4.001228c0-.281728-.2238576-.498772-.5-.498772-.2680664 0-.5.223308-.5.498772zM523 307.5v1h2.504611c.2796364 0 .495389-.223858.495389-.5 0-.268066-.2217932-.5-.495389-.5H523zm1.65685374 27.62132063l2.12132034 2.12132034-5.8890872 5.8890872-2.82842713.7071068.70710678-2.82842714 5.8890872-5.8890872zm1.41421356-1.41421357c.39052447-.39052446 1.02011488-.39409868 1.4134757-.00073786l.70858244.70858244c.39011682.39011682.39250903 1.02022894-.0007378 1.41347577l-.70710678.7071068-2.12132034-2.1213203.70710678-.7071068z" fill="#72848D"/>
    <path d="M495 328c13.5 0 15 1.607143 15 11.25s-1.5 11.25-15 11.25-15-1.607143-15-11.25S481.5 328 495 328zm-4.5 6.75v9l12-4.5-12-4.5z" fill-opacity=".84999996" fill="#FFF"/>
    <path d="M663 44h12c1.656 0 3 1.343 3 3v9c0 1.657-1.344 3-3 3h-12c-1.656 0-3-1.343-3-3v-9c0-1.657 1.344-3 3-3" fill="#212121"/>
    <path d="M667 55l1 1 3-8-1-1-3 8zm6-6l-1 1 3 1.5-3 1.5 1 1 3-2v-1l-3-2zm-8 0l-3 2v1l3 2 1-1-3-1.5 3-1.5-1-1z" fill="#1FCD8F"/>
    <path d="M667.9997 78.0002l-1 1v1h-2v1h9v-1h-1.999v-1l-1-1h-3.001zm1 1h1.001l1 1h-3.001l1-1zm3.0005 2.9996h1v6l-1 1h-5l-1-1v-6h1v6h.999v-6h1v6h1.001v-6h1v6h1v-6z" fill="#DC0000"/>
    <path d="M663 122h11v-1h-11m8.0001-13.0004l-2 2.001 3 2.999 2-1.999M663 115.9997v3.001h3l5-5.001-3-2.999-5 4.999zm1 0l1-1 2 2-1 1.001h-2v-2.001z" fill="#618098"/>
    <path d="M667 146v-3c0-1.105.895-2 2-2 1.104 0 2 .895 2 2v3h-4zm3 4.723V152c0 .552-.447 1-1 1-.553 0-1-.448-1-1v-1.277c-.596-.347-1-.985-1-1.723 0-1.105.895-2 2-2 1.104 0 2 .895 2 2 0 .738-.404 1.376-1 1.723zm3-4.723v-3c0-2.209-1.791-4-4-4s-4 1.791-4 4v3h-1v5.999s0 2.001 2 2.001h5.999c1.999 0 2.001-2.001 2.001-2.001V146h-1zm-3 36.7227v1.277c0 .552-.447 1-1 1-.553 0-1-.448-1-1v-1.277c-.596-.347-1-.984-1-1.723 0-1.104.895-2 2-2 1.104 0 2 .896 2 2 0 .739-.404 1.376-1 1.723zm1-4.723h-4v-3c0-1.104.895-2 2-2 1.104 0 2 .896 2 2v1h2v-1c0-2.209-1.791-4-4-4s-4 1.791-4 4v3h-1v6s0 2 2 2h5.999c1.999 0 2.001-2 2.001-2v-6h-3z" fill="#212121"/>
    <path fill="#263A4D" d="M709 107v2h-4v4h-2v-6m16 6h-2v-4h-4v-2h6m-6 16v-2h4v-4h2v6m-16-6h2v4h4v2h-6"/>
    <path fill="#FFF" d="M709 139v2h-4v4h-2v-6m16 6h-2v-4h-4v-2h6m-6 16v-2h4v-4h2v6m-16-6h2v4h4v2h-6"/>
    <g transform="translate(701 42)">
      <path d="M121.001 80s4.999.001 4.999-5c0-5-4.999-5-4.999-5H113l2.998-3-.997-1-6.002 4.999L115.001 76l.997-1.001L113 72h8.001s2.999.001 2.999 3c0 3-2.999 3-2.999 3H112v2h9.001z" fill="#263A4D"/>
      <path d="M121.001 112s4.999.001 4.999-5c0-5-4.999-5-4.999-5H113l2.998-3-.997-1-6.002 4.999 6.002 5.001.997-1.001L113 104h8.001s2.999.001 2.999 3c0 3-2.999 3-2.999 3H112v2h9.001z" fill="#FFF"/>
      <path d="M15 138h-2v2h1c.553 0 1 .448 1 1v3c0 .552-.447 1-1 1H6c-.553 0-1-.448-1-1v-3c0-.552.447-1 1-1h1v-2H5c-1.105 0-2 .896-2 2v5c0 1.104.895 2 2 2h10c1.104 0 2-.896 2-2v-5c0-1.104-.896-2-2-2" fill="#263A4D"/>
      <path fill="#263A4D" d="M9 131.002V143h2v-12l4 5.001 2-.999-6.999-8-7 8 1.999.999"/>
      <path d="M15 170h-2v2h1c.553 0 1 .448 1 1v3c0 .552-.447 1-1 1H6c-.553 0-1-.448-1-1v-3c0-.552.447-1 1-1h1v-2H5c-1.105 0-2 .896-2 2v5c0 1.104.895 2 2 2h10c1.104 0 2-.896 2-2v-5c0-1.104-.896-2-2-2" fill="#FFF"/>
      <path fill="#FFF" d="M9 163.002V175h2v-12l4 5.001 2-.999-6.999-8-7 8 1.999.999"/>
      <path fill="#263A4D" d="M124 131l2 2-10 10-6-6 2-2 4 4"/>
      <path fill="#FFF" d="M124 163l2 2-10 10-6-6 2-2 4 4"/>
      <path d="M10 208c-.553 0-1-.448-1-1s.447-1 1-1c.552 0 1 .448 1 1s-.448 1-1 1m0-3c-1.106 0-2 .896-2 2s.894 2 2 2c1.103 0 2-.896 2-2s-.897-2-2-2m-6 0c-1.105 0-2 .896-2 2s.895 2 2 2c1.104 0 2-.896 2-2s-.896-2-2-2m12 3c-.553 0-1-.448-1-1s.447-1 1-1c.553 0 1 .448 1 1s-.447 1-1 1m0-3c-1.105 0-2 .896-2 2s.895 2 2 2c1.104 0 2-.896 2-2s-.896-2-2-2" fill="#263A4D"/>
      <mask id="C" fill="#fff">
        <use xlink:href="#B"/>
      </mask>
      <path fill="#263A4D" mask="url(#C)" d="M3 203h2v-9H3m4 7h8v-5H7v5zm-1 1h10v-7H6v7zm4 70c-.553 0-1-.448-1-1s.447-1 1-1c.552 0 1 .448 1 1s-.448 1-1 1m0-3c-1.106 0-2 .896-2 2s.894 2 2 2c1.103 0 2-.896 2-2s-.897-2-2-2m6 0c-1.105 0-2 .896-2 2s.895 2 2 2c1.104 0 2-.896 2-2s-.896-2-2-2m-12 3c-.553 0-1-.448-1-1s.447-1 1-1c.553 0 1 .448 1 1s-.447 1-1 1m0-3c-1.105 0-2 .896-2 2s.895 2 2 2c1.104 0 2-.896 2-2s-.896-2-2-2m11-2h2v-9h-2m-11 7h8v-5H4v5zm-1 1h10v-7H3v7zm1-26c-.553 0-1-.448-1-1s.447-1 1-1c.553 0 1 .448 1 1s-.447 1-1 1m0-3c-1.105 0-2 .896-2 2s.895 2 2 2c1.104 0 2-.896 2-2s-.896-2-2-2m6 0c-1.105 0-2 .896-2 2s.895 2 2 2c1.104 0 2-.896 2-2s-.896-2-2-2m6 3c-.553 0-1-.448-1-1s.447-1 1-1c.553 0 1 .448 1 1s-.447 1-1 1m0-3c-1.105 0-2 .896-2 2s.895 2 2 2c1.104 0 2-.896 2-2s-.896-2-2-2m-13-2h2v-9H3m12 9h2v-9h-2m-8 7h6v-5H7v5zm-1 1h8v-7H6v7z"/>
      <path d="M118 208c-.553 0-1-.448-1-1s.447-1 1-1c.552 0 1 .448 1 1s-.448 1-1 1m0-3c-1.106 0-2 .896-2 2s.894 2 2 2c1.103 0 2-.896 2-2s-.897-2-2-2m-6 0c-1.105 0-2 .896-2 2s.895 2 2 2c1.104 0 2-.896 2-2s-.896-2-2-2m12 3c-.553 0-1-.448-1-1s.447-1 1-1c.553 0 1 .448 1 1s-.447 1-1 1m0-3c-1.105 0-2 .896-2 2s.895 2 2 2c1.104 0 2-.896 2-2s-.896-2-2-2m-13-2h2v-9h-2m4 7h8v-5h-8v5zm-1 1h10v-7h-10v7zm4 70c-.553 0-1-.448-1-1s.447-1 1-1c.552 0 1 .448 1 1s-.448 1-1 1m0-3c-1.106 0-2 .896-2 2s.894 2 2 2c1.103 0 2-.896 2-2s-.897-2-2-2m6 0c-1.105 0-2 .896-2 2s.895 2 2 2c1.104 0 2-.896 2-2s-.896-2-2-2m-12 3c-.553 0-1-.448-1-1s.447-1 1-1c.553 0 1 .448 1 1s-.447 1-1 1m0-3c-1.105 0-2 .896-2 2s.895 2 2 2c1.104 0 2-.896 2-2s-.896-2-2-2m11-2h2v-9h-2m-11 7h8v-5h-8v5zm-1 1h10v-7h-10v7zm1-26c-.553 0-1-.448-1-1s.447-1 1-1c.553 0 1 .448 1 1s-.447 1-1 1m0-3c-1.105 0-2 .896-2 2s.895 2 2 2c1.104 0 2-.896 2-2s-.896-2-2-2m6 0c-1.105 0-2 .896-2 2s.895 2 2 2c1.104 0 2-.896 2-2s-.896-2-2-2m6 3c-.553 0-1-.448-1-1s.447-1 1-1c.553 0 1 .448 1 1s-.447 1-1 1m0-3c-1.105 0-2 .896-2 2s.895 2 2 2c1.104 0 2-.896 2-2s-.896-2-2-2m-13-2h2v-9h-2m12 9h2v-9h-2m-8 7h6v-5h-6v5zm-1 1h8v-7h-8v7zM9.001 303H15v-6l-2 2-4.999-4.999 1.999-2H4.001V298l2-1.999L11 301" fill="#FFF" mask="url(#C)"/>
      <path d="M15 324.999l-4.999 4v-3s-3.999 0-3.999 4c0 3.999 3.999 3.999 3.999 3.999s3.999 0 3.999-3.999c0 0 0-1 1-1s1 1 1 1 0 5.999-5.999 5.999c0 0-5.999 0-5.999-5.999S10.001 324 10.001 324v-3L15 324.999z" fill="#263A4D" mask="url(#C)"/>
      <path d="M128 305.001L108 305v-16h20v16.001zm-.002-17.998c-.996 0-18.997.003-19.997 0s-2.001 1.003-2.001 2v15.998c0 .999 1 1.999 2 1.999h20c1 0 2-.998 2-1.999v-15.998c0-1.003-1.004-2-2.002-2z" fill="#81A4BF" mask="url(#C)"/>
      <path fill="#81A4BF" mask="url(#C)" d="M121.998 298.0015l-1.999 2.999-5-6.999-4.999 8.998h15.998m-1.498-9c.828 0 1.5-.671 1.5-1.5s-.672-1.5-1.5-1.5-1.5.671-1.5 1.5.672 1.5 1.5 1.5"/>
      <path d="M7 358v-6H4v3H1v3h3v6s0 3 3 3h5v-3H7v-6z" fill="#97B8DA" mask="url(#C)"/>
      <path d="M16 364v-6s0-3-3-3H8v3h5v12h3v-3h3v-3h-3z" fill="#97B8DA" mask="url(#C)"/>
      <path d="M115 358v-6h-3v3h-3v3h3v6s0 3 3 3h5v-3h-5v-6z" fill="#1FCD8F" mask="url(#C)"/>
      <path d="M124 364v-6s0-3-3-3h-5v3h5v12h3v-3h3v-3h-3z" fill="#1FCD8F" mask="url(#C)"/>
      <path d="M13.5342 386.6357c.781-.781 2.048-.781 2.829 0 .781.781.781 2.047 0 2.829l-1.414 1.414-2.436 2.436c1.332.351 2.805.022 3.85-1.022l1.414-1.414c1.562-1.562 1.563-4.095 0-5.657-1.562-1.562-4.096-1.562-5.657 0l-1.414 1.414c-1.044 1.044-1.374 2.518-1.023 3.85l2.437-2.436 1.414-1.414zM7.877 400.7778l1.414-1.414c1.045-1.044 1.375-2.519 1.023-3.851l-2.437 2.437-1.414 1.414c-.78.781-2.047.781-2.828 0-.782-.781-.782-2.048 0-2.829l1.414-1.414 2.436-2.436c-1.332-.352-2.805-.022-3.85 1.022l-1.414 1.414c-1.563 1.562-1.563 4.096 0 5.657 1.562 1.562 4.094 1.562 5.656 0" fill="#97B8DA" mask="url(#C)"/>
      <path d="M13.5352 389.4644c-.707-.707-1.414 0-1.414 0l-5.657 5.657s-.708.707-.001 1.414 1.415 0 1.415 0l5.657-5.657s.707-.707 0-1.414" fill="#97B8DA" mask="url(#C)"/>
      <path d="M121.5342 386.6357c.781-.781 2.048-.781 2.829 0 .781.781.781 2.047 0 2.829l-1.414 1.414-2.436 2.436c1.332.351 2.805.022 3.85-1.022l1.414-1.414c1.562-1.562 1.563-4.095 0-5.657-1.562-1.562-4.096-1.562-5.657 0l-1.414 1.414c-1.044 1.044-1.374 2.518-1.023 3.85l2.437-2.436 1.414-1.414zm-5.6572 14.1421l1.414-1.414c1.045-1.044 1.375-2.519 1.023-3.851l-2.437 2.437-1.414 1.414c-.78.781-2.047.781-2.828 0-.782-.781-.782-2.048 0-2.829l1.414-1.414 2.436-2.436c-1.332-.352-2.805-.022-3.85 1.022l-1.414 1.414c-1.563 1.562-1.563 4.096 0 5.657 1.562 1.562 4.094 1.562 5.656 0" fill="#1FCD8F" mask="url(#C)"/>
      <path d="M121.5352 389.4644c-.707-.707-1.414 0-1.414 0l-5.657 5.657s-.708.707-.001 1.414 1.415 0 1.415 0l5.657-5.657s.707-.707 0-1.414" fill="#1FCD8F" mask="url(#C)"/>
      <path d="M7 419v5.408c.89-1.483 2.309-2.611 4-3.114V419h2.998c1.592 0 1.917 1.899 1.983 2.674.21.099.413.207.611.326H17v-6H1v6h1s0-3 2-3h3zm-.6191 11.2632c-.428.397-1.149.735-2.381.734v1.003h3.26c-.37-.53-.666-1.114-.879-1.737" fill="#97B8DA" mask="url(#C)"/>
      <path d="M13 432c-.849 0-1.633-.269-2.28-.72l5.56-5.56c.451.647.72 1.431.72 2.28 0 2.209-1.791 4-4 4m0-8c.849 0 1.633.269 2.28.72l-5.56 5.56c-.451-.647-.72-1.431-.72-2.28 0-2.209 1.791-4 4-4m0-2c-3.314 0-6 2.686-6 6s2.686 6 6 6c3.313 0 6-2.686 6-6s-2.687-6-6-6" fill="#DC6060" mask="url(#C)"/>
      <path d="M115 419v5.408c.89-1.483 2.309-2.611 4-3.114V419h2.998c1.592 0 1.917 1.899 1.983 2.674.21.099.413.207.611.326H125v-6h-16v6h1s0-3 2-3h3zm-.6191 11.2632c-.428.397-1.149.735-2.381.734v1.003h3.26c-.37-.53-.666-1.114-.879-1.737" fill="#1FCD8F" mask="url(#C)"/>
      <path d="M121 432c-.849 0-1.633-.269-2.28-.72l5.56-5.56c.451.647.72 1.431.72 2.28 0 2.209-1.791 4-4 4m0-8c.849 0 1.633.269 2.28.72l-5.56 5.56c-.451-.647-.72-1.431-.72-2.28 0-2.209 1.791-4 4-4m0-2c-3.314 0-6 2.686-6 6s2.686 6 6 6c3.313 0 6-2.686 6-6s-2.687-6-6-6" fill="#DC6060" mask="url(#C)"/>
      <path d="M2 465h16v-16H2v16zm-1 1h18v-18H1v18z" fill="#8FA7BF" mask="url(#C)"/>
      <path fill="#8FA7BF" mask="url(#C)" d="M3 464h14l-7-10m3-2c0 1.104.895 2 2 2 1.104 0 2-.896 2-2s-.896-2-2-2c-1.105 0-2 .896-2 2"/>
      <path fill="#97B8DA" mask="url(#C)" d="M1 466h18v-7H1"/>
      <path d="M3 462h.5c0-1.328 1.5-1.203 1.5-1.203V463c0 1.547-1 1.5-1 1.5v.5h3v-.5s-1 .063-1-1.5v-2.203s1.5-.156 1.5 1.203H8v-2H3v2zm6 1h8v-1H9" fill="#21394E" mask="url(#C)"/>
      <path d="M2 497h16v-16H2v16zm-1 1h18v-18H1v18z" fill="#8FA7BF" mask="url(#C)"/>
      <path fill="#8FA7BF" mask="url(#C)" d="M3 496h14l-7-10m3-2c0 1.104.895 2 2 2 1.104 0 2-.896 2-2s-.896-2-2-2c-1.105 0-2 .896-2 2"/>
      <path fill="#97B8DA" mask="url(#C)" d="M1 488h18v-8H1"/>
      <path d="M3 484h.5c0-1.328 1.5-1.203 1.5-1.203V485c0 1.547-1 1.5-1 1.5v.5h3v-.5s-1 .063-1-1.5v-2.203s1.5-.156 1.5 1.203H8v-2H3v2zm6 1h8v-1H9" fill="#21394E" mask="url(#C)"/>
      <path d="M2 619h16v-10H2v10zm-1 1h18v-12H1v12z" fill="#8FA7BF" mask="url(#C)"/>
      <path fill="#8FA7BF" mask="url(#C)" d="M3 618h12l-6-6m4 0c0 1.104.895 2 2 2 1.104 0 2-.896 2-2s-.896-2-2-2c-1.105 0-2 .896-2 2"/>
      <path d="M2 623h.5c0-1.328 1.5-1.203 1.5-1.203V624c0 1.547-1 1.5-1 1.5v.5h3v-.5s-1 .063-1-1.5v-2.203s1.5-.156 1.5 1.203H7v-2H2v2zm6 1h10v-1H8" fill="#97B8DA" mask="url(#C)"/>
      <path d="M2 657h16v-10H2v10zm-1 1h18v-12H1v12z" fill="#8FA7BF" mask="url(#C)"/>
      <path fill="#8FA7BF" mask="url(#C)" d="M3 656h12l-6-6m4 0c0 1.105.895 2 2 2 1.104 0 2-.895 2-2s-.896-2-2-2c-1.105 0-2 .895-2 2"/>
      <path d="M2 642h.5c0-1.328 1.5-1.203 1.5-1.203V643c0 1.547-1 1.5-1 1.5v.5h3v-.5s-1 .063-1-1.5v-2.203s1.5-.156 1.5 1.203H7v-2H2v2zm6 1h10v-1H8" fill="#97B8DA" mask="url(#C)"/>
      <path d="M110 619h16v-10h-16v10zm-1 1h18v-12h-18v12z" fill="#1FCD8F" mask="url(#C)"/>
      <path fill="#1FCD8F" mask="url(#C)" d="M111 618h12l-6-6m4 0c0 1.104.895 2 2 2 1.104 0 2-.896 2-2s-.896-2-2-2c-1.105 0-2 .896-2 2"/>
      <path d="M110 623h.5c0-1.328 1.5-1.203 1.5-1.203V624c0 1.547-1 1.5-1 1.5v.5h3v-.5s-1 .063-1-1.5v-2.203s1.5-.156 1.5 1.203h.5v-2h-5v2zm6 1h10v-1h-10" fill="#97B8DA" mask="url(#C)"/>
      <path d="M110 657h16v-10h-16v10zm-1 1h18v-12h-18v12z" fill="#1FCD8F" mask="url(#C)"/>
      <path fill="#1FCD8F" mask="url(#C)" d="M111 656h12l-6-6m4 0c0 1.105.895 2 2 2 1.104 0 2-.895 2-2s-.896-2-2-2c-1.105 0-2 .895-2 2"/>
      <path d="M110 642h.5c0-1.328 1.5-1.203 1.5-1.203V643c0 1.547-1 1.5-1 1.5v.5h3v-.5s-1 .063-1-1.5v-2.203s1.5-.156 1.5 1.203h.5v-2h-5v2zm6 1h10v-1h-10" fill="#97B8DA" mask="url(#C)"/>
      <path d="M110 497h16v-16h-16v16zm-1 1h18v-18h-18v18z" fill="#1FCD8F" mask="url(#C)"/>
      <path fill="#1FCD8F" mask="url(#C)" d="M111 496h14l-7-10m3-2c0 1.104.895 2 2 2 1.104 0 2-.896 2-2s-.896-2-2-2c-1.105 0-2 .896-2 2"/>
      <path fill="#97B8DA" mask="url(#C)" d="M109 488h18v-8h-18"/>
      <path d="M111 484h.5c0-1.328 1.5-1.203 1.5-1.203V485c0 1.547-1 1.5-1 1.5v.5h3v-.5s-1 .063-1-1.5v-2.203s1.5-.156 1.5 1.203h.5v-2h-5v2zm6 1h8v-1h-8" fill="#21394E" mask="url(#C)"/>
      <path d="M2 529h16v-16H2v16zm-1 1h18v-18H1v18z" fill="#8FA7BF" mask="url(#C)"/>
      <path fill="#8FA7BF" mask="url(#C)" d="M3 528h14l-7-10m3-2c0 1.104.895 2 2 2 1.104 0 2-.896 2-2s-.896-2-2-2c-1.105 0-2 .896-2 2"/>
      <path fill="#97B8DA" mask="url(#C)" d="M1 530h18v-18H1"/>
      <path d="M3 516h.5c0-1.328 1.5-1.203 1.5-1.203V517c0 1.547-1 1.5-1 1.5v.5h3v-.5s-1 .063-1-1.5v-2.203s1.5-.156 1.5 1.203H8v-2H3v2zm6 1h8v-1H9" fill="#21394E" mask="url(#C)"/>
      <path d="M110 529h16v-16h-16v16zm-1 1h18v-18h-18v18z" fill="#1FCD8F" mask="url(#C)"/>
      <path fill="#1FCD8F" mask="url(#C)" d="M111 528h14l-7-10m3-2c0 1.104.895 2 2 2 1.104 0 2-.896 2-2s-.896-2-2-2c-1.105 0-2 .896-2 2"/>
      <path fill="#97B8DA" mask="url(#C)" d="M109 530h18v-18h-18"/>
      <path d="M111 516h.5c0-1.328 1.5-1.203 1.5-1.203V517c0 1.547-1 1.5-1 1.5v.5h3v-.5s-1 .063-1-1.5v-2.203s1.5-.156 1.5 1.203h.5v-2h-5v2zm6 1h8v-1h-8" fill="#21394E" mask="url(#C)"/>
      <path d="M2 561h16v-16H2v16zm-1 1h18v-18H1v18z" fill="#8FA7BF" mask="url(#C)"/>
      <path fill="#8FA7BF" mask="url(#C)" d="M3 560h14l-7-10m3-2c0 1.104.895 2 2 2 1.104 0 2-.896 2-2s-.896-2-2-2c-1.105 0-2 .896-2 2"/>
      <path fill="#97B8DA" mask="url(#C)" d="M1 562h18v-18H1"/>
      <path d="M3 552h.5c0-1.328 1.5-1.203 1.5-1.203V553c0 1.547-1 1.5-1 1.5v.5h3v-.5s-1 .063-1-1.5v-2.203s1.5-.156 1.5 1.203H8v-2H3v2zm6 1h8v-1H9" fill="#21394E" mask="url(#C)"/>
      <path d="M110 561h16v-16h-16v16zm-1 1h18v-18h-18v18z" fill="#1FCD8F" mask="url(#C)"/>
      <path fill="#1FCD8F" mask="url(#C)" d="M111 560h14l-7-10m3-2c0 1.104.895 2 2 2 1.104 0 2-.896 2-2s-.896-2-2-2c-1.105 0-2 .896-2 2"/>
      <path fill="#97B8DA" mask="url(#C)" d="M109 562h18v-18h-18"/>
      <path d="M111 552h.5c0-1.328 1.5-1.203 1.5-1.203V553c0 1.547-1 1.5-1 1.5v.5h3v-.5s-1 .063-1-1.5v-2.203s1.5-.156 1.5 1.203h.5v-2h-5v2zm6 1h8v-1h-8" fill="#21394E" mask="url(#C)"/>
      <path d="M2 593h16v-16H2v16zm-1 1h18v-18H1v18z" fill="#8FA7BF" mask="url(#C)"/>
      <path fill="#8FA7BF" mask="url(#C)" d="M3 592h14l-7-10m3-2c0 1.104.895 2 2 2 1.104 0 2-.896 2-2s-.896-2-2-2c-1.105 0-2 .896-2 2"/>
      <path fill="#97B8DA" mask="url(#C)" d="M1 594h18v-18H1"/>
      <path d="M3 589h.5c0-1.328 1.5-1.203 1.5-1.203V590c0 1.547-1 1.5-1 1.5v.5h3v-.5s-1 .063-1-1.5v-2.203s1.5-.156 1.5 1.203H8v-2H3v2zm6 1h8v-1H9" fill="#21394E" mask="url(#C)"/>
      <path d="M110 593h16v-16h-16v16zm-1 1h18v-18h-18v18z" fill="#1FCD8F" mask="url(#C)"/>
      <path fill="#1FCD8F" mask="url(#C)" d="M111 592h14l-7-10m3-2c0 1.104.895 2 2 2 1.104 0 2-.896 2-2s-.896-2-2-2c-1.105 0-2 .896-2 2"/>
      <path fill="#97B8DA" mask="url(#C)" d="M109 594h18v-18h-18"/>
      <path d="M111 589h.5c0-1.328 1.5-1.203 1.5-1.203V590c0 1.547-1 1.5-1 1.5v.5h3v-.5s-1 .063-1-1.5v-2.203s1.5-.156 1.5 1.203h.5v-2h-5v2zm6 1h8v-1h-8" fill="#21394E" mask="url(#C)"/>
      <path d="M110 465h16v-16h-16v16zm-1 1h18v-18h-18v18z" fill="#1FCD8F" mask="url(#C)"/>
      <path fill="#1FCD8F" mask="url(#C)" d="M111 464h14l-7-10m3-2c0 1.104.895 2 2 2 1.104 0 2-.896 2-2s-.896-2-2-2c-1.105 0-2 .896-2 2"/>
      <path fill="#97B8DA" mask="url(#C)" d="M109 466h18v-7h-18"/>
      <path d="M111 462h.5c0-1.328 1.5-1.203 1.5-1.203V463c0 1.547-1 1.5-1 1.5v.5h3v-.5s-1 .063-1-1.5v-2.203s1.5-.156 1.5 1.203h.5v-2h-5v2zm6 1h8v-1h-8" fill="#21394E" mask="url(#C)"/>
      <path d="M2 678.999c-1.105 0-2 .896-2 2 0 1.105.895 2 2 2 1.104 0 2-.895 2-2 0-1.104-.896-2-2-2m8 0c-1.105 0-2 .896-2 2 0 1.105.895 2 2 2 1.104 0 2-.895 2-2 0-1.104-.896-2-2-2m8 0c-1.105 0-2 .896-2 2 0 1.105.895 2 2 2 1.104 0 2-.895 2-2 0-1.104-.896-2-2-2" fill="#97B8DA" mask="url(#C)"/>
      <path d="M110 678.999c-1.105 0-2 .896-2 2 0 1.105.895 2 2 2 1.104 0 2-.895 2-2 0-1.104-.896-2-2-2m8 0c-1.105 0-2 .896-2 2 0 1.105.895 2 2 2 1.104 0 2-.895 2-2 0-1.104-.896-2-2-2m8 0c-1.105 0-2 .896-2 2 0 1.105.895 2 2 2 1.104 0 2-.895 2-2 0-1.104-.896-2-2-2" fill="#1FCD8F" mask="url(#C)"/>
      <path d="M17 706c-2-2-3-1-3-1l-1 1 4 4 1-1s1-1-1-3m-3 5v1l-7 6H6v-1l7-6h1zm-10 5v-1l7-6h1v1l-7 6H4zm1 3H3v-2h1v1h1v1zm-2-4l-2 6 6-2 9-8-4-4-9 8z" fill="#97B8DA" mask="url(#C)"/>
      <path d="M125 706c-2-2-3-1-3-1l-1 1 4 4 1-1s1-1-1-3m-3 5v1l-7 6h-1v-1l7-6h1zm-10 5v-1l7-6h1v1l-7 6h-1zm1 3h-2v-2h1v1h1v1zm-2-4l-2 6 6-2 9-8-4-4-9 8z" fill="#1FCD8F" mask="url(#C)"/>
      <path fill="#97B8DA" mask="url(#C)" d="M13 743l2-2 2 2v-5h-5l2 2-2 2m5 10v-5l-2 2-2-2-1 1 2 2-2 2m-6-2l2-2-1-1-2 2-2-2v5h5m-1-9l1-1-2-2 2-2H3v5l2-2"/>
      <path d="M2 753h16v-16H2v16zm-1 1h18v-18H1v18z" fill="#97B8DA" mask="url(#C)"/>
      <path fill="#1FCD8F" mask="url(#C)" d="M120 738l2 2-2 2 1 1 2-2 2 2v-5m-4 9l-1 1 2 2-2 2h5v-5l-2 2m-8-2l-2 2-2-2v5h5l-2-2 2-2m-5-10v5l2-2 2 2 1-1-2-2 2-2"/>
      <path d="M110 753h16v-16h-16v16zm-1 1h18v-18h-18v18z" fill="#97B8DA" mask="url(#C)"/>
      <path d="M2 17h10V1H2v16zm-1 1h12V0H1v18z" fill="#8FA7BF" mask="url(#C)"/>
      <path fill="#8FA7BF" mask="url(#C)" d="M10 16h1v-4L9 9l-1.897 2.655L4 7 3 9v7h1M9 6c1.104 0 2-.896 2-2s-.896-2-2-2c-1.105 0-2 .896-2 2s.895 2 2 2"/>
      <path d="M14 4h.5c0-1.328 1.5-1.203 1.5-1.203V5c0 1.547-1 1.5-1 1.5V7h3v-.5s-1 .063-1-1.5V2.797S18.5 2.641 18.5 4h.5V2h-5v2zm0 6h5V9h-5m0 3h5v-1h-5m0 3h5v-1h-5m0 3h3v-1h-3" fill="#97B8DA" mask="url(#C)"/>
      <path d="M110 17h10V1h-10v16zm-1 1h12V0h-12v18z" fill="#1FCD8F" mask="url(#C)"/>
      <path fill="#1FCD8F" mask="url(#C)" d="M118 16h1v-4l-2-3-1.897 2.655L112 7l-1 2v7h1m5-10c1.104 0 2-.896 2-2s-.896-2-2-2c-1.105 0-2 .896-2 2s.895 2 2 2"/>
      <path d="M122 4h.5c0-1.328 1.5-1.203 1.5-1.203V5c0 1.547-1 1.5-1 1.5V7h3v-.5s-1 .063-1-1.5V2.797s1.5-.156 1.5 1.203h.5V2h-5v2zm0 6h5V9h-5m0 3h5v-1h-5m0 3h5v-1h-5m0 3h3v-1h-3" fill="#97B8DA" mask="url(#C)"/>
      <path d="M8 785h10v-16H8v16zm-1 1h12v-18H7v18z" fill="#8FA7BF" mask="url(#C)"/>
      <path fill="#8FA7BF" mask="url(#C)" d="M16 784h1v-4l-2-3-1.897 2.655L10 775l-1 2v7h1m5-10c1.104 0 2-.896 2-2 0-1.105-.896-2-2-2-1.105 0-2 .895-2 2 0 1.104.895 2 2 2"/>
      <path d="M1 772h.5c0-1.328 1.5-1.203 1.5-1.203V773c0 1.547-1 1.5-1 1.5v.5h3v-.5s-1 .063-1-1.5v-2.203s1.5-.156 1.5 1.203H6v-2H1v2zm0 6h5v-1H1m0 3h5v-1H1m0 3h5v-1H1m0 3h3v-1H1" fill="#97B8DA" mask="url(#C)"/>
      <path d="M116 785h10v-16h-10v16zm-1 1h12v-18h-12v18z" fill="#1FCD8F" mask="url(#C)"/>
      <path fill="#1FCD8F" mask="url(#C)" d="M124 784h1v-4l-2-3-1.897 2.655L118 775l-1 2v7h1m5-10c1.104 0 2-.896 2-2 0-1.105-.896-2-2-2-1.105 0-2 .895-2 2 0 1.104.895 2 2 2"/>
      <path d="M109 772h.5c0-1.328 1.5-1.203 1.5-1.203V773c0 1.547-1 1.5-1 1.5v.5h3v-.5s-1 .063-1-1.5v-2.203s1.5-.156 1.5 1.203h.5v-2h-5v2zm0 6h5v-1h-5m0 3h5v-1h-5m0 3h5v-1h-5m0 3h3v-1h-3M8 48h1V34H8m2 14h1V34h-1m3 4.001V44l3-2.999M6 44v-5.999L3 41m107-8v6h1s0-3 2-3h3v10c0 2-3 2-3 2v1h10v-1s-3 0-3-2V36h3c2 0 2 3 2 3h1v-6h-16z" fill="#97B8DA" mask="url(#C)"/>
      <path d="M3 815h9v-8H3v8zm-1 1h11v-10H2v10z" fill="#21394E" mask="url(#C)"/>
      <path fill="#21394E" mask="url(#C)" d="M11 814l-3-4-3 4m0-4c.553 0 1-.447 1-1 0-.553-.447-1-1-1-.553 0-1 .447-1 1 0 .553.447 1 1 1m12-4v-5h-5v1h3l-2 2v1h1l2-2v3m-5-6h1v-1h-1m2 1h1v-1h-1m-4 1h1v-1H9m-4 1h1v-1H5m2 1h1v-1H7m-2 19h1v-1H5m-2 1h1v-1H3m0-17h1v-1H3m-3 4h1v-1H0m17-3v1h1v1h1v-2m-19 6h1v-1H0m0 5h1v-1H0m0 3h1v-1H0m0 3h1v-1H0m0-5h1v-1H0m0 9h1v-1H0m18-7h1v-1h-1m0-1h1v-1h-1m0-1h1v-1h-1m0 7h1v-1h-1m-17-8h1v-1H0v2h1m17 16h-1v1h2v-2h-1m0-5h1v-1h-1m-17 6H0v2h2v-1H1m6 1h1v-1H7m4 1h1v-1h-1m2 1h1v-1h-1m-4 1h1v-1H9m6 1h1v-1h-1m3-2h1v-1h-1m0-1h1v-1h-1m-3-12h1v-1h-1m95 18h16v-16h-16v16zm-1 1h18v-18h-18v18z"/>
      <path fill="#21394E" mask="url(#C)" d="M125 815l-4-6-2 3-3-5-5 8h6m5-8c1.104 0 2-.896 2-2 0-1.105-.896-2-2-2-1.105 0-2 .895-2 2 0 1.104.895 2 2 2"/>
      <path d="M12 846H8v-5H4l6-6 6 6h-4v5zm-2-14c-4.971 0-9 4.029-9 9s4.029 9 9 9 9-4.029 9-9-4.029-9-9-9z" fill="#FFF" mask="url(#C)"/>
      <path fill="#97B8DA" mask="url(#C)" d="M5 866h14v-1H5m0 16h14v-1H5m9-11h5v-1h-5m0 4h5v-1h-5m0 4h5v-1h-5m0 4h5v-1h-5m-4.5-5c-.828 0-1.5-.672-1.5-1.5s.672-1.5 1.5-1.5 1.5.672 1.5 1.5-.672 1.5-1.5 1.5zM2 877l4.5-5 4.5 5H2zm-1 1h11v-10H1v10z"/>
      <path fill="#1FCD8F" mask="url(#C)" d="M113 866h14v-1h-14m0 16h14v-1h-14m9-11h5v-1h-5m0 4h5v-1h-5m0 4h5v-1h-5m0 4h5v-1h-5m-4.5-5c-.828 0-1.5-.672-1.5-1.5s.672-1.5 1.5-1.5 1.5.672 1.5 1.5-.672 1.5-1.5 1.5zm-7.5 5l4.5-5 4.5 5h-9zm-1 1h11v-10h-11v10z"/>
      <path d="M128 337.001L108 337v-16h20v16.001zm-.002-17.998c-.996 0-18.997.003-19.997 0s-2.001 1.003-2.001 2v15.998c0 .999 1 1.999 2 1.999h20c1 0 2-.998 2-1.999v-15.998c0-1.003-1.004-2-2.002-2z" fill="#01A773" mask="url(#C)"/>
      <path fill="#01A773" mask="url(#C)" d="M121.998 330.0015l-1.999 2.999-5-6.999-4.999 8.998h15.998m-1.498-9c.828 0 1.5-.671 1.5-1.5s-.672-1.5-1.5-1.5-1.5.671-1.5 1.5.672 1.5 1.5 1.5"/>
    </g>
    <path d="M358 162c-2.209 0-4 1.791-4 4s1.791 4 4 4v8h2v-14h2v14h2v-14h2v-2h-8" fill="#212121"/>
    <path d="M355 206.5078125V193h4.7314453c1.6390056 0 2.88215723.3138803 3.7294922.9416504.847335.6277701 1.2709961 1.5477641 1.2709961 2.7600098 0 .6617871-.1700829 1.2447077-.5102539 1.7487793-.340171.5040715-.8133108.8736153-1.4194336 1.1086425.6927118.173178 1.2385234.5226211 1.6374512 1.0483399.3989277.5257187.5983886 1.1689415.5983886 1.9296875 0 1.2988346-.4143838 2.2822232-1.243164 2.9501953-.8287802.6679721-2.0100835 1.0081379-3.54394534 1.0205078H355zm2.78320312-5.8818359v3.6459961h2.38427735c.65560224 0 1.16739725-.1561671 1.5354004-.4685059.36800313-.3123388.55200194-.743731.55200194-1.2941895 0-1.2369853-.6401303-1.864746-1.9204101-1.8833007h-2.55126952zm0-1.9667969h2.05957032c1.40397837-.0247397 2.10595703-.5844672 2.10595703-1.6791992 0-.6123078-.17781398-1.0529772-.53344727-1.3220215-.3556333-.2690443-.91690697-.4035645-1.6838379-.4035645h-1.94824218v3.4047852z" fill="#121212"/>
    <path d="M359 223h6v1h-6v-1zm-2 13h6v1h-6v-1zm4-12h2l-2 12h-2l2-12z" fill="#212121"/>
    <g opacity=".5">
      <path d="M387.62675874 258.5c2.77605524 2 .92535175 5-1.8507035 5C383 263.5 383 259.5 383 259.5c0-4 2.77605524-7 4.62675874-7 0 0 .92535175 0 .92535175 1s-4.7359503 2.254-.9253518 5zm7.99999996 0c2.7760553 2 .9253518 5-1.8507035 5C391 263.5 391 259.5 391 259.5c0-4 2.7760552-7 4.6267587-7 0 0 .9253518 0 .9253518 1s-4.73595026 2.254-.9253518 5z" fill="#212121"/>
      <path d="M391 266.5c0 .552.447 1 1 1 .553 0 1-.448 1-1s-.447-1-1-1c-.553 0-1 .448-1 1zm-3-1c-.553 0-1 .448-1 1s.447 1 1 1c.553 0 1-.448 1-1s-.447-1-1-1" fill="#909090"/>
    </g>
    <path d="M387.62675874 228.5c2.77605524 2 .92535175 5-1.8507035 5C383 233.5 383 229.5 383 229.5c0-4 2.77605524-7 4.62675874-7 0 0 .92535175 0 .92535175 1s-4.7359503 2.254-.9253518 5zm7.99999996 0c2.7760553 2 .9253518 5-1.8507035 5C391 233.5 391 229.5 391 229.5c0-4 2.7760552-7 4.6267587-7 0 0 .9253518 0 .9253518 1s-4.73595026 2.254-.9253518 5z" fill="#212121"/>
    <path d="M392 236.5c0 .552.447 1 1 1 .553 0 1-.448 1-1s-.447-1-1-1c-.553 0-1 .448-1 1z" fill="#909090"/>
    <path d="M386 236.5c0 1.104.896 2 2 2s2-.896 2-2c0-1.105-.896-2-2-2s-2 .895-2 2zm1.62675874-38c2.77605524 2 .92535175 5-1.8507035 5C383 203.5 383 199.5 383 199.5c0-4 2.77605524-7 4.62675874-7 0 0 .92535175 0 .92535175 1s-4.7359503 2.254-.9253518 5zm7.99999996 0c2.7760553 2 .9253518 5-1.8507035 5C391 203.5 391 199.5 391 199.5c0-4 2.7760552-7 4.6267587-7 0 0 .9253518 0 .9253518 1s-4.73595026 2.254-.9253518 5z" fill="#212121"/>
    <path d="M387 206.5c0 .552.447 1 1 1 .553 0 1-.448 1-1s-.447-1-1-1c-.553 0-1 .448-1 1z" fill="#909090"/>
    <path d="M391 206.5c0 1.104.896 2 2 2s2-.896 2-2c0-1.105-.896-2-2-2s-2 .895-2 2zm-28.67185934 54.3642475c1.33446714.3563704 2.81733014.011097 3.86424754-1.0358204 1.5620971-1.5620971 1.5620971-4.0947571 0-5.6568542-1.5620972-1.5620972-4.09475713-1.5620972-5.6568543 0-1.04691734 1.0469173-1.3921908 2.5297803-1.03582037 3.8642475l2.45003394-2.450034c.78104858-.7810485 2.04737853-.7810485 2.82842713 0 .7810486.7810486.7810486 2.0473786 0 2.8284272l-2.45003394 2.4500339zm-1.46389316 1.4638935c.35637043 1.334467.01109697 2.81733-1.03582038 3.864247-1.56209716 1.562097-4.09475708 1.562097-5.65685424 0-1.56209717-1.562097-1.56209717-4.094757 0-5.6568541 1.04691734-1.0469173 2.5297803-1.3921908 3.8642475-1.0358204l-2.45003394 2.450034c-.7810486.7810485-.7810486 2.0473785 0 2.8284275.78104858.781048 2.04737854.781048 2.82842712 0l2.45003394-2.450034zm.37632184-4.6189629c.39166826-.3916682 1.02303795-.3953183 1.4162849-.0020713.39052426.3905243.39747796 1.0167356-.00207134 1.4162849l-3.5313912 3.5313913c-.39166827.391668-1.02303796.395318-1.41628492.002071-.3905243-.390524-.3974779-1.0167354.00207135-1.4162847l3.5313912-3.5313912zM414 253c1.105 0 2 .895 2 2s-.895 2-2 2c-1.104 0-2-.895-2-2s.896-2 2-2zm4 1h10v2h-10v-2zm-4 4c1.105 0 2 .895 2 2 0 1.104-.895 2-2 2-1.104 0-2-.896-2-2 0-1.105.896-2 2-2zm4 1h10v2h-10v-2z" fill="#212121"/>
    <path d="M422 265c-.553 0-1 .448-1 1s.447 1 1 1c.553 0 1-.448 1-1s-.447-1-1-1m-5 1c0 .552.447 1 1 1 .553 0 1-.448 1-1s-.447-1-1-1c-.553 0-1 .448-1 1z" fill="#909090"/>
    <path d="M414 223c1.105 0 2 .895 2 2s-.895 2-2 2c-1.104 0-2-.895-2-2s.896-2 2-2zm4 1h10v2h-10v-2zm-4 4c1.105 0 2 .895 2 2 0 1.104-.895 2-2 2-1.104 0-2-.896-2-2 0-1.105.896-2 2-2zm4 1h10v2h-10v-2z" fill="#212121"/>
    <path d="M423 235c-.553 0-1 .448-1 1s.447 1 1 1c.553 0 1-.448 1-1s-.447-1-1-1" fill="#909090"/>
    <path d="M416 236c0 1.104.896 2 2 2s2-.896 2-2c0-1.105-.896-2-2-2s-2 .895-2 2zm2-42h10v2h-10v-2zm-4.4997-1.9998l-1 1h.5v3h-1v.999h2.999v-.999h-1v-4h-.499zm-1 6h2.499v2.25l-.499.751h-1.5v1h1.999v.999h-2.999v-1.749l1.5-1.25h.499v-1h-1.499v-1.001zM418 199h10v2h-10v-2z" fill="#212121"/>
    <path d="M418 205c-.553 0-1 .448-1 1s.447 1 1 1c.553 0 1-.448 1-1s-.447-1-1-1" fill="#909090"/>
    <path d="M421 206c0 1.104.896 2 2 2s2-.896 2-2c0-1.105-.896-2-2-2s-2 .895-2 2zm21 46h16v2h-16m0 6h16v2h-16m0-6h10v2h-10m2 6c-1.104 0-2 .895-2 2 0 1.104.896 2 2 2s2-.896 2-2c0-1.105-.896-2-2-2" fill="#212121"/>
    <path d="M453 265c-.553 0-1 .448-1 1s.447 1 1 1c.553 0 1-.448 1-1s-.447-1-1-1m-4 0c-.553 0-1 .448-1 1s.447 1 1 1c.553 0 1-.448 1-1s-.447-1-1-1m7 1c0 .552.447 1 1 1 .553 0 1-.448 1-1s-.447-1-1-1c-.553 0-1 .448-1 1z" fill="#909090"/>
    <path fill="#212121" d="M442 222h16v2h-16m0 6h16v2h-16m3-6h10v2h-10m3 6c-1.104 0-2 .895-2 2 0 1.104.896 2 2 2s2-.896 2-2c0-1.105-.896-2-2-2"/>
    <path d="M453 235c-.553 0-1 .448-1 1s.447 1 1 1c.553 0 1-.448 1-1s-.447-1-1-1m-10 0c-.553 0-1 .448-1 1s.447 1 1 1c.553 0 1-.448 1-1s-.447-1-1-1m14 0c-.553 0-1 .448-1 1s.447 1 1 1c.553 0 1-.448 1-1s-.447-1-1-1" fill="#909090"/>
    <path fill="#212121" d="M442 192h16v2h-16m0 6h16v2h-16m6-6h10v2h-10m4 6c-1.104 0-2 .895-2 2 0 1.104.896 2 2 2s2-.896 2-2c0-1.105-.896-2-2-2"/>
    <path d="M447 205c-.553 0-1 .448-1 1s.447 1 1 1c.553 0 1-.448 1-1s-.447-1-1-1m-4 0c-.553 0-1 .448-1 1s.447 1 1 1c.553 0 1-.448 1-1s-.447-1-1-1m14 0c-.553 0-1 .448-1 1s.447 1 1 1c.553 0 1-.448 1-1s-.447-1-1-1" fill="#909090"/>
    <path fill="#212121" d="M442 162h16v2h-16m0 6h16v2h-16m0-6h16v2h-16m14 6c-1.104 0-2 .895-2 2 0 1.104.896 2 2 2s2-.896 2-2c0-1.105-.896-2-2-2"/>
    <path d="M447 175c-.553 0-1 .448-1 1s.447 1 1 1c.553 0 1-.448 1-1s-.447-1-1-1m-4 0c-.553 0-1 .448-1 1s.447 1 1 1c.553 0 1-.448 1-1s-.447-1-1-1m8 0c-.553 0-1 .448-1 1s.447 1 1 1c.553 0 1-.448 1-1s-.447-1-1-1" fill="#909090"/>
    <path d="M390 162c-4.418 0-8 3.582-8 8s3.582 8 8 8 8-3.582 8-8-3.582-8-8-8zm-3.5 4c.828 0 1.5.671 1.5 1.5s-.672 1.5-1.5 1.5-1.5-.671-1.5-1.5.672-1.5 1.5-1.5zm3.5 10c-5 0-5-5-5-5s2 1 5 1 5-1 5-1 0 5-5 5zm3.5-7c-.828 0-1.5-.671-1.5-1.5s.672-1.5 1.5-1.5 1.5.671 1.5 1.5-.672 1.5-1.5 1.5z" fill="#212121"/>
  </g>
</svg>
