<svg width="920" height="930" viewBox="0 0 920 930" xmlns="http://www.w3.org/2000/svg" xmlns:xlink="http://www.w3.org/1999/xlink"><title>uf-core-el-sprite_new</title><defs><path d="M10.5 9.62v1.373c0 1.387 1.122 2.507 2.507 2.507h7.986c1.387 0 2.507-1.122 2.507-2.507V3.007C23.5 1.62 22.378.5 20.993.5h-7.986C11.62.5 10.5 1.622 10.5 3.007V4.38L7.88 7l2.62 2.62zm-.5.037L7.222 6.88 10 4.1V3.004C10 1.344 11.342 0 13.003 0h7.994C22.655 0 24 1.342 24 3.003v7.994C24 12.655 22.658 14 20.997 14h-7.994C11.345 14 10 12.658 10 10.997v-1.34z" id="a"/><mask id="d" x="0" y="0" width="16.778" height="14" fill="#fff"><use xlink:href="#a"/></mask><path d="M9 3.027c2.086.23 3.742 1.888 3.972 3.973H11l3 3 3-3h-2.02C14.74 3.808 12.19 1.26 9 1.02v2.007z" id="e"/><path d="M3.02 11.02C3.26 14.21 5.81 16.757 9 17v-2.008c-2.086-.232-3.742-1.888-3.972-3.973H7l-3-3-3 3h2.02z" id="f"/><path d="M9 3.027c2.086.23 3.742 1.888 3.972 3.973H11l3 3 3-3h-2.02C14.74 3.808 12.19 1.26 9 1.02v2.007z" id="g"/><path d="M3.02 11.02C3.26 14.21 5.81 16.757 9 17v-2.008c-2.086-.232-3.742-1.888-3.972-3.973H7l-3-3-3 3h2.02z" id="h"/><path id="b" d="M34 188h10v2H34z"/><mask id="i" x="0" y="0" width="10" height="2" fill="#fff"><use xlink:href="#b"/></mask><path id="j" d="M14 0H0v14h14V0z"/><path d="M9.563 0c.518.894.843 1.913.92 3h.017c.828 0 1.5.67 1.5 1.5 0 .828-.672 1.5-1.5 1.5-.15 0-.298-.022-.435-.064-.354.953-.91 1.81-1.615 2.513L12 12H2l1.5-1.5c-1.275 0-2.47-.34-3.5-.936v2.43C0 13.104.897 14 2.006 14h9.988C13.102 14 14 13.103 14 11.995v-9.99C14 .9 13.103 0 11.994 0h-2.43z" id="l"/><path id="m" d="M3 5h3V0H0v5h3z"/><path d="M2.007 0C.902 0 0 .894 0 1.997v5.006C0 8.103.9 9 2.007 9h7.985C11.097 9 12 8.106 12 7.003V1.997C12 .895 11.1 0 9.992 0H2.007zM11 1L6 7 1 1l5 3 5-3z" id="o"/><path id="q" d="M0 12h8V0H0z"/><path id="c" d="M0 0h12v12H0z"/><mask id="s" x="0" y="0" width="12" height="12" fill="#fff"><use xlink:href="#c"/></mask><path d="M6 6l4-3-4-3v6zM1 7h2c0-1.657 1.343-3 3-3V2C3.24 2 1 4.238 1 7zm8 0h2V6H9v1zm0 0c0 1.656-1.343 3-3 3v2c2.76 0 5-2.238 5-5H9zM1 8h2V7H1v1zm0 0l2-1-2 1zm1 3l4 3V8l-4 3z" id="t"/><path d="M1 2.5V4h.25H0v2c0 1 1 2 2 2h3c1 0 2-1 2-2V4H5.75 6V2.5C6 1.12 4.88 0 3.5 0S1 1.12 1 2.5zm1 0C2 1.672 2.672 1 3.5 1 4.33 1 5 1.672 5 2.5V4H2V2.5z" id="v"/><path d="M6 6l4-3-4-3v6zM1 7h2c0-1.657 1.343-3 3-3V2C3.24 2 1 4.24 1 7zm8 0h2V6H9v1zm0 0c0 1.657-1.343 3-3 3v2c2.76 0 5-2.24 5-5H9zM1 8h2V7H1v1zm0 0l2-1-2 1zm1 3l4 3V8l-4 3z" id="x"/><path d="M1 2.5V4h.25H0v2c0 1 1 2 2 2h3c1 0 2-1 2-2V4H2V2.5C2 1.67 2.672 1 3.5 1c.653 0 1.208.418 1.415 1H5.95C5.718.86 4.71 0 3.5 0 2.12 0 1 1.12 1 2.5z" id="z"/><path id="B" d="M0 881h130V0H0z"/></defs><g fill="none" fill-rule="evenodd"><path fill="#72848D" d="M40 0h200v16H40zm220 0h200v16H260zm220 0h200v16H480zm220 0h200v16H700z"/><text font-family="Courier" font-size="11" fill="#FFF" transform="translate(40)"><tspan x="10.189" y="10">sidebar element icons</tspan></text><text font-family="Courier" font-size="11" fill="#FFF" transform="translate(40)"><tspan x="230" y="10">element ui icons</tspan></text><text font-family="Courier" font-size="11" fill="#FFF" transform="translate(40)"><tspan x="450" y="10">miscellaneous</tspan></text><text font-family="Courier" font-size="11" fill="#FFF" transform="translate(40)"><tspan x="670" y="10">image / gallery / slider</tspan></text><path d="M57.002 46c1 0 .998.987.998.987l-.002 2.78c0 .32-.215.432-.45.432-.234 0-.467-.12-.49-.44-.117-1.42-1.015-2.62-2.56-2.7L53 46.98s.015 7.54 0 8.02c0 1 1.003 2.01 2.417 2.205.195.027.292.207.292.396 0 .19-.1.4-.3.4H48.6c-.196 0-.294-.19-.294-.38s.1-.38.313-.42c1.37-.19 2.37-1.2 2.37-2.2.01-.45.01-8 .01-8l-1.5.05c-1.66.06-2.41 1.23-2.56 2.72-.02.25-.26.43-.49.43-.24 0-.45-.1-.45-.4V47s0-1 1-1h10z" fill="#212121"/><path d="M61 43h1v-1h-1v1zm0 19h1v-1h-1v1zm-1-1H44v-1h-1V44h1v-1h16v1h1v16h-1v1zm-18 1h1v-1h-1v1zm0-19h1v-1h-1v1zm21 1v-3h-3v1H44v-1h-3v3h1v16h-1v3h3v-1h16v1h3v-3h-1V44h1zm-2 33h1v-1h-1v1zm0 19h1v-1h-1v1zm-1-1H44v-1h-1V78h1v-1h16v1h1v16h-1v1zm-18 1h1v-1h-1v1zm0-19h1v-1h-1v1zm21 1v-3h-3v1H44v-1h-3v3h1v16h-1v3h3v-1h16v1h3v-3h-1V78h1z" fill="#909090"/><path fill="#212121" d="M56 87l-2 3-4-6-6 9h16m-5-12c0 1.104.896 2 2 2 1.105 0 2-.896 2-2 0-1.105-.895-2-2-2-1.104 0-2 .895-2 2"/><path d="M44 118c0-3.314 2.686-6 6-6s6 2.686 6 6c0 3.313-2.686 6-6 6s-6-2.687-6-6m18 10l-4.72-4.72c1.076-1.485 1.72-3.305 1.72-5.28 0-4.97-4.03-9-9-9s-9 4.03-9 9 4.03 9 9 9c1.975 0 3.795-.644 5.28-1.72L60 130s1 1 2 0 0-2 0-2" fill="#909090"/><path d="M48.732 121.775c.4.135.822.225 1.268.225 2.21 0 4-1.79 4-4 0-.447-.09-.868-.224-1.268-.63 2.47-2.572 4.413-5.044 5.043" fill="#212121"/><g transform="translate(40 147)"><path d="M4 4l1-2H3S1 2 1 4v1H0v2h1v5h2V7h2V5H3V4h1" fill="#212121"/><use stroke="#979797" mask="url(#d)" stroke-width="2" fill="#D8D8D8" xlink:href="#a"/></g><path d="M46 184h15v-1H46v1zm0 2h15v-1H46v1zm0 2h15v-1H46v1zm0 2h15v-1H46v1zm0 2h9v-1h-9v1z" fill="#212121"/><path fill="#909090" d="M42 195h2v-15h-2m-2 46h23v-5H40"/><path d="M40 214v16h23v-16H40zm17 7h5v-3h-5v3zm-6 0h5v-3h-5v3zm-10 0h9v-3h-9v3zm16 4h5v-3h-5v3zm-6 0h5v-3h-5v3zm-10 0h9v-3h-9v3zm16 4h5v-3h-5v3zm-6 0h5v-3h-5v3zm-10 0h9v-3h-9v3z" fill="#212121"/><path d="M44 248h16s3 0 3 3v10c0 3-3 3-3 3H44s-3 0-3-3v-10c0-3 3-3 3-3" fill="#909090"/><path d="M50 255h1v-1c0-1-2-1-3-1-3 0-3 1-3 3s0 3 3 3 3-1 3-3h-3v1h2c0 1 0 1-2 1s-2 0-2-2 0-2 2-2 2 0 2 1m6 3c-2 0-2-.667-2-2s0-2 2-2 2 .667 2 2 0 2-2 2m0-5c-3 0-3 1-3 3s0 3 3 3 3-1 3-3 0-3-3-3m-14 44h20v-14H42v14zm17-11h2v-2h-2v2zm-4 0h2v-2h-2v2zm-4 0h2v-2h-2v2zm-4 0h2v-2h-2v2zm-4 0h2v-2h-2v2zm16 10h2v-2h-2v2zm-4 0h2v-2h-2v2zm-4 0h2v-2h-2v2zm-4 0h2v-2h-2v2zm-4 0h2v-2h-2v2z" fill="#212121"/><path fill="#909090" d="M43 293h2v-6h-2m16 6h2v-6h-2m-12 6h10v-6H47"/><path fill="#212121" d="M50 288v4l4-2"/><path fill="#909090" d="M41 327l6 8h16l-6-8"/><path d="M52 323c-1.657 0-3-1.343-3-3s1.343-3 3-3 3 1.343 3 3-1.343 3-3 3m0-10c-4 0-7 3-7 7 0 5 7 12 7 12s7-7 7-12c0-4-3-7-7-7" fill="#212121"/><path d="M44 351.006v9.988c0 .557.446 1.006.995 1.006h14.01c.55 0 .995-.45.995-1.006v-9.988c0-.557-.446-1.006-.995-1.006h-14.01c-.55 0-.995.45-.995 1.006zm-1 0c0-1.108.893-2.006 1.995-2.006h14.01c1.102 0 1.995.897 1.995 2.006v9.988c0 1.108-.893 2.006-1.995 2.006h-14.01c-1.102 0-1.995-.897-1.995-2.006v-9.988zM47.5 367c-.828 0-1.5-.672-1.5-1.5s.672-1.5 1.5-1.5 1.5.672 1.5 1.5-.672 1.5-1.5 1.5zm5-.5c-.552 0-1-.448-1-1s.448-1 1-1 1 .448 1 1-.448 1-1 1zm4.5 0c-.552 0-1-.448-1-1s.448-1 1-1 1 .448 1 1-.448 1-1 1z" fill="#909090" fill-rule="nonzero"/><path d="M55 353.5c0-.83.672-1.5 1.5-1.5.83 0 1.5.67 1.5 1.5 0 .828-.67 1.5-1.5 1.5-.828 0-1.5-.672-1.5-1.5zm0 2.5l3 4H46l4-6 3 4 2-2zm3 29h1v14H44v-14h14zm-13 13h13v-12H45v12zm9-1h-8l4-7 2.537 4.44L54 392l3 5h-3zm1.5-7c-.828 0-1.5-.672-1.5-1.5s.672-1.5 1.5-1.5 1.5.672 1.5 1.5-.672 1.5-1.5 1.5z" fill="#212121"/><path d="M60 391.092c.58.207 1 .756 1 1.408 0 .653-.42 1.2-1 1.408v-2.816zM62 389h1v14H48v-3h1v2h13v-12h-2v-1h2zm-2 10.333L61 401H50l.57-1H60v-.667zM43 394v1h-2v-14h15v3h-1v-2H42v12h1zm10.908-10h-2.816c.207-.58.755-1 1.408-1 .652 0 1.2.42 1.408 1z" fill="#909090"/><path d="M52 427c0 2-3 2-3 2s-3 0-3-2c-4.684.915-5 3-5 4 0 2 3 2 3 2h10s3 0 3-2c0-1-.318-3.085-5-4m0-5c0 2.21-.79 5-3 5s-3-2.79-3-5 .79-3 3-3 3 .79 3 3" fill="#212121"/><path fill="#909090" d="M57 424l3 3 3-3m-21 41h20v-4H42m0 9h20v-4H42"/><path fill="#212121" d="M43 456h18v-1H43m0 3h18v-1H43m0 3h14v-1H43m13 3l2 2 2-2m-4 5l2 2 2-2"/><path d="M42 454h20v-4H42v4zm16-3l2 2h-4l2-2zm-1 38H47c-.552 0-1 .448-1 1 0 .553.448 1 1 1h10c.552 0 1-.448 1-1s-.448-1-1-1m0 4H47c-.552 0-1 .448-1 1 0 .553.448 1 1 1h10c.552 0 1-.448 1-1s-.448-1-1-1m0 4H47c-.552 0-1 .448-1 1 0 .553.448 1 1 1h10c.552 0 1-.448 1-1s-.448-1-1-1" fill="#909090"/><path d="M61 501c0 1.105-.895 2-2 2H45c-1.105 0-2-.895-2-2v-14c0-1.105.895-2 2-2h14c1.105 0 2 .895 2 2v14zm-2-17H45c-1.657 0-3 1.343-3 3v14c0 1.657 1.343 3 3 3h14c1.657 0 3-1.343 3-3v-14c0-1.657-1.343-3-3-3z" fill="#212121"/><path d="M55.23 526.054c-.11-.56-.23-.99-.23-.99-.406-1.783.157-4.064-1.5-4.064s.594 4.25-2.5 4.875l-.01.023c-.618.17-.99.64-.99 1.752v4.906c0 2.762 2.24 2.5 5 2.5 2.762 0 5-.738 5-3.5v-3.25c0-2.694-2.103-2.274-4.77-2.252" fill="#909090"/><path d="M47 534.063c-.552 0-1-.448-1-1s.448-1 1-1 1 .448 1 1-.448 1-1 1zm2-7c0-.552-.448-1-1-1h-3c-.552 0-1 .448-1 1v7c0 .552.448 1 1 1h3c.552 0 1-.448 1-1v-7zM45.708 559H40l.5 1h3.635c.127-.133.275-.25.442-.347l1.13-.653zm-2.088 2H41l.5 1h2.18c-.106-.33-.123-.673-.06-1zm.587 2H42l.5 1h2.284l-.577-1z" fill="#212121"/><path d="M57.252 553.736c-.38-.025-.77.057-1.123.26l-10.41 6.007c-.36.204-.62.5-.79.842l9.49 2.217.5.866-3.07-.722-1.39 7.437c.42.056.86-.02 1.25-.248l10.4-6.006c.39-.23.68-.58.84-.97l-7.14-2.52-.91 3.01-.5-.87 2.82-9.33zm.69.172c.372.168.7.45.92.83l3.99 6.915c.196.34.283.713.27 1.078l-7.084-2.49 1.903-6.33zm-13.198 7.62c-.042.406.04.83.26 1.21l3.992 6.915c.196.34.476.6.8.772l1.38-7.38-6.432-1.518zM42 593h13v-2H42m0 8v2h5.25l.5-2m5.25 2h9v-2h-9m-11-4v2h8l2-2m5.25 0l-1.5 2H62v-2m-20 10h4v-2h-4" fill="#909090"/><path d="M56.933 593.923l-4.388 4.433-1.13-1.084 4.298-4.347 1.22.998zm-9.336 8.575l-.556-.68 2-4.438 1.38.656-.6 1.785 1.82-.57.89 1.34-4.92 1.91zm.76-5.498L45 604.45l8.094-3.236 6.477-6.455-4.57-4.38-6.64 6.62zm12.55-4.57l-3.614-3.457S58.5 588.5 60 590c1.5 1.5.907 2.43.907 2.43zm.23-3.54c-1.262-1.205-3.33-1.184-4.617.05l-.176.167 4.57 4.372.176-.17c1.288-1.24 1.31-3.22.047-4.42zM42 628s0-3 3-3 3 3 3 3h-6zm5-5c0 1.105-.895 2-2 2s-2-.895-2-2c0-1.104.895-2 2-2s2 .896 2 2zm-5 14s0-3 3-3 3 3 3 3h-6zm5-5c0 1.105-.895 2-2 2s-2-.895-2-2c0-1.104.895-2 2-2s2 .896 2 2z" fill="#212121"/><path d="M52 623h8v-1h-8v1zm0 2h8v-1h-8v1zm0 2h5v-1h-5v1zm8-6c1.105 0 2 .895 2 2v3c0 1.104-.895 2-2 2h-8c-1.104 0-2-.896-2-2v-3c0-1-2-2-2-2h12zm0 9c1.105 0 2 .895 2 2v5c0 1.105-.895 2-2 2h-8c-1.104 0-2-.895-2-2v-5c0-1-2-2-2-2h12zm-8 2h8v-1h-8v1zm0 2h8v-1h-8v1zm0 2h8v-1h-8v1zm0 2h5v-1h-5v1zm-1 17h2v2h-2v-2zm0 16h2v2h-2v-2zm-8-8h2v2h-2v-2zm0-4h2v2h-2v-2zm0-3c0-.552.444-1 1-1h1v2h-2v-1zm16 3h2v2h-2v-2zm0-4h1c.552 0 1 .444 1 1v1h-2v-2zm-16 12h2v2h-2v-2zm0 4h2v2h-1c-.552 0-1-.444-1-1v-1zm12 0h2v2h-2v-2zm4 0h2v1c0 .552-.444 1-1 1h-1v-2zm-12-16h2v2h-2v-2zm12 12h2v2h-2v-2zm-12 4h2v2h-2v-2zm12-8h2v2h-2v-2zm-4-8h2v2h-2v-2z" fill="#909090"/><path fill="#212121" d="M48 660l2 4 2-4 2 4 2-4h2l-4 8-2-4-2 4-4-8m6 32c-9 0-10 1-10 7s1 7 10 7 10-1 10-7-1-7-10-7"/><path d="M49 701v-6l8 3-8 3zm3-10c-9 0-10 1-10 7s1 7 10 7 10-1 10-7-1-7-10-7z" fill="#909090"/><path d="M59 724h-3c-3 0-3 3-3 3v2h9v-2c0-3-3-3-3-3z" fill="#212121"/><path d="M51 736h9v-1h-9v1zm-2-1h-1c0-1-1-1-1-1v2c0 1 1 1 1 1v1h-3v-1c1 0 1-1 1-1v-2c-1 0-1 1-1 1h-1v-2h5v2zm3-5v-3c0-3-3-3-3-3h-4c-3 0-3 3-3 3v13h20v-10H52z" fill="#909090"/><path fill="#212121" d="M41 766v1l5 5 2-2-4-3v-1l4-3-2-2m10 2l4 3v1l-4 3 2 2 5-5v-1l-5-5"/><path fill="#909090" d="M54 758l-6 15v2h2l6-15v-2"/><g transform="translate(261 41)"><path fill="#FFF" d="M12.332 4L9 7.332 5.666 4 4 5.666 7.333 9 4 12.33 5.667 14 9 10.665l3.332 3.333 1.666-1.667L10.665 9l3.333-3.334M9 41.333c-1.29 0-2.334-1.045-2.334-2.334 0-1.29 1.045-2.34 2.333-2.34 1.28 0 2.33 1.04 2.33 2.33s-1.05 2.33-2.34 2.33zm7-1.556V38.22l-2.53-.503c-.098-.34-.24-.66-.408-.963L14.5 34.6l-1.102-1.1-2.157 1.438c-.3-.166-.61-.306-.95-.404L9.78 32H8.22l-.507 2.535c-.345.1-.67.242-.977.414l-2.1-1.41-1.09 1.09 1.397 2.09c-.174.31-.318.63-.418.98L2 38.22v1.554l2.527.506c.1.34.24.66.41.964L3.5 43.396l1.1 1.1 2.157-1.436c.302.166.62.306.958.404L8.222 46l1.555-.002.507-2.534c.345-.1.67-.242.977-.413l2.1 1.4 1.09-1.09-1.39-2.09c.18-.31.32-.63.42-.98l2.53-.5zM14 71h-1v-4c0-2-2-2-2-2H8v2h3v7s0 1 1 1 1-1 1-1v-1h1s1 0 1-1-1-1-1-1zm-7-7s0-1-1-1-1 1-1 1v1H4s-1 0-1 1 1 1 1 1h1v4s0 2 2 2h3v-2H7v-7zm1 29v5H3v2h5v5h2v-5h5v-2h-5v-5"/><path d="M2 128.998l3-3 1 1-2 2 2 2-1 1-3-3zm10-2l1-1 3 3-3 3-1-1 2-2-2-2zM10 124l1 1-3 8.998-1-1L10 124z" fill="#1FCD8F"/><path d="M10 158v-4H8v4H4v2h4v4h2v-4h4v-2h-4zm-10 1c0-4.97 4.028-9 9-9 4.97 0 9 4.028 9 9 0 4.97-4.028 9-9 9-4.97 0-9-4.028-9-9zm6 21H3v3H0v3h3v6s0 3 3 3h5v-3H6v-12zm9 12v-6s0-3-3-3H7v3h5v12h3v-3h3v-3h-3z" fill="#5E7285"/><path d="M3.582 215H.002L0 217h3.062c.088-.7.264-1.37.52-2zm10.42 10.42L14 227.69v.31h-2v-2.062c.698-.087 1.37-.264 2-.52zM-.002 224l2-2 7 6H0v-4z" fill="#8FA7BF"/><path d="M11 211c-3.866 0-7 3.134-7 7s3.134 7 7 7 7-3.134 7-7-3.134-7-7-7zm3 5l-2 2 2 2v1h-1l-2-2-2 2H8v-1l2-2-2-2v-1h1l2 2 2-2h1v1z" fill="#5E7285"/><path d="M33 11c-1.105 0-2-.895-2-2s.895-2 2-2 2 .895 2 2-.895 2-2 2zm12 0c-1.105 0-2-.895-2-2s.895-2 2-2 2 .895 2 2-.895 2-2 2zm-6 0c-1.105 0-2-.895-2-2s.895-2 2-2 2 .895 2 2-.895 2-2 2z" fill="#212121"/><path d="M33 41c-1.105 0-2-.895-2-2s.895-2 2-2 2 .895 2 2-.895 2-2 2zm12 0c-1.105 0-2-.895-2-2s.895-2 2-2 2 .895 2 2-.895 2-2 2zm-6 0c-1.105 0-2-.895-2-2s.895-2 2-2 2 .895 2 2-.895 2-2 2z" fill="#FFF"/><g fill="#212121"><path fill-opacity=".5" d="M61 2h16v14H61z"/><path d="M61 6h16v6H61z"/></g><g fill="#FFF"><path fill-opacity=".5" d="M61 32h16v14H61z"/><path d="M61 36h16v6H61z"/></g><path d="M97.01 4.412c.05-.022.1-.043.153-.064L98 1h2l.837 3.348c.052.02.103.042.153.064l2.96-1.776 1.414 1.414-1.776 2.96c.022.05.043.1.064.153L107 8v2l-3.348.837c-.02.052-.042.103-.064.153l1.776 2.96-1.414 1.414-2.96-1.776c-.05.022-.1.043-.153.064L100 17h-2l-.837-3.348c-.052-.02-.103-.042-.153-.064l-2.96 1.776-1.414-1.414 1.776-2.96c-.022-.05-.043-.1-.064-.153L91 10V8l3.348-.837c.02-.052.042-.103.064-.153l-1.776-2.96 1.414-1.414 2.96 1.776zM99 12c1.657 0 3-1.343 3-3s-1.343-3-3-3-3 1.343-3 3 1.343 3 3 3z" fill="#212121"/><path d="M97.01 34.412c.05-.022.1-.043.153-.064L98 31h2l.837 3.348c.052.02.103.042.153.064l2.96-1.776 1.414 1.414-1.776 2.96c.022.05.043.1.064.153L107 38v2l-3.348.837c-.02.052-.042.103-.064.153l1.776 2.96-1.414 1.414-2.96-1.776c-.05.022-.1.043-.153.064L100 47h-2l-.837-3.348c-.052-.02-.103-.042-.153-.064l-2.96 1.776-1.414-1.414 1.776-2.96c-.022-.05-.043-.1-.064-.153L91 40v-2l3.348-.837c.02-.052.042-.103.064-.153l-1.776-2.96 1.414-1.414 2.96 1.776zM99 42c1.657 0 3-1.343 3-3s-1.343-3-3-3-3 1.343-3 3 1.343 3 3 3z" fill="#FFF"/><path d="M131.328 9.864c1.335.357 2.817.01 3.864-1.036 1.562-1.562 1.562-4.094 0-5.656-1.562-1.563-4.094-1.563-5.656 0-1.047 1.046-1.393 2.53-1.036 3.864l2.45-2.45c.78-.78 2.047-.78 2.828 0 .78.78.78 2.047 0 2.828l-2.45 2.45zm-1.464 1.464c.357 1.335.01 2.817-1.036 3.864-1.562 1.562-4.094 1.562-5.656 0-1.563-1.562-1.563-4.094 0-5.656 1.046-1.047 2.53-1.393 3.864-1.036l-2.45 2.45c-.78.78-.78 2.047 0 2.828.78.78 2.047.78 2.828 0l2.45-2.45zm.377-4.62c.4-.39 1.03-.394 1.42 0 .39.39.4 1.016 0 1.415l-3.53 3.532c-.39.39-1.02.395-1.41.002-.39-.39-.39-1.017 0-1.416l3.53-3.53z" fill="#212121"/><path d="M131.328 39.864c1.335.357 2.817.01 3.864-1.036 1.562-1.562 1.562-4.094 0-5.656-1.562-1.563-4.094-1.563-5.656 0-1.047 1.046-1.393 2.53-1.036 3.864l2.45-2.45c.78-.78 2.047-.78 2.828 0 .78.78.78 2.047 0 2.828l-2.45 2.45zm-1.464 1.464c.357 1.335.01 2.817-1.036 3.864-1.562 1.562-4.094 1.562-5.656 0-1.563-1.562-1.563-4.094 0-5.656 1.046-1.047 2.53-1.393 3.864-1.036l-2.45 2.45c-.78.78-.78 2.047 0 2.828.78.78 2.047.78 2.828 0l2.45-2.45zm.377-4.62c.4-.39 1.03-.394 1.42 0 .39.39.4 1.016 0 1.415l-3.53 3.532c-.39.39-1.02.395-1.41.002-.39-.39-.39-1.017 0-1.416l3.53-3.53z" fill="#FFF"/><g transform="translate(150)"><path fill="#212121" d="M0 7h7V0H0m11 18h7v-7h-7"/><use fill="#909090" xlink:href="#e"/><use fill="#909090" xlink:href="#f"/></g><g transform="translate(150 30)" fill="#FFF"><path d="M0 7h7V0H0m11 18h7v-7h-7"/><use fill-opacity=".5" xlink:href="#g"/><use fill-opacity=".5" xlink:href="#h"/></g><path d="M182 12l4-3v6l-4-3zm-1-3V8h2v1h-2zm8-1h2c0 2.762-2.24 5-5 5v-2c1.657 0 3-1.344 3-3zm0 0V7h2v1h-2zm-8 0c0-2.762 2.24-5 5-5v2c-1.657 0-3 1.343-3 3h-2zm5-1V1l4 3-4 3z" fill="#909090"/><path d="M191.25 13H190v2c0 1 1 2 2 2h3c1 0 2-1 2-2v-2h-5v-1.5c0-.828.672-1.5 1.5-1.5.653 0 1.21.417 1.415 1h1.035c-.23-1.14-1.24-2-2.45-2-1.38 0-2.5 1.12-2.5 2.5V13h.25z" fill="#212121"/><path d="M185.1 37c-.066.323-.1.658-.1 1 0 2.76 2.24 5 5 5 .342 0 .677-.034 1-.1V45h-8v-8h2.1zm-1.1 5v2h2v-2h-2zm6 0c-2.21 0-4-1.79-4-4s1.79-4 4-4 4 1.79 4 4-1.79 4-4 4z" fill="#A4A4A4"/><path d="M181 35h2v2h-2v-2zm10 10h2v2h-2v-2zm-7-13h2v2h-2v-2zm10 0h2v2h-2v-2zm0 10h2v2h-2v-2zm-13 3h2v2h-2v-2zm-46 60.2V92.8l2-.8v-1l-2.5 1-2.5-1v1l2 .8v12.4l-2 .8v1l2.5-1 2.5 1v-1l-2-.8z" fill="#212121"/><path d="M121 95v4h1s0-3 2-3h1v6c0 2-2 2-2 2v1l3-.5 3 .5v-1s-2 0-2-2v-6h1c2 0 2 3 2 3h1v-4l-5 .25-5-.25zm60-18h16V61h-16v16zm-1 1h18V60h-18v18z" fill="#909090"/><path fill="#212121" d="M191 68l2.5-2.5L195 67l1-5-5 1 1.5 1.5L190 67m-3-4l-5-1 1 5 1.5-1.5L187 68l1-1-2.5-2.5M187 70l-2.5 2.5L183 71l-1 5 5-1-1.5-1.5L188 71m5.5 1.5L191 70l-1 1 2.5 2.5L191 75l5 1-1-5m-96 36c-4.418 0-8-3.582-8-8s3.582-8 8-8 8 3.582 8 8-3.582 8-8 8zm3.003-9h-6.006c-.544 0-.997.448-.997 1 0 .556.446 1 .997 1h6.006c.544 0 .997-.448.997-1 0-.556-.446-1-.997-1zM70 100h2.003c.544 0 .997-.448.997-1 0-.556-.446-1-.997-1H70v-2.003c0-.544-.448-.997-1-.997-.556 0-1 .446-1 .997V98h-2.003c-.544 0-.997.448-.997 1 0 .556.446 1 .997 1H68v2.003c0 .544.448.997 1 .997.556 0 1-.446 1-.997V100zm-1 7c-4.418 0-8-3.582-8-8s3.582-8 8-8 8 3.582 8 8-3.582 8-8 8z"/><g transform="translate(154 94)"><circle fill="#212121" cx="5.5" cy="5.5" r="5.5"/><path fill="#FFF" d="M3 5h5v1H3z"/></g><path d="M152 122h4v14h-4v-14zm5 0h4v14h-4v-14zm5 0h4v14h-4v-14zm19.998-30c-1.103 0-1.998.897-1.998 2.006v9.988c0 1.108.887 2.006 1.998 2.006h4.004c1.103 0 1.998-.897 1.998-2.006v-9.988c0-1.108-.887-2.006-1.998-2.006h-4.004zM181 93v9h6v-9h-6zm3 12c-.552 0-1-.448-1-1s.448-1 1-1 1 .448 1 1-.448 1-1 1zm5-7h6.994c1.11 0 2.006.895 2.006 1.998v4.004c0 1.11-.898 1.998-2.006 1.998H189v-1h8v-6h-8v-1zm4-6v1.5c3 0 4 2.5 4 2.5l-.5.5s-1-2-3.5-2V96l-4-2 4-2z" fill="#212121"/><path d="M70 130h3v-2h-3v-3h-2v3h-3v2h3v3h2v-3zm-1 7c-4.418 0-8-3.582-8-8s3.582-8 8-8 8 3.582 8 8-3.582 8-8 8z" fill="#1691FB"/><path d="M70 160h6v-2h-6v-6h-2v6h-6v2h6v6h2v-6z" fill="#FFF"/><path d="M43 129v-3c0-2.21-1.79-4-4-4s-4 1.79-4 4v3h-1v6c0 1.104.896 2 2 2h6c1.104 0 2-.896 2-2v-6h-1zm-4-5c1.103 0 2 .896 2 2v3h-4v-3c0-1.104.896-2 2-2zm1 9.722V135c0 .552-.448 1-1 1-.554 0-1-.448-1-1v-1.277c-.597-.346-1-.984-1-1.723 0-1.105.895-2 2-2 1.103 0 2 .895 2 2 0 .738-.405 1.376-1 1.722z" fill="#212121"/><path d="M38 158h-4v2h4v4h2v-4h4v-2h-4v-4h-2v4z" fill="#909090"/><use stroke="#212121" mask="url(#i)" stroke-width="2" fill="#D8D8D8" xlink:href="#b"/><path d="M69 182c3.866 0 7 3.134 7 7s-3.134 7-7 7-7-3.134-7-7 3.134-7 7-7zm2 10v-6l-5 3 5 3zm-2 34c-3.866 0-7-3.134-7-7s3.134-7 7-7 7 3.134 7 7-3.134 7-7 7zm-2-10v6l5-3-5-3z" fill="#87969B"/><path d="M37 99v-3c0-1.105.895-2 2-2 1.104 0 2 .895 2 2v1h2v-1c0-2.21-1.79-4-4-4s-4 1.79-4 4v3h-1v6c0 1 1 2 2 2h6c1 0 2-1 2-2v-6h-7zm3 4.723V105c0 .552-.448 1-1 1s-1-.448-1-1v-1.277c-.595-.347-1-.985-1-1.723 0-1.105.895-2 2-2 1.104 0 2 .895 2 2 0 .738-.405 1.376-1 1.723z" fill="#A4A4A4"/><path d="M156 61v14c-2 0-3-1-3-3V61h3zm6 16V63c2 0 3 1 3 3v11h-3zm-11-14h2v3h-2v-3zm16 9v3h-2v-3h2zm-5-9v3h-4v-3h4zm-6 9h4v3h-4v-3z" fill="#212121"/><g transform="translate(123 63)"><mask id="k" fill="#fff"><use xlink:href="#j"/></mask><path d="M10.065 5.936c-.354.953-.91 1.81-1.615 2.514L12 12H2l1.5-1.5c-1.275 0-2.47-.34-3.5-.936v2.43C0 13.102.898 14 2.006 14h9.99C13.1 14 14 13.103 14 11.994V2.006C14 .898 13.103 0 11.995 0h-2.43c.516.894.84 1.913.918 3h.017c.83 0 1.5.672 1.5 1.5 0 .83-.67 1.5-1.5 1.5-.15 0-.297-.022-.435-.064" fill="#7C98B4" mask="url(#k)"/></g><use fill="#909090" xlink:href="#l" transform="translate(123 63)"/><path d="M126.496 70.376v1.145l-2.292-2.06 2.292-2.06v1.38c1.266 0 2.292-1.02 2.292-2.29 0-.25-.04-.49-.115-.71l1.325-.99c.252.52.394 1.1.394 1.71 0 2.16-1.744 3.9-3.896 3.9m-3.9-3.87c0-2.15 1.743-3.89 3.895-3.89v-1.15l2.3 2.066-2.29 2.064v-1.38c-1.26 0-2.29 1.022-2.29 2.29 0 .25.04.49.12.714l-1.32.99c-.25-.514-.39-1.094-.39-1.71m3.9-5.51c-3.035 0-5.5 2.465-5.5 5.5 0 3.04 2.465 5.5 5.5 5.5 3.04 0 5.5-2.46 5.5-5.5 0-3.035-2.46-5.5-5.5-5.5" fill="#212121"/><path fill="#222" fill-rule="nonzero" d="M99.134 70.616l.325.287.33-.287 2.13-1.863-.66-.753-2.14 1.863h.59L97.65 68l-.66.753"/><path fill="#222" d="M72 66l-4 4-2-2-1 1 3.004 3L73 67"/><path d="M38 68h2.5c1.38 0 2.5 1.12 2.5 2.5S41.88 73 40.5 73h-4.01c-.54 0-.99.448-.99 1 0 .556.444 1 .99 1h4.028C42.995 74.99 45 72.98 45 70.5c0-2.485-2.015-4.5-4.5-4.5H38v-3l-5 4 5 4v-3z" fill="#212121"/><path d="M33.998 224h-3.996c-.553 0-1.002-.45-1.002-1.002v-2.996c0-.553.45-1.002 1.002-1.002h3.996c.553 0 1.002.45 1.002 1.002v2.996c0 .553-.45 1.002-1.002 1.002m7 0h-3.996c-.553 0-1.002-.45-1.002-1.002v-2.996c0-.553.45-1.002 1.002-1.002h3.996c.553 0 1.002.45 1.002 1.002v2.996c0 .553-.45 1.002-1.002 1.002m0-6h-3.996c-.553 0-1.002-.45-1.002-1.002v-2.996c0-.553.45-1.002 1.002-1.002h3.996c.553 0 1.002.45 1.002 1.002v2.996c0 .553-.45 1.002-1.002 1.002" fill="#8FA7BF"/><g transform="translate(43 219)"><mask id="n" fill="#fff"><use xlink:href="#m"/></mask><path d="M4.998 5H1.002C.45 5 0 4.55 0 3.998V1.002C0 .45.45 0 1.002 0h3.996C5.55 0 6 .45 6 1.002v2.996C6 4.55 5.55 5 4.998 5" fill="#8FA7BF" mask="url(#n)"/></g><path d="M125 245.992c0-1.1.887-1.992 1.998-1.992h4.004c1.103 0 1.998.9 1.998 1.992v7.016c0 1.1-.887 1.992-1.998 1.992h-4.004c-1.103 0-1.998-.9-1.998-1.992v-7.016zm1 0v4.017c0 .54.444.99.99.99h4.02c.54 0 .99-.45.99-.99v-4.02c0-.54-.444-.99-.99-.99h-4.02c-.54 0-.99.44-.99.99zm3 8.008c.552 0 1-.448 1-1s-.448-1-1-1-1 .448-1 1 .448 1 1 1zm0-10.5c0-.276.214-.5.505-.5h.99c.28 0 .505.232.505.5v.5h-2v-.5z" fill="#212121"/><g transform="translate(93 245)"><mask id="p" fill="#fff"><use xlink:href="#o"/></mask><path fill="#212121" mask="url(#p)" d="M-5 14h22V-5H-5"/></g><path d="M67.252 246.015c0-.97.785-1.754 1.754-1.754.97 0 1.754.79 1.754 1.76s-.785 1.76-1.754 1.76c-.97 0-1.754-.78-1.754-1.75zM74 248.998c0 2-2.278 3.554-4 4v-4.18c1.163-.414 2-1.513 2-2.818 0-1.656-1.342-3-3-3s-3 1.344-3 3c0 1.305.837 2.404 2 2.817v4.18c-1.722-.445-4-2-4-4h-1c0 3 2.686 6 6 6 3.313 0 6-3 6-6h-1z" fill="#212121"/><g fill="#212121"><path d="M44 243l-5 5 1-4h-2v6h6v-2l-4 1 5-5v-1"/><path d="M41 253h-6v-6h1v-2c-1.657 0-3 1.343-3 3v4c0 1.657 1.343 3 3 3h4c1.657 0 3-1.343 3-3h-2v1z"/></g><g fill="#212121"><path d="M9 243v2l4-1-5 5v1h1l5-5-1 4h2v-6"/><path d="M11 253H5v-6h2v-2H6c-1.657 0-3 1.343-3 3v4c0 1.657 1.343 3 3 3h4c1.657 0 3-1.343 3-3v-1h-2v2z"/></g><g fill="#212121"><path d="M155 251v3.503c0 .274.222.497.497.497H158v-2.495c0-.28.226-.505.504-.505h.992c.278 0 .504.226.504.505V255h2.503c.274 0 .497-.223.497-.497V251l-4-4-4 4z"/><path d="M159 244l-6 6 1 1 5-5 5 5 1-1"/></g><g transform="translate(185 243)"><path d="M4 7c-1.085 0-2.027-.582-2.555-1.446C1.9 5.83 2.43 6 3 6c1.656 0 3-1.343 3-3 0-.57-.168-1.1-.445-1.554C6.418 1.973 7 2.916 7 4c0 1.657-1.344 3-3 3zm0-7C1.79 0 0 1.79 0 4s1.79 4 4 4 4-1.79 4-4-1.79-4-4-4z" fill="#212121"/><mask id="r" fill="#fff"><use xlink:href="#q"/></mask><path fill="#212121" mask="url(#r)" d="M2 10h4V9H2m1 3h2v-1H3"/></g><path d="M186.968 282.446c.596.352 1.29.554 2.032.554 2.21 0 4-1.79 4-4 0-.742-.202-1.436-.554-2.032l-5.478 5.478zm-1.414-1.414l5.478-5.478c-.596-.352-1.29-.554-2.032-.554-2.21 0-4 1.79-4 4 0 .742.202 1.436.554 2.032zM189 285c-3.314 0-6-2.686-6-6s2.686-6 6-6 6 2.686 6 6-2.686 6-6 6zm.722 27.125c-2.485 0-4.5-2.043-4.5-4.563 0-2.52 2.015-4.562 4.5-4.562 2.486 0 4.5 2.043 4.5 4.562 0 2.52-2.014 4.563-4.5 4.563zm0-1.52c1.657 0 3-1.363 3-3.043 0-1.68-1.343-3.04-3-3.04s-3 1.36-3 3.04 1.343 3.042 3 3.042zm-5 3.395s-1 .5-1.5 0 0-1.5 0-1.5 2-2.5 3-1.5-1.5 3-1.5 3z" fill="#212121"/><path fill="#909090" d="M60 300h18v12H60z"/><path d="M63 317v-3h-1v-1h3v1h-1v3h1v1h-3v-1h1zm-2-4h1v2h-1v-2zm4 0h1v2h-1v-2zm2 2h10v1H67v-1z" fill="#212121"/><g fill="#7AA5CC"><path d="M72.464 338.398l-2.496-.193-.956-2.272-.96 2.272-2.495.193 1.905 1.596-.584 2.39 2.134-1.285 2.134 1.28-.585-2.39"/><path d="M62 347h14v-15H62v15zm1-1h12v-13H63v13z"/></g><path fill="#B6D6F2" d="M59 359v7l2-2 5 5v-3h3l-5-5 2-2m34 0l2 2-5 5h3v3l5-5 2 2v-7m-7 28h-3l5 5-2 2h7v-7l-2 2-5-5m-39 5l-2-2v7h7l-2-2 5-5h-3v-3"/><path d="M93 375c-1.104 0-2-.896-2-2 0-1.105.896-2 2-2 1.105 0 2 .895 2 2 0 1.104-.895 2-2 2zm-2 7l-3-3 2-2 5 5h-4zm-6 0H71l9-9 9 9h-4zm-17 3h30v-17H68v17zm61-1c-1.5-1.5 0-3 0-3l12-12s1.5-1.5 3 0 0 3 0 3l-12 12s-1.5 1.5-3 0zm22.657-22.657c3.124 3.124 3.125 8.188 0 11.313l-3 3c-2.02 2.02-4.852 2.726-7.445 2.134l2.94-2.94c.872-.206 1.703-.634 2.384-1.315l3-3c1.953-1.953 1.953-5.12 0-7.07-1.953-1.953-5.118-1.954-7.07 0l-3 3c-.683.68-1.112 1.514-1.318 2.388l-2.937 2.938c-.59-2.59.11-5.42 2.14-7.44l3-3c3.13-3.12 8.19-3.12 11.32 0zm-16.805 22.807l2.938-2.94c.594 2.595-.11 5.426-2.132 7.447l-3 3c-3.125 3.125-8.19 3.124-11.315 0-3.123-3.123-3.124-8.19 0-11.315.52-.52 2.482-2.48 3-3 2.022-2.02 4.854-2.725 7.448-2.13l-2.93 2.936c-.87.206-1.7.635-2.39 1.316l-3 3c-1.95 1.954-1.95 5.12 0 7.072 1.96 1.953 5.12 1.953 7.08 0l3-3c.68-.68 1.11-1.513 1.32-2.386z" fill="#284259"/><path d="M92 347h14v-15H92v15zm1-1h12v-13H93v13zm31 1h10v-15h-10v15zm1-1h8v-13h-8v13zm27-1h14v-11h-14v11zm1-1h12v-9h-12v9z" fill="#7AA5CC"/><path d="M189 346c-3.866 0-7-3.134-7-7s3.134-7 7-7 7 3.134 7 7-3.134 7-7 7zm0-1c3.314 0 6-2.686 6-6s-2.686-6-6-6-6 2.686-6 6 2.686 6 6 6zm-.5-10.002c0-.275.232-.498.5-.498.276 0 .5.215.5.498v4.502h-1v-4.502zm1 3.502h2.505c.273 0 .495.232.495.5 0 .276-.216.5-.495.5H189.5v-1zM184 364v.99c0 .567.448 1.01 1 1.01.556 0 1-.452 1-1.01V364h1v1.5c0 .828-.68 1.5-1.5 1.5h-1c-.828 0-1.5-.666-1.5-1.5V364h1v-.99c0-.558.444-1.01 1-1.01.552 0 1 .443 1 1.01v.99h10v12h-14v-12h2zm-1 4v7h12v-7h-12zm8-4v1.5c0 .834.672 1.5 1.5 1.5h1c.82 0 1.5-.672 1.5-1.5V364h-4zm1-.99c0-.558.444-1.01 1-1.01.552 0 1 .443 1 1.01v1.98c0 .558-.444 1.01-1 1.01-.552 0-1-.443-1-1.01v-1.98zM90 306h18v12H90z" fill="#909090"/><path d="M93 304v-3h-1v-1h3v1h-1v3h1v1h-3v-1h1zm-2-4h1v2h-1v-2zm4 0h1v2h-1v-2zm2 2h10v1H97v-1z" fill="#212121"/><path fill="#909090" d="M0 300h5v18H0z"/><path d="M8 308v-3H7v-1h3v1H9v3h1v1H7v-1h1zm-2-4h1v2H6v-2zm4 0h1v2h-1v-2zm2 3h6v1h-6v-1zm0-2h6v1h-6v-1zm-6 5h12v1H6v-1zm0 2h12v1H6v-1zm0 2h7v1H6v-1z" fill="#212121"/><g opacity=".9" fill="#212121"><path d="M8 337c-1.104 0-2 .896-2 2s.896 2 2 2c1.105 0 2-.896 2-2s-.895-2-2-2"/><path d="M11 336v-3H4v12h10v-9h-3zm1 8l-2.445-2.445C9.1 341.832 8.57 342 8 342c-1.656 0-3-1.343-3-3s1.344-3 3-3 3 1.343 3 3c0 .57-.168 1.1-.445 1.555L13 343l-1 1z"/></g><g opacity=".9" transform="translate(3 363)"><use stroke="#212121" mask="url(#s)" stroke-width="2" xlink:href="#c"/><path fill="#212121" d="M2 10l5-5 3 3v2"/><circle fill="#212121" cx="3.5" cy="3.5" r="1.5"/></g><path d="M9 393v2s5 0 5 5c0 0 0 5-5 5s-5-5-5-5h2s0 3 3 3c0 0 3 0 3-3s-3-3-3-3v2l-4-3 4-3zm0 30v2s-5 0-5 5c0 0 0 5 5 5s5-5 5-5h-2s0 3-3 3c0 0-3 0-3-3s3-3 3-3v2l4-3-4-3z" fill="#212121"/><path fill="#909090" d="M43 300h5v18h-5z"/><path d="M32 308v-3h-1v-1h3v1h-1v3h1v1h-3v-1h1zm-2-4h1v2h-1v-2zm4 0h1v2h-1v-2zm2 3h6v1h-6v-1zm0-2h6v1h-6v-1zm-6 5h12v1H30v-1zm0 2h12v1H30v-1zm0 2h7v1h-7v-1zm3-39h-1v1h3v-1h-1v-3h1v-1h-3v1h1v3zm-3-5h18v18H30v-18zm1 7v10h16v-10H31zm0-6v2h1v-2h-1zm4 0v2h1v-2h-1zm2 2v1h10v-1H37zm26 13h-1v1h3v-1h-1v-3h1v-1h-3v1h1v3zm-3-16h18v18H60v-18zm1 1v10h16v-10H61zm0 11v2h1v-2h-1zm4 0v2h1v-2h-1zm2 2v1h10v-1H67zm26-9h-1v1h3v-1h-1v-3h1v-1h-3v1h1v3zm-3-5h18v18H90v-18zm1 1v2h1v-2h-1zm4 0v2h1v-2h-1zm2 2v1h10v-1H97zm26 7h-1v1h3v-1h-1v-3h1v-1h-3v1h1v3zm-3-10h18v18h-18v-18zm1 6v2h1v-2h-1zm4 0v2h1v-2h-1zm2 2v1h10v-1h-10zm26 8h-1v1h3v-1h-1v-3h1v-1h-3v1h1v3zm-3-16h18v18h-18v-18zm1 12v2h1v-2h-1zm4 0v2h1v-2h-1zm2 2v1h10v-1h-10z" fill="#212121"/><path d="M6 273H3c-2 0-2 3-2 3H0v-6h16v6h-.408c-.198-.12-.4-.227-.61-.326-.067-.775-.392-2.674-1.984-2.674H10v2.294c-1.69.503-3.11 1.63-4 3.114V273zm-.62 11.263c.214.623.51 1.207.88 1.737H3v-1.003c1.232 0 1.953-.337 2.38-.734z" fill="#909090"/><path d="M12 286c-.85 0-1.633-.27-2.28-.72l5.56-5.56c.45.647.72 1.43.72 2.28 0 2.21-1.79 4-4 4m0-8c.85 0 1.633.27 2.28.72l-5.56 5.56c-.45-.647-.72-1.43-.72-2.28 0-2.21 1.79-4 4-4m0-2c-3.314 0-6 2.686-6 6s2.686 6 6 6c3.313 0 6-2.686 6-6s-2.687-6-6-6" fill="#212121"/><path d="M43.065 338.936c-.354.953-.91 1.81-1.615 2.514L45 345H35l1.5-1.5c-1.275 0-2.47-.34-3.5-.936v2.43c0 1.108.898 2.006 2.006 2.006h9.99c1.106 0 2.004-.897 2.004-2.006v-9.988c0-1.108-.897-2.006-2.005-2.006h-2.43c.516.894.84 1.913.918 3h.017c.83 0 1.5.672 1.5 1.5 0 .83-.67 1.5-1.5 1.5-.15 0-.297-.022-.435-.064" fill="#7C98B4"/><path d="M36.496 340.375v1.146l-2.292-2.06 2.292-2.06v1.38c1.266 0 2.292-1.02 2.292-2.29 0-.25-.04-.49-.115-.71l1.325-.99c.252.52.394 1.1.394 1.71 0 2.15-1.744 3.9-3.896 3.9m-3.9-3.87c0-2.15 1.743-3.89 3.895-3.89v-1.147l2.3 2.06-2.29 2.065v-1.373c-1.26 0-2.29 1.027-2.29 2.29 0 .25.04.49.12.72l-1.32.99c-.25-.516-.39-1.096-.39-1.71m3.9-5.51c-3.04 0-5.5 2.465-5.5 5.5 0 3.04 2.46 5.5 5.5 5.5s5.5-2.46 5.5-5.5c0-3.035-2.46-5.5-5.5-5.5M32 404h14v-10H32v10zm-1 1h16v-12H31v12z" fill="#24394F"/><path d="M41.5 398c-.828 0-1.5-.672-1.5-1.5s.672-1.5 1.5-1.5 1.5.672 1.5 1.5-.672 1.5-1.5 1.5zm-6.5 5l3-5 3 5h-6zm-1 1h10v-10H34v10zm9-36.036c-1.106 0-2-.895-2-2s.894-2 2-2c1.103 0 2 .895 2 2s-.897 2-2 2zM33 374l5-7 5.062 7H33zm-1 2h14v-14H32v14zm11 51c-1.105 0-2-.895-2-2s.895-2 2-2 2 .895 2 2-.895 2-2 2zm-10 7l5-7 5 7H33zm-1 3h14v-16H32v16z" fill="#7C98B4"/><path d="M32 434h14v-10H32v10zm-1 1h16v-12H31v12z" fill="#24394F"/><path d="M59 437h20v-5H59m1-1h11v-1H60m-1-2h20v-5H59m1-1h13v-1H60" fill="#7AA5CC"/><path d="M71 464v1h-4v-1h-8s0 2 2 2h16c2 0 2-2 2-2h-8zm5-2H62v-8c0-1 1-1 1-1h12s1 0 1 1v8zm1-8s0-2-2-2H63c-2 0-2 2-2 2v9h16v-9z" fill="#7C9DBF"/><path d="M67 461h-4v-6s-.002-1 1-1h3v7z" fill="#00CF8B"/><path d="M101 464v1h-4v-1h-8s0 2 2 2h16c2 0 2-2 2-2h-8zm5-2H92v-8c0-1 1-1 1-1h12s1 0 1 1v8zm1-8s0-2-2-2H93c-2 0-2 2-2 2v9h16v-9z" fill="#7C9DBF"/><path d="M101 461h4v-6s.002-1-1-1h-3v7z" fill="#00CF8B"/><path d="M131 464v1h-4v-1h-8s0 2 2 2h16c2 0 2-2 2-2h-8zm5-2h-14v-8c0-1 1-1 1-1h12s1 0 1 1v8zm1-8s0-2-2-2h-12c-2 0-2 2-2 2v9h16v-9z" fill="#7C9DBF"/><path d="M135 458h-12v-3s0-1 1-1h10c1 0 1 1 1 1v3z" fill="#00CF8B"/><path d="M161 464v1h-4v-1h-8s0 2 2 2h16c2 0 2-2 2-2h-8zm5-2h-14v-8c0-1 1-1 1-1h12s1 0 1 1v8zm1-8s0-2-2-2h-12c-2 0-2 2-2 2v9h16v-9z" fill="#7C9DBF"/><path d="M165 461h-12v-6s0-1 1-1h10c1 0 1 1 1 1v6z" fill="#00CF8B"/><path fill="#7AA5CC" d="M89 436h20v-5H89m0-4h20v-5H89"/><path fill="#F2F9FF" d="M90 425h13v-1H90m0 10h11v-1H90"/><path d="M127 436h12v-5h-12m0-4h12v-5h-12m-8 2h7v-1h-7m3 3h4v-1h-4m-3 8h7v-1h-7m3 3h4v-1h-4" fill="#7AA5CC"/><path d="M32 487c-1.105 0-2 .895-2 2s.895 2 2 2 2-.895 2-2-.895-2-2-2m7 0c-1.105 0-2 .895-2 2s.895 2 2 2 2-.895 2-2-.895-2-2-2m7 0c-1.105 0-2 .895-2 2s.895 2 2 2 2-.895 2-2-.895-2-2-2" fill="#1F1F1F"/><path d="M32 457c-1.105 0-2 .895-2 2s.895 2 2 2 2-.895 2-2-.895-2-2-2m7 0c-1.105 0-2 .895-2 2s.895 2 2 2 2-.895 2-2-.895-2-2-2m7 0c-1.105 0-2 .895-2 2s.895 2 2 2 2-.895 2-2-.895-2-2-2" fill="#7C98B4"/><path d="M32 518c-1.105 0-2 .895-2 2s.895 2 2 2 2-.895 2-2-.895-2-2-2m7 0c-1.105 0-2 .895-2 2s.895 2 2 2 2-.895 2-2-.895-2-2-2m7 0c-1.105 0-2 .895-2 2s.895 2 2 2 2-.895 2-2-.895-2-2-2" fill="#FFF"/><g transform="translate(0 481)"><mask id="u" fill="#fff"><use xlink:href="#t"/></mask><path fill="#C8D2DB" mask="url(#u)" d="M-4 19h20V-5H-4"/></g><path d="M15.75 493H17v2c0 1-1 2-2 2h-3c-1 0-2-1-2-2v-2h1.25H11v-1.5c0-1.38 1.12-2.5 2.5-2.5s2.5 1.12 2.5 2.5v1.5h-.25zm-.75-1.5c0-.828-.672-1.5-1.5-1.5-.83 0-1.5.672-1.5 1.5v1.5h3v-1.5z" fill="#D45F60"/><g transform="translate(10 489)"><mask id="w" fill="#fff"><use xlink:href="#v"/></mask><path fill="#D45F60" mask="url(#w)" d="M-5 13h17V-5H-5"/></g><path d="M6 513c-2.76 0-5 2.24-5 5h2c0-1.657 1.343-3 3-3v-2zm4 1l-4 3v-6l4 3zm-9 5h2v-1H1v1zm5 4c2.76 0 5-2.24 5-5H9c0 1.657-1.343 3-3 3v2zm0 2l-4-3 4-3v6zm3-7h2v-1H9v1z" fill="#9CB1C5"/><g transform="translate(0 511)"><mask id="y" fill="#fff"><use xlink:href="#x"/></mask><path fill="#9CB1C5" mask="url(#y)" d="M-4 19h20V-5H-4"/></g><path d="M11.25 523H10v2c0 1 1 2 2 2h3c1 0 2-1 2-2v-2h-5v-1.5c0-.828.672-1.5 1.5-1.5.653 0 1.21.417 1.415 1h1.035c-.23-1.14-1.24-2-2.45-2-1.38 0-2.5 1.12-2.5 2.5v1.5h.25z" fill="#54B2FF"/><g transform="translate(10 519)"><mask id="A" fill="#fff"><use xlink:href="#z"/></mask><path fill="#54B2FF" mask="url(#A)" d="M-5 13h17V-5H-5"/></g><path d="M13 580l-2 3-4-6-6 9h16m-3-10c1.104 0 2-.896 2-2s-.896-2-2-2-2 .896-2 2 .896 2 2 2M2.553 612.117C.925 611.042 0 609.594 0 608c0-3.314 1-6 8-6s10 2.686 10 6-2 6-8 6c-1.49 0-2.857-.165-4.07-.465L1 616l1.553-3.883zm37.64-39.41h-1.415L31 580.485l5.657 5.657 1.414-1.414-4.95-4.95 7.08-7.07zm-5.658 7.07L42.313 572h5.657v5.657l-7.778 7.778-5.657-5.657zm11.314-4.242c.39-.39.39-1.023 0-1.414-.4-.39-1.03-.39-1.42 0-.39.4-.39 1.03 0 1.42.39.39 1.02.39 1.41 0zM34 545h2v-2h-6v2h2v4h2v-4zm3 1h11v-1H37v1zm0 3h11v-1H37v1zm-7 3h18v-1H30v1zm0 3h14v-1H30v1zm-14 1c0-5-3-5-7-5s-7 0-7 5h14zm-7-7c2.21 0 4-1.79 4-4s-1.79-4-4-4-4 1.79-4 4 1.79 4 4 4zm31 62c0-.6.4-1 1-1h5c.6 0 1 .4 1 1v5c0 .6-.4 1-1 1h-5c-.6 0-1-.4-1-1v-5zm-2-3v8c0 .6-.4 1-1 1h-5c-.6 0-1-.5-1-1v-13c0-1.1.9-2 2-2h13c.6 0 1 .4 1 1v5c0 .6-.4 1-1 1h-8zm-1 0v-1h9v-5H33c-.5 0-1 .4-1 1v13h5v-8z" fill="#1FCD8F"/></g><path d="M497 48.998l3 3h-2.08c-.486 3.393-3.395 6-6.92 6-2.445 0-4.595-1.254-5.847-3.153l1.472-1.472C487.472 54.93 489.102 56 491 56c2.42 0 4.435-1.718 4.898-4H494l3-3.002zm-10.9 1h1.9l-3 3-3-3h2.08C484.566 46.61 487.475 44 491 44c2.445 0 4.594 1.255 5.846 3.154l-1.472 1.47C494.528 47.07 492.897 46 491 46c-2.42 0-4.435 1.717-4.9 4z" fill="#212121"/><path fill="#000" d="M521 50h-1v1l2 2h1l2-2v-1h-1l-1.58 1.58M521 85l1.42 1.58L524 85h1v1l-2 2h-1l-2-2v-1h1zm3-4l-1.42-1.58L521 81h-1v-1l2-2h1l2 2v1h-1z"/><path d="M493.002 89l-3 3v-2.08c-3.393-.486-6-3.395-6-6.92 0-2.445 1.254-4.595 3.153-5.847l1.472 1.472C487.07 79.472 486 81.102 486 83c0 2.42 1.718 4.435 4 4.898V86l3.002 3zm-1-10.9V80l-3-3 3-3v2.08c3.39.485 5.998 3.394 5.998 6.92 0 2.444-1.255 4.593-3.154 5.845l-1.47-1.472C494.93 86.527 496 84.896 496 83c0-2.42-1.717-4.436-4-4.9zm.582 41.91c-3.543 0-6.416-2.913-6.416-6.505 0-3.593 2.873-6.505 6.416-6.505 3.544 0 6.416 2.912 6.416 6.505 0 3.592-2.872 6.505-6.416 6.505zm0-2.17c2.362 0 4.277-1.94 4.277-4.335s-1.91-4.337-4.27-4.337-4.27 1.942-4.27 4.337c0 2.395 1.92 4.336 4.28 4.336zm-7.13 4.843s-1.424.713-2.137 0c-.713-.713 0-2.138 0-2.138s2.85-3.565 4.277-2.14c1.426 1.427-2.14 4.278-2.14 4.278zM484 147c0-3.867 3.134-7 7-7s7 3.133 7 7c0 3.866-3.134 7-7 7s-7-3.134-7-7zm7 4l.835-5.01c.09-.546-.278-.99-.844-.99h-1.98c-.55 0-1.01.453-1.01 1h2l-.83 5.01c-.09.546.28.99.85.99H492c.56 0 1.01-.453 1.01-1h-2zm.25-7c.69 0 1.25-.56 1.25-1.25s-.56-1.25-1.25-1.25-1.25.56-1.25 1.25.56 1.25 1.25 1.25z" fill="#212121"/><path d="M524 210v-2.003c0-.544-.448-.997-1-.997-.556 0-1 .446-1 .997V210h-2.003c-.544 0-.997.448-.997 1 0 .556.446 1 .997 1H522v2.003c0 .544.448.997 1 .997.556 0 1-.446 1-.997V212h2.003c.544 0 .997-.448.997-1 0-.556-.446-1-.997-1H524z" fill="#909090"/><path d="M524 242v-2.003c0-.544-.448-.997-1-.997-.556 0-1 .446-1 .997V242h-2.003c-.544 0-.997.448-.997 1 0 .556.446 1 .997 1H522v2.003c0 .544.448.997 1 .997.556 0 1-.446 1-.997V244h2.003c.544 0 .997-.448.997-1 0-.556-.446-1-.997-1H524zm-1.394 33.444L521 273.827l.816-.827 1.617 1.606L525.07 273l.823.806-1.638 1.638 1.617 1.627-.8.82-1.64-1.61-1.616 1.61-.805-.81" fill="#FFF"/><path d="M527.5 179c.828 0 1.5-.672 1.5-1.5s-.672-1.5-1.5-1.5-1.5.672-1.5 1.5.672 1.5 1.5 1.5zm-8.18 1.94l-1.32 2.31v.752c0 .55.456.998 1.002.998h9.996c.553 0 1.002-.45 1.002-1.01v-.24l-3-3.75-2 3-2.768-3.46c-.79.73-1.796 1.232-2.912 1.4zm4.08-7.94h5.59c1.663 0 3.01 1.342 3.01 3.003v7.994c0 1.658-1.337 3.003-3.01 3.003h-9.98c-1.663 0-3.01-1.342-3.01-3.003V180.4c.317.162.65.294 1 .393v3.204c0 1.107.898 2.003 2.01 2.003h9.98c1.117 0 2.01-.893 2.01-2.003v-7.994c0-1.107-.898-2.003-2.01-2.003h-5.197c-.1-.35-.23-.683-.393-1z" fill="#909090" fill-rule="nonzero"/><path d="M519 175v-1.502c0-.283-.224-.498-.5-.498-.268 0-.5.223-.5.498V175h-1.502c-.283 0-.498.224-.498.5 0 .268.223.5.498.5H518v1.502c0 .283.224.498.5.498.268 0 .5-.223.5-.498V176h1.502c.283 0 .498-.224.498-.5 0-.268-.223-.5-.498-.5H519zm-.5 5c-2.485 0-4.5-2.015-4.5-4.5s2.015-4.5 4.5-4.5 4.5 2.015 4.5 4.5-2.015 4.5-4.5 4.5z" fill="#212121"/><g transform="translate(515 140)"><circle fill="#1691FB" cx="7.5" cy="7.5" r="7.5"/><path fill="#FFF" opacity=".9" d="M4 7l3 3 4-4-1-1-3 3-2-2"/></g><path d="M491 172c-3.866 0-7 3.134-7 7s3.134 7 7 7 7-3.134 7-7-3.134-7-7-7" fill="#CD1F1F"/><path fill="#FFF" d="M494 177l-2 2 2 2v1h-1l-2-2-2 2h-1v-1l2-2-2-2v-1h1l2 2 2-2h1"/><path d="M491 214c-1.36 0-1.454-4.963-1.454-5.516 0-.552.454-1.484 1.454-1.484s1.44.932 1.44 1.484c0 .553-.08 5.516-1.44 5.516m0 4c-.966 0-1.75-.784-1.75-1.75s.784-1.75 1.75-1.75c.967 0 1.75.784 1.75 1.75S491.967 218 491 218m0-14c-2.4 0-6.77 9.984-7.737 11.984-.968 2 .982 3.016 1.934 3.016h11.606c.966 0 2.9-1.015 1.933-3.016-.967-2-5.337-11.984-7.736-11.984" fill="#D45F60"/><path d="M487.75 241.25c-.828 0-1.5-.67-1.5-1.5s.672-1.5 1.5-1.5 1.5.67 1.5 1.5-.672 1.5-1.5 1.5m9.5 1.875c-1-1-7-7.125-7-7.125H484v6.25s6.125 6 7.125 7 2.062 1 3.062 0 2.032-2.063 3.032-3.063 1.03-2.06.03-3.062" fill="#262626"/><path fill="#F2B530" d="M496 266v14h-14v6h20v-20"/><path d="M492 309h-2c0-3 2.33-2.438 2.33-4.125 0-.858-.33-1.196-1.33-1.196-1.484 0-1.443 1.32-1.443 1.32h-1.914c0-1 .857-3 3.357-3 2.297 0 3.357 1.26 3.357 3 0 2-2.357 2-2.357 4zm-2 3h2v-2h-2v2zm1-12c-3.866 0-7 3.134-7 7s3.134 7 7 7 7-3.134 7-7-3.134-7-7-7z" fill="#212121"/><path d="M495 328c13.5 0 15 1.607 15 11.25s-1.5 11.25-15 11.25-15-1.607-15-11.25S481.5 328 495 328zm-4.5 6.75v9l12-4.5-12-4.5z" fill-opacity=".85" fill="#FFF"/><path d="M663 44h12c1.656 0 3 1.343 3 3v9c0 1.657-1.344 3-3 3h-12c-1.656 0-3-1.343-3-3v-9c0-1.657 1.344-3 3-3" fill="#212121"/><path d="M667 55l1 1 3-8-1-1-3 8zm6-6l-1 1 3 1.5-3 1.5 1 1 3-2v-1l-3-2zm-8 0l-3 2v1l3 2 1-1-3-1.5 3-1.5-1-1z" fill="#1FCD8F"/><path d="M668 78l-1 1v1h-2v1h9v-1h-2v-1l-1-1h-3zm1 1h1l1 1h-3l1-1zm3 3h1v6l-1 1h-5l-1-1v-6h1v6h1v-6h1v6h1v-6h1v6h1v-6z" fill="#DC0000"/><path d="M663 122h11v-1h-11m8-13l-2 2 3 3 2-2m-11 5v3h3l5-5-3-3-5 5zm1 0l1-1 2 2-1 1h-2v-2z" fill="#618098"/><path d="M667 146v-3c0-1.105.895-2 2-2 1.104 0 2 .895 2 2v3h-4zm3 4.723V152c0 .552-.447 1-1 1-.553 0-1-.448-1-1v-1.277c-.596-.347-1-.985-1-1.723 0-1.105.895-2 2-2 1.104 0 2 .895 2 2 0 .738-.404 1.376-1 1.723zm3-4.723v-3c0-2.21-1.79-4-4-4s-4 1.79-4 4v3h-1v6s0 2 2 2h6c1.998 0 2-2 2-2v-6h-1zm-3 36.723V184c0 .552-.447 1-1 1-.553 0-1-.448-1-1v-1.277c-.596-.347-1-.984-1-1.723 0-1.104.895-2 2-2 1.104 0 2 .896 2 2 0 .74-.404 1.376-1 1.723zm1-4.723h-4v-3c0-1.104.895-2 2-2 1.104 0 2 .896 2 2v1h2v-1c0-2.21-1.79-4-4-4s-4 1.79-4 4v3h-1v6s0 2 2 2h6c1.998 0 2-2 2-2v-6h-3z" fill="#212121"/><path fill="#263A4D" d="M709 107v2h-4v4h-2v-6m16 6h-2v-4h-4v-2h6m-6 16v-2h4v-4h2v6m-16-6h2v4h4v2h-6"/><path fill="#FFF" d="M709 139v2h-4v4h-2v-6m16 6h-2v-4h-4v-2h6m-6 16v-2h4v-4h2v6m-16-6h2v4h4v2h-6"/><g transform="translate(701 42)"><path d="M121 80s5 0 5-5-5-5-5-5h-8l2.998-3-.997-1-6 5 6 5 1-1-3-3h8s3 0 3 3-3 3-3 3h-9v2h9z" fill="#263A4D"/><path d="M121 112s5 0 5-5-5-5-5-5h-8l2.998-3-.997-1-6 5 6 5 1-1-3-3h8s3 0 3 3-3 3-3 3h-9v2h9z" fill="#FFF"/><path d="M15 138h-2v2h1c.553 0 1 .448 1 1v3c0 .552-.447 1-1 1H6c-.553 0-1-.448-1-1v-3c0-.552.447-1 1-1h1v-2H5c-1.105 0-2 .896-2 2v5c0 1.104.895 2 2 2h10c1.104 0 2-.896 2-2v-5c0-1.104-.896-2-2-2" fill="#263A4D"/><path fill="#263A4D" d="M9 131.002V143h2v-12l4 5 2-.998-7-8-7 8 2 1"/><path d="M15 170h-2v2h1c.553 0 1 .448 1 1v3c0 .552-.447 1-1 1H6c-.553 0-1-.448-1-1v-3c0-.552.447-1 1-1h1v-2H5c-1.105 0-2 .896-2 2v5c0 1.104.895 2 2 2h10c1.104 0 2-.896 2-2v-5c0-1.104-.896-2-2-2" fill="#FFF"/><path fill="#FFF" d="M9 163.002V175h2v-12l4 5 2-.998-7-8-7 8 2 1"/><path fill="#263A4D" d="M124 131l2 2-10 10-6-6 2-2 4 4"/><path fill="#FFF" d="M124 163l2 2-10 10-6-6 2-2 4 4"/><path d="M10 208c-.553 0-1-.448-1-1s.447-1 1-1c.552 0 1 .448 1 1s-.448 1-1 1m0-3c-1.106 0-2 .896-2 2s.894 2 2 2c1.103 0 2-.896 2-2s-.897-2-2-2m-6 0c-1.105 0-2 .896-2 2s.895 2 2 2c1.104 0 2-.896 2-2s-.896-2-2-2m12 3c-.553 0-1-.448-1-1s.447-1 1-1c.553 0 1 .448 1 1s-.447 1-1 1m0-3c-1.105 0-2 .896-2 2s.895 2 2 2c1.104 0 2-.896 2-2s-.896-2-2-2" fill="#263A4D"/><mask id="C" fill="#fff"><use xlink:href="#B"/></mask><path fill="#263A4D" mask="url(#C)" d="M3 203h2v-9H3m4 7h8v-5H7v5zm-1 1h10v-7H6v7zm4 70c-.553 0-1-.448-1-1s.447-1 1-1c.552 0 1 .448 1 1s-.448 1-1 1m0-3c-1.106 0-2 .896-2 2s.894 2 2 2c1.103 0 2-.896 2-2s-.897-2-2-2m6 0c-1.105 0-2 .896-2 2s.895 2 2 2c1.104 0 2-.896 2-2s-.896-2-2-2m-12 3c-.553 0-1-.448-1-1s.447-1 1-1c.553 0 1 .448 1 1s-.447 1-1 1m0-3c-1.105 0-2 .896-2 2s.895 2 2 2c1.104 0 2-.896 2-2s-.896-2-2-2m11-2h2v-9h-2m-11 7h8v-5H4v5zm-1 1h10v-7H3v7zm1-26c-.553 0-1-.448-1-1s.447-1 1-1c.553 0 1 .448 1 1s-.447 1-1 1m0-3c-1.105 0-2 .896-2 2s.895 2 2 2c1.104 0 2-.896 2-2s-.896-2-2-2m6 0c-1.105 0-2 .896-2 2s.895 2 2 2c1.104 0 2-.896 2-2s-.896-2-2-2m6 3c-.553 0-1-.448-1-1s.447-1 1-1c.553 0 1 .448 1 1s-.447 1-1 1m0-3c-1.105 0-2 .896-2 2s.895 2 2 2c1.104 0 2-.896 2-2s-.896-2-2-2m-13-2h2v-9H3m12 9h2v-9h-2m-8 7h6v-5H7v5zm-1 1h8v-7H6v7z"/><path d="M118 208c-.553 0-1-.448-1-1s.447-1 1-1c.552 0 1 .448 1 1s-.448 1-1 1m0-3c-1.106 0-2 .896-2 2s.894 2 2 2c1.103 0 2-.896 2-2s-.897-2-2-2m-6 0c-1.105 0-2 .896-2 2s.895 2 2 2c1.104 0 2-.896 2-2s-.896-2-2-2m12 3c-.553 0-1-.448-1-1s.447-1 1-1c.553 0 1 .448 1 1s-.447 1-1 1m0-3c-1.105 0-2 .896-2 2s.895 2 2 2c1.104 0 2-.896 2-2s-.896-2-2-2m-13-2h2v-9h-2m4 7h8v-5h-8v5zm-1 1h10v-7h-10v7zm4 70c-.553 0-1-.448-1-1s.447-1 1-1c.552 0 1 .448 1 1s-.448 1-1 1m0-3c-1.106 0-2 .896-2 2s.894 2 2 2c1.103 0 2-.896 2-2s-.897-2-2-2m6 0c-1.105 0-2 .896-2 2s.895 2 2 2c1.104 0 2-.896 2-2s-.896-2-2-2m-12 3c-.553 0-1-.448-1-1s.447-1 1-1c.553 0 1 .448 1 1s-.447 1-1 1m0-3c-1.105 0-2 .896-2 2s.895 2 2 2c1.104 0 2-.896 2-2s-.896-2-2-2m11-2h2v-9h-2m-11 7h8v-5h-8v5zm-1 1h10v-7h-10v7zm1-26c-.553 0-1-.448-1-1s.447-1 1-1c.553 0 1 .448 1 1s-.447 1-1 1m0-3c-1.105 0-2 .896-2 2s.895 2 2 2c1.104 0 2-.896 2-2s-.896-2-2-2m6 0c-1.105 0-2 .896-2 2s.895 2 2 2c1.104 0 2-.896 2-2s-.896-2-2-2m6 3c-.553 0-1-.448-1-1s.447-1 1-1c.553 0 1 .448 1 1s-.447 1-1 1m0-3c-1.105 0-2 .896-2 2s.895 2 2 2c1.104 0 2-.896 2-2s-.896-2-2-2m-13-2h2v-9h-2m12 9h2v-9h-2m-8 7h6v-5h-6v5zm-1 1h8v-7h-8v7zM9 303h6v-6l-2 2-5-5 2-2H4v6l2-2 5 5" fill="#FFF" mask="url(#C)"/><path d="M15 325l-5 4v-3s-3.998 0-3.998 4c0 3.998 4 3.998 4 3.998s3.998 0 3.998-4c0 0 0-1 1-1s1 1 1 1 0 6-6 6c0 0-5.998 0-5.998-6 0-5.998 6-5.998 6-5.998v-3L15 325z" fill="#263A4D" mask="url(#C)"/><path d="M128 305h-20v-16h20v16zm-.002-17.997c-.996 0-18.997.003-19.997 0s-2 1.003-2 2V305c0 1 1 2 2 2h20c1 0 2-.998 2-2v-15.997c0-1.003-1-2-2-2z" fill="#81A4BF" mask="url(#C)"/><path fill="#81A4BF" mask="url(#C)" d="M121.998 298.002l-2 2.998-5-6.998L110 303h15.998m-1.498-9c.828 0 1.5-.67 1.5-1.5s-.672-1.5-1.5-1.5-1.5.67-1.5 1.5.672 1.5 1.5 1.5"/><path d="M7 358v-6H4v3H1v3h3v6s0 3 3 3h5v-3H7v-6z" fill="#97B8DA" mask="url(#C)"/><path d="M16 364v-6s0-3-3-3H8v3h5v12h3v-3h3v-3h-3z" fill="#97B8DA" mask="url(#C)"/><path d="M115 358v-6h-3v3h-3v3h3v6s0 3 3 3h5v-3h-5v-6z" fill="#1FCD8F" mask="url(#C)"/><path d="M124 364v-6s0-3-3-3h-5v3h5v12h3v-3h3v-3h-3z" fill="#1FCD8F" mask="url(#C)"/><path d="M13.534 386.636c.78-.78 2.048-.78 2.83 0 .78.78.78 2.047 0 2.83l-1.415 1.413-2.44 2.43c1.33.35 2.8.02 3.85-1.02l1.41-1.42c1.56-1.57 1.56-4.1 0-5.66-1.56-1.57-4.1-1.57-5.66 0l-1.41 1.41c-1.05 1.04-1.38 2.51-1.03 3.85l2.43-2.44 1.41-1.42zm-5.657 14.142l1.414-1.414c1.05-1.044 1.38-2.52 1.03-3.85l-2.44 2.436-1.41 1.414c-.78.78-2.04.78-2.83 0s-.78-2.048 0-2.83l1.42-1.413 2.44-2.43c-1.33-.35-2.8-.02-3.85 1.02l-1.41 1.41c-1.56 1.57-1.56 4.1 0 5.66 1.57 1.56 4.1 1.56 5.66 0" fill="#97B8DA" mask="url(#C)"/><path d="M13.535 389.464c-.707-.707-1.414 0-1.414 0l-5.65 5.656s-.7.71 0 1.42c.71.706 1.42 0 1.42 0l5.66-5.658s.71-.707 0-1.414" fill="#97B8DA" mask="url(#C)"/><path d="M121.534 386.636c.78-.78 2.048-.78 2.83 0 .78.78.78 2.047 0 2.83l-1.415 1.413-2.44 2.43c1.33.35 2.8.02 3.85-1.02l1.41-1.42c1.56-1.57 1.56-4.1 0-5.66-1.56-1.57-4.1-1.57-5.66 0l-1.42 1.41c-1.05 1.04-1.38 2.51-1.03 3.85l2.43-2.44 1.41-1.42zm-5.657 14.142l1.414-1.414c1.05-1.044 1.38-2.52 1.03-3.85l-2.43 2.436-1.41 1.414c-.78.78-2.04.78-2.83 0-.78-.78-.78-2.048 0-2.83l1.42-1.413 2.44-2.43c-1.33-.35-2.8-.02-3.85 1.02l-1.41 1.42c-1.56 1.57-1.56 4.1 0 5.66 1.568 1.57 4.1 1.57 5.66 0" fill="#1FCD8F" mask="url(#C)"/><path d="M121.535 389.464c-.707-.707-1.414 0-1.414 0l-5.65 5.657s-.71.71 0 1.42 1.42 0 1.42 0l5.66-5.65s.71-.7 0-1.41" fill="#1FCD8F" mask="url(#C)"/><path d="M7 419v5.408c.89-1.483 2.31-2.61 4-3.114V419h2.998c1.592 0 1.917 1.9 1.983 2.674.21.1.42.207.62.326h.4v-6H1v6h1s0-3 2-3h3zm-.62 11.263c-.427.397-1.148.735-2.38.734V432h3.26c-.37-.53-.666-1.114-.88-1.737" fill="#97B8DA" mask="url(#C)"/><path d="M13 432c-.85 0-1.633-.27-2.28-.72l5.56-5.56c.45.647.72 1.43.72 2.28 0 2.21-1.79 4-4 4m0-8c.85 0 1.633.27 2.28.72l-5.56 5.56c-.45-.647-.72-1.43-.72-2.28 0-2.21 1.79-4 4-4m0-2c-3.314 0-6 2.686-6 6s2.686 6 6 6c3.313 0 6-2.686 6-6s-2.687-6-6-6" fill="#DC6060" mask="url(#C)"/><path d="M115 419v5.408c.89-1.483 2.31-2.61 4-3.114V419h2.998c1.592 0 1.917 1.9 1.983 2.674.21.1.42.207.62.326h.4v-6h-16v6h1s0-3 2-3h3zm-.62 11.263c-.427.397-1.148.735-2.38.734V432h3.26c-.37-.53-.666-1.114-.88-1.737" fill="#1FCD8F" mask="url(#C)"/><path d="M121 432c-.85 0-1.633-.27-2.28-.72l5.56-5.56c.45.647.72 1.43.72 2.28 0 2.21-1.79 4-4 4m0-8c.85 0 1.633.27 2.28.72l-5.56 5.56c-.45-.647-.72-1.43-.72-2.28 0-2.21 1.79-4 4-4m0-2c-3.314 0-6 2.686-6 6s2.686 6 6 6c3.313 0 6-2.686 6-6s-2.687-6-6-6" fill="#DC6060" mask="url(#C)"/><path d="M2 465h16v-16H2v16zm-1 1h18v-18H1v18z" fill="#8FA7BF" mask="url(#C)"/><path fill="#8FA7BF" mask="url(#C)" d="M3 464h14l-7-10m3-2c0 1.104.895 2 2 2 1.104 0 2-.896 2-2s-.896-2-2-2c-1.105 0-2 .896-2 2"/><path fill="#97B8DA" mask="url(#C)" d="M1 466h18v-7H1"/><path d="M3 462h.5c0-1.328 1.5-1.203 1.5-1.203V463c0 1.547-1 1.5-1 1.5v.5h3v-.5s-1 .063-1-1.5v-2.203s1.5-.156 1.5 1.203H8v-2H3v2zm6 1h8v-1H9" fill="#21394E" mask="url(#C)"/><path d="M2 497h16v-16H2v16zm-1 1h18v-18H1v18z" fill="#8FA7BF" mask="url(#C)"/><path fill="#8FA7BF" mask="url(#C)" d="M3 496h14l-7-10m3-2c0 1.104.895 2 2 2 1.104 0 2-.896 2-2s-.896-2-2-2c-1.105 0-2 .896-2 2"/><path fill="#97B8DA" mask="url(#C)" d="M1 488h18v-8H1"/><path d="M3 484h.5c0-1.328 1.5-1.203 1.5-1.203V485c0 1.547-1 1.5-1 1.5v.5h3v-.5s-1 .063-1-1.5v-2.203s1.5-.156 1.5 1.203H8v-2H3v2zm6 1h8v-1H9" fill="#21394E" mask="url(#C)"/><path d="M2 619h16v-10H2v10zm-1 1h18v-12H1v12z" fill="#8FA7BF" mask="url(#C)"/><path fill="#8FA7BF" mask="url(#C)" d="M3 618h12l-6-6m4 0c0 1.104.895 2 2 2 1.104 0 2-.896 2-2s-.896-2-2-2c-1.105 0-2 .896-2 2"/><path d="M2 623h.5c0-1.328 1.5-1.203 1.5-1.203V624c0 1.547-1 1.5-1 1.5v.5h3v-.5s-1 .063-1-1.5v-2.203s1.5-.156 1.5 1.203H7v-2H2v2zm6 1h10v-1H8" fill="#97B8DA" mask="url(#C)"/><path d="M2 657h16v-10H2v10zm-1 1h18v-12H1v12z" fill="#8FA7BF" mask="url(#C)"/><path fill="#8FA7BF" mask="url(#C)" d="M3 656h12l-6-6m4 0c0 1.105.895 2 2 2 1.104 0 2-.895 2-2s-.896-2-2-2c-1.105 0-2 .895-2 2"/><path d="M2 642h.5c0-1.328 1.5-1.203 1.5-1.203V643c0 1.547-1 1.5-1 1.5v.5h3v-.5s-1 .063-1-1.5v-2.203s1.5-.156 1.5 1.203H7v-2H2v2zm6 1h10v-1H8" fill="#97B8DA" mask="url(#C)"/><path d="M110 619h16v-10h-16v10zm-1 1h18v-12h-18v12z" fill="#1FCD8F" mask="url(#C)"/><path fill="#1FCD8F" mask="url(#C)" d="M111 618h12l-6-6m4 0c0 1.104.895 2 2 2 1.104 0 2-.896 2-2s-.896-2-2-2c-1.105 0-2 .896-2 2"/><path d="M110 623h.5c0-1.328 1.5-1.203 1.5-1.203V624c0 1.547-1 1.5-1 1.5v.5h3v-.5s-1 .063-1-1.5v-2.203s1.5-.156 1.5 1.203h.5v-2h-5v2zm6 1h10v-1h-10" fill="#97B8DA" mask="url(#C)"/><path d="M110 657h16v-10h-16v10zm-1 1h18v-12h-18v12z" fill="#1FCD8F" mask="url(#C)"/><path fill="#1FCD8F" mask="url(#C)" d="M111 656h12l-6-6m4 0c0 1.105.895 2 2 2 1.104 0 2-.895 2-2s-.896-2-2-2c-1.105 0-2 .895-2 2"/><path d="M110 642h.5c0-1.328 1.5-1.203 1.5-1.203V643c0 1.547-1 1.5-1 1.5v.5h3v-.5s-1 .063-1-1.5v-2.203s1.5-.156 1.5 1.203h.5v-2h-5v2zm6 1h10v-1h-10" fill="#97B8DA" mask="url(#C)"/><path d="M110 497h16v-16h-16v16zm-1 1h18v-18h-18v18z" fill="#1FCD8F" mask="url(#C)"/><path fill="#1FCD8F" mask="url(#C)" d="M111 496h14l-7-10m3-2c0 1.104.895 2 2 2 1.104 0 2-.896 2-2s-.896-2-2-2c-1.105 0-2 .896-2 2"/><path fill="#97B8DA" mask="url(#C)" d="M109 488h18v-8h-18"/><path d="M111 484h.5c0-1.328 1.5-1.203 1.5-1.203V485c0 1.547-1 1.5-1 1.5v.5h3v-.5s-1 .063-1-1.5v-2.203s1.5-.156 1.5 1.203h.5v-2h-5v2zm6 1h8v-1h-8" fill="#21394E" mask="url(#C)"/><path d="M2 529h16v-16H2v16zm-1 1h18v-18H1v18z" fill="#8FA7BF" mask="url(#C)"/><path fill="#8FA7BF" mask="url(#C)" d="M3 528h14l-7-10m3-2c0 1.104.895 2 2 2 1.104 0 2-.896 2-2s-.896-2-2-2c-1.105 0-2 .896-2 2"/><path fill="#97B8DA" mask="url(#C)" d="M1 530h18v-18H1"/><path d="M3 516h.5c0-1.328 1.5-1.203 1.5-1.203V517c0 1.547-1 1.5-1 1.5v.5h3v-.5s-1 .063-1-1.5v-2.203s1.5-.156 1.5 1.203H8v-2H3v2zm6 1h8v-1H9" fill="#21394E" mask="url(#C)"/><path d="M110 529h16v-16h-16v16zm-1 1h18v-18h-18v18z" fill="#1FCD8F" mask="url(#C)"/><path fill="#1FCD8F" mask="url(#C)" d="M111 528h14l-7-10m3-2c0 1.104.895 2 2 2 1.104 0 2-.896 2-2s-.896-2-2-2c-1.105 0-2 .896-2 2"/><path fill="#97B8DA" mask="url(#C)" d="M109 530h18v-18h-18"/><path d="M111 516h.5c0-1.328 1.5-1.203 1.5-1.203V517c0 1.547-1 1.5-1 1.5v.5h3v-.5s-1 .063-1-1.5v-2.203s1.5-.156 1.5 1.203h.5v-2h-5v2zm6 1h8v-1h-8" fill="#21394E" mask="url(#C)"/><path d="M2 561h16v-16H2v16zm-1 1h18v-18H1v18z" fill="#8FA7BF" mask="url(#C)"/><path fill="#8FA7BF" mask="url(#C)" d="M3 560h14l-7-10m3-2c0 1.104.895 2 2 2 1.104 0 2-.896 2-2s-.896-2-2-2c-1.105 0-2 .896-2 2"/><path fill="#97B8DA" mask="url(#C)" d="M1 562h18v-18H1"/><path d="M3 552h.5c0-1.328 1.5-1.203 1.5-1.203V553c0 1.547-1 1.5-1 1.5v.5h3v-.5s-1 .063-1-1.5v-2.203s1.5-.156 1.5 1.203H8v-2H3v2zm6 1h8v-1H9" fill="#21394E" mask="url(#C)"/><path d="M110 561h16v-16h-16v16zm-1 1h18v-18h-18v18z" fill="#1FCD8F" mask="url(#C)"/><path fill="#1FCD8F" mask="url(#C)" d="M111 560h14l-7-10m3-2c0 1.104.895 2 2 2 1.104 0 2-.896 2-2s-.896-2-2-2c-1.105 0-2 .896-2 2"/><path fill="#97B8DA" mask="url(#C)" d="M109 562h18v-18h-18"/><path d="M111 552h.5c0-1.328 1.5-1.203 1.5-1.203V553c0 1.547-1 1.5-1 1.5v.5h3v-.5s-1 .063-1-1.5v-2.203s1.5-.156 1.5 1.203h.5v-2h-5v2zm6 1h8v-1h-8" fill="#21394E" mask="url(#C)"/><path d="M2 593h16v-16H2v16zm-1 1h18v-18H1v18z" fill="#8FA7BF" mask="url(#C)"/><path fill="#8FA7BF" mask="url(#C)" d="M3 592h14l-7-10m3-2c0 1.104.895 2 2 2 1.104 0 2-.896 2-2s-.896-2-2-2c-1.105 0-2 .896-2 2"/><path fill="#97B8DA" mask="url(#C)" d="M1 594h18v-18H1"/><path d="M3 589h.5c0-1.328 1.5-1.203 1.5-1.203V590c0 1.547-1 1.5-1 1.5v.5h3v-.5s-1 .063-1-1.5v-2.203s1.5-.156 1.5 1.203H8v-2H3v2zm6 1h8v-1H9" fill="#21394E" mask="url(#C)"/><path d="M110 593h16v-16h-16v16zm-1 1h18v-18h-18v18z" fill="#1FCD8F" mask="url(#C)"/><path fill="#1FCD8F" mask="url(#C)" d="M111 592h14l-7-10m3-2c0 1.104.895 2 2 2 1.104 0 2-.896 2-2s-.896-2-2-2c-1.105 0-2 .896-2 2"/><path fill="#97B8DA" mask="url(#C)" d="M109 594h18v-18h-18"/><path d="M111 589h.5c0-1.328 1.5-1.203 1.5-1.203V590c0 1.547-1 1.5-1 1.5v.5h3v-.5s-1 .063-1-1.5v-2.203s1.5-.156 1.5 1.203h.5v-2h-5v2zm6 1h8v-1h-8" fill="#21394E" mask="url(#C)"/><path d="M110 465h16v-16h-16v16zm-1 1h18v-18h-18v18z" fill="#1FCD8F" mask="url(#C)"/><path fill="#1FCD8F" mask="url(#C)" d="M111 464h14l-7-10m3-2c0 1.104.895 2 2 2 1.104 0 2-.896 2-2s-.896-2-2-2c-1.105 0-2 .896-2 2"/><path fill="#97B8DA" mask="url(#C)" d="M109 466h18v-7h-18"/><path d="M111 462h.5c0-1.328 1.5-1.203 1.5-1.203V463c0 1.547-1 1.5-1 1.5v.5h3v-.5s-1 .063-1-1.5v-2.203s1.5-.156 1.5 1.203h.5v-2h-5v2zm6 1h8v-1h-8" fill="#21394E" mask="url(#C)"/><path d="M2 679c-1.105 0-2 .895-2 2 0 1.104.895 2 2 2 1.104 0 2-.896 2-2 0-1.105-.896-2-2-2m8 0c-1.105 0-2 .895-2 2 0 1.104.895 2 2 2 1.104 0 2-.896 2-2 0-1.105-.896-2-2-2m8 0c-1.105 0-2 .895-2 2 0 1.104.895 2 2 2 1.104 0 2-.896 2-2 0-1.105-.896-2-2-2" fill="#97B8DA" mask="url(#C)"/><path d="M110 679c-1.105 0-2 .895-2 2 0 1.104.895 2 2 2 1.104 0 2-.896 2-2 0-1.105-.896-2-2-2m8 0c-1.105 0-2 .895-2 2 0 1.104.895 2 2 2 1.104 0 2-.896 2-2 0-1.105-.896-2-2-2m8 0c-1.105 0-2 .895-2 2 0 1.104.895 2 2 2 1.104 0 2-.896 2-2 0-1.105-.896-2-2-2" fill="#1FCD8F" mask="url(#C)"/><path d="M17 706c-2-2-3-1-3-1l-1 1 4 4 1-1s1-1-1-3m-3 5v1l-7 6H6v-1l7-6h1zm-10 5v-1l7-6h1v1l-7 6H4zm1 3H3v-2h1v1h1v1zm-2-4l-2 6 6-2 9-8-4-4-9 8z" fill="#97B8DA" mask="url(#C)"/><path d="M125 706c-2-2-3-1-3-1l-1 1 4 4 1-1s1-1-1-3m-3 5v1l-7 6h-1v-1l7-6h1zm-10 5v-1l7-6h1v1l-7 6h-1zm1 3h-2v-2h1v1h1v1zm-2-4l-2 6 6-2 9-8-4-4-9 8z" fill="#1FCD8F" mask="url(#C)"/><path fill="#97B8DA" mask="url(#C)" d="M13 743l2-2 2 2v-5h-5l2 2-2 2m5 10v-5l-2 2-2-2-1 1 2 2-2 2m-6-2l2-2-1-1-2 2-2-2v5h5m-1-9l1-1-2-2 2-2H3v5l2-2"/><path d="M2 753h16v-16H2v16zm-1 1h18v-18H1v18z" fill="#97B8DA" mask="url(#C)"/><path fill="#1FCD8F" mask="url(#C)" d="M120 738l2 2-2 2 1 1 2-2 2 2v-5m-4 9l-1 1 2 2-2 2h5v-5l-2 2m-8-2l-2 2-2-2v5h5l-2-2 2-2m-5-10v5l2-2 2 2 1-1-2-2 2-2"/><path d="M110 753h16v-16h-16v16zm-1 1h18v-18h-18v18z" fill="#97B8DA" mask="url(#C)"/><path d="M2 17h10V1H2v16zm-1 1h12V0H1v18z" fill="#8FA7BF" mask="url(#C)"/><path fill="#8FA7BF" mask="url(#C)" d="M10 16h1v-4L9 9l-1.897 2.655L4 7 3 9v7h1M9 6c1.104 0 2-.896 2-2s-.896-2-2-2c-1.105 0-2 .896-2 2s.895 2 2 2"/><path d="M14 4h.5c0-1.328 1.5-1.203 1.5-1.203V5c0 1.547-1 1.5-1 1.5V7h3v-.5s-1 .063-1-1.5V2.797S18.5 2.64 18.5 4h.5V2h-5v2zm0 6h5V9h-5m0 3h5v-1h-5m0 3h5v-1h-5m0 3h3v-1h-3" fill="#97B8DA" mask="url(#C)"/><path d="M110 17h10V1h-10v16zm-1 1h12V0h-12v18z" fill="#1FCD8F" mask="url(#C)"/><path fill="#1FCD8F" mask="url(#C)" d="M118 16h1v-4l-2-3-1.897 2.655L112 7l-1 2v7h1m5-10c1.104 0 2-.896 2-2s-.896-2-2-2c-1.105 0-2 .896-2 2s.895 2 2 2"/><path d="M122 4h.5c0-1.328 1.5-1.203 1.5-1.203V5c0 1.547-1 1.5-1 1.5V7h3v-.5s-1 .063-1-1.5V2.797s1.5-.156 1.5 1.203h.5V2h-5v2zm0 6h5V9h-5m0 3h5v-1h-5m0 3h5v-1h-5m0 3h3v-1h-3" fill="#97B8DA" mask="url(#C)"/><path d="M8 785h10v-16H8v16zm-1 1h12v-18H7v18z" fill="#8FA7BF" mask="url(#C)"/><path fill="#8FA7BF" mask="url(#C)" d="M16 784h1v-4l-2-3-1.897 2.655L10 775l-1 2v7h1m5-10c1.104 0 2-.896 2-2 0-1.105-.896-2-2-2-1.105 0-2 .895-2 2 0 1.104.895 2 2 2"/><path d="M1 772h.5c0-1.328 1.5-1.203 1.5-1.203V773c0 1.547-1 1.5-1 1.5v.5h3v-.5s-1 .063-1-1.5v-2.203s1.5-.156 1.5 1.203H6v-2H1v2zm0 6h5v-1H1m0 3h5v-1H1m0 3h5v-1H1m0 3h3v-1H1" fill="#97B8DA" mask="url(#C)"/><path d="M116 785h10v-16h-10v16zm-1 1h12v-18h-12v18z" fill="#1FCD8F" mask="url(#C)"/><path fill="#1FCD8F" mask="url(#C)" d="M124 784h1v-4l-2-3-1.897 2.655L118 775l-1 2v7h1m5-10c1.104 0 2-.896 2-2 0-1.105-.896-2-2-2-1.105 0-2 .895-2 2 0 1.104.895 2 2 2"/><path d="M109 772h.5c0-1.328 1.5-1.203 1.5-1.203V773c0 1.547-1 1.5-1 1.5v.5h3v-.5s-1 .063-1-1.5v-2.203s1.5-.156 1.5 1.203h.5v-2h-5v2zm0 6h5v-1h-5m0 3h5v-1h-5m0 3h5v-1h-5m0 3h3v-1h-3M8 48h1V34H8m2 14h1V34h-1m3 4v6l3-3M6 44v-6l-3 3m107-8v6h1s0-3 2-3h3v10c0 2-3 2-3 2v1h10v-1s-3 0-3-2V36h3c2 0 2 3 2 3h1v-6h-16z" fill="#97B8DA" mask="url(#C)"/><path d="M3 815h9v-8H3v8zm-1 1h11v-10H2v10z" fill="#21394E" mask="url(#C)"/><path fill="#21394E" mask="url(#C)" d="M11 814l-3-4-3 4m0-4c.553 0 1-.447 1-1 0-.553-.447-1-1-1-.553 0-1 .447-1 1 0 .553.447 1 1 1m12-4v-5h-5v1h3l-2 2v1h1l2-2v3m-5-6h1v-1h-1m2 1h1v-1h-1m-4 1h1v-1H9m-4 1h1v-1H5m2 1h1v-1H7m-2 19h1v-1H5m-2 1h1v-1H3m0-17h1v-1H3m-3 4h1v-1H0m17-3v1h1v1h1v-2m-19 6h1v-1H0m0 5h1v-1H0m0 3h1v-1H0m0 3h1v-1H0m0-5h1v-1H0m0 9h1v-1H0m18-7h1v-1h-1m0-1h1v-1h-1m0-1h1v-1h-1m0 7h1v-1h-1m-17-8h1v-1H0v2h1m17 16h-1v1h2v-2h-1m0-5h1v-1h-1m-17 6H0v2h2v-1H1m6 1h1v-1H7m4 1h1v-1h-1m2 1h1v-1h-1m-4 1h1v-1H9m6 1h1v-1h-1m3-2h1v-1h-1m0-1h1v-1h-1m-3-12h1v-1h-1m95 18h16v-16h-16v16zm-1 1h18v-18h-18v18z"/><path fill="#21394E" mask="url(#C)" d="M125 815l-4-6-2 3-3-5-5 8h6m5-8c1.104 0 2-.896 2-2 0-1.105-.896-2-2-2-1.105 0-2 .895-2 2 0 1.104.895 2 2 2"/><path d="M12 846H8v-5H4l6-6 6 6h-4v5zm-2-14c-4.97 0-9 4.03-9 9s4.03 9 9 9 9-4.03 9-9-4.03-9-9-9z" fill="#FFF" mask="url(#C)"/><path fill="#97B8DA" mask="url(#C)" d="M5 866h14v-1H5m0 16h14v-1H5m9-11h5v-1h-5m0 4h5v-1h-5m0 4h5v-1h-5m0 4h5v-1h-5m-4.5-5c-.828 0-1.5-.672-1.5-1.5s.672-1.5 1.5-1.5 1.5.672 1.5 1.5-.672 1.5-1.5 1.5zM2 877l4.5-5 4.5 5H2zm-1 1h11v-10H1v10z"/><path fill="#1FCD8F" mask="url(#C)" d="M113 866h14v-1h-14m0 16h14v-1h-14m9-11h5v-1h-5m0 4h5v-1h-5m0 4h5v-1h-5m0 4h5v-1h-5m-4.5-5c-.828 0-1.5-.672-1.5-1.5s.672-1.5 1.5-1.5 1.5.672 1.5 1.5-.672 1.5-1.5 1.5zm-7.5 5l4.5-5 4.5 5h-9zm-1 1h11v-10h-11v10z"/><path d="M128 337h-20v-16h20v16zm-.002-17.997c-.996 0-18.997.003-19.997 0s-2 1.003-2 2V337c0 1 1 2 2 2h20c1 0 2-.998 2-2v-15.997c0-1.003-1-2-2-2z" fill="#01A773" mask="url(#C)"/><path fill="#01A773" mask="url(#C)" d="M121.998 330.002l-2 2.998-5-6.998L110 335h15.998m-1.498-9c.828 0 1.5-.67 1.5-1.5s-.672-1.5-1.5-1.5-1.5.67-1.5 1.5.672 1.5 1.5 1.5"/></g><path d="M358 162c-2.21 0-4 1.79-4 4s1.79 4 4 4v8h2v-14h2v14h2v-14h2v-2h-8" fill="#212121"/><path d="M355 206.508V193h4.73c1.64 0 2.884.314 3.73.942.848.627 1.272 1.547 1.272 2.76 0 .66-.17 1.244-.51 1.748-.34.505-.814.874-1.42 1.11.693.172 1.24.522 1.638 1.047.4.526.598 1.17.598 1.93 0 1.3-.414 2.282-1.243 2.95-.83.668-2.01 1.008-3.544 1.02H355zm2.783-5.882v3.646h2.384c.656 0 1.168-.156 1.536-.47.368-.31.552-.742.552-1.293 0-1.24-.64-1.87-1.92-1.89h-2.552zm0-1.967h2.06c1.404-.03 2.106-.59 2.106-1.68 0-.62-.18-1.06-.54-1.33-.36-.27-.92-.41-1.69-.41h-1.95v3.4z" fill="#121212"/><path d="M359 223h6v1h-6v-1zm-2 13h6v1h-6v-1zm4-12h2l-2 12h-2l2-12z" fill="#212121"/><g opacity=".5"><path d="M387.627 258.5c2.776 2 .925 5-1.85 5-2.777 0-2.777-4-2.777-4 0-4 2.776-7 4.627-7 0 0 .925 0 .925 1s-4.736 2.254-.925 5zm8 0c2.776 2 .925 5-1.85 5-2.777 0-2.777-4-2.777-4 0-4 2.776-7 4.627-7 0 0 .925 0 .925 1s-4.736 2.254-.925 5z" fill="#212121"/><path d="M391 266.5c0 .552.447 1 1 1 .553 0 1-.448 1-1s-.447-1-1-1c-.553 0-1 .448-1 1zm-3-1c-.553 0-1 .448-1 1s.447 1 1 1c.553 0 1-.448 1-1s-.447-1-1-1" fill="#909090"/></g><path d="M387.627 228.5c2.776 2 .925 5-1.85 5-2.777 0-2.777-4-2.777-4 0-4 2.776-7 4.627-7 0 0 .925 0 .925 1s-4.736 2.254-.925 5zm8 0c2.776 2 .925 5-1.85 5-2.777 0-2.777-4-2.777-4 0-4 2.776-7 4.627-7 0 0 .925 0 .925 1s-4.736 2.254-.925 5z" fill="#212121"/><path d="M392 236.5c0 .552.447 1 1 1 .553 0 1-.448 1-1s-.447-1-1-1c-.553 0-1 .448-1 1z" fill="#909090"/><path d="M386 236.5c0 1.104.896 2 2 2s2-.896 2-2c0-1.105-.896-2-2-2s-2 .895-2 2zm1.627-38c2.776 2 .925 5-1.85 5-2.777 0-2.777-4-2.777-4 0-4 2.776-7 4.627-7 0 0 .925 0 .925 1s-4.736 2.254-.925 5zm8 0c2.776 2 .925 5-1.85 5-2.777 0-2.777-4-2.777-4 0-4 2.776-7 4.627-7 0 0 .925 0 .925 1s-4.736 2.254-.925 5z" fill="#212121"/><path d="M387 206.5c0 .552.447 1 1 1 .553 0 1-.448 1-1s-.447-1-1-1c-.553 0-1 .448-1 1z" fill="#909090"/><path d="M391 206.5c0 1.104.896 2 2 2s2-.896 2-2c0-1.105-.896-2-2-2s-2 .895-2 2zm-28.672 54.364c1.335.357 2.817.01 3.864-1.036 1.562-1.562 1.562-4.094 0-5.656-1.562-1.563-4.094-1.563-5.656 0-1.047 1.046-1.393 2.53-1.036 3.864l2.45-2.45c.78-.78 2.047-.78 2.828 0 .78.78.78 2.047 0 2.828l-2.45 2.45zm-1.464 1.464c.357 1.335.01 2.817-1.036 3.864-1.562 1.562-4.094 1.562-5.656 0-1.563-1.562-1.563-4.094 0-5.656 1.046-1.047 2.53-1.393 3.864-1.036l-2.45 2.45c-.78.78-.78 2.047 0 2.828.78.78 2.047.78 2.828 0l2.45-2.45zm.377-4.62c.4-.39 1.03-.394 1.42 0 .39.39.4 1.016 0 1.415l-3.53 3.532c-.39.39-1.02.395-1.41.002-.39-.39-.39-1.017 0-1.416l3.53-3.53zM414 253c1.105 0 2 .895 2 2s-.895 2-2 2c-1.104 0-2-.895-2-2s.896-2 2-2zm4 1h10v2h-10v-2zm-4 4c1.105 0 2 .895 2 2 0 1.104-.895 2-2 2-1.104 0-2-.896-2-2 0-1.105.896-2 2-2zm4 1h10v2h-10v-2z" fill="#212121"/><path d="M422 265c-.553 0-1 .448-1 1s.447 1 1 1c.553 0 1-.448 1-1s-.447-1-1-1m-5 1c0 .552.447 1 1 1 .553 0 1-.448 1-1s-.447-1-1-1c-.553 0-1 .448-1 1z" fill="#909090"/><path d="M414 223c1.105 0 2 .895 2 2s-.895 2-2 2c-1.104 0-2-.895-2-2s.896-2 2-2zm4 1h10v2h-10v-2zm-4 4c1.105 0 2 .895 2 2 0 1.104-.895 2-2 2-1.104 0-2-.896-2-2 0-1.105.896-2 2-2zm4 1h10v2h-10v-2z" fill="#212121"/><path d="M423 235c-.553 0-1 .448-1 1s.447 1 1 1c.553 0 1-.448 1-1s-.447-1-1-1" fill="#909090"/><path d="M416 236c0 1.104.896 2 2 2s2-.896 2-2c0-1.105-.896-2-2-2s-2 .895-2 2zm2-42h10v2h-10v-2zm-4.5-2l-1 1h.5v3h-1v1h3v-1h-1v-4h-.5zm-1 6h2.5v2.25l-.5.75H413v1h2v1h-3v-1.75l1.5-1.25h.5v-1h-1.5v-1zm5.5 1h10v2h-10v-2z" fill="#212121"/><path d="M418 205c-.553 0-1 .448-1 1s.447 1 1 1c.553 0 1-.448 1-1s-.447-1-1-1" fill="#909090"/><path d="M421 206c0 1.104.896 2 2 2s2-.896 2-2c0-1.105-.896-2-2-2s-2 .895-2 2zm21 46h16v2h-16m0 6h16v2h-16m0-6h10v2h-10m2 6c-1.104 0-2 .895-2 2 0 1.104.896 2 2 2s2-.896 2-2c0-1.105-.896-2-2-2" fill="#212121"/><path d="M453 265c-.553 0-1 .448-1 1s.447 1 1 1c.553 0 1-.448 1-1s-.447-1-1-1m-4 0c-.553 0-1 .448-1 1s.447 1 1 1c.553 0 1-.448 1-1s-.447-1-1-1m7 1c0 .552.447 1 1 1 .553 0 1-.448 1-1s-.447-1-1-1c-.553 0-1 .448-1 1z" fill="#909090"/><path fill="#212121" d="M442 222h16v2h-16m0 6h16v2h-16m3-6h10v2h-10m3 6c-1.104 0-2 .895-2 2 0 1.104.896 2 2 2s2-.896 2-2c0-1.105-.896-2-2-2"/><path d="M453 235c-.553 0-1 .448-1 1s.447 1 1 1c.553 0 1-.448 1-1s-.447-1-1-1m-10 0c-.553 0-1 .448-1 1s.447 1 1 1c.553 0 1-.448 1-1s-.447-1-1-1m14 0c-.553 0-1 .448-1 1s.447 1 1 1c.553 0 1-.448 1-1s-.447-1-1-1" fill="#909090"/><path fill="#212121" d="M442 192h16v2h-16m0 6h16v2h-16m6-6h10v2h-10m4 6c-1.104 0-2 .895-2 2 0 1.104.896 2 2 2s2-.896 2-2c0-1.105-.896-2-2-2"/><path d="M447 205c-.553 0-1 .448-1 1s.447 1 1 1c.553 0 1-.448 1-1s-.447-1-1-1m-4 0c-.553 0-1 .448-1 1s.447 1 1 1c.553 0 1-.448 1-1s-.447-1-1-1m14 0c-.553 0-1 .448-1 1s.447 1 1 1c.553 0 1-.448 1-1s-.447-1-1-1" fill="#909090"/><path fill="#212121" d="M442 162h16v2h-16m0 6h16v2h-16m0-6h16v2h-16m14 6c-1.104 0-2 .895-2 2 0 1.104.896 2 2 2s2-.896 2-2c0-1.105-.896-2-2-2"/><path d="M447 175c-.553 0-1 .448-1 1s.447 1 1 1c.553 0 1-.448 1-1s-.447-1-1-1m-4 0c-.553 0-1 .448-1 1s.447 1 1 1c.553 0 1-.448 1-1s-.447-1-1-1m8 0c-.553 0-1 .448-1 1s.447 1 1 1c.553 0 1-.448 1-1s-.447-1-1-1" fill="#909090"/><path d="M390 162c-4.418 0-8 3.582-8 8s3.582 8 8 8 8-3.582 8-8-3.582-8-8-8zm-3.5 4c.828 0 1.5.67 1.5 1.5s-.672 1.5-1.5 1.5-1.5-.67-1.5-1.5.672-1.5 1.5-1.5zm3.5 10c-5 0-5-5-5-5s2 1 5 1 5-1 5-1 0 5-5 5zm3.5-7c-.828 0-1.5-.67-1.5-1.5s.672-1.5 1.5-1.5 1.5.67 1.5 1.5-.672 1.5-1.5 1.5z" fill="#212121"/></g></svg>