<svg width="920" height="930" viewBox="0 0 920 930" xmlns="http://www.w3.org/2000/svg" xmlns:xlink="http://www.w3.org/1999/xlink"><title>uf-core-el-sprite_new</title><defs><path id="a" d="M0 18h23V0H0z"/><path id="c" d="M0 22h22V0H0z"/><path id="e" d="M4 0H0v4h4V0z"/><path id="g" d="M0 18h20V0H0z"/><path id="i" d="M0 18h18V0H0z"/><path id="k" d="M0 16h20V0H0z"/><path d="M9 3.03c2.1.23 3.74 1.9 3.97 3.97H11l3 3 3-3h-2.02c-.24-3.2-2.8-5.74-5.98-5.98v2z" id="m"/><path d="M3.02 11.02c.24 3.2 2.8 5.74 5.98 5.98v-2c-2.1-.24-3.74-1.9-3.97-3.98H7l-3-3-3 3h2.02z" id="n"/><path d="M9 3.03c2.1.23 3.74 1.9 3.97 3.97H11l3 3 3-3h-2.02c-.24-3.2-2.8-5.74-5.98-5.98v2z" id="o"/><path d="M3.02 11.02c.24 3.2 2.8 5.74 5.98 5.98v-2c-2.1-.24-3.74-1.9-3.97-3.98H7l-3-3-3 3h2.02z" id="p"/><path id="q" d="M14 0H0v14h14V0z"/><path d="M9.56 0c.52.9.85 1.9.92 3h.02c.83 0 1.5.67 1.5 1.5S11.33 6 10.5 6c-.15 0-.3-.02-.44-.06-.35.95-.9 1.8-1.6 2.5L12 12H2l1.5-1.5c-1.27 0-2.47-.34-3.5-.94V12c0 1.1.9 2 2 2h10c1.1 0 2-.9 2-2V2c0-1.1-.9-2-2-2H9.55z" id="s"/><path id="t" d="M3 5h3V0H0v5h3z"/><path d="M2 0C.9 0 0 .9 0 2v5c0 1.1.9 2 2 2h8c1.1 0 2-.9 2-2V2c0-1.1-.9-2-2-2H2zm9 1L6 7 1 1l5 3 5-3z" id="v"/><path id="x" d="M0 12h8V0H0z"/><path d="M6 6l4-3-4-3v6zM1 7h2c0-1.66 1.34-3 3-3V2C3.24 2 1 4.24 1 7zm8 0h2V6H9v1zm0 0c0 1.66-1.34 3-3 3v2c2.76 0 5-2.24 5-5H9zM1 8h2V7H1v1zm0 0l2-1-2 1zm1 3l4 3V8l-4 3z" id="z"/><path d="M1 2.5V4h.25H0v2c0 1 1 2 2 2h3c1 0 2-1 2-2V4H5.75 6V2.5C6 1.12 4.88 0 3.5 0S1 1.12 1 2.5zm1 0C2 1.67 2.67 1 3.5 1S5 1.67 5 2.5V4H2V2.5z" id="B"/><path d="M6 6l4-3-4-3v6zM1 7h2c0-1.66 1.34-3 3-3V2C3.24 2 1 4.24 1 7zm8 0h2V6H9v1zm0 0c0 1.66-1.34 3-3 3v2c2.76 0 5-2.24 5-5H9zM1 8h2V7H1v1zm0 0l2-1-2 1zm1 3l4 3V8l-4 3z" id="D"/><path d="M1 2.5V4h.25H0v2c0 1 1 2 2 2h3c1 0 2-1 2-2V4H2V2.5C2 1.67 2.67 1 3.5 1c.65 0 1.2.42 1.42 1h1.03C5.72.86 4.7 0 3.5 0 2.12 0 1 1.12 1 2.5z" id="F"/><path id="H" d="M0 881h130V0H0z"/></defs><g fill="none" fill-rule="evenodd"><path fill="#72848D" d="M40 0h200v16H40zm220 0h200v16H260zm220 0h200v16H480zm220 0h200v16H700z"/><text font-family="Courier" font-size="11" fill="#FFF" transform="translate(40)"><tspan x="10.19" y="10">sidebar element icons</tspan></text><text font-family="Courier" font-size="11" fill="#FFF" transform="translate(40)"><tspan x="230" y="10">element ui icons</tspan></text><text font-family="Courier" font-size="11" fill="#FFF" transform="translate(40)"><tspan x="450" y="10">miscellaneous</tspan></text><text font-family="Courier" font-size="11" fill="#FFF" transform="translate(40)"><tspan x="670" y="10">image / gallery / slider</tspan></text><path d="M57 46c1 0 1 1 1 1v2.77c0 .32-.22.43-.45.43-.24 0-.47-.1-.5-.43-.1-1.42-1-2.62-2.55-2.7L53 47s.02 7.53 0 8c0 1 1 2 2.42 2.2.2.04.3.22.3.4 0 .2-.1.4-.3.4h-6.8c-.2 0-.3-.2-.3-.38s.1-.37.3-.4C50 57 51 56 51 55v-8l-1.5.05c-1.66.06-2.4 1.23-2.56 2.72-.02.24-.25.43-.5.43-.22 0-.44-.1-.44-.4V47s0-1 1-1h10z" fill="#537EA6"/><path d="M61 43h1v-1h-1v1zm0 19h1v-1h-1v1zm-1-1H44v-1h-1V44h1v-1h16v1h1v16h-1v1zm-18 1h1v-1h-1v1zm0-19h1v-1h-1v1zm21 1v-3h-3v1H44v-1h-3v3h1v16h-1v3h3v-1h16v1h3v-3h-1V44h1zm-2 33h1v-1h-1v1zm0 19h1v-1h-1v1zm-1-1H44v-1h-1V78h1v-1h16v1h1v16h-1v1zm-18 1h1v-1h-1v1zm0-19h1v-1h-1v1zm21 1v-3h-3v1H44v-1h-3v3h1v16h-1v3h3v-1h16v1h3v-3h-1V78h1z" fill="#A1C5E6"/><path fill="#537EA6" d="M56 87l-2 3-4-6-6 9h16m-5-12c0 1.1.9 2 2 2s2-.9 2-2-.9-2-2-2-2 .9-2 2m-11 37c0-3.3 2.7-6 6-6s6 2.7 6 6-2.7 6-6 6-6-2.7-6-6m18 10l-4.72-4.72c1.08-1.5 1.72-3.3 1.72-5.28 0-4.97-4.03-9-9-9s-9 4.03-9 9 4.03 9 9 9c1.97 0 3.8-.64 5.28-1.72L60 130s1 1 2 0 0-2 0-2"/><path d="M48.73 121.78c.4.13.82.22 1.27.22 2.2 0 4-1.8 4-4 0-.45-.1-.87-.22-1.27-.64 2.47-2.58 4.42-5.05 5.05" fill="#A1C5E6"/><path d="M44 151l1-2h-2s-2 0-2 2v1h-1v2h1v5h2v-5h2v-2h-2v-1h1z" fill="#537EA6"/><path d="M63 158s0 2-2 2h-8s-2 0-2-2v-2.5l-2.5-1.5 2.5-1.5V150s0-2 2-2h8s2 0 2 2v8zm-10-11c-3 0-3 3-3 3v2l-3 2 3 2v2c0 3 3 3 3 3h8c3 0 3-3 3-3v-8c0-3-3-3-3-3h-8z" fill="#A1C5E6"/><path d="M46 184h15v-1H46v1zm0 2h15v-1H46v1zm0 2h15v-1H46v1zm0 2h15v-1H46v1zm0 2h9v-1h-9v1z" fill="#537EA6"/><path fill="#A1C5E6" d="M42 195h2v-15h-2m-2 46h23v-5H40"/><path d="M40 214v16h23v-16H40zm17 7h5v-3h-5v3zm-6 0h5v-3h-5v3zm-10 0h9v-3h-9v3zm16 4h5v-3h-5v3zm-6 0h5v-3h-5v3zm-10 0h9v-3h-9v3zm16 4h5v-3h-5v3zm-6 0h5v-3h-5v3zm-10 0h9v-3h-9v3zm3 19h16s3 0 3 3v10c0 3-3 3-3 3H44s-3 0-3-3v-10c0-3 3-3 3-3" fill="#537EA6"/><path d="M50 255h1v-1c0-1-2-1-3-1-3 0-3 1-3 3s0 3 3 3 3-1 3-3h-3v1h2c0 1 0 1-2 1s-2 0-2-2 0-2 2-2 2 0 2 1m6 3c-2 0-2-.67-2-2s0-2 2-2 2 .67 2 2 0 2-2 2m0-5c-3 0-3 1-3 3s0 3 3 3 3-1 3-3 0-3-3-3" fill="#A1C5E6"/><path d="M42 297h20v-14H42v14zm17-11h2v-2h-2v2zm-4 0h2v-2h-2v2zm-4 0h2v-2h-2v2zm-4 0h2v-2h-2v2zm-4 0h2v-2h-2v2zm16 10h2v-2h-2v2zm-4 0h2v-2h-2v2zm-4 0h2v-2h-2v2zm-4 0h2v-2h-2v2zm-4 0h2v-2h-2v2z" fill="#537EA6"/><path fill="#A1C5E6" d="M43 293h2v-6h-2m16 6h2v-6h-2m-12 6h10v-6H47"/><path fill="#537EA6" d="M50 288v4l4-2"/><path fill="#A1C5E6" d="M41 327l6 8h16l-6-8"/><path d="M52 323c-1.66 0-3-1.34-3-3s1.34-3 3-3 3 1.34 3 3-1.34 3-3 3m0-10c-4 0-7 3-7 7 0 5 7 12 7 12s7-7 7-12c0-4-3-7-7-7m-8 50h15v-14H44v14zm1-1h13v-12H45v12z" fill="#537EA6"/><g transform="translate(40 349)"><path d="M15.5 5c.83 0 1.5-.67 1.5-1.5S16.33 2 15.5 2 14 2.67 14 3.5 14.67 5 15.5 5zM14 12h3l-3-5-1.4 2.88L10 5l-4 7h5" fill="#537EA6"/><mask id="b" fill="#fff"><use xlink:href="#a"/></mask><path fill="#A1C5E6" mask="url(#b)" d="M4 18h3v-3H4m4 3h3v-3H8m4 3h3v-3h-3m4 3h3v-3h-3m4-6V5l3 2M3 5v4L0 7"/></g><path fill="#537EA6" d="M54 397h3l-3-5-1.46 2.44L50 390l-4 7h5"/><g transform="translate(41 381)"><path d="M14.5 9c.83 0 1.5-.67 1.5-1.5S15.33 6 14.5 6 13 6.67 13 7.5 13.67 9 14.5 9z" fill="#537EA6"/><mask id="d" fill="#fff"><use xlink:href="#c"/></mask><path d="M4 17h13V5H4v12zM17 4H3v14h15V4h-1z" fill="#537EA6" mask="url(#d)"/><path d="M19 10.1v2.8c.58-.2 1-.75 1-1.4 0-.65-.42-1.2-1-1.4" fill="#A1C5E6" mask="url(#d)"/><path fill="#A1C5E6" mask="url(#d)" d="M21 8h-2v1h2v12H8v-2H7v3h15V8"/><path fill="#A1C5E6" mask="url(#d)" d="M19 18.33V19H9.57L9 20h11M2 13H1V1h13v2h1V0H0v14h2"/><path d="M12.9 3c-.2-.58-.75-1-1.4-1-.65 0-1.2.42-1.4 1h2.8z" fill="#A1C5E6" mask="url(#d)"/></g><path d="M52 427c0 2-3 2-3 2s-3 0-3-2c-4.68.9-5 3-5 4 0 2 3 2 3 2h10s3 0 3-2c0-1-.32-3.1-5-4m0-5c0 2.2-.8 5-3 5s-3-2.8-3-5 .8-3 3-3 3 .8 3 3" fill="#537EA6"/><path fill="#A1C5E6" d="M57 424l3 3 3-3m-21 41h20v-4H42m0 9h20v-4H42"/><path fill="#537EA6" d="M43 456h18v-1H43m0 3h18v-1H43m0 3h14v-1H43m13 3l2 2 2-2m-4 5l2 2 2-2"/><path d="M42 454h20v-4H42v4zm16-3l2 2h-4l2-2zm-1 38H47c-.55 0-1 .45-1 1s.45 1 1 1h10c.55 0 1-.45 1-1s-.45-1-1-1m0 4H47c-.55 0-1 .45-1 1s.45 1 1 1h10c.55 0 1-.45 1-1s-.45-1-1-1m0 4H47c-.55 0-1 .45-1 1s.45 1 1 1h10c.55 0 1-.45 1-1s-.45-1-1-1" fill="#A1C5E6"/><path d="M61 501c0 1.1-.9 2-2 2H45c-1.1 0-2-.9-2-2v-14c0-1.1.9-2 2-2h14c1.1 0 2 .9 2 2v14zm-2-17H45c-1.66 0-3 1.34-3 3v14c0 1.66 1.34 3 3 3h14c1.66 0 3-1.34 3-3v-14c0-1.66-1.34-3-3-3z" fill="#537EA6"/><path d="M55.23 526.05c-.1-.56-.23-1-.23-1-.4-1.77.16-4.05-1.5-4.05s.6 4.25-2.5 4.87v.03c-.63.17-1 .64-1 1.75v4.9c0 2.77 2.24 2.5 5 2.5s5-.73 5-3.5v-3.24c0-2.7-2.1-2.2-4.77-2.2" fill="#A1C5E6"/><path d="M47 534.06c-.55 0-1-.45-1-1s.45-1 1-1 1 .45 1 1-.45 1-1 1zm2-7c0-.55-.45-1-1-1h-3c-.55 0-1 .45-1 1v7c0 .55.45 1 1 1h3c.55 0 1-.45 1-1v-7z" fill="#537EA6"/><path d="M58 566l-4-2 3.8-2.85c.13.26.2.54.2.85v4zm-2 2h-8c-.77 0-1.44-.45-1.77-1.1L51 565l1 1 1-1 4.77 1.9c-.33.65-1 1.1-1.77 1.1zm-10-6c0-.3.07-.6.2-.85L50 564l-4 2v-4zm2-2h8c.5 0 .94.18 1.28.48L52 564l-5.28-3.52c.34-.3.8-.48 1.28-.48zm7-8H44v20h16v-15l-5-5z" fill="#A1C5E6"/><path fill="#537EA6" d="M55 552v5h5"/><path fill="#A1C5E6" d="M42 593h13v-2H42m0 8v2h5.25l.5-2m5.25 2h9v-2h-9m-11-4v2h8l2-2m5.25 0l-1.5 2H62v-2m-20 10h4v-2h-4"/><path d="M56.93 593.92l-4.4 4.44-1.12-1.1 4.3-4.33 1.3 1zm-9.33 8.58l-.56-.68 2-4.44 1.38.66-.6 1.78 1.82-.57.88 1.34-4.92 1.9zm.76-5.5L45 604.45l8.1-3.24 6.47-6.4-4.57-4.4-6.64 6.6zm12.55-4.57l-3.6-3.46s1.2-.47 2.7 1.03c1.5 1.5.9 2.43.9 2.43zm.3-3.54c-1.2-1.3-3.3-1.2-4.6 0l-.2.1 4.6 4.4.2-.2c1.3-1.2 1.3-3.2.1-4.4z" fill="#537EA6"/><g transform="translate(42 621)"><path d="M0 7s0-3 3-3 3 3 3 3H0z" fill="#537EA6"/><g transform="translate(1)"><mask id="f" fill="#fff"><use xlink:href="#e"/></mask><path d="M4 2c0-1.1-.9-2-2-2S0 .9 0 2s.9 2 2 2 2-.9 2-2" fill="#537EA6" mask="url(#f)"/></g><path d="M0 16s0-3 3-3 3 3 3 3H0zm5-5c0-1.1-.9-2-2-2s-2 .9-2 2 .9 2 2 2 2-.9 2-2" fill="#537EA6"/><mask id="h" fill="#fff"><use xlink:href="#g"/></mask><path d="M10 2h8V1h-8v1zm0 2h8V3h-8v1zm0 2h5V5h-5v1zm8-6H6s2 1 2 2v3c0 1.1.9 2 2 2h8c1.1 0 2-.9 2-2V2c0-1.1-.9-2-2-2zm-8 11h8v-1h-8v1zm0 2h8v-1h-8v1zm0 2h8v-1h-8v1zm0 2h5v-1h-5v1zm8-8H6s2 1 2 2v5c0 1.1.9 2 2 2h8c1.1 0 2-.9 2-2v-5c0-1.1-.9-2-2-2z" fill="#A1C5E6" mask="url(#h)"/></g><path fill="#A1C5E6" d="M51 657h2v-2h-2m0 18h2v-2h-2m-8-6h2v-2h-2m0-2h2v-2h-2m16 2h2v-2h-2m-16 10h2v-2h-2m12 6h2v-2h-2m-8-14h2v-2h-2"/><g transform="translate(43 655)"><path d="M2 16H.56c.34.6.84 1.1 1.44 1.45V16z" fill="#A1C5E6"/><mask id="j" fill="#fff"><use xlink:href="#i"/></mask><path fill="#A1C5E6" mask="url(#j)" d="M16 14h2v-2h-2m0 4v1.45c.6-.35 1.1-.85 1.45-1.45H16zM2 2V.56C1.4.9.9 1.4.56 2H2zm2 16h2v-2H4m12-6h2V8h-2m-4-6h2V0h-2m4 2h1.45C17.1 1.4 16.6.9 16 .56V2z"/><path fill="#537EA6" mask="url(#j)" d="M3 5h2l2 4 2-4 2 4 2-4h2l-4 8-2-4-2 4"/></g><path d="M52 692c-9 0-10 1-10 7s1 7 10 7 10-1 10-7-1-7-10-7" fill="#537EA6"/><path d="M49 701v-6l8 3-8 3zm3-10c-9 0-10 1-10 7s1 7 10 7 10-1 10-7-1-7-10-7z" fill="#A1C5E6"/><g transform="translate(42 724)"><path d="M17 0h-3c-3 0-3 3-3 3v2h9V3c0-3-3-3-3-3z" fill="#537EA6"/><mask id="l" fill="#fff"><use xlink:href="#k"/></mask><path d="M9 12h9v-1H9v1zm-2-1H6c0-1-1-1-1-1v2c0 1 1 1 1 1v1H3v-1c1 0 1-1 1-1v-2c-1 0-1 1-1 1H2V9h5v2zm3-5V3c0-3-3-3-3-3H3C0 0 0 3 0 3v13h20V6H10z" fill="#A1C5E6" mask="url(#l)"/></g><path fill="#537EA6" d="M41 766v1l5 5 2-2-4-3v-1l4-3-2-2m10 2l4 3v1l-4 3 2 2 5-5v-1l-5-5"/><path fill="#A1C5E6" d="M54 758l-6 15v2h2l6-15v-2"/><path fill="#FFF" d="M273.33 45L270 48.33 266.67 45 265 46.67l3.33 3.33-3.33 3.33 1.67 1.67 3.33-3.33 3.33 3.33 1.67-1.67-3.34-3.33 3.34-3.33m-5 35.66c-1.3 0-2.33-1.04-2.33-2.33 0-1.3 1.04-2.33 2.33-2.33 1.3 0 2.33 1.04 2.33 2.33 0 1.3-1.04 2.33-2.33 2.33zm7-1.55v-1.56l-2.53-.5c-.1-.34-.24-.66-.4-.97l1.43-2.15-1.1-1.1-2.16 1.44c-.3-.17-.62-.3-.96-.4l-.5-2.54h-1.56l-.5 2.53c-.35.1-.68.25-.98.42l-2.1-1.4-1.1 1.1 1.4 2.08c-.17.3-.3.64-.4 1l-2.54.5v1.55l2.53.5c.1.34.24.66.4.97l-1.43 2.15 1.1 1.1 2.16-1.44c.3.17.62.3.96.4l.5 2.54h1.56l.5-2.54c.35-.1.67-.24.98-.4l2.1 1.4 1.1-1.1-1.4-2.1c.17-.3.3-.63.4-.98l2.54-.5zM275 112h-1v-4c0-2-2-2-2-2h-3v2h3v7s0 1 1 1 1-1 1-1v-1h1s1 0 1-1-1-1-1-1zm-7-7s0-1-1-1-1 1-1 1v1h-1s-1 0-1 1 1 1 1 1h1v4s0 2 2 2h3v-2h-3v-7zm1 29v5h-5v2h5v5h2v-5h5v-2h-5v-5"/><path d="M263 170l3 3 1-1-2-2 2-2-1-1-3 3zm10-2l2 2-2 2 1 1 3-3-3-3-1 1zm-2-3l-3 9 1 1 3-9-1-1z" fill="#1FCD8F"/><path d="M271 199v-4h-2v4h-4v2h4v4h2v-4h4v-2h-4zm-10 1c0-4.97 4.03-9 9-9s9 4.03 9 9-4.03 9-9 9-9-4.03-9-9zm6 21h-3v3h-3v3h3v6s0 3 3 3h5v-3h-5v-12zm9 12v-6s0-3-3-3h-5v3h5v12h3v-3h3v-3h-3z" fill="#5E7285"/><path d="M264.58 256H261v2h3.06c.1-.7.27-1.37.52-2zM275 266.42V269h-2v-2.06c.7-.1 1.37-.27 2-.52zM261 265l2-2 7 6h-9v-4z" fill="#8FA7BF"/><path d="M272 252c-3.87 0-7 3.13-7 7s3.13 7 7 7 7-3.13 7-7-3.13-7-7-7zm3 5l-2 2 2 2v1h-1l-2-2-2 2h-1v-1l2-2-2-2v-1h1l2 2 2-2h1v1z" fill="#5E7285"/><path d="M294 52c1.1 0 2-.9 2-2s-.9-2-2-2-2 .9-2 2 .9 2 2 2zm12 0c1.1 0 2-.9 2-2s-.9-2-2-2-2 .9-2 2 .9 2 2 2zm-6 0c1.1 0 2-.9 2-2s-.9-2-2-2-2 .9-2 2 .9 2 2 2z" fill="#212121"/><path d="M294 82c1.1 0 2-.9 2-2s-.9-2-2-2-2 .9-2 2 .9 2 2 2zm12 0c1.1 0 2-.9 2-2s-.9-2-2-2-2 .9-2 2 .9 2 2 2zm-6 0c1.1 0 2-.9 2-2s-.9-2-2-2-2 .9-2 2 .9 2 2 2z" fill="#FFF"/><g fill="#212121"><path fill-opacity=".5" d="M322 43h16v14h-16z"/><path d="M322 47h16v6h-16z"/></g><g fill="#FFF"><path fill-opacity=".5" d="M322 73h16v14h-16z"/><path d="M322 77h16v6h-16z"/></g><path d="M355.4 48c0 .06-.03.1-.05.16L352 49v2l3.35.84.06.15-1.7 2.9 1.4 1.4 3-1.8h.2l.8 3.4h2l.9-3.4.2-.1 2.9 1.7 1.4-1.4-1.72-3c0-.07.03-.1.05-.17l3.4-.8v-2l-3.36-.85-.06-.16 1.74-2.94-1.4-1.4-3 1.84c-.06 0-.1-.05-.16-.07L361 42h-2l-.84 3.35-.15.06-2.9-1.7-1.4 1.4 1.8 3zm4.6 5c1.66 0 3-1.34 3-3s-1.34-3-3-3-3 1.34-3 3 1.34 3 3 3z" fill="#212121"/><path d="M355.4 78c0 .06-.03.1-.05.16L352 79v2l3.35.84.06.15-1.7 2.9 1.4 1.4 3-1.8h.2l.8 3.4h2l.9-3.4.2-.1 2.9 1.7 1.4-1.4-1.72-3c0-.07.03-.1.05-.17l3.4-.8v-2l-3.36-.85-.06-.16 1.74-2.94-1.4-1.4-3 1.84c-.06 0-.1-.05-.16-.07L361 72h-2l-.84 3.35-.15.06-2.9-1.7-1.4 1.4 1.8 3zm4.6 5c1.66 0 3-1.34 3-3s-1.34-3-3-3-3 1.34-3 3 1.34 3 3 3z" fill="#FFF"/><path d="M392.33 50.86c1.33.36 2.82.02 3.86-1.03 1.5-1.56 1.5-4.1 0-5.66-1.6-1.56-4.1-1.56-5.7 0-1.1 1.05-1.4 2.53-1.1 3.87l2.4-2.45c.8-.8 2-.8 2.8 0 .8.7.8 2 0 2.8l-2.5 2.4zm-1.47 1.47c.36 1.33.02 2.82-1.03 3.86-1.56 1.5-4.1 1.5-5.66 0-1.56-1.6-1.56-4.1 0-5.7 1.05-1.1 2.53-1.4 3.87-1.1l-2.45 2.4c-.8.8-.8 2 0 2.8.7.8 2 .8 2.8 0l2.4-2.5zm.38-4.62c.4-.3 1.02-.4 1.42 0 .4.4.4 1.1 0 1.5l-3.54 3.6c-.4.4-1.02.4-1.4 0-.4-.4-.4-1 0-1.4l3.52-3.5z" fill="#212121"/><path d="M392.33 80.86c1.33.36 2.82.02 3.86-1.03 1.5-1.56 1.5-4.1 0-5.66-1.6-1.56-4.1-1.56-5.7 0-1.1 1.05-1.4 2.53-1.1 3.87l2.4-2.45c.8-.8 2-.8 2.8 0 .8.7.8 2 0 2.8l-2.5 2.4zm-1.47 1.47c.36 1.33.02 2.82-1.03 3.86-1.56 1.5-4.1 1.5-5.66 0-1.56-1.6-1.56-4.1 0-5.7 1.05-1.1 2.53-1.4 3.87-1.1l-2.45 2.4c-.8.8-.8 2 0 2.8.7.8 2 .8 2.8 0l2.4-2.5zm.38-4.62c.4-.3 1.02-.4 1.42 0 .4.4.4 1.1 0 1.5l-3.54 3.6c-.4.4-1.02.4-1.4 0-.4-.4-.4-1 0-1.4l3.52-3.5z" fill="#FFF"/><g transform="translate(411 41)"><path fill="#212121" d="M0 7h7V0H0m11 18h7v-7h-7"/><use fill="#909090" xlink:href="#m"/><use fill="#909090" xlink:href="#n"/></g><g transform="translate(411 71)" fill="#FFF"><path d="M0 7h7V0H0m11 18h7v-7h-7"/><use fill-opacity=".5" xlink:href="#o"/><use fill-opacity=".5" xlink:href="#p"/></g><path d="M443 53l4 3v-6l-4 3zm-1-3h2v-1h-2v1zm8-1c0 1.66-1.34 3-3 3v2c2.76 0 5-2.24 5-5h-2zm0 0h2v-1h-2v1zm-8 0h2c0-1.66 1.34-3 3-3v-2c-2.76 0-5 2.24-5 5zm5-1l4-3-4-3v6z" fill="#909090"/><path d="M452.25 54H451v2c0 1 1 2 2 2h3c1 0 2-1 2-2v-2h-5v-1.5c0-.83.67-1.5 1.5-1.5.65 0 1.2.42 1.4 1h1.05c-.23-1.14-1.24-2-2.45-2-1.38 0-2.5 1.12-2.5 2.5V54h.25z" fill="#212121"/><path d="M446.1 78H444v8h8v-2.1c-.32.07-.66.1-1 .1-2.76 0-5-2.24-5-5 0-.34.03-.68.1-1zm-1.1 5h2v2h-2v-2zm6 0c2.2 0 4-1.8 4-4s-1.8-4-4-4-4 1.8-4 4 1.8 4 4 4z" fill="#A4A4A4"/><path d="M442 76h2v2h-2v-2zm10 10h2v2h-2v-2zm-7-13h2v2h-2v-2zm10 0h2v2h-2v-2zm0 10h2v2h-2v-2zm-13 3h2v2h-2v-2zm-46 60.2v-12.4l2-.8v-1l-2.5 1-2.5-1v1l2 .8v12.4l-2 .8v1l2.5-1 2.5 1v-1l-2-.8z" fill="#212121"/><path d="M382 136v4h1s0-3 2-3h1v6c0 2-2 2-2 2v1l3-.5 3 .5v-1s-2 0-2-2v-6h1c2 0 2 3 2 3h1v-4l-5 .25-5-.25zm60-18h16v-16h-16v16zm-1 1h18v-18h-18v18z" fill="#909090"/><path fill="#212121" d="M452 109l2.5-2.5 1.5 1.5 1-5-5 1 1.5 1.5-2.5 2.5m-3-4l-5-1 1 5 1.5-1.5 2.5 2.5 1-1-2.5-2.5m1.5 5.5l-2.5 2.5-1.5-1.5-1 5 5-1-1.5-1.5 2.5-2.5m5.5 1.5L452 111l-1 1 2.5 2.5-1.5 1.5 5 1-1-5m-96 36c4.42 0 8-3.58 8-8s-3.58-8-8-8-8 3.58-8 8 3.58 8 8 8zm3-9c.55 0 1 .44 1 1 0 .55-.45 1-1 1h-6c-.55 0-1-.44-1-1 0-.55.45-1 1-1h6zm-32 2h2c.55 0 1-.45 1-1 0-.56-.45-1-1-1h-2v-2c0-.55-.45-1-1-1-.56 0-1 .45-1 1v2h-2c-.55 0-1 .45-1 1 0 .56.45 1 1 1h2v2c0 .55.45 1 1 1 .56 0 1-.45 1-1v-2zm-1 7c4.42 0 8-3.58 8-8s-3.58-8-8-8-8 3.58-8 8 3.58 8 8 8zm-26 22v-3c0-2.2-1.8-4-4-4s-4 1.8-4 4v3h-1v6c0 1.1.9 2 2 2h6c1.1 0 2-.9 2-2v-6h-1zm-4-5c1.1 0 2 .9 2 2v3h-4v-3c0-1.1.9-2 2-2zm1 9.72V176c0 .55-.45 1-1 1s-1-.45-1-1v-1.28c-.6-.34-1-.98-1-1.72 0-1.1.9-2 2-2s2 .9 2 2c0 .74-.4 1.38-1 1.72z"/><path d="M298 140v-3c0-1.1.9-2 2-2s2 .9 2 2v1h2v-1c0-2.2-1.8-4-4-4s-4 1.8-4 4v3h-1v6c0 1 1 2 2 2h6c1 0 2-1 2-2v-6h-7zm3 4.72V146c0 .55-.45 1-1 1s-1-.45-1-1v-1.28c-.6-.34-1-.98-1-1.72 0-1.1.9-2 2-2s2 .9 2 2c0 .74-.4 1.38-1 1.72z" fill="#A4A4A4"/><path d="M417 102v14c-2 0-3-1-3-3v-11h3zm6 16v-14c2 0 3 1 3 3v11h-3zm-11-14h2v3h-2v-3zm16 9v3h-2v-3h2zm-5-9v3h-4v-3h4zm-6 9h4v3h-4v-3z" fill="#212121"/><g transform="translate(384 104)"><mask id="r" fill="#fff"><use xlink:href="#q"/></mask><path d="M10.06 5.94c-.35.95-.9 1.8-1.6 2.5L12 12H2l1.5-1.5c-1.28 0-2.47-.34-3.5-.94V12c0 1.1.9 2 2 2h10c1.1 0 2-.9 2-2V2c0-1.1-.9-2-2-2H9.55c.52.9.85 1.9.92 3h.02c.8 0 1.5.67 1.5 1.5S11.3 6 10.5 6c-.15 0-.3-.02-.44-.06" fill="#7C98B4" mask="url(#r)"/></g><use fill="#909090" xlink:href="#s" transform="translate(384 104)"/><path d="M387.5 111.38v1.14l-2.3-2.06 2.3-2.06v1.37c1.26 0 2.3-1.02 2.3-2.3 0-.24-.05-.48-.13-.7l1.33-1c.25.52.4 1.1.4 1.7 0 2.16-1.75 3.9-3.9 3.9m-3.9-3.87c0-2.15 1.74-3.9 3.9-3.9v-1.14l2.28 2.06-2.3 2.06v-1.37c-1.26 0-2.28 1.1-2.28 2.3 0 .3.04.5.1.8l-1.3 1c-.26-.5-.4-1.1-.4-1.7m3.9-5.5c-3.04 0-5.5 2.5-5.5 5.5s2.46 5.5 5.5 5.5 5.5-2.4 5.5-5.5-2.46-5.5-5.5-5.5" fill="#212121"/><path fill="#222" d="M360.13 111.62l.33.28.33-.28 2.1-1.87-.7-.75-2.2 1.86h.6l-2-1.86-.7.75M333 107l-4 4-2-2-1 1 3 3 5-5"/><path d="M299 109h2.5c1.38 0 2.5 1.12 2.5 2.5s-1.12 2.5-2.5 2.5h-4c-.55 0-1 .45-1 1 0 .56.44 1 1 1h4.02c2.47 0 4.48-2.02 4.48-4.5 0-2.5-2-4.5-4.5-4.5H299v-3l-5 4 5 4v-3z" fill="#212121"/><path d="M295 265h-4c-.55 0-1-.45-1-1v-3c0-.55.45-1 1-1h4c.55 0 1 .45 1 1v3c0 .55-.45 1-1 1m7 0h-4c-.55 0-1-.45-1-1v-3c0-.55.45-1 1-1h4c.55 0 1 .45 1 1v3c0 .55-.45 1-1 1m0-6h-4c-.55 0-1-.45-1-1v-3c0-.55.45-1 1-1h4c.55 0 1 .45 1 1v3c0 .55-.45 1-1 1" fill="#8FA7BF"/><g transform="translate(304 260)"><mask id="u" fill="#fff"><use xlink:href="#t"/></mask><path d="M5 5H1c-.55 0-1-.45-1-1V1c0-.55.45-1 1-1h4c.55 0 1 .45 1 1v3c0 .55-.45 1-1 1" fill="#8FA7BF" mask="url(#u)"/></g><path d="M386 287c0-1.1.9-2 2-2h4c1.1 0 2 .9 2 2v7c0 1.1-.9 2-2 2h-4c-1.1 0-2-.9-2-2v-7zm1 0c0-.56.45-1 1-1h4c.56 0 1 .45 1 1v4c0 .56-.45 1-1 1h-4c-.56 0-1-.45-1-1v-4zm3 8c.55 0 1-.45 1-1s-.45-1-1-1-1 .45-1 1 .45 1 1 1zm0-10.5c0-.28.2-.5.5-.5h1c.27 0 .5.23.5.5v.5h-2v-.5z" fill="#212121"/><g transform="translate(354 286)"><mask id="w" fill="#fff"><use xlink:href="#v"/></mask><path fill="#212121" mask="url(#w)" d="M-5 14h22V-5H-5"/></g><path d="M328.25 287c0-.95.8-1.74 1.76-1.74 1 0 1.8.8 1.8 1.75 0 1-.8 1.8-1.7 1.8s-1.7-.8-1.7-1.7zm6.75 3c0 2-2.28 3.55-4 4v-4.18c1.16-.42 2-1.5 2-2.82 0-1.66-1.34-3-3-3s-3 1.34-3 3c0 1.3.84 2.4 2 2.82V294c-1.72-.45-4-2-4-4h-1c0 3 2.7 6 6 6s6-3 6-6h-1z" fill="#212121"/><g fill="#212121"><path d="M305 284l-5 5 1-4h-2v6h6v-2l-4 1 5-5v-1"/><path d="M302 294h-6v-6h1v-2c-1.66 0-3 1.34-3 3v4c0 1.66 1.34 3 3 3h4c1.66 0 3-1.34 3-3h-2v1z"/></g><g fill="#212121"><path d="M270 284v2l4-1-5 5v1h1l5-5-1 4h2v-6"/><path d="M272 294h-6v-6h2v-2h-1c-1.66 0-3 1.34-3 3v4c0 1.66 1.34 3 3 3h4c1.66 0 3-1.34 3-3v-1h-2v2z"/></g><g fill="#212121"><path d="M416 292v3.5c0 .28.22.5.5.5h2.5v-2.5c0-.27.23-.5.5-.5h1c.27 0 .5.23.5.5v2.5h2.5c.28 0 .5-.22.5-.5V292l-4-4-4 4z"/><path d="M420 285l-6 6 1 1 5-5 5 5 1-1"/></g><g transform="translate(446 284)"><path d="M4 7c-1.08 0-2.03-.58-2.55-1.45.45.28.98.45 1.55.45 1.66 0 3-1.34 3-3 0-.57-.17-1.1-.45-1.55C6.42 1.97 7 2.92 7 4c0 1.66-1.34 3-3 3zm0-7C1.8 0 0 1.8 0 4s1.8 4 4 4 4-1.8 4-4-1.8-4-4-4z" fill="#212121"/><mask id="y" fill="#fff"><use xlink:href="#x"/></mask><path fill="#212121" mask="url(#y)" d="M2 10h4V9H2m1 3h2v-1H3"/></g><path fill="#909090" d="M321 341h18v12h-18z"/><path d="M324 358v-3h-1v-1h3v1h-1v3h1v1h-3v-1h1zm-2-4h1v2h-1v-2zm4 0h1v2h-1v-2zm2 2h10v1h-10v-1z" fill="#212121"/><g fill="#7AA5CC"><path d="M333.46 379.4l-2.5-.2-.95-2.27-.9 2.28-2.5.2 1.9 1.6-.5 2.4 2.2-1.3 2.2 1.3-.6-2.4"/><path d="M323 388h14v-15h-14v15zm1-1h12v-13h-12v13z"/></g><path fill="#B6D6F2" d="M320 400v7l2-2 5 5v-3h3l-5-5 2-2m34 0l2 2-5 5h3v3l5-5 2 2v-7m-7 28h-3l5 5-2 2h7v-7l-2 2-5-5m-39 5l-2-2v7h7l-2-2 5-5h-3v-3"/><path d="M354 416c-1.1 0-2-.9-2-2s.9-2 2-2 2 .9 2 2-.9 2-2 2zm-2 7l-3-3 2-2 5 5h-4zm-6 0h-14l9-9 9 9h-4zm-17 3h30v-17h-30v17zm61-1c1.5 1.5 3 0 3 0l12-12s1.5-1.5 0-3-3 0-3 0l-12 12s-1.5 1.5 0 3zm22.66-22.66c-3.13-3.12-8.2-3.12-11.32 0l-3 3c-2.02 2.02-2.72 4.86-2.13 7.45l3-3c.2-.9.7-1.7 1.3-2.4l3-3c2-2 5.1-2 7.1 0 2 1.9 2 5.1 0 7.1l-3 3c-.7.6-1.5 1.1-2.4 1.3l-2.9 2.9c2.6.6 5.5-.1 7.5-2.2l3-3c3.1-3.2 3.1-8.2 0-11.3zm-16.8 22.8c-.2.88-.64 1.72-1.32 2.4l-3 3c-1.96 1.95-5.12 1.95-7.08 0-1.95-1.96-1.95-5.12 0-7.08l3-3c.7-.68 1.52-1.1 2.4-1.3l2.93-2.95c-2.6-.5-5.5.2-7.5 2.2l-3 3c-3.1 3.2-3.1 8.2 0 11.3 3.1 3.1 8.2 3.1 11.3 0l3-3c2-2 2.7-4.8 2.1-7.4l-3 3z" fill="#284259"/><path d="M353 388h14v-15h-14v15zm1-1h12v-13h-12v13zm31 1h10v-15h-10v15zm1-1h8v-13h-8v13zm27-1h14v-11h-14v11zm1-1h12v-9h-12v9z" fill="#7AA5CC"/><path fill="#909090" d="M351 347h18v12h-18z"/><path d="M354 345v-3h-1v-1h3v1h-1v3h1v1h-3v-1h1zm-2-4h1v2h-1v-2zm4 0h1v2h-1v-2zm2 2h10v1h-10v-1z" fill="#212121"/><path fill="#909090" d="M261 341h5v18h-5z"/><path d="M269 349v-3h-1v-1h3v1h-1v3h1v1h-3v-1h1zm-2-4h1v2h-1v-2zm4 0h1v2h-1v-2zm2 3h6v1h-6v-1zm0-2h6v1h-6v-1zm-6 5h12v1h-12v-1zm0 2h12v1h-12v-1zm0 2h7v1h-7v-1z" fill="#212121"/><path fill="#909090" d="M304 341h5v18h-5z"/><path d="M293 349v-3h-1v-1h3v1h-1v3h1v1h-3v-1h1zm-2-4h1v2h-1v-2zm4 0h1v2h-1v-2zm2 3h6v1h-6v-1zm0-2h6v1h-6v-1zm-6 5h12v1h-12v-1zm0 2h12v1h-12v-1zm0 2h7v1h-7v-1zm3-39v-3h-1v-1h3v1h-1v3h1v1h-3v-1h1zm-3-5h18v18h-18v-18zm1 7h16v10h-16v-10zm0-6h1v2h-1v-2zm4 0h1v2h-1v-2zm2 2h10v1h-10v-1zm26 13v-3h-1v-1h3v1h-1v3h1v1h-3v-1h1zm-3-16h18v18h-18v-18zm1 1h16v10h-16v-10zm0 11h1v2h-1v-2zm4 0h1v2h-1v-2zm2 2h10v1h-10v-1zm26-9v-3h-1v-1h3v1h-1v3h1v1h-3v-1h1zm-3-5h18v18h-18v-18zm1 1h1v2h-1v-2zm4 0h1v2h-1v-2zm2 2h10v1h-10v-1zm26 7v-3h-1v-1h3v1h-1v3h1v1h-3v-1h1zm-3-10h18v18h-18v-18zm1 6h1v2h-1v-2zm4 0h1v2h-1v-2zm2 2h10v1h-10v-1zm26 8v-3h-1v-1h3v1h-1v3h1v1h-3v-1h1zm-3-16h18v18h-18v-18zm1 12h1v2h-1v-2zm4 0h1v2h-1v-2zm2 2h10v1h-10v-1z" fill="#212121"/><path d="M267 314v5.4c.9-1.47 2.3-2.6 4-3.1V314h3c1.6 0 1.9 1.9 1.98 2.67.2.1.4.2.6.33h.42v-6h-16v6h1s0-3 2-3h3zm-.62 11.26c-.43.4-1.15.74-2.38.74v1h3.26c-.37-.53-.67-1.1-.88-1.74z" fill="#909090"/><path d="M273 327c-.85 0-1.63-.27-2.28-.72l5.56-5.56c.45.65.72 1.43.72 2.28 0 2.2-1.8 4-4 4m0-8c.85 0 1.63.27 2.28.72l-5.56 5.56c-.45-.65-.72-1.43-.72-2.28 0-2.2 1.8-4 4-4m0-2c-3.3 0-6 2.7-6 6s2.7 6 6 6 6-2.7 6-6-2.7-6-6-6" fill="#212121"/><path d="M304.06 379.94c-.35.95-.9 1.8-1.6 2.5L306 386h-10l1.5-1.5c-1.28 0-2.47-.34-3.5-.94V386c0 1.1.9 2 2 2h10c1.1 0 2-.9 2-2v-10c0-1.1-.9-2-2-2h-2.44c.52.9.85 1.9.92 3h.02c.83 0 1.5.67 1.5 1.5s-.67 1.5-1.5 1.5c-.15 0-.3-.02-.44-.06" fill="#7C98B4"/><path d="M297.5 381.38v1.14l-2.3-2.06 2.3-2.06v1.37c1.26 0 2.3-1.02 2.3-2.3 0-.24-.05-.48-.13-.7l1.33-1c.25.52.4 1.1.4 1.7 0 2.16-1.75 3.9-3.9 3.9m-3.9-3.87c0-2.15 1.74-3.9 3.9-3.9v-1.14l2.28 2.06-2.3 2.06v-1.37c-1.26 0-2.28 1.1-2.28 2.3 0 .3.04.5.1.8l-1.3 1c-.26-.5-.4-1.1-.4-1.7m3.9-5.5c-3.04 0-5.5 2.5-5.5 5.5s2.46 5.5 5.5 5.5 5.5-2.4 5.5-5.5-2.46-5.5-5.5-5.5M293 445h14v-10h-14v10zm-1 1h16v-12h-16v12z" fill="#24394F"/><path d="M302.5 439c-.83 0-1.5-.67-1.5-1.5s.67-1.5 1.5-1.5 1.5.67 1.5 1.5-.67 1.5-1.5 1.5zm-6.5 5l3-5 3 5h-6zm-1 1h10v-10h-10v10zm9-36.04c-1.1 0-2-.9-2-2s.9-2 2-2 2 .9 2 2-.9 2-2 2zM294 415l5-7 5.06 7H294zm-1 2h14v-14h-14v14zm11 51c-1.1 0-2-.9-2-2s.9-2 2-2 2 .9 2 2-.9 2-2 2zm-10 7l5-7 5 7h-10zm-1 3h14v-16h-14v16z" fill="#7C98B4"/><path d="M293 475h14v-10h-14v10zm-1 1h16v-12h-16v12z" fill="#24394F"/><path d="M320 478h20v-5h-20m1-1h11v-1h-11m-1-2h20v-5h-20m1-1h13v-1h-13" fill="#7AA5CC"/><path d="M332 505v1h-4v-1h-8s0 2 2 2h16c2 0 2-2 2-2h-8zm5-2h-14v-8c0-1 1-1 1-1h12s1 0 1 1v8zm1-8s0-2-2-2h-12c-2 0-2 2-2 2v9h16v-9z" fill="#7C9DBF"/><path d="M328 502h-4v-6s0-1 1-1h3v7z" fill="#00CF8B"/><path d="M362 505v1h-4v-1h-8s0 2 2 2h16c2 0 2-2 2-2h-8zm5-2h-14v-8c0-1 1-1 1-1h12s1 0 1 1v8zm1-8s0-2-2-2h-12c-2 0-2 2-2 2v9h16v-9z" fill="#7C9DBF"/><path d="M362 502h4v-6s0-1-1-1h-3v7z" fill="#00CF8B"/><path d="M392 505v1h-4v-1h-8s0 2 2 2h16c2 0 2-2 2-2h-8zm5-2h-14v-8c0-1 1-1 1-1h12s1 0 1 1v8zm1-8s0-2-2-2h-12c-2 0-2 2-2 2v9h16v-9z" fill="#7C9DBF"/><path d="M396 499h-12v-3s0-1 1-1h10c1 0 1 1 1 1v3z" fill="#00CF8B"/><path d="M422 505v1h-4v-1h-8s0 2 2 2h16c2 0 2-2 2-2h-8zm5-2h-14v-8c0-1 1-1 1-1h12s1 0 1 1v8zm1-8s0-2-2-2h-12c-2 0-2 2-2 2v9h16v-9z" fill="#7C9DBF"/><path d="M426 502h-12v-6s0-1 1-1h10c1 0 1 1 1 1v6z" fill="#00CF8B"/><path fill="#7AA5CC" d="M350 477h20v-5h-20m0-4h20v-5h-20"/><path fill="#F2F9FF" d="M351 466h13v-1h-13m0 10h11v-1h-11"/><path d="M388 477h12v-5h-12m0-4h12v-5h-12m-8 2h7v-1h-7m3 3h4v-1h-4m-3 8h7v-1h-7m3 3h4v-1h-4" fill="#7AA5CC"/><path d="M293 528c-1.1 0-2 .9-2 2s.9 2 2 2 2-.9 2-2-.9-2-2-2m7 0c-1.1 0-2 .9-2 2s.9 2 2 2 2-.9 2-2-.9-2-2-2m7 0c-1.1 0-2 .9-2 2s.9 2 2 2 2-.9 2-2-.9-2-2-2" fill="#1F1F1F"/><path d="M293 498c-1.1 0-2 .9-2 2s.9 2 2 2 2-.9 2-2-.9-2-2-2m7 0c-1.1 0-2 .9-2 2s.9 2 2 2 2-.9 2-2-.9-2-2-2m7 0c-1.1 0-2 .9-2 2s.9 2 2 2 2-.9 2-2-.9-2-2-2" fill="#7C98B4"/><path d="M293 559c-1.1 0-2 .9-2 2s.9 2 2 2 2-.9 2-2-.9-2-2-2m7 0c-1.1 0-2 .9-2 2s.9 2 2 2 2-.9 2-2-.9-2-2-2m7 0c-1.1 0-2 .9-2 2s.9 2 2 2 2-.9 2-2-.9-2-2-2" fill="#FFF"/><g transform="translate(261 522)"><mask id="A" fill="#fff"><use xlink:href="#z"/></mask><path fill="#C8D2DB" mask="url(#A)" d="M-4 19h20V-5H-4"/></g><path d="M276.75 534H278v2c0 1-1 2-2 2h-3c-1 0-2-1-2-2v-2h1.25-.25v-1.5c0-1.38 1.12-2.5 2.5-2.5s2.5 1.12 2.5 2.5v1.5h-.25zm-.75-1.5c0-.83-.67-1.5-1.5-1.5s-1.5.67-1.5 1.5v1.5h3v-1.5z" fill="#D45F60"/><g transform="translate(271 530)"><mask id="C" fill="#fff"><use xlink:href="#B"/></mask><path fill="#D45F60" mask="url(#C)" d="M-5 13h17V-5H-5"/></g><path d="M267 554c-2.76 0-5 2.24-5 5h2c0-1.66 1.34-3 3-3v-2zm4 1l-4 3v-6l4 3zm-9 5h2v-1h-2v1zm5 4c2.76 0 5-2.24 5-5h-2c0 1.66-1.34 3-3 3v2zm0 2l-4-3 4-3v6zm3-7h2v-1h-2v1z" fill="#9CB1C5"/><g transform="translate(261 552)"><mask id="E" fill="#fff"><use xlink:href="#D"/></mask><path fill="#9CB1C5" mask="url(#E)" d="M-4 19h20V-5H-4"/></g><path d="M272.25 564H271v2c0 1 1 2 2 2h3c1 0 2-1 2-2v-2h-5v-1.5c0-.83.67-1.5 1.5-1.5.65 0 1.2.42 1.4 1h1.05c-.23-1.14-1.24-2-2.45-2-1.38 0-2.5 1.12-2.5 2.5v1.5h.25z" fill="#54B2FF"/><g transform="translate(271 560)"><mask id="G" fill="#fff"><use xlink:href="#F"/></mask><path fill="#54B2FF" mask="url(#G)" d="M-5 13h17V-5H-5"/></g><path d="M274 621l-2 3-4-6-6 9h16m-3-10c1.1 0 2-.9 2-2s-.9-2-2-2-2 .9-2 2 .9 2 2 2m-11.45 36.12c-1.62-1.08-2.55-2.53-2.55-4.12 0-3.3 1-6 8-6s10 2.7 10 6-2 6-8 6c-1.5 0-2.86-.17-4.07-.47L262 657l1.55-3.88zm37.65-39.42h-1.42l-7.78 7.8 5.66 5.64 1.4-1.4-4.94-4.96 7.07-7.07zm-5.66 7.08l7.77-7.78h5.7v5.66l-7.7 7.78-5.6-5.66zm11.3-4.24c.4-.4.4-1.03 0-1.42-.38-.4-1-.4-1.4 0-.4.4-.4 1.03 0 1.42.4.4 1.02.4 1.4 0zM295 586h2v-2h-6v2h2v4h2v-4zm3 1h11v-1h-11v1zm0 3h11v-1h-11v1zm-7 3h18v-1h-18v1zm0 3h14v-1h-14v1zm-14 1c0-5-3-5-7-5s-7 0-7 5h14zm-7-7c2.2 0 4-1.8 4-4s-1.8-4-4-4-4 1.8-4 4 1.8 4 4 4zm31 62c0-.6.4-1 1-1h5c.6 0 1 .4 1 1v5c0 .6-.4 1-1 1h-5c-.6 0-1-.4-1-1v-5zm-2-3v8c0 .6-.4 1-1 1h-5c-.6 0-1-.5-1-1v-13c0-1.1.9-2 2-2h13c.6 0 1 .4 1 1v5c0 .6-.4 1-1 1h-8zm-1 0v-1h9v-5h-13c-.5 0-1 .4-1 1v13h5v-8z" fill="#1FCD8F"/><path d="M497 49l-3 3h1.9c-.46 2.28-2.48 4-4.9 4-1.9 0-3.53-1.07-4.37-2.63l-1.48 1.47c1.26 1.9 3.4 3.16 5.85 3.16 3.53 0 6.43-2.6 6.92-6H500l-3-3zm-10.9 1c.46-2.28 2.48-4 4.9-4 1.9 0 3.53 1.07 4.37 2.62l1.48-1.47c-1.26-1.9-3.4-3.15-5.85-3.15-3.53 0-6.43 2.6-6.92 6H482l3 3 3-3h-1.9zm6.9 39l-3-3v1.9c-2.28-.47-4-2.48-4-4.9 0-1.9 1.07-3.53 2.63-4.38l-1.48-1.47c-1.9 1.25-3.15 3.4-3.15 5.85 0 3.52 2.6 6.43 6 6.92V92l3-3zm-1-10.9c2.28.46 4 2.48 4 4.9 0 1.9-1.07 3.53-2.63 4.37l1.48 1.48c1.9-1.26 3.15-3.4 3.15-5.85 0-3.53-2.6-6.43-6-6.92V74l-3 3 3 3v-1.9z" fill="#263A4D"/><path d="M483 113c0-3.3 2.7-6 6-6s6 2.7 6 6-2.7 6-6 6-6-2.7-6-6m18 10l-4.72-4.72c1.08-1.48 1.72-3.3 1.72-5.28 0-4.97-4.03-9-9-9s-9 4.03-9 9 4.03 9 9 9c1.97 0 3.8-.64 5.28-1.72L499 125s1 1 2 0 0-2 0-2" fill="#537EA6"/><path d="M492 144.28c-.7 0-1.28-.57-1.28-1.28 0-.7.57-1.28 1.28-1.28.7 0 1.28.57 1.28 1.28 0 .7-.57 1.28-1.28 1.28zm0 7.72h-3v-1l1-5h-2l1-1h3v1l-1 5h2l-1 1zm-1-12c-3.87 0-7 3.13-7 7s3.13 7 7 7 7-3.13 7-7-3.13-7-7-7z" fill="#85AACC"/><path d="M491 172c-3.87 0-7 3.13-7 7s3.13 7 7 7 7-3.13 7-7-3.13-7-7-7" fill="#CD1F1F"/><path fill="#FFF" d="M494 177l-2 2 2 2v1h-1l-2-2-2 2h-1v-1l2-2-2-2v-1h1l2 2 2-2h1"/><path d="M491 214c-1.36 0-1.45-4.96-1.45-5.52 0-.55.45-1.48 1.45-1.48s1.44.93 1.44 1.48c0 .56-.08 5.52-1.44 5.52m0 4c-.97 0-1.75-.78-1.75-1.75s.78-1.75 1.75-1.75 1.75.78 1.75 1.75-.78 1.75-1.75 1.75m0-14c-2.4 0-6.77 9.98-7.74 11.98-.97 2 .98 3.02 1.94 3.02h11.6c.97 0 2.9-1 1.94-3.02-.97-2-5.34-11.98-7.74-11.98" fill="#D45F60"/><path d="M487.75 241.25c-.83 0-1.5-.67-1.5-1.5s.67-1.5 1.5-1.5 1.5.67 1.5 1.5-.67 1.5-1.5 1.5m9.5 1.88c-1-1-7-7.13-7-7.13H484v6.25s6.13 6 7.13 7 2.06 1 3.06 0l3-3.06c1-1 1-2.1 0-3.1" fill="#97B7D9"/><path fill="#F2B530" d="M496 266v14h-14v6h20v-20"/><path d="M492 309h-2c0-3 2.33-2.44 2.33-4.13 0-.85-.33-1.2-1.33-1.2-1.48 0-1.44 1.33-1.44 1.33h-1.92c0-1 .86-3 3.36-3 2.3 0 3.36 1.27 3.36 3 0 2-2.36 2-2.36 4zm-2 3h2v-2h-2v2zm1-12c-3.87 0-7 3.13-7 7s3.13 7 7 7 7-3.13 7-7-3.13-7-7-7z" fill="#97B8DA"/><path d="M663 44h12c1.66 0 3 1.34 3 3v9c0 1.66-1.34 3-3 3h-12c-1.66 0-3-1.34-3-3v-9c0-1.66 1.34-3 3-3" fill="#263A4D"/><path d="M667 55l1 1 3-8-1-1-3 8zm6-6l-1 1 3 1.5-3 1.5 1 1 3-2v-1l-3-2zm-8 0l-3 2v1l3 2 1-1-3-1.5 3-1.5-1-1z" fill="#1FCD8F"/><path d="M668 78l-1 1v1h-2v1h9v-1h-2v-1l-1-1h-3zm1 1h1l1 1h-3l1-1zm3 3v6h-1v-6h-1v6h-1v-6h-1v6h-1v-6h-1v6l1 1h5l1-1v-6" fill="#F84A4A"/><path d="M663 122h11v-1h-11m8-13l-2 2 3 3 2-2m-11 5v3h3l5-5-3-3-5 5zm1 0l1-1 2 2-1 1h-2v-2z" fill="#618098"/><path d="M667 146v-3c0-1.1.9-2 2-2s2 .9 2 2v3h-4zm3 4.72V152c0 .55-.45 1-1 1s-1-.45-1-1v-1.28c-.6-.34-1-.98-1-1.72 0-1.1.9-2 2-2s2 .9 2 2c0 .74-.4 1.38-1 1.72zm3-4.72v-3c0-2.2-1.8-4-4-4s-4 1.8-4 4v3h-1v6s0 2 2 2h6c2 0 2-2 2-2v-6h-1z" fill="#6A8DB4"/><path d="M670 182.72V184c0 .55-.45 1-1 1s-1-.45-1-1v-1.28c-.6-.34-1-.98-1-1.72 0-1.1.9-2 2-2s2 .9 2 2c0 .74-.4 1.38-1 1.72zm1-4.72h-4v-3c0-1.1.9-2 2-2s2 .9 2 2v1h2v-1c0-2.2-1.8-4-4-4s-4 1.8-4 4v3h-1v6s0 2 2 2h6c2 0 2-2 2-2v-6h-3z" fill="#C2D7E7"/><path fill="#263A4D" d="M709 107v2h-4v4h-2v-6m16 6h-2v-4h-4v-2h6m-6 16v-2h4v-4h2v6m-16-6h2v4h4v2h-6"/><path fill="#FFF" d="M709 139v2h-4v4h-2v-6m16 6h-2v-4h-4v-2h6m-6 16v-2h4v-4h2v6m-16-6h2v4h4v2h-6"/><g transform="translate(701 42)"><path d="M121 80s5 0 5-5-5-5-5-5h-8l3-3-1-1-6 5 6 5 1-1-3-3h8s3 0 3 3-3 3-3 3h-9v2h9z" fill="#263A4D"/><path d="M121 112s5 0 5-5-5-5-5-5h-8l3-3-1-1-6 5 6 5 1-1-3-3h8s3 0 3 3-3 3-3 3h-9v2h9z" fill="#FFF"/><path d="M15 138h-2v2h1c.55 0 1 .45 1 1v3c0 .55-.45 1-1 1H6c-.55 0-1-.45-1-1v-3c0-.55.45-1 1-1h1v-2H5c-1.1 0-2 .9-2 2v5c0 1.1.9 2 2 2h10c1.1 0 2-.9 2-2v-5c0-1.1-.9-2-2-2" fill="#263A4D"/><path fill="#263A4D" d="M9 131v12h2v-12l4 5 2-1-7-8-7 8 2 1"/><path d="M15 170h-2v2h1c.55 0 1 .45 1 1v3c0 .55-.45 1-1 1H6c-.55 0-1-.45-1-1v-3c0-.55.45-1 1-1h1v-2H5c-1.1 0-2 .9-2 2v5c0 1.1.9 2 2 2h10c1.1 0 2-.9 2-2v-5c0-1.1-.9-2-2-2" fill="#FFF"/><path fill="#FFF" d="M9 163v12h2v-12l4 5 2-1-7-8-7 8 2 1"/><path fill="#263A4D" d="M124 131l2 2-10 10-6-6 2-2 4 4"/><path fill="#FFF" d="M124 163l2 2-10 10-6-6 2-2 4 4"/><path d="M10 208c-.55 0-1-.45-1-1s.45-1 1-1 1 .45 1 1-.45 1-1 1m0-3c-1.1 0-2 .9-2 2s.9 2 2 2 2-.9 2-2-.9-2-2-2m-6 0c-1.1 0-2 .9-2 2s.9 2 2 2 2-.9 2-2-.9-2-2-2m12 3c-.55 0-1-.45-1-1s.45-1 1-1 1 .45 1 1-.45 1-1 1m0-3c-1.1 0-2 .9-2 2s.9 2 2 2 2-.9 2-2-.9-2-2-2" fill="#263A4D"/><mask id="I" fill="#fff"><use xlink:href="#H"/></mask><path fill="#263A4D" mask="url(#I)" d="M3 203h2v-9H3m4 7h8v-5H7v5zm-1 1h10v-7H6v7zm4 70c-.55 0-1-.45-1-1s.45-1 1-1 1 .45 1 1-.45 1-1 1m0-3c-1.1 0-2 .9-2 2s.9 2 2 2 2-.9 2-2-.9-2-2-2m6 0c-1.1 0-2 .9-2 2s.9 2 2 2 2-.9 2-2-.9-2-2-2m-12 3c-.55 0-1-.45-1-1s.45-1 1-1 1 .45 1 1-.45 1-1 1m0-3c-1.1 0-2 .9-2 2s.9 2 2 2 2-.9 2-2-.9-2-2-2m11-2h2v-9h-2m-11 7h8v-5H4v5zm-1 1h10v-7H3v7zm1-26c-.55 0-1-.45-1-1s.45-1 1-1 1 .45 1 1-.45 1-1 1m0-3c-1.1 0-2 .9-2 2s.9 2 2 2 2-.9 2-2-.9-2-2-2m6 0c-1.1 0-2 .9-2 2s.9 2 2 2 2-.9 2-2-.9-2-2-2m6 3c-.55 0-1-.45-1-1s.45-1 1-1 1 .45 1 1-.45 1-1 1m0-3c-1.1 0-2 .9-2 2s.9 2 2 2 2-.9 2-2-.9-2-2-2m-13-2h2v-9H3m12 9h2v-9h-2m-8 7h6v-5H7v5zm-1 1h8v-7H6v7z"/><path d="M118 208c-.55 0-1-.45-1-1s.45-1 1-1 1 .45 1 1-.45 1-1 1m0-3c-1.1 0-2 .9-2 2s.9 2 2 2 2-.9 2-2-.9-2-2-2m-6 0c-1.1 0-2 .9-2 2s.9 2 2 2 2-.9 2-2-.9-2-2-2m12 3c-.55 0-1-.45-1-1s.45-1 1-1 1 .45 1 1-.45 1-1 1m0-3c-1.1 0-2 .9-2 2s.9 2 2 2 2-.9 2-2-.9-2-2-2m-13-2h2v-9h-2m4 7h8v-5h-8v5zm-1 1h10v-7h-10v7zm4 70c-.55 0-1-.45-1-1s.45-1 1-1 1 .45 1 1-.45 1-1 1m0-3c-1.1 0-2 .9-2 2s.9 2 2 2 2-.9 2-2-.9-2-2-2m6 0c-1.1 0-2 .9-2 2s.9 2 2 2 2-.9 2-2-.9-2-2-2m-12 3c-.55 0-1-.45-1-1s.45-1 1-1 1 .45 1 1-.45 1-1 1m0-3c-1.1 0-2 .9-2 2s.9 2 2 2 2-.9 2-2-.9-2-2-2m11-2h2v-9h-2m-11 7h8v-5h-8v5zm-1 1h10v-7h-10v7zm1-26c-.55 0-1-.45-1-1s.45-1 1-1 1 .45 1 1-.45 1-1 1m0-3c-1.1 0-2 .9-2 2s.9 2 2 2 2-.9 2-2-.9-2-2-2m6 0c-1.1 0-2 .9-2 2s.9 2 2 2 2-.9 2-2-.9-2-2-2m6 3c-.55 0-1-.45-1-1s.45-1 1-1 1 .45 1 1-.45 1-1 1m0-3c-1.1 0-2 .9-2 2s.9 2 2 2 2-.9 2-2-.9-2-2-2m-13-2h2v-9h-2m12 9h2v-9h-2m-8 7h6v-5h-6v5zm-1 1h8v-7h-8v7zM9 303h6v-6l-2 2-5-5 2-2H4v6l2-2 5 5" fill="#FFF" mask="url(#I)"/><path d="M15 325l-5 4v-3s-4 0-4 4 4 4 4 4 4 0 4-4c0 0 0-1 1-1s1 1 1 1 0 6-6 6c0 0-6 0-6-6s6-6 6-6v-3l5 4z" fill="#263A4D" mask="url(#I)"/><path d="M128 305h-20v-16h20v16zm0-18h-20c-1 0-2 1-2 2v16c0 1 1 2 2 2h20c1 0 2-1 2-2v-16c0-1-1-2-2-2z" fill="#81A4BF" mask="url(#I)"/><path fill="#81A4BF" mask="url(#I)" d="M122 298l-2 3-5-7-5 9h16m-1.5-9c.83 0 1.5-.67 1.5-1.5s-.67-1.5-1.5-1.5-1.5.67-1.5 1.5.67 1.5 1.5 1.5"/><path d="M7 358v-6H4v3H1v3h3v6s0 3 3 3h5v-3H7v-6z" fill="#97B8DA" mask="url(#I)"/><path d="M16 364v-6s0-3-3-3H8v3h5v12h3v-3h3v-3h-3z" fill="#97B8DA" mask="url(#I)"/><path d="M115 358v-6h-3v3h-3v3h3v6s0 3 3 3h5v-3h-5v-6z" fill="#1FCD8F" mask="url(#I)"/><path d="M124 364v-6s0-3-3-3h-5v3h5v12h3v-3h3v-3h-3z" fill="#1FCD8F" mask="url(#I)"/><path d="M13.53 386.64c.8-.8 2.05-.8 2.83 0 .78.78.78 2.04 0 2.82l-1.4 1.42-2.45 2.43c1.4.4 2.9.1 3.9-1l1.4-1.4c1.6-1.5 1.6-4.1 0-5.6-1.5-1.5-4.1-1.5-5.6 0l-1.4 1.4c-1 1.1-1.4 2.5-1 3.9l2.5-2.4 1.4-1.4zm-5.65 14.14l1.4-1.42c1.06-1.04 1.4-2.52 1.03-3.85L7.9 398l-1.4 1.4c-.8.8-2.05.8-2.84 0-.78-.77-.78-2.03 0-2.82l1.42-1.4 2.44-2.45c-1.34-.35-2.8-.02-3.86 1.03l-1.4 1.42c-1.57 1.56-1.57 4.1 0 5.66 1.55 1.57 4.1 1.57 5.65 0" fill="#97B8DA" mask="url(#I)"/><path d="M13.54 389.46c-.7-.7-1.42 0-1.42 0l-5.66 5.66s-.7.7 0 1.42c.7.7 1.42 0 1.42 0l5.66-5.66s.7-.7 0-1.42" fill="#97B8DA" mask="url(#I)"/><path d="M121.53 386.64c.8-.8 2.05-.8 2.83 0 .78.78.78 2.04 0 2.82l-1.4 1.42-2.45 2.43c1.4.4 2.9.1 3.9-1l1.4-1.4c1.6-1.5 1.6-4.1 0-5.6-1.5-1.5-4.1-1.5-5.6 0l-1.4 1.4c-1 1.1-1.4 2.5-1 3.9l2.5-2.4 1.4-1.4zm-5.65 14.14l1.4-1.42c1.06-1.04 1.4-2.52 1.03-3.85l-2.4 2.5-1.4 1.4c-.8.8-2 .8-2.8 0-.8-.7-.8-2 0-2.8l1.4-1.4 2.5-2.4c-1.3-.3-2.8 0-3.8 1.1l-1.4 1.4c-1.5 1.6-1.5 4.1 0 5.7 1.6 1.6 4.1 1.6 5.7 0" fill="#1FCD8F" mask="url(#I)"/><path d="M121.54 389.46c-.7-.7-1.42 0-1.42 0l-5.66 5.66s-.7.7 0 1.42c.7.7 1.42 0 1.42 0l5.66-5.66s.7-.7 0-1.42" fill="#1FCD8F" mask="url(#I)"/><path d="M7 419v5.4c.9-1.47 2.3-2.6 4-3.1V419h3c1.6 0 1.9 1.9 1.98 2.67.2.1.4.2.6.33H17v-6H1v6h1s0-3 2-3h3zm-.62 11.26c-.43.4-1.15.74-2.38.74v1h3.26c-.37-.53-.67-1.1-.88-1.74" fill="#97B8DA" mask="url(#I)"/><path d="M13 432c-.85 0-1.63-.27-2.28-.72l5.56-5.56c.45.65.72 1.43.72 2.28 0 2.2-1.8 4-4 4m0-8c.85 0 1.63.27 2.28.72l-5.56 5.56c-.45-.65-.72-1.43-.72-2.28 0-2.2 1.8-4 4-4m0-2c-3.3 0-6 2.7-6 6s2.7 6 6 6 6-2.7 6-6-2.7-6-6-6" fill="#DC6060" mask="url(#I)"/><path d="M115 419v5.4c.9-1.47 2.3-2.6 4-3.1V419h3c1.6 0 1.92 1.9 1.98 2.67.2.1.4.2.6.33h.42v-6h-16v6h1s0-3 2-3h3zm-.62 11.26c-.43.4-1.15.74-2.38.74v1h3.26c-.37-.53-.67-1.1-.88-1.74" fill="#1FCD8F" mask="url(#I)"/><path d="M121 432c-.85 0-1.63-.27-2.28-.72l5.56-5.56c.45.65.72 1.43.72 2.28 0 2.2-1.8 4-4 4m0-8c.85 0 1.63.27 2.28.72l-5.56 5.56c-.45-.65-.72-1.43-.72-2.28 0-2.2 1.8-4 4-4m0-2c-3.3 0-6 2.7-6 6s2.7 6 6 6 6-2.7 6-6-2.7-6-6-6" fill="#DC6060" mask="url(#I)"/><path d="M2 465h16v-16H2v16zm-1 1h18v-18H1v18z" fill="#8FA7BF" mask="url(#I)"/><path fill="#8FA7BF" mask="url(#I)" d="M3 464h14l-7-10m3-2c0 1.1.9 2 2 2s2-.9 2-2-.9-2-2-2-2 .9-2 2"/><path fill="#97B8DA" mask="url(#I)" d="M1 466h18v-7H1"/><path d="M3 462h.5c0-1.33 1.5-1.2 1.5-1.2v2.2c0 1.55-1 1.5-1 1.5v.5h3v-.5s-1 .06-1-1.5v-2.2s1.5-.16 1.5 1.2H8v-2H3v2zm6 1h8v-1H9" fill="#21394E" mask="url(#I)"/><path d="M2 497h16v-16H2v16zm-1 1h18v-18H1v18z" fill="#8FA7BF" mask="url(#I)"/><path fill="#8FA7BF" mask="url(#I)" d="M3 496h14l-7-10m3-2c0 1.1.9 2 2 2s2-.9 2-2-.9-2-2-2-2 .9-2 2"/><path fill="#97B8DA" mask="url(#I)" d="M1 488h18v-8H1"/><path d="M3 484h.5c0-1.33 1.5-1.2 1.5-1.2v2.2c0 1.55-1 1.5-1 1.5v.5h3v-.5s-1 .06-1-1.5v-2.2s1.5-.16 1.5 1.2H8v-2H3v2zm6 1h8v-1H9" fill="#21394E" mask="url(#I)"/><path d="M2 619h16v-10H2v10zm-1 1h18v-12H1v12z" fill="#8FA7BF" mask="url(#I)"/><path fill="#8FA7BF" mask="url(#I)" d="M3 618h12l-6-6m4 0c0 1.1.9 2 2 2s2-.9 2-2-.9-2-2-2-2 .9-2 2"/><path d="M2 623h.5c0-1.33 1.5-1.2 1.5-1.2v2.2c0 1.55-1 1.5-1 1.5v.5h3v-.5s-1 .06-1-1.5v-2.2s1.5-.16 1.5 1.2H7v-2H2v2zm6 1h10v-1H8" fill="#97B8DA" mask="url(#I)"/><path d="M2 657h16v-10H2v10zm-1 1h18v-12H1v12z" fill="#8FA7BF" mask="url(#I)"/><path fill="#8FA7BF" mask="url(#I)" d="M3 656h12l-6-6m4 0c0 1.1.9 2 2 2s2-.9 2-2-.9-2-2-2-2 .9-2 2"/><path d="M2 642h.5c0-1.33 1.5-1.2 1.5-1.2v2.2c0 1.55-1 1.5-1 1.5v.5h3v-.5s-1 .06-1-1.5v-2.2s1.5-.16 1.5 1.2H7v-2H2v2zm6 1h10v-1H8" fill="#97B8DA" mask="url(#I)"/><path d="M110 619h16v-10h-16v10zm-1 1h18v-12h-18v12z" fill="#1FCD8F" mask="url(#I)"/><path fill="#1FCD8F" mask="url(#I)" d="M111 618h12l-6-6m4 0c0 1.1.9 2 2 2s2-.9 2-2-.9-2-2-2-2 .9-2 2"/><path d="M110 623h.5c0-1.33 1.5-1.2 1.5-1.2v2.2c0 1.55-1 1.5-1 1.5v.5h3v-.5s-1 .06-1-1.5v-2.2s1.5-.16 1.5 1.2h.5v-2h-5v2zm6 1h10v-1h-10" fill="#97B8DA" mask="url(#I)"/><path d="M110 657h16v-10h-16v10zm-1 1h18v-12h-18v12z" fill="#1FCD8F" mask="url(#I)"/><path fill="#1FCD8F" mask="url(#I)" d="M111 656h12l-6-6m4 0c0 1.1.9 2 2 2s2-.9 2-2-.9-2-2-2-2 .9-2 2"/><path d="M110 642h.5c0-1.33 1.5-1.2 1.5-1.2v2.2c0 1.55-1 1.5-1 1.5v.5h3v-.5s-1 .06-1-1.5v-2.2s1.5-.16 1.5 1.2h.5v-2h-5v2zm6 1h10v-1h-10" fill="#97B8DA" mask="url(#I)"/><path d="M110 497h16v-16h-16v16zm-1 1h18v-18h-18v18z" fill="#1FCD8F" mask="url(#I)"/><path fill="#1FCD8F" mask="url(#I)" d="M111 496h14l-7-10m3-2c0 1.1.9 2 2 2s2-.9 2-2-.9-2-2-2-2 .9-2 2"/><path fill="#97B8DA" mask="url(#I)" d="M109 488h18v-8h-18"/><path d="M111 484h.5c0-1.33 1.5-1.2 1.5-1.2v2.2c0 1.55-1 1.5-1 1.5v.5h3v-.5s-1 .06-1-1.5v-2.2s1.5-.16 1.5 1.2h.5v-2h-5v2zm6 1h8v-1h-8" fill="#21394E" mask="url(#I)"/><path d="M2 529h16v-16H2v16zm-1 1h18v-18H1v18z" fill="#8FA7BF" mask="url(#I)"/><path fill="#8FA7BF" mask="url(#I)" d="M3 528h14l-7-10m3-2c0 1.1.9 2 2 2s2-.9 2-2-.9-2-2-2-2 .9-2 2"/><path fill="#97B8DA" mask="url(#I)" d="M1 530h18v-18H1"/><path d="M3 516h.5c0-1.33 1.5-1.2 1.5-1.2v2.2c0 1.55-1 1.5-1 1.5v.5h3v-.5s-1 .06-1-1.5v-2.2s1.5-.16 1.5 1.2H8v-2H3v2zm6 1h8v-1H9" fill="#21394E" mask="url(#I)"/><path d="M110 529h16v-16h-16v16zm-1 1h18v-18h-18v18z" fill="#1FCD8F" mask="url(#I)"/><path fill="#1FCD8F" mask="url(#I)" d="M111 528h14l-7-10m3-2c0 1.1.9 2 2 2s2-.9 2-2-.9-2-2-2-2 .9-2 2"/><path fill="#97B8DA" mask="url(#I)" d="M109 530h18v-18h-18"/><path d="M111 516h.5c0-1.33 1.5-1.2 1.5-1.2v2.2c0 1.55-1 1.5-1 1.5v.5h3v-.5s-1 .06-1-1.5v-2.2s1.5-.16 1.5 1.2h.5v-2h-5v2zm6 1h8v-1h-8" fill="#21394E" mask="url(#I)"/><path d="M2 561h16v-16H2v16zm-1 1h18v-18H1v18z" fill="#8FA7BF" mask="url(#I)"/><path fill="#8FA7BF" mask="url(#I)" d="M3 560h14l-7-10m3-2c0 1.1.9 2 2 2s2-.9 2-2-.9-2-2-2-2 .9-2 2"/><path fill="#97B8DA" mask="url(#I)" d="M1 562h18v-18H1"/><path d="M3 552h.5c0-1.33 1.5-1.2 1.5-1.2v2.2c0 1.55-1 1.5-1 1.5v.5h3v-.5s-1 .06-1-1.5v-2.2s1.5-.16 1.5 1.2H8v-2H3v2zm6 1h8v-1H9" fill="#21394E" mask="url(#I)"/><path d="M110 561h16v-16h-16v16zm-1 1h18v-18h-18v18z" fill="#1FCD8F" mask="url(#I)"/><path fill="#1FCD8F" mask="url(#I)" d="M111 560h14l-7-10m3-2c0 1.1.9 2 2 2s2-.9 2-2-.9-2-2-2-2 .9-2 2"/><path fill="#97B8DA" mask="url(#I)" d="M109 562h18v-18h-18"/><path d="M111 552h.5c0-1.33 1.5-1.2 1.5-1.2v2.2c0 1.55-1 1.5-1 1.5v.5h3v-.5s-1 .06-1-1.5v-2.2s1.5-.16 1.5 1.2h.5v-2h-5v2zm6 1h8v-1h-8" fill="#21394E" mask="url(#I)"/><path d="M2 593h16v-16H2v16zm-1 1h18v-18H1v18z" fill="#8FA7BF" mask="url(#I)"/><path fill="#8FA7BF" mask="url(#I)" d="M3 592h14l-7-10m3-2c0 1.1.9 2 2 2s2-.9 2-2-.9-2-2-2-2 .9-2 2"/><path fill="#97B8DA" mask="url(#I)" d="M1 594h18v-18H1"/><path d="M3 589h.5c0-1.33 1.5-1.2 1.5-1.2v2.2c0 1.55-1 1.5-1 1.5v.5h3v-.5s-1 .06-1-1.5v-2.2s1.5-.16 1.5 1.2H8v-2H3v2zm6 1h8v-1H9" fill="#21394E" mask="url(#I)"/><path d="M110 593h16v-16h-16v16zm-1 1h18v-18h-18v18z" fill="#1FCD8F" mask="url(#I)"/><path fill="#1FCD8F" mask="url(#I)" d="M111 592h14l-7-10m3-2c0 1.1.9 2 2 2s2-.9 2-2-.9-2-2-2-2 .9-2 2"/><path fill="#97B8DA" mask="url(#I)" d="M109 594h18v-18h-18"/><path d="M111 589h.5c0-1.33 1.5-1.2 1.5-1.2v2.2c0 1.55-1 1.5-1 1.5v.5h3v-.5s-1 .06-1-1.5v-2.2s1.5-.16 1.5 1.2h.5v-2h-5v2zm6 1h8v-1h-8" fill="#21394E" mask="url(#I)"/><path d="M110 465h16v-16h-16v16zm-1 1h18v-18h-18v18z" fill="#1FCD8F" mask="url(#I)"/><path fill="#1FCD8F" mask="url(#I)" d="M111 464h14l-7-10m3-2c0 1.1.9 2 2 2s2-.9 2-2-.9-2-2-2-2 .9-2 2"/><path fill="#97B8DA" mask="url(#I)" d="M109 466h18v-7h-18"/><path d="M111 462h.5c0-1.33 1.5-1.2 1.5-1.2v2.2c0 1.55-1 1.5-1 1.5v.5h3v-.5s-1 .06-1-1.5v-2.2s1.5-.16 1.5 1.2h.5v-2h-5v2zm6 1h8v-1h-8" fill="#21394E" mask="url(#I)"/><path d="M2 679c-1.1 0-2 .9-2 2s.9 2 2 2 2-.9 2-2-.9-2-2-2m8 0c-1.1 0-2 .9-2 2s.9 2 2 2 2-.9 2-2-.9-2-2-2m8 0c-1.1 0-2 .9-2 2s.9 2 2 2 2-.9 2-2-.9-2-2-2" fill="#97B8DA" mask="url(#I)"/><path d="M110 679c-1.1 0-2 .9-2 2s.9 2 2 2 2-.9 2-2-.9-2-2-2m8 0c-1.1 0-2 .9-2 2s.9 2 2 2 2-.9 2-2-.9-2-2-2m8 0c-1.1 0-2 .9-2 2s.9 2 2 2 2-.9 2-2-.9-2-2-2" fill="#1FCD8F" mask="url(#I)"/><path d="M17 706c-2-2-3-1-3-1l-1 1 4 4 1-1s1-1-1-3m-3 5v1l-7 6H6v-1l7-6h1zm-10 5v-1l7-6h1v1l-7 6H4zm1 3H3v-2h1v1h1v1zm-2-4l-2 6 6-2 9-8-4-4-9 8z" fill="#97B8DA" mask="url(#I)"/><path d="M125 706c-2-2-3-1-3-1l-1 1 4 4 1-1s1-1-1-3m-3 5v1l-7 6h-1v-1l7-6h1zm-10 5v-1l7-6h1v1l-7 6h-1zm1 3h-2v-2h1v1h1v1zm-2-4l-2 6 6-2 9-8-4-4-9 8z" fill="#1FCD8F" mask="url(#I)"/><path fill="#97B8DA" mask="url(#I)" d="M13 743l2-2 2 2v-5h-5l2 2-2 2m5 10v-5l-2 2-2-2-1 1 2 2-2 2m-6-2l2-2-1-1-2 2-2-2v5h5m-1-9l1-1-2-2 2-2H3v5l2-2"/><path d="M2 753h16v-16H2v16zm-1 1h18v-18H1v18z" fill="#97B8DA" mask="url(#I)"/><path fill="#1FCD8F" mask="url(#I)" d="M120 738l2 2-2 2 1 1 2-2 2 2v-5m-4 9l-1 1 2 2-2 2h5v-5l-2 2m-8-2l-2 2-2-2v5h5l-2-2 2-2m-5-10v5l2-2 2 2 1-1-2-2 2-2"/><path d="M110 753h16v-16h-16v16zm-1 1h18v-18h-18v18z" fill="#97B8DA" mask="url(#I)"/><path d="M2 17h10V1H2v16zm-1 1h12V0H1v18z" fill="#8FA7BF" mask="url(#I)"/><path fill="#8FA7BF" mask="url(#I)" d="M10 16h1v-4L9 9l-1.9 2.65L4 7 3 9v7h1M9 6c1.1 0 2-.9 2-2s-.9-2-2-2-2 .9-2 2 .9 2 2 2"/><path d="M14 4h.5c0-1.33 1.5-1.2 1.5-1.2V5c0 1.55-1 1.5-1 1.5V7h3v-.5s-1 .06-1-1.5V2.8s1.5-.16 1.5 1.2h.5V2h-5v2zm0 6h5V9h-5m0 3h5v-1h-5m0 3h5v-1h-5m0 3h3v-1h-3" fill="#97B8DA" mask="url(#I)"/><path d="M110 17h10V1h-10v16zm-1 1h12V0h-12v18z" fill="#1FCD8F" mask="url(#I)"/><path fill="#1FCD8F" mask="url(#I)" d="M118 16h1v-4l-2-3-1.9 2.65L112 7l-1 2v7h1m5-10c1.1 0 2-.9 2-2s-.9-2-2-2-2 .9-2 2 .9 2 2 2"/><path d="M122 4h.5c0-1.33 1.5-1.2 1.5-1.2V5c0 1.55-1 1.5-1 1.5V7h3v-.5s-1 .06-1-1.5V2.8s1.5-.16 1.5 1.2h.5V2h-5v2zm0 6h5V9h-5m0 3h5v-1h-5m0 3h5v-1h-5m0 3h3v-1h-3" fill="#97B8DA" mask="url(#I)"/><path d="M8 785h10v-16H8v16zm-1 1h12v-18H7v18z" fill="#8FA7BF" mask="url(#I)"/><path fill="#8FA7BF" mask="url(#I)" d="M16 784h1v-4l-2-3-1.9 2.65L10 775l-1 2v7h1m5-10c1.1 0 2-.9 2-2s-.9-2-2-2-2 .9-2 2 .9 2 2 2"/><path d="M1 772h.5c0-1.33 1.5-1.2 1.5-1.2v2.2c0 1.55-1 1.5-1 1.5v.5h3v-.5s-1 .06-1-1.5v-2.2s1.5-.16 1.5 1.2H6v-2H1v2zm0 6h5v-1H1m0 3h5v-1H1m0 3h5v-1H1m0 3h3v-1H1" fill="#97B8DA" mask="url(#I)"/><path d="M116 785h10v-16h-10v16zm-1 1h12v-18h-12v18z" fill="#1FCD8F" mask="url(#I)"/><path fill="#1FCD8F" mask="url(#I)" d="M124 784h1v-4l-2-3-1.9 2.65L118 775l-1 2v7h1m5-10c1.1 0 2-.9 2-2s-.9-2-2-2-2 .9-2 2 .9 2 2 2"/><path d="M109 772h.5c0-1.33 1.5-1.2 1.5-1.2v2.2c0 1.55-1 1.5-1 1.5v.5h3v-.5s-1 .06-1-1.5v-2.2s1.5-.16 1.5 1.2h.5v-2h-5v2zm0 6h5v-1h-5m0 3h5v-1h-5m0 3h5v-1h-5m0 3h3v-1h-3M8 48h1V34H8m2 14h1V34h-1m3 4v6l3-3M6 44v-6l-3 3m107-8v6h1s0-3 2-3h3v10c0 2-3 2-3 2v1h10v-1s-3 0-3-2V36h3c2 0 2 3 2 3h1v-6h-16z" fill="#97B8DA" mask="url(#I)"/><path d="M3 815h9v-8H3v8zm-1 1h11v-10H2v10z" fill="#21394E" mask="url(#I)"/><path fill="#21394E" mask="url(#I)" d="M11 814l-3-4-3 4m0-4c.55 0 1-.45 1-1s-.45-1-1-1-1 .45-1 1 .45 1 1 1m12-4v-5h-5v1h3l-2 2v1h1l2-2v3m-5-6h1v-1h-1m2 1h1v-1h-1m-4 1h1v-1H9m-4 1h1v-1H5m2 1h1v-1H7m-2 19h1v-1H5m-2 1h1v-1H3m0-17h1v-1H3m-3 4h1v-1H0m17-3v1h1v1h1v-2m-19 6h1v-1H0m0 5h1v-1H0m0 3h1v-1H0m0 3h1v-1H0m0-5h1v-1H0m0 9h1v-1H0m18-7h1v-1h-1m0-1h1v-1h-1m0-1h1v-1h-1m0 7h1v-1h-1m-17-8h1v-1H0v2h1m17 16h-1v1h2v-2h-1m0-5h1v-1h-1m-17 6H0v2h2v-1H1m6 1h1v-1H7m4 1h1v-1h-1m2 1h1v-1h-1m-4 1h1v-1H9m6 1h1v-1h-1m3-2h1v-1h-1m0-1h1v-1h-1m-3-12h1v-1h-1m95 18h16v-16h-16v16zm-1 1h18v-18h-18v18z"/><path fill="#21394E" mask="url(#I)" d="M125 815l-4-6-2 3-3-5-5 8h6m5-8c1.1 0 2-.9 2-2s-.9-2-2-2-2 .9-2 2 .9 2 2 2"/><path d="M12 846H8v-5H4l6-6 6 6h-4v5zm-2-14c-4.97 0-9 4.03-9 9s4.03 9 9 9 9-4.03 9-9-4.03-9-9-9z" fill="#FFF" mask="url(#I)"/><path fill="#97B8DA" mask="url(#I)" d="M5 866h14v-1H5m0 16h14v-1H5m9-11h5v-1h-5m0 4h5v-1h-5m0 4h5v-1h-5m0 4h5v-1h-5m-4.5-5c-.83 0-1.5-.67-1.5-1.5s.67-1.5 1.5-1.5 1.5.67 1.5 1.5-.67 1.5-1.5 1.5zM2 877l4.5-5 4.5 5H2zm-1 1h11v-10H1v10z"/><path fill="#1FCD8F" mask="url(#I)" d="M113 866h14v-1h-14m0 16h14v-1h-14m9-11h5v-1h-5m0 4h5v-1h-5m0 4h5v-1h-5m0 4h5v-1h-5m-4.5-5c-.83 0-1.5-.67-1.5-1.5s.67-1.5 1.5-1.5 1.5.67 1.5 1.5-.67 1.5-1.5 1.5zm-7.5 5l4.5-5 4.5 5h-9zm-1 1h11v-10h-11v10z"/><path d="M128 337h-20v-16h20v16zm0-18h-20c-1 0-2 1-2 2v16c0 1 1 2 2 2h20c1 0 2-1 2-2v-16c0-1-1-2-2-2z" fill="#01A773" mask="url(#I)"/><path fill="#01A773" mask="url(#I)" d="M122 330l-2 3-5-7-5 9h16m-1.5-9c.83 0 1.5-.67 1.5-1.5s-.67-1.5-1.5-1.5-1.5.67-1.5 1.5.67 1.5 1.5 1.5"/></g></g></svg>